<svg width="708" height="606" viewBox="0 0 708 606" fill="none" xmlns="http://www.w3.org/2000/svg">
<rect x="0.5" y="0.5" width="707" height="605" rx="23.5" fill="url(#paint0_linear_2971_2997)"/>
<rect x="0.5" y="0.5" width="707" height="605" rx="23.5" stroke="url(#paint1_linear_2971_2997)"/>
<rect x="28.5" y="28.5" width="311" height="260" rx="15.5" fill="#CDCDCD"/>
<rect x="28.5" y="28.5" width="311" height="260" rx="15.5" stroke="url(#paint2_linear_2971_2997)"/>
<rect x="76" y="108" width="216" height="101" rx="8" fill="#E0E0E0"/>
<path d="M145.475 150.98C144.967 150.915 144.459 150.909 143.951 150.961C143.443 151 142.936 151.052 142.428 151.117C141.933 151.182 141.432 151.247 140.924 151.312C140.416 151.365 139.908 151.371 139.4 151.332C139.257 151.319 139.107 151.286 138.951 151.234C138.808 151.182 138.749 151.046 138.775 150.824C138.788 150.681 138.86 150.538 138.99 150.395C139.12 150.251 139.257 150.186 139.4 150.199L145.279 149.848C145.292 149.783 145.318 149.691 145.357 149.574C145.396 149.444 145.449 149.32 145.514 149.203C145.579 149.086 145.657 148.988 145.748 148.91C145.839 148.819 145.943 148.78 146.061 148.793C146.23 148.806 146.36 148.865 146.451 148.969C146.555 149.06 146.64 149.164 146.705 149.281C146.77 149.385 146.829 149.483 146.881 149.574C146.933 149.665 146.998 149.717 147.076 149.73C149.173 149.73 151.327 149.691 153.541 149.613C153.58 149.613 153.684 149.62 153.854 149.633C154.023 149.633 154.14 149.639 154.205 149.652C154.283 149.874 154.199 150.049 153.951 150.18C153.717 150.297 153.372 150.388 152.916 150.453C152.473 150.518 151.965 150.564 151.393 150.59C150.82 150.616 150.247 150.635 149.674 150.648C149.114 150.661 148.58 150.681 148.072 150.707C147.577 150.733 147.187 150.772 146.9 150.824C146.796 151.501 146.738 152.23 146.725 153.012C146.712 153.793 146.712 154.6 146.725 155.434C146.751 156.267 146.79 157.113 146.842 157.973C146.894 158.832 146.939 159.678 146.979 160.512C147.031 161.345 147.063 162.152 147.076 162.934C147.089 163.715 147.07 164.444 147.018 165.121C147.096 165.538 147.057 165.779 146.9 165.844C146.757 165.896 146.477 165.889 146.061 165.824C145.956 165.29 145.878 164.646 145.826 163.891C145.774 163.122 145.735 162.296 145.709 161.41C145.683 160.512 145.67 159.587 145.67 158.637C145.67 157.673 145.663 156.729 145.65 155.805C145.637 154.88 145.618 154.008 145.592 153.188C145.579 152.354 145.54 151.618 145.475 150.98ZM158.385 165.766C158.424 165.323 158.456 164.763 158.482 164.086C158.508 163.409 158.515 162.686 158.502 161.918C158.502 161.15 158.482 160.382 158.443 159.613C158.404 158.832 158.339 158.129 158.248 157.504C158.17 156.879 158.059 156.365 157.916 155.961C157.786 155.544 157.623 155.316 157.428 155.277C157.011 155.147 156.607 155.186 156.217 155.395C155.839 155.59 155.481 155.909 155.143 156.352C154.804 156.781 154.492 157.302 154.205 157.914C153.919 158.513 153.652 159.151 153.404 159.828C153.17 160.492 152.955 161.163 152.76 161.84C152.577 162.504 152.428 163.116 152.311 163.676C152.193 164.236 152.102 164.717 152.037 165.121C151.985 165.512 151.965 165.766 151.979 165.883C151.887 165.883 151.77 165.902 151.627 165.941C151.497 165.967 151.367 165.987 151.236 166C151.106 166.026 150.989 166.026 150.885 166C150.794 165.961 150.748 165.876 150.748 165.746L150.416 149.672C150.416 149.555 150.468 149.483 150.572 149.457C150.676 149.418 150.794 149.405 150.924 149.418C151.054 149.431 151.178 149.464 151.295 149.516C151.412 149.568 151.49 149.62 151.529 149.672L151.627 162.016C151.705 161.794 151.803 161.436 151.92 160.941C152.05 160.447 152.213 159.893 152.408 159.281C152.604 158.669 152.844 158.044 153.131 157.406C153.417 156.755 153.762 156.176 154.166 155.668C154.583 155.147 155.071 154.737 155.631 154.438C156.204 154.138 156.861 154.021 157.604 154.086C157.838 154.216 158.046 154.385 158.229 154.594C158.424 154.789 158.593 155.069 158.736 155.434C158.893 155.785 159.023 156.234 159.127 156.781C159.244 157.328 159.342 158.012 159.42 158.832C159.498 159.652 159.557 160.635 159.596 161.781C159.648 162.927 159.68 164.268 159.693 165.805C159.654 165.896 159.576 165.98 159.459 166.059C159.342 166.15 159.212 166.208 159.068 166.234C158.938 166.26 158.808 166.241 158.678 166.176C158.548 166.111 158.45 165.974 158.385 165.766ZM160.67 154.008C160.748 153.969 160.839 153.936 160.943 153.91C161.048 153.884 161.145 153.871 161.236 153.871C161.34 153.871 161.438 153.891 161.529 153.93C161.62 153.969 161.692 154.04 161.744 154.145C161.744 154.991 161.751 155.909 161.764 156.898C161.79 157.875 161.816 158.871 161.842 159.887C161.881 160.889 161.913 161.879 161.939 162.855C161.965 163.832 161.992 164.737 162.018 165.57C162.031 165.766 161.979 165.915 161.861 166.02C161.744 166.124 161.614 166.176 161.471 166.176C161.34 166.176 161.217 166.124 161.1 166.02C160.982 165.928 160.924 165.779 160.924 165.57L160.67 154.008ZM160.436 150.023C160.436 149.854 160.494 149.743 160.611 149.691C160.729 149.626 160.859 149.594 161.002 149.594C161.288 149.594 161.464 149.691 161.529 149.887C161.607 150.069 161.646 150.284 161.646 150.531C161.568 150.688 161.464 150.798 161.334 150.863C161.204 150.928 161.067 150.941 160.924 150.902C160.794 150.863 160.676 150.772 160.572 150.629C160.481 150.486 160.436 150.284 160.436 150.023ZM163.385 164.594C163.632 164.789 163.932 164.893 164.283 164.906C164.648 164.919 165.025 164.874 165.416 164.77C165.82 164.652 166.223 164.49 166.627 164.281C167.044 164.06 167.421 163.819 167.76 163.559C168.111 163.298 168.411 163.025 168.658 162.738C168.919 162.439 169.094 162.159 169.186 161.898C169.277 161.625 169.27 161.378 169.166 161.156C169.062 160.935 168.827 160.759 168.463 160.629C167.799 160.785 167.135 160.909 166.471 161C165.807 161.091 165.208 161.091 164.674 161C164.153 160.909 163.73 160.694 163.404 160.355C163.079 160.017 162.929 159.496 162.955 158.793C162.994 158.116 163.176 157.484 163.502 156.898C163.84 156.299 164.264 155.792 164.771 155.375C165.292 154.958 165.865 154.639 166.49 154.418C167.128 154.197 167.773 154.105 168.424 154.145C168.554 154.158 168.671 154.171 168.775 154.184C168.893 154.184 168.997 154.203 169.088 154.242C169.179 154.281 169.244 154.34 169.283 154.418C169.335 154.496 169.355 154.613 169.342 154.77C169.329 154.965 169.257 155.121 169.127 155.238C168.997 155.355 168.821 155.401 168.6 155.375C167.831 155.219 167.141 155.251 166.529 155.473C165.917 155.694 165.41 156.007 165.006 156.41C164.602 156.801 164.316 157.243 164.146 157.738C163.977 158.233 163.951 158.682 164.068 159.086C164.316 159.555 164.635 159.854 165.025 159.984C165.429 160.102 165.852 160.141 166.295 160.102C166.751 160.062 167.213 159.997 167.682 159.906C168.15 159.802 168.574 159.77 168.951 159.809C169.329 159.835 169.641 159.978 169.889 160.238C170.136 160.486 170.273 160.948 170.299 161.625C170.286 162.055 170.143 162.471 169.869 162.875C169.596 163.266 169.244 163.637 168.814 163.988C168.398 164.327 167.929 164.639 167.408 164.926C166.887 165.199 166.367 165.427 165.846 165.609C165.338 165.792 164.856 165.915 164.4 165.98C163.958 166.046 163.6 166.039 163.326 165.961C163.027 165.701 162.87 165.447 162.857 165.199C162.844 164.939 163.02 164.737 163.385 164.594ZM181.236 154.008C181.314 153.969 181.406 153.936 181.51 153.91C181.614 153.884 181.712 153.871 181.803 153.871C181.907 153.871 182.005 153.891 182.096 153.93C182.187 153.969 182.258 154.04 182.311 154.145C182.311 154.991 182.317 155.909 182.33 156.898C182.356 157.875 182.382 158.871 182.408 159.887C182.447 160.889 182.48 161.879 182.506 162.855C182.532 163.832 182.558 164.737 182.584 165.57C182.597 165.766 182.545 165.915 182.428 166.02C182.311 166.124 182.18 166.176 182.037 166.176C181.907 166.176 181.783 166.124 181.666 166.02C181.549 165.928 181.49 165.779 181.49 165.57L181.236 154.008ZM181.002 150.023C181.002 149.854 181.061 149.743 181.178 149.691C181.295 149.626 181.425 149.594 181.568 149.594C181.855 149.594 182.031 149.691 182.096 149.887C182.174 150.069 182.213 150.284 182.213 150.531C182.135 150.688 182.031 150.798 181.9 150.863C181.77 150.928 181.633 150.941 181.49 150.902C181.36 150.863 181.243 150.772 181.139 150.629C181.048 150.486 181.002 150.284 181.002 150.023ZM183.951 164.594C184.199 164.789 184.498 164.893 184.85 164.906C185.214 164.919 185.592 164.874 185.982 164.77C186.386 164.652 186.79 164.49 187.193 164.281C187.61 164.06 187.988 163.819 188.326 163.559C188.678 163.298 188.977 163.025 189.225 162.738C189.485 162.439 189.661 162.159 189.752 161.898C189.843 161.625 189.837 161.378 189.732 161.156C189.628 160.935 189.394 160.759 189.029 160.629C188.365 160.785 187.701 160.909 187.037 161C186.373 161.091 185.774 161.091 185.24 161C184.719 160.909 184.296 160.694 183.971 160.355C183.645 160.017 183.495 159.496 183.521 158.793C183.561 158.116 183.743 157.484 184.068 156.898C184.407 156.299 184.83 155.792 185.338 155.375C185.859 154.958 186.432 154.639 187.057 154.418C187.695 154.197 188.339 154.105 188.99 154.145C189.12 154.158 189.238 154.171 189.342 154.184C189.459 154.184 189.563 154.203 189.654 154.242C189.745 154.281 189.811 154.34 189.85 154.418C189.902 154.496 189.921 154.613 189.908 154.77C189.895 154.965 189.824 155.121 189.693 155.238C189.563 155.355 189.387 155.401 189.166 155.375C188.398 155.219 187.708 155.251 187.096 155.473C186.484 155.694 185.976 156.007 185.572 156.41C185.169 156.801 184.882 157.243 184.713 157.738C184.544 158.233 184.518 158.682 184.635 159.086C184.882 159.555 185.201 159.854 185.592 159.984C185.995 160.102 186.419 160.141 186.861 160.102C187.317 160.062 187.779 159.997 188.248 159.906C188.717 159.802 189.14 159.77 189.518 159.809C189.895 159.835 190.208 159.978 190.455 160.238C190.702 160.486 190.839 160.948 190.865 161.625C190.852 162.055 190.709 162.471 190.436 162.875C190.162 163.266 189.811 163.637 189.381 163.988C188.964 164.327 188.495 164.639 187.975 164.926C187.454 165.199 186.933 165.427 186.412 165.609C185.904 165.792 185.423 165.915 184.967 165.98C184.524 166.046 184.166 166.039 183.893 165.961C183.593 165.701 183.437 165.447 183.424 165.199C183.411 164.939 183.587 164.737 183.951 164.594ZM201.471 158.422C201.21 158.435 201.028 158.409 200.924 158.344C200.82 158.279 200.761 158.201 200.748 158.109C200.735 158.005 200.755 157.901 200.807 157.797C200.859 157.68 200.917 157.576 200.982 157.484L203.346 156.43C203.268 155.531 203.222 154.633 203.209 153.734C203.209 152.836 203.287 152.035 203.443 151.332C203.6 150.616 203.854 150.056 204.205 149.652C204.57 149.236 205.077 149.066 205.729 149.145C206.041 149.145 206.334 149.249 206.607 149.457C206.881 149.652 207.115 149.9 207.311 150.199C207.519 150.499 207.682 150.824 207.799 151.176C207.929 151.527 207.994 151.846 207.994 152.133C207.981 152.263 207.936 152.367 207.857 152.445C207.779 152.51 207.695 152.556 207.604 152.582C207.512 152.595 207.415 152.595 207.311 152.582C207.219 152.556 207.148 152.517 207.096 152.465C207.044 151.996 206.959 151.612 206.842 151.312C206.738 151.013 206.614 150.779 206.471 150.609C206.34 150.427 206.204 150.303 206.061 150.238C205.917 150.173 205.794 150.141 205.689 150.141C205.273 150.154 204.96 150.303 204.752 150.59C204.557 150.876 204.42 151.28 204.342 151.801C204.264 152.309 204.231 152.927 204.244 153.656C204.27 154.372 204.303 155.173 204.342 156.059L208.561 154.535C208.704 154.626 208.801 154.743 208.854 154.887C208.906 155.017 208.84 155.219 208.658 155.492L204.42 157.23L205.006 165.727C204.98 165.831 204.915 165.922 204.811 166C204.706 166.065 204.589 166.104 204.459 166.117C204.329 166.143 204.205 166.124 204.088 166.059C203.984 166.007 203.919 165.896 203.893 165.727L203.443 157.582L201.471 158.422ZM209.107 154.008C209.186 153.969 209.277 153.936 209.381 153.91C209.485 153.884 209.583 153.871 209.674 153.871C209.778 153.871 209.876 153.891 209.967 153.93C210.058 153.969 210.13 154.04 210.182 154.145C210.182 154.991 210.188 155.909 210.201 156.898C210.227 157.875 210.253 158.871 210.279 159.887C210.318 160.889 210.351 161.879 210.377 162.855C210.403 163.832 210.429 164.737 210.455 165.57C210.468 165.766 210.416 165.915 210.299 166.02C210.182 166.124 210.051 166.176 209.908 166.176C209.778 166.176 209.654 166.124 209.537 166.02C209.42 165.928 209.361 165.779 209.361 165.57L209.107 154.008ZM208.873 150.023C208.873 149.854 208.932 149.743 209.049 149.691C209.166 149.626 209.296 149.594 209.439 149.594C209.726 149.594 209.902 149.691 209.967 149.887C210.045 150.069 210.084 150.284 210.084 150.531C210.006 150.688 209.902 150.798 209.771 150.863C209.641 150.928 209.505 150.941 209.361 150.902C209.231 150.863 209.114 150.772 209.01 150.629C208.919 150.486 208.873 150.284 208.873 150.023ZM211.314 154.359C211.327 154.229 211.38 154.125 211.471 154.047C211.562 153.969 211.666 153.923 211.783 153.91C211.9 153.884 212.018 153.897 212.135 153.949C212.252 153.988 212.35 154.053 212.428 154.145L212.369 161.957C212.617 161.02 212.838 160.095 213.033 159.184C213.242 158.259 213.495 157.426 213.795 156.684C214.094 155.928 214.472 155.31 214.928 154.828C215.383 154.333 215.989 154.053 216.744 153.988C217.148 153.949 217.499 154.073 217.799 154.359C218.098 154.633 218.352 155.01 218.561 155.492C218.782 155.974 218.964 156.54 219.107 157.191C219.251 157.829 219.361 158.5 219.439 159.203C219.531 159.893 219.596 160.59 219.635 161.293C219.674 161.996 219.7 162.647 219.713 163.246C219.726 163.845 219.726 164.372 219.713 164.828C219.713 165.284 219.706 165.616 219.693 165.824C219.602 166.046 219.439 166.189 219.205 166.254C218.984 166.332 218.782 166.241 218.6 165.98C218.587 165.733 218.58 165.31 218.58 164.711C218.58 164.099 218.567 163.402 218.541 162.621C218.528 161.84 218.489 161.026 218.424 160.18C218.372 159.32 218.274 158.533 218.131 157.816C218.001 157.087 217.812 156.482 217.564 156C217.33 155.505 217.024 155.225 216.646 155.16C216.321 155.108 216.002 155.284 215.689 155.688C215.39 156.091 215.097 156.625 214.811 157.289C214.537 157.953 214.277 158.702 214.029 159.535C213.795 160.368 213.58 161.189 213.385 161.996C213.202 162.803 213.046 163.546 212.916 164.223C212.786 164.9 212.701 165.421 212.662 165.785C212.623 165.889 212.545 165.974 212.428 166.039C212.311 166.104 212.18 166.137 212.037 166.137C211.907 166.15 211.77 166.13 211.627 166.078C211.497 166.026 211.399 165.928 211.334 165.785L211.314 154.359ZM221.197 160.785C221.106 160.863 220.943 160.896 220.709 160.883C220.488 160.857 220.279 160.805 220.084 160.727C219.902 160.648 219.778 160.544 219.713 160.414C219.648 160.271 219.726 160.108 219.947 159.926C220.038 159.848 220.136 159.796 220.24 159.77C220.357 159.73 220.468 159.698 220.572 159.672C220.689 159.633 220.781 159.581 220.846 159.516C220.924 159.451 220.969 159.346 220.982 159.203C220.995 158.617 221.041 158.018 221.119 157.406C221.21 156.794 221.373 156.247 221.607 155.766C221.842 155.284 222.174 154.9 222.604 154.613C223.046 154.327 223.626 154.216 224.342 154.281C224.602 154.281 224.895 154.346 225.221 154.477C225.546 154.594 225.859 154.757 226.158 154.965C226.458 155.16 226.718 155.401 226.939 155.688C227.161 155.961 227.298 156.26 227.35 156.586C227.441 156.716 227.389 156.879 227.193 157.074C226.998 157.27 226.725 157.491 226.373 157.738C226.021 157.973 225.624 158.214 225.182 158.461C224.739 158.708 224.309 158.943 223.893 159.164C223.489 159.385 223.131 159.581 222.818 159.75C222.506 159.919 222.304 160.036 222.213 160.102C222.291 160.609 222.376 161.143 222.467 161.703C222.558 162.263 222.688 162.777 222.857 163.246C223.027 163.715 223.235 164.105 223.482 164.418C223.743 164.717 224.068 164.867 224.459 164.867C225.032 164.906 225.52 164.822 225.924 164.613C226.34 164.405 226.686 164.132 226.959 163.793C227.232 163.454 227.447 163.083 227.604 162.68C227.773 162.276 227.896 161.892 227.975 161.527C228.066 161.163 228.124 160.857 228.15 160.609C228.189 160.349 228.222 160.206 228.248 160.18C228.391 160.102 228.554 160.102 228.736 160.18C228.919 160.245 229.023 160.434 229.049 160.746C229.062 161.254 228.951 161.833 228.717 162.484C228.482 163.135 228.157 163.734 227.74 164.281C227.337 164.828 226.848 165.271 226.275 165.609C225.715 165.935 225.117 166.046 224.479 165.941C223.814 165.928 223.287 165.74 222.896 165.375C222.506 164.997 222.193 164.548 221.959 164.027C221.738 163.493 221.575 162.934 221.471 162.348C221.367 161.762 221.275 161.241 221.197 160.785ZM226.314 156.586C225.898 156.013 225.475 155.648 225.045 155.492C224.615 155.336 224.173 155.29 223.717 155.355C223.443 155.395 223.202 155.525 222.994 155.746C222.786 155.954 222.617 156.228 222.486 156.566C222.356 156.892 222.265 157.263 222.213 157.68C222.161 158.083 222.154 158.5 222.193 158.93L226.314 156.586Z" fill="black"/>
<rect x="368.5" y="28.5" width="311" height="260" rx="15.5" fill="#424242"/>
<rect x="368.5" y="28.5" width="311" height="260" rx="15.5" stroke="url(#paint3_linear_2971_2997)"/>
<rect x="416" y="108" width="216" height="101" rx="8" fill="#1F1F1F"/>
<path d="M495.943 150.98C495.436 150.915 494.928 150.909 494.42 150.961C493.912 151 493.404 151.052 492.896 151.117C492.402 151.182 491.9 151.247 491.393 151.312C490.885 151.365 490.377 151.371 489.869 151.332C489.726 151.319 489.576 151.286 489.42 151.234C489.277 151.182 489.218 151.046 489.244 150.824C489.257 150.681 489.329 150.538 489.459 150.395C489.589 150.251 489.726 150.186 489.869 150.199L495.748 149.848C495.761 149.783 495.787 149.691 495.826 149.574C495.865 149.444 495.917 149.32 495.982 149.203C496.048 149.086 496.126 148.988 496.217 148.91C496.308 148.819 496.412 148.78 496.529 148.793C496.699 148.806 496.829 148.865 496.92 148.969C497.024 149.06 497.109 149.164 497.174 149.281C497.239 149.385 497.298 149.483 497.35 149.574C497.402 149.665 497.467 149.717 497.545 149.73C499.641 149.73 501.796 149.691 504.01 149.613C504.049 149.613 504.153 149.62 504.322 149.633C504.492 149.633 504.609 149.639 504.674 149.652C504.752 149.874 504.667 150.049 504.42 150.18C504.186 150.297 503.84 150.388 503.385 150.453C502.942 150.518 502.434 150.564 501.861 150.59C501.288 150.616 500.715 150.635 500.143 150.648C499.583 150.661 499.049 150.681 498.541 150.707C498.046 150.733 497.656 150.772 497.369 150.824C497.265 151.501 497.206 152.23 497.193 153.012C497.18 153.793 497.18 154.6 497.193 155.434C497.219 156.267 497.258 157.113 497.311 157.973C497.363 158.832 497.408 159.678 497.447 160.512C497.499 161.345 497.532 162.152 497.545 162.934C497.558 163.715 497.538 164.444 497.486 165.121C497.564 165.538 497.525 165.779 497.369 165.844C497.226 165.896 496.946 165.889 496.529 165.824C496.425 165.29 496.347 164.646 496.295 163.891C496.243 163.122 496.204 162.296 496.178 161.41C496.152 160.512 496.139 159.587 496.139 158.637C496.139 157.673 496.132 156.729 496.119 155.805C496.106 154.88 496.087 154.008 496.061 153.188C496.048 152.354 496.008 151.618 495.943 150.98ZM508.854 165.766C508.893 165.323 508.925 164.763 508.951 164.086C508.977 163.409 508.984 162.686 508.971 161.918C508.971 161.15 508.951 160.382 508.912 159.613C508.873 158.832 508.808 158.129 508.717 157.504C508.639 156.879 508.528 156.365 508.385 155.961C508.255 155.544 508.092 155.316 507.896 155.277C507.48 155.147 507.076 155.186 506.686 155.395C506.308 155.59 505.95 155.909 505.611 156.352C505.273 156.781 504.96 157.302 504.674 157.914C504.387 158.513 504.12 159.151 503.873 159.828C503.639 160.492 503.424 161.163 503.229 161.84C503.046 162.504 502.896 163.116 502.779 163.676C502.662 164.236 502.571 164.717 502.506 165.121C502.454 165.512 502.434 165.766 502.447 165.883C502.356 165.883 502.239 165.902 502.096 165.941C501.965 165.967 501.835 165.987 501.705 166C501.575 166.026 501.458 166.026 501.354 166C501.262 165.961 501.217 165.876 501.217 165.746L500.885 149.672C500.885 149.555 500.937 149.483 501.041 149.457C501.145 149.418 501.262 149.405 501.393 149.418C501.523 149.431 501.646 149.464 501.764 149.516C501.881 149.568 501.959 149.62 501.998 149.672L502.096 162.016C502.174 161.794 502.271 161.436 502.389 160.941C502.519 160.447 502.682 159.893 502.877 159.281C503.072 158.669 503.313 158.044 503.6 157.406C503.886 156.755 504.231 156.176 504.635 155.668C505.051 155.147 505.54 154.737 506.1 154.438C506.673 154.138 507.33 154.021 508.072 154.086C508.307 154.216 508.515 154.385 508.697 154.594C508.893 154.789 509.062 155.069 509.205 155.434C509.361 155.785 509.492 156.234 509.596 156.781C509.713 157.328 509.811 158.012 509.889 158.832C509.967 159.652 510.025 160.635 510.064 161.781C510.117 162.927 510.149 164.268 510.162 165.805C510.123 165.896 510.045 165.98 509.928 166.059C509.811 166.15 509.68 166.208 509.537 166.234C509.407 166.26 509.277 166.241 509.146 166.176C509.016 166.111 508.919 165.974 508.854 165.766ZM511.139 154.008C511.217 153.969 511.308 153.936 511.412 153.91C511.516 153.884 511.614 153.871 511.705 153.871C511.809 153.871 511.907 153.891 511.998 153.93C512.089 153.969 512.161 154.04 512.213 154.145C512.213 154.991 512.219 155.909 512.232 156.898C512.258 157.875 512.285 158.871 512.311 159.887C512.35 160.889 512.382 161.879 512.408 162.855C512.434 163.832 512.46 164.737 512.486 165.57C512.499 165.766 512.447 165.915 512.33 166.02C512.213 166.124 512.083 166.176 511.939 166.176C511.809 166.176 511.686 166.124 511.568 166.02C511.451 165.928 511.393 165.779 511.393 165.57L511.139 154.008ZM510.904 150.023C510.904 149.854 510.963 149.743 511.08 149.691C511.197 149.626 511.327 149.594 511.471 149.594C511.757 149.594 511.933 149.691 511.998 149.887C512.076 150.069 512.115 150.284 512.115 150.531C512.037 150.688 511.933 150.798 511.803 150.863C511.673 150.928 511.536 150.941 511.393 150.902C511.262 150.863 511.145 150.772 511.041 150.629C510.95 150.486 510.904 150.284 510.904 150.023ZM513.854 164.594C514.101 164.789 514.4 164.893 514.752 164.906C515.117 164.919 515.494 164.874 515.885 164.77C516.288 164.652 516.692 164.49 517.096 164.281C517.512 164.06 517.89 163.819 518.229 163.559C518.58 163.298 518.88 163.025 519.127 162.738C519.387 162.439 519.563 162.159 519.654 161.898C519.745 161.625 519.739 161.378 519.635 161.156C519.531 160.935 519.296 160.759 518.932 160.629C518.268 160.785 517.604 160.909 516.939 161C516.275 161.091 515.676 161.091 515.143 161C514.622 160.909 514.199 160.694 513.873 160.355C513.548 160.017 513.398 159.496 513.424 158.793C513.463 158.116 513.645 157.484 513.971 156.898C514.309 156.299 514.732 155.792 515.24 155.375C515.761 154.958 516.334 154.639 516.959 154.418C517.597 154.197 518.242 154.105 518.893 154.145C519.023 154.158 519.14 154.171 519.244 154.184C519.361 154.184 519.465 154.203 519.557 154.242C519.648 154.281 519.713 154.34 519.752 154.418C519.804 154.496 519.824 154.613 519.811 154.77C519.798 154.965 519.726 155.121 519.596 155.238C519.465 155.355 519.29 155.401 519.068 155.375C518.3 155.219 517.61 155.251 516.998 155.473C516.386 155.694 515.878 156.007 515.475 156.41C515.071 156.801 514.785 157.243 514.615 157.738C514.446 158.233 514.42 158.682 514.537 159.086C514.785 159.555 515.104 159.854 515.494 159.984C515.898 160.102 516.321 160.141 516.764 160.102C517.219 160.062 517.682 159.997 518.15 159.906C518.619 159.802 519.042 159.77 519.42 159.809C519.798 159.835 520.11 159.978 520.357 160.238C520.605 160.486 520.742 160.948 520.768 161.625C520.755 162.055 520.611 162.471 520.338 162.875C520.064 163.266 519.713 163.637 519.283 163.988C518.867 164.327 518.398 164.639 517.877 164.926C517.356 165.199 516.835 165.427 516.314 165.609C515.807 165.792 515.325 165.915 514.869 165.98C514.426 166.046 514.068 166.039 513.795 165.961C513.495 165.701 513.339 165.447 513.326 165.199C513.313 164.939 513.489 164.737 513.854 164.594ZM531.705 154.008C531.783 153.969 531.874 153.936 531.979 153.91C532.083 153.884 532.18 153.871 532.271 153.871C532.376 153.871 532.473 153.891 532.564 153.93C532.656 153.969 532.727 154.04 532.779 154.145C532.779 154.991 532.786 155.909 532.799 156.898C532.825 157.875 532.851 158.871 532.877 159.887C532.916 160.889 532.949 161.879 532.975 162.855C533.001 163.832 533.027 164.737 533.053 165.57C533.066 165.766 533.014 165.915 532.896 166.02C532.779 166.124 532.649 166.176 532.506 166.176C532.376 166.176 532.252 166.124 532.135 166.02C532.018 165.928 531.959 165.779 531.959 165.57L531.705 154.008ZM531.471 150.023C531.471 149.854 531.529 149.743 531.646 149.691C531.764 149.626 531.894 149.594 532.037 149.594C532.324 149.594 532.499 149.691 532.564 149.887C532.643 150.069 532.682 150.284 532.682 150.531C532.604 150.688 532.499 150.798 532.369 150.863C532.239 150.928 532.102 150.941 531.959 150.902C531.829 150.863 531.712 150.772 531.607 150.629C531.516 150.486 531.471 150.284 531.471 150.023ZM534.42 164.594C534.667 164.789 534.967 164.893 535.318 164.906C535.683 164.919 536.061 164.874 536.451 164.77C536.855 164.652 537.258 164.49 537.662 164.281C538.079 164.06 538.456 163.819 538.795 163.559C539.146 163.298 539.446 163.025 539.693 162.738C539.954 162.439 540.13 162.159 540.221 161.898C540.312 161.625 540.305 161.378 540.201 161.156C540.097 160.935 539.863 160.759 539.498 160.629C538.834 160.785 538.17 160.909 537.506 161C536.842 161.091 536.243 161.091 535.709 161C535.188 160.909 534.765 160.694 534.439 160.355C534.114 160.017 533.964 159.496 533.99 158.793C534.029 158.116 534.212 157.484 534.537 156.898C534.876 156.299 535.299 155.792 535.807 155.375C536.327 154.958 536.9 154.639 537.525 154.418C538.163 154.197 538.808 154.105 539.459 154.145C539.589 154.158 539.706 154.171 539.811 154.184C539.928 154.184 540.032 154.203 540.123 154.242C540.214 154.281 540.279 154.34 540.318 154.418C540.37 154.496 540.39 154.613 540.377 154.77C540.364 154.965 540.292 155.121 540.162 155.238C540.032 155.355 539.856 155.401 539.635 155.375C538.867 155.219 538.176 155.251 537.564 155.473C536.952 155.694 536.445 156.007 536.041 156.41C535.637 156.801 535.351 157.243 535.182 157.738C535.012 158.233 534.986 158.682 535.104 159.086C535.351 159.555 535.67 159.854 536.061 159.984C536.464 160.102 536.887 160.141 537.33 160.102C537.786 160.062 538.248 159.997 538.717 159.906C539.186 159.802 539.609 159.77 539.986 159.809C540.364 159.835 540.676 159.978 540.924 160.238C541.171 160.486 541.308 160.948 541.334 161.625C541.321 162.055 541.178 162.471 540.904 162.875C540.631 163.266 540.279 163.637 539.85 163.988C539.433 164.327 538.964 164.639 538.443 164.926C537.923 165.199 537.402 165.427 536.881 165.609C536.373 165.792 535.891 165.915 535.436 165.98C534.993 166.046 534.635 166.039 534.361 165.961C534.062 165.701 533.906 165.447 533.893 165.199C533.88 164.939 534.055 164.737 534.42 164.594ZM541.998 154.359C542.011 154.229 542.063 154.125 542.154 154.047C542.245 153.969 542.35 153.923 542.467 153.91C542.584 153.884 542.701 153.897 542.818 153.949C542.936 153.988 543.033 154.053 543.111 154.145L543.053 161.957C543.3 161.02 543.521 160.095 543.717 159.184C543.925 158.259 544.179 157.426 544.479 156.684C544.778 155.928 545.156 155.31 545.611 154.828C546.067 154.333 546.673 154.053 547.428 153.988C547.831 153.949 548.183 154.073 548.482 154.359C548.782 154.633 549.036 155.01 549.244 155.492C549.465 155.974 549.648 156.54 549.791 157.191C549.934 157.829 550.045 158.5 550.123 159.203C550.214 159.893 550.279 160.59 550.318 161.293C550.357 161.996 550.383 162.647 550.396 163.246C550.41 163.845 550.41 164.372 550.396 164.828C550.396 165.284 550.39 165.616 550.377 165.824C550.286 166.046 550.123 166.189 549.889 166.254C549.667 166.332 549.465 166.241 549.283 165.98C549.27 165.733 549.264 165.31 549.264 164.711C549.264 164.099 549.251 163.402 549.225 162.621C549.212 161.84 549.173 161.026 549.107 160.18C549.055 159.32 548.958 158.533 548.814 157.816C548.684 157.087 548.495 156.482 548.248 156C548.014 155.505 547.708 155.225 547.33 155.16C547.005 155.108 546.686 155.284 546.373 155.688C546.074 156.091 545.781 156.625 545.494 157.289C545.221 157.953 544.96 158.702 544.713 159.535C544.479 160.368 544.264 161.189 544.068 161.996C543.886 162.803 543.73 163.546 543.6 164.223C543.469 164.9 543.385 165.421 543.346 165.785C543.307 165.889 543.229 165.974 543.111 166.039C542.994 166.104 542.864 166.137 542.721 166.137C542.59 166.15 542.454 166.13 542.311 166.078C542.18 166.026 542.083 165.928 542.018 165.785L541.998 154.359ZM551.998 152.074C552.115 151.944 552.239 151.866 552.369 151.84C552.512 151.801 552.636 151.801 552.74 151.84C552.857 151.879 552.949 151.944 553.014 152.035C553.092 152.113 553.131 152.204 553.131 152.309L553.111 156.254C553.098 156.345 553.04 156.423 552.936 156.488C552.831 156.54 552.714 156.566 552.584 156.566C552.467 156.566 552.35 156.534 552.232 156.469C552.115 156.391 552.037 156.273 551.998 156.117V152.074ZM555.572 156.723L553.775 157.328C553.632 157.289 553.515 157.217 553.424 157.113C553.32 157.009 553.248 156.898 553.209 156.781C553.17 156.664 553.163 156.553 553.189 156.449C553.202 156.345 553.255 156.267 553.346 156.215L555.572 155.375L555.533 149.848C555.572 149.678 555.657 149.555 555.787 149.477C555.917 149.398 556.048 149.366 556.178 149.379C556.321 149.379 556.451 149.424 556.568 149.516C556.686 149.594 556.764 149.698 556.803 149.828C556.777 150.232 556.757 150.661 556.744 151.117C556.731 151.56 556.718 152.009 556.705 152.465C556.705 152.908 556.712 153.344 556.725 153.773C556.738 154.19 556.764 154.574 556.803 154.926L559.83 153.695C560.012 153.643 560.156 153.663 560.26 153.754C560.364 153.832 560.429 153.943 560.455 154.086C560.494 154.216 560.488 154.346 560.436 154.477C560.383 154.607 560.292 154.698 560.162 154.75L556.803 156.273C556.803 156.404 556.809 156.716 556.822 157.211C556.835 157.693 556.848 158.266 556.861 158.93C556.874 159.594 556.887 160.303 556.9 161.059C556.913 161.814 556.92 162.523 556.92 163.188C556.933 163.852 556.939 164.431 556.939 164.926C556.952 165.408 556.959 165.714 556.959 165.844C556.933 166.273 556.809 166.488 556.588 166.488C556.367 166.488 556.126 166.384 555.865 166.176L555.572 156.723Z" fill="white"/>
<rect x="28.5" y="317.5" width="311" height="260" rx="15.5" fill="#1F1F1F"/>
<rect x="28.5" y="317.5" width="311" height="260" rx="15.5" stroke="url(#paint4_linear_2971_2997)"/>
<rect x="76" y="397" width="216" height="101" rx="8" fill="#424242"/>
<path d="M164.527 439.98C164.02 439.915 163.512 439.909 163.004 439.961C162.496 440 161.988 440.052 161.48 440.117C160.986 440.182 160.484 440.247 159.977 440.312C159.469 440.365 158.961 440.371 158.453 440.332C158.31 440.319 158.16 440.286 158.004 440.234C157.861 440.182 157.802 440.046 157.828 439.824C157.841 439.681 157.913 439.538 158.043 439.395C158.173 439.251 158.31 439.186 158.453 439.199L164.332 438.848C164.345 438.783 164.371 438.691 164.41 438.574C164.449 438.444 164.501 438.32 164.566 438.203C164.632 438.086 164.71 437.988 164.801 437.91C164.892 437.819 164.996 437.78 165.113 437.793C165.283 437.806 165.413 437.865 165.504 437.969C165.608 438.06 165.693 438.164 165.758 438.281C165.823 438.385 165.882 438.483 165.934 438.574C165.986 438.665 166.051 438.717 166.129 438.73C168.225 438.73 170.38 438.691 172.594 438.613C172.633 438.613 172.737 438.62 172.906 438.633C173.076 438.633 173.193 438.639 173.258 438.652C173.336 438.874 173.251 439.049 173.004 439.18C172.77 439.297 172.424 439.388 171.969 439.453C171.526 439.518 171.018 439.564 170.445 439.59C169.872 439.616 169.299 439.635 168.727 439.648C168.167 439.661 167.633 439.681 167.125 439.707C166.63 439.733 166.24 439.772 165.953 439.824C165.849 440.501 165.79 441.23 165.777 442.012C165.764 442.793 165.764 443.6 165.777 444.434C165.803 445.267 165.842 446.113 165.895 446.973C165.947 447.832 165.992 448.678 166.031 449.512C166.083 450.345 166.116 451.152 166.129 451.934C166.142 452.715 166.122 453.444 166.07 454.121C166.148 454.538 166.109 454.779 165.953 454.844C165.81 454.896 165.53 454.889 165.113 454.824C165.009 454.29 164.931 453.646 164.879 452.891C164.827 452.122 164.788 451.296 164.762 450.41C164.736 449.512 164.723 448.587 164.723 447.637C164.723 446.673 164.716 445.729 164.703 444.805C164.69 443.88 164.671 443.008 164.645 442.188C164.632 441.354 164.592 440.618 164.527 439.98ZM177.438 454.766C177.477 454.323 177.509 453.763 177.535 453.086C177.561 452.409 177.568 451.686 177.555 450.918C177.555 450.15 177.535 449.382 177.496 448.613C177.457 447.832 177.392 447.129 177.301 446.504C177.223 445.879 177.112 445.365 176.969 444.961C176.839 444.544 176.676 444.316 176.48 444.277C176.064 444.147 175.66 444.186 175.27 444.395C174.892 444.59 174.534 444.909 174.195 445.352C173.857 445.781 173.544 446.302 173.258 446.914C172.971 447.513 172.704 448.151 172.457 448.828C172.223 449.492 172.008 450.163 171.812 450.84C171.63 451.504 171.48 452.116 171.363 452.676C171.246 453.236 171.155 453.717 171.09 454.121C171.038 454.512 171.018 454.766 171.031 454.883C170.94 454.883 170.823 454.902 170.68 454.941C170.549 454.967 170.419 454.987 170.289 455C170.159 455.026 170.042 455.026 169.938 455C169.846 454.961 169.801 454.876 169.801 454.746L169.469 438.672C169.469 438.555 169.521 438.483 169.625 438.457C169.729 438.418 169.846 438.405 169.977 438.418C170.107 438.431 170.23 438.464 170.348 438.516C170.465 438.568 170.543 438.62 170.582 438.672L170.68 451.016C170.758 450.794 170.855 450.436 170.973 449.941C171.103 449.447 171.266 448.893 171.461 448.281C171.656 447.669 171.897 447.044 172.184 446.406C172.47 445.755 172.815 445.176 173.219 444.668C173.635 444.147 174.124 443.737 174.684 443.438C175.257 443.138 175.914 443.021 176.656 443.086C176.891 443.216 177.099 443.385 177.281 443.594C177.477 443.789 177.646 444.069 177.789 444.434C177.945 444.785 178.076 445.234 178.18 445.781C178.297 446.328 178.395 447.012 178.473 447.832C178.551 448.652 178.609 449.635 178.648 450.781C178.701 451.927 178.733 453.268 178.746 454.805C178.707 454.896 178.629 454.98 178.512 455.059C178.395 455.15 178.264 455.208 178.121 455.234C177.991 455.26 177.861 455.241 177.73 455.176C177.6 455.111 177.503 454.974 177.438 454.766ZM179.723 443.008C179.801 442.969 179.892 442.936 179.996 442.91C180.1 442.884 180.198 442.871 180.289 442.871C180.393 442.871 180.491 442.891 180.582 442.93C180.673 442.969 180.745 443.04 180.797 443.145C180.797 443.991 180.803 444.909 180.816 445.898C180.842 446.875 180.868 447.871 180.895 448.887C180.934 449.889 180.966 450.879 180.992 451.855C181.018 452.832 181.044 453.737 181.07 454.57C181.083 454.766 181.031 454.915 180.914 455.02C180.797 455.124 180.667 455.176 180.523 455.176C180.393 455.176 180.27 455.124 180.152 455.02C180.035 454.928 179.977 454.779 179.977 454.57L179.723 443.008ZM179.488 439.023C179.488 438.854 179.547 438.743 179.664 438.691C179.781 438.626 179.911 438.594 180.055 438.594C180.341 438.594 180.517 438.691 180.582 438.887C180.66 439.069 180.699 439.284 180.699 439.531C180.621 439.688 180.517 439.798 180.387 439.863C180.257 439.928 180.12 439.941 179.977 439.902C179.846 439.863 179.729 439.772 179.625 439.629C179.534 439.486 179.488 439.284 179.488 439.023ZM182.438 453.594C182.685 453.789 182.984 453.893 183.336 453.906C183.701 453.919 184.078 453.874 184.469 453.77C184.872 453.652 185.276 453.49 185.68 453.281C186.096 453.06 186.474 452.819 186.812 452.559C187.164 452.298 187.464 452.025 187.711 451.738C187.971 451.439 188.147 451.159 188.238 450.898C188.329 450.625 188.323 450.378 188.219 450.156C188.115 449.935 187.88 449.759 187.516 449.629C186.852 449.785 186.188 449.909 185.523 450C184.859 450.091 184.26 450.091 183.727 450C183.206 449.909 182.783 449.694 182.457 449.355C182.132 449.017 181.982 448.496 182.008 447.793C182.047 447.116 182.229 446.484 182.555 445.898C182.893 445.299 183.316 444.792 183.824 444.375C184.345 443.958 184.918 443.639 185.543 443.418C186.181 443.197 186.826 443.105 187.477 443.145C187.607 443.158 187.724 443.171 187.828 443.184C187.945 443.184 188.049 443.203 188.141 443.242C188.232 443.281 188.297 443.34 188.336 443.418C188.388 443.496 188.408 443.613 188.395 443.77C188.382 443.965 188.31 444.121 188.18 444.238C188.049 444.355 187.874 444.401 187.652 444.375C186.884 444.219 186.194 444.251 185.582 444.473C184.97 444.694 184.462 445.007 184.059 445.41C183.655 445.801 183.368 446.243 183.199 446.738C183.03 447.233 183.004 447.682 183.121 448.086C183.368 448.555 183.688 448.854 184.078 448.984C184.482 449.102 184.905 449.141 185.348 449.102C185.803 449.062 186.266 448.997 186.734 448.906C187.203 448.802 187.626 448.77 188.004 448.809C188.382 448.835 188.694 448.978 188.941 449.238C189.189 449.486 189.326 449.948 189.352 450.625C189.339 451.055 189.195 451.471 188.922 451.875C188.648 452.266 188.297 452.637 187.867 452.988C187.451 453.327 186.982 453.639 186.461 453.926C185.94 454.199 185.419 454.427 184.898 454.609C184.391 454.792 183.909 454.915 183.453 454.98C183.01 455.046 182.652 455.039 182.379 454.961C182.079 454.701 181.923 454.447 181.91 454.199C181.897 453.939 182.073 453.737 182.438 453.594ZM200.289 443.008C200.367 442.969 200.458 442.936 200.562 442.91C200.667 442.884 200.764 442.871 200.855 442.871C200.96 442.871 201.057 442.891 201.148 442.93C201.24 442.969 201.311 443.04 201.363 443.145C201.363 443.991 201.37 444.909 201.383 445.898C201.409 446.875 201.435 447.871 201.461 448.887C201.5 449.889 201.533 450.879 201.559 451.855C201.585 452.832 201.611 453.737 201.637 454.57C201.65 454.766 201.598 454.915 201.48 455.02C201.363 455.124 201.233 455.176 201.09 455.176C200.96 455.176 200.836 455.124 200.719 455.02C200.602 454.928 200.543 454.779 200.543 454.57L200.289 443.008ZM200.055 439.023C200.055 438.854 200.113 438.743 200.23 438.691C200.348 438.626 200.478 438.594 200.621 438.594C200.908 438.594 201.083 438.691 201.148 438.887C201.227 439.069 201.266 439.284 201.266 439.531C201.188 439.688 201.083 439.798 200.953 439.863C200.823 439.928 200.686 439.941 200.543 439.902C200.413 439.863 200.296 439.772 200.191 439.629C200.1 439.486 200.055 439.284 200.055 439.023ZM203.004 453.594C203.251 453.789 203.551 453.893 203.902 453.906C204.267 453.919 204.645 453.874 205.035 453.77C205.439 453.652 205.842 453.49 206.246 453.281C206.663 453.06 207.04 452.819 207.379 452.559C207.73 452.298 208.03 452.025 208.277 451.738C208.538 451.439 208.714 451.159 208.805 450.898C208.896 450.625 208.889 450.378 208.785 450.156C208.681 449.935 208.447 449.759 208.082 449.629C207.418 449.785 206.754 449.909 206.09 450C205.426 450.091 204.827 450.091 204.293 450C203.772 449.909 203.349 449.694 203.023 449.355C202.698 449.017 202.548 448.496 202.574 447.793C202.613 447.116 202.796 446.484 203.121 445.898C203.46 445.299 203.883 444.792 204.391 444.375C204.911 443.958 205.484 443.639 206.109 443.418C206.747 443.197 207.392 443.105 208.043 443.145C208.173 443.158 208.29 443.171 208.395 443.184C208.512 443.184 208.616 443.203 208.707 443.242C208.798 443.281 208.863 443.34 208.902 443.418C208.954 443.496 208.974 443.613 208.961 443.77C208.948 443.965 208.876 444.121 208.746 444.238C208.616 444.355 208.44 444.401 208.219 444.375C207.451 444.219 206.76 444.251 206.148 444.473C205.536 444.694 205.029 445.007 204.625 445.41C204.221 445.801 203.935 446.243 203.766 446.738C203.596 447.233 203.57 447.682 203.688 448.086C203.935 448.555 204.254 448.854 204.645 448.984C205.048 449.102 205.471 449.141 205.914 449.102C206.37 449.062 206.832 448.997 207.301 448.906C207.77 448.802 208.193 448.77 208.57 448.809C208.948 448.835 209.26 448.978 209.508 449.238C209.755 449.486 209.892 449.948 209.918 450.625C209.905 451.055 209.762 451.471 209.488 451.875C209.215 452.266 208.863 452.637 208.434 452.988C208.017 453.327 207.548 453.639 207.027 453.926C206.507 454.199 205.986 454.427 205.465 454.609C204.957 454.792 204.475 454.915 204.02 454.98C203.577 455.046 203.219 455.039 202.945 454.961C202.646 454.701 202.49 454.447 202.477 454.199C202.464 453.939 202.639 453.737 203.004 453.594Z" fill="white"/>
<rect x="368.5" y="317.5" width="311" height="260" rx="15.5" fill="#E0E0E0"/>
<rect x="368.5" y="317.5" width="311" height="260" rx="15.5" stroke="url(#paint5_linear_2971_2997)"/>
<rect x="416" y="397" width="216" height="101" rx="8" fill="#CDCDCD"/>
<path d="M495.943 439.98C495.436 439.915 494.928 439.909 494.42 439.961C493.912 440 493.404 440.052 492.896 440.117C492.402 440.182 491.9 440.247 491.393 440.312C490.885 440.365 490.377 440.371 489.869 440.332C489.726 440.319 489.576 440.286 489.42 440.234C489.277 440.182 489.218 440.046 489.244 439.824C489.257 439.681 489.329 439.538 489.459 439.395C489.589 439.251 489.726 439.186 489.869 439.199L495.748 438.848C495.761 438.783 495.787 438.691 495.826 438.574C495.865 438.444 495.917 438.32 495.982 438.203C496.048 438.086 496.126 437.988 496.217 437.91C496.308 437.819 496.412 437.78 496.529 437.793C496.699 437.806 496.829 437.865 496.92 437.969C497.024 438.06 497.109 438.164 497.174 438.281C497.239 438.385 497.298 438.483 497.35 438.574C497.402 438.665 497.467 438.717 497.545 438.73C499.641 438.73 501.796 438.691 504.01 438.613C504.049 438.613 504.153 438.62 504.322 438.633C504.492 438.633 504.609 438.639 504.674 438.652C504.752 438.874 504.667 439.049 504.42 439.18C504.186 439.297 503.84 439.388 503.385 439.453C502.942 439.518 502.434 439.564 501.861 439.59C501.288 439.616 500.715 439.635 500.143 439.648C499.583 439.661 499.049 439.681 498.541 439.707C498.046 439.733 497.656 439.772 497.369 439.824C497.265 440.501 497.206 441.23 497.193 442.012C497.18 442.793 497.18 443.6 497.193 444.434C497.219 445.267 497.258 446.113 497.311 446.973C497.363 447.832 497.408 448.678 497.447 449.512C497.499 450.345 497.532 451.152 497.545 451.934C497.558 452.715 497.538 453.444 497.486 454.121C497.564 454.538 497.525 454.779 497.369 454.844C497.226 454.896 496.946 454.889 496.529 454.824C496.425 454.29 496.347 453.646 496.295 452.891C496.243 452.122 496.204 451.296 496.178 450.41C496.152 449.512 496.139 448.587 496.139 447.637C496.139 446.673 496.132 445.729 496.119 444.805C496.106 443.88 496.087 443.008 496.061 442.188C496.048 441.354 496.008 440.618 495.943 439.98ZM508.854 454.766C508.893 454.323 508.925 453.763 508.951 453.086C508.977 452.409 508.984 451.686 508.971 450.918C508.971 450.15 508.951 449.382 508.912 448.613C508.873 447.832 508.808 447.129 508.717 446.504C508.639 445.879 508.528 445.365 508.385 444.961C508.255 444.544 508.092 444.316 507.896 444.277C507.48 444.147 507.076 444.186 506.686 444.395C506.308 444.59 505.95 444.909 505.611 445.352C505.273 445.781 504.96 446.302 504.674 446.914C504.387 447.513 504.12 448.151 503.873 448.828C503.639 449.492 503.424 450.163 503.229 450.84C503.046 451.504 502.896 452.116 502.779 452.676C502.662 453.236 502.571 453.717 502.506 454.121C502.454 454.512 502.434 454.766 502.447 454.883C502.356 454.883 502.239 454.902 502.096 454.941C501.965 454.967 501.835 454.987 501.705 455C501.575 455.026 501.458 455.026 501.354 455C501.262 454.961 501.217 454.876 501.217 454.746L500.885 438.672C500.885 438.555 500.937 438.483 501.041 438.457C501.145 438.418 501.262 438.405 501.393 438.418C501.523 438.431 501.646 438.464 501.764 438.516C501.881 438.568 501.959 438.62 501.998 438.672L502.096 451.016C502.174 450.794 502.271 450.436 502.389 449.941C502.519 449.447 502.682 448.893 502.877 448.281C503.072 447.669 503.313 447.044 503.6 446.406C503.886 445.755 504.231 445.176 504.635 444.668C505.051 444.147 505.54 443.737 506.1 443.438C506.673 443.138 507.33 443.021 508.072 443.086C508.307 443.216 508.515 443.385 508.697 443.594C508.893 443.789 509.062 444.069 509.205 444.434C509.361 444.785 509.492 445.234 509.596 445.781C509.713 446.328 509.811 447.012 509.889 447.832C509.967 448.652 510.025 449.635 510.064 450.781C510.117 451.927 510.149 453.268 510.162 454.805C510.123 454.896 510.045 454.98 509.928 455.059C509.811 455.15 509.68 455.208 509.537 455.234C509.407 455.26 509.277 455.241 509.146 455.176C509.016 455.111 508.919 454.974 508.854 454.766ZM511.139 443.008C511.217 442.969 511.308 442.936 511.412 442.91C511.516 442.884 511.614 442.871 511.705 442.871C511.809 442.871 511.907 442.891 511.998 442.93C512.089 442.969 512.161 443.04 512.213 443.145C512.213 443.991 512.219 444.909 512.232 445.898C512.258 446.875 512.285 447.871 512.311 448.887C512.35 449.889 512.382 450.879 512.408 451.855C512.434 452.832 512.46 453.737 512.486 454.57C512.499 454.766 512.447 454.915 512.33 455.02C512.213 455.124 512.083 455.176 511.939 455.176C511.809 455.176 511.686 455.124 511.568 455.02C511.451 454.928 511.393 454.779 511.393 454.57L511.139 443.008ZM510.904 439.023C510.904 438.854 510.963 438.743 511.08 438.691C511.197 438.626 511.327 438.594 511.471 438.594C511.757 438.594 511.933 438.691 511.998 438.887C512.076 439.069 512.115 439.284 512.115 439.531C512.037 439.688 511.933 439.798 511.803 439.863C511.673 439.928 511.536 439.941 511.393 439.902C511.262 439.863 511.145 439.772 511.041 439.629C510.95 439.486 510.904 439.284 510.904 439.023ZM513.854 453.594C514.101 453.789 514.4 453.893 514.752 453.906C515.117 453.919 515.494 453.874 515.885 453.77C516.288 453.652 516.692 453.49 517.096 453.281C517.512 453.06 517.89 452.819 518.229 452.559C518.58 452.298 518.88 452.025 519.127 451.738C519.387 451.439 519.563 451.159 519.654 450.898C519.745 450.625 519.739 450.378 519.635 450.156C519.531 449.935 519.296 449.759 518.932 449.629C518.268 449.785 517.604 449.909 516.939 450C516.275 450.091 515.676 450.091 515.143 450C514.622 449.909 514.199 449.694 513.873 449.355C513.548 449.017 513.398 448.496 513.424 447.793C513.463 447.116 513.645 446.484 513.971 445.898C514.309 445.299 514.732 444.792 515.24 444.375C515.761 443.958 516.334 443.639 516.959 443.418C517.597 443.197 518.242 443.105 518.893 443.145C519.023 443.158 519.14 443.171 519.244 443.184C519.361 443.184 519.465 443.203 519.557 443.242C519.648 443.281 519.713 443.34 519.752 443.418C519.804 443.496 519.824 443.613 519.811 443.77C519.798 443.965 519.726 444.121 519.596 444.238C519.465 444.355 519.29 444.401 519.068 444.375C518.3 444.219 517.61 444.251 516.998 444.473C516.386 444.694 515.878 445.007 515.475 445.41C515.071 445.801 514.785 446.243 514.615 446.738C514.446 447.233 514.42 447.682 514.537 448.086C514.785 448.555 515.104 448.854 515.494 448.984C515.898 449.102 516.321 449.141 516.764 449.102C517.219 449.062 517.682 448.997 518.15 448.906C518.619 448.802 519.042 448.77 519.42 448.809C519.798 448.835 520.11 448.978 520.357 449.238C520.605 449.486 520.742 449.948 520.768 450.625C520.755 451.055 520.611 451.471 520.338 451.875C520.064 452.266 519.713 452.637 519.283 452.988C518.867 453.327 518.398 453.639 517.877 453.926C517.356 454.199 516.835 454.427 516.314 454.609C515.807 454.792 515.325 454.915 514.869 454.98C514.426 455.046 514.068 455.039 513.795 454.961C513.495 454.701 513.339 454.447 513.326 454.199C513.313 453.939 513.489 453.737 513.854 453.594ZM531.705 443.008C531.783 442.969 531.874 442.936 531.979 442.91C532.083 442.884 532.18 442.871 532.271 442.871C532.376 442.871 532.473 442.891 532.564 442.93C532.656 442.969 532.727 443.04 532.779 443.145C532.779 443.991 532.786 444.909 532.799 445.898C532.825 446.875 532.851 447.871 532.877 448.887C532.916 449.889 532.949 450.879 532.975 451.855C533.001 452.832 533.027 453.737 533.053 454.57C533.066 454.766 533.014 454.915 532.896 455.02C532.779 455.124 532.649 455.176 532.506 455.176C532.376 455.176 532.252 455.124 532.135 455.02C532.018 454.928 531.959 454.779 531.959 454.57L531.705 443.008ZM531.471 439.023C531.471 438.854 531.529 438.743 531.646 438.691C531.764 438.626 531.894 438.594 532.037 438.594C532.324 438.594 532.499 438.691 532.564 438.887C532.643 439.069 532.682 439.284 532.682 439.531C532.604 439.688 532.499 439.798 532.369 439.863C532.239 439.928 532.102 439.941 531.959 439.902C531.829 439.863 531.712 439.772 531.607 439.629C531.516 439.486 531.471 439.284 531.471 439.023ZM534.42 453.594C534.667 453.789 534.967 453.893 535.318 453.906C535.683 453.919 536.061 453.874 536.451 453.77C536.855 453.652 537.258 453.49 537.662 453.281C538.079 453.06 538.456 452.819 538.795 452.559C539.146 452.298 539.446 452.025 539.693 451.738C539.954 451.439 540.13 451.159 540.221 450.898C540.312 450.625 540.305 450.378 540.201 450.156C540.097 449.935 539.863 449.759 539.498 449.629C538.834 449.785 538.17 449.909 537.506 450C536.842 450.091 536.243 450.091 535.709 450C535.188 449.909 534.765 449.694 534.439 449.355C534.114 449.017 533.964 448.496 533.99 447.793C534.029 447.116 534.212 446.484 534.537 445.898C534.876 445.299 535.299 444.792 535.807 444.375C536.327 443.958 536.9 443.639 537.525 443.418C538.163 443.197 538.808 443.105 539.459 443.145C539.589 443.158 539.706 443.171 539.811 443.184C539.928 443.184 540.032 443.203 540.123 443.242C540.214 443.281 540.279 443.34 540.318 443.418C540.37 443.496 540.39 443.613 540.377 443.77C540.364 443.965 540.292 444.121 540.162 444.238C540.032 444.355 539.856 444.401 539.635 444.375C538.867 444.219 538.176 444.251 537.564 444.473C536.952 444.694 536.445 445.007 536.041 445.41C535.637 445.801 535.351 446.243 535.182 446.738C535.012 447.233 534.986 447.682 535.104 448.086C535.351 448.555 535.67 448.854 536.061 448.984C536.464 449.102 536.887 449.141 537.33 449.102C537.786 449.062 538.248 448.997 538.717 448.906C539.186 448.802 539.609 448.77 539.986 448.809C540.364 448.835 540.676 448.978 540.924 449.238C541.171 449.486 541.308 449.948 541.334 450.625C541.321 451.055 541.178 451.471 540.904 451.875C540.631 452.266 540.279 452.637 539.85 452.988C539.433 453.327 538.964 453.639 538.443 453.926C537.923 454.199 537.402 454.427 536.881 454.609C536.373 454.792 535.891 454.915 535.436 454.98C534.993 455.046 534.635 455.039 534.361 454.961C534.062 454.701 533.906 454.447 533.893 454.199C533.88 453.939 534.055 453.737 534.42 453.594ZM541.998 443.359C542.011 443.229 542.063 443.125 542.154 443.047C542.245 442.969 542.35 442.923 542.467 442.91C542.584 442.884 542.701 442.897 542.818 442.949C542.936 442.988 543.033 443.053 543.111 443.145L543.053 450.957C543.3 450.02 543.521 449.095 543.717 448.184C543.925 447.259 544.179 446.426 544.479 445.684C544.778 444.928 545.156 444.31 545.611 443.828C546.067 443.333 546.673 443.053 547.428 442.988C547.831 442.949 548.183 443.073 548.482 443.359C548.782 443.633 549.036 444.01 549.244 444.492C549.465 444.974 549.648 445.54 549.791 446.191C549.934 446.829 550.045 447.5 550.123 448.203C550.214 448.893 550.279 449.59 550.318 450.293C550.357 450.996 550.383 451.647 550.396 452.246C550.41 452.845 550.41 453.372 550.396 453.828C550.396 454.284 550.39 454.616 550.377 454.824C550.286 455.046 550.123 455.189 549.889 455.254C549.667 455.332 549.465 455.241 549.283 454.98C549.27 454.733 549.264 454.31 549.264 453.711C549.264 453.099 549.251 452.402 549.225 451.621C549.212 450.84 549.173 450.026 549.107 449.18C549.055 448.32 548.958 447.533 548.814 446.816C548.684 446.087 548.495 445.482 548.248 445C548.014 444.505 547.708 444.225 547.33 444.16C547.005 444.108 546.686 444.284 546.373 444.688C546.074 445.091 545.781 445.625 545.494 446.289C545.221 446.953 544.96 447.702 544.713 448.535C544.479 449.368 544.264 450.189 544.068 450.996C543.886 451.803 543.73 452.546 543.6 453.223C543.469 453.9 543.385 454.421 543.346 454.785C543.307 454.889 543.229 454.974 543.111 455.039C542.994 455.104 542.864 455.137 542.721 455.137C542.59 455.15 542.454 455.13 542.311 455.078C542.18 455.026 542.083 454.928 542.018 454.785L541.998 443.359ZM551.998 441.074C552.115 440.944 552.239 440.866 552.369 440.84C552.512 440.801 552.636 440.801 552.74 440.84C552.857 440.879 552.949 440.944 553.014 441.035C553.092 441.113 553.131 441.204 553.131 441.309L553.111 445.254C553.098 445.345 553.04 445.423 552.936 445.488C552.831 445.54 552.714 445.566 552.584 445.566C552.467 445.566 552.35 445.534 552.232 445.469C552.115 445.391 552.037 445.273 551.998 445.117V441.074ZM555.572 445.723L553.775 446.328C553.632 446.289 553.515 446.217 553.424 446.113C553.32 446.009 553.248 445.898 553.209 445.781C553.17 445.664 553.163 445.553 553.189 445.449C553.202 445.345 553.255 445.267 553.346 445.215L555.572 444.375L555.533 438.848C555.572 438.678 555.657 438.555 555.787 438.477C555.917 438.398 556.048 438.366 556.178 438.379C556.321 438.379 556.451 438.424 556.568 438.516C556.686 438.594 556.764 438.698 556.803 438.828C556.777 439.232 556.757 439.661 556.744 440.117C556.731 440.56 556.718 441.009 556.705 441.465C556.705 441.908 556.712 442.344 556.725 442.773C556.738 443.19 556.764 443.574 556.803 443.926L559.83 442.695C560.012 442.643 560.156 442.663 560.26 442.754C560.364 442.832 560.429 442.943 560.455 443.086C560.494 443.216 560.488 443.346 560.436 443.477C560.383 443.607 560.292 443.698 560.162 443.75L556.803 445.273C556.803 445.404 556.809 445.716 556.822 446.211C556.835 446.693 556.848 447.266 556.861 447.93C556.874 448.594 556.887 449.303 556.9 450.059C556.913 450.814 556.92 451.523 556.92 452.188C556.933 452.852 556.939 453.431 556.939 453.926C556.952 454.408 556.959 454.714 556.959 454.844C556.933 455.273 556.809 455.488 556.588 455.488C556.367 455.488 556.126 455.384 555.865 455.176L555.572 445.723Z" fill="black"/>
<defs>
<linearGradient id="paint0_linear_2971_2997" x1="354" y1="0" x2="354" y2="606" gradientUnits="userSpaceOnUse">
<stop stop-color="#0F0F0F"/>
<stop offset="1" stop-color="#141414"/>
</linearGradient>
<linearGradient id="paint1_linear_2971_2997" x1="354" y1="0" x2="354" y2="606" gradientUnits="userSpaceOnUse">
<stop stop-color="white" stop-opacity="0.12"/>
<stop offset="1" stop-color="white" stop-opacity="0.04"/>
</linearGradient>
<linearGradient id="paint2_linear_2971_2997" x1="184" y1="28" x2="184" y2="289" gradientUnits="userSpaceOnUse">
<stop stop-color="white" stop-opacity="0.16"/>
<stop offset="1" stop-color="white" stop-opacity="0.06"/>
</linearGradient>
<linearGradient id="paint3_linear_2971_2997" x1="524" y1="28" x2="524" y2="289" gradientUnits="userSpaceOnUse">
<stop stop-color="white" stop-opacity="0.16"/>
<stop offset="1" stop-color="white" stop-opacity="0.06"/>
</linearGradient>
<linearGradient id="paint4_linear_2971_2997" x1="184" y1="317" x2="184" y2="578" gradientUnits="userSpaceOnUse">
<stop stop-color="white" stop-opacity="0.16"/>
<stop offset="1" stop-color="white" stop-opacity="0.06"/>
</linearGradient>
<linearGradient id="paint5_linear_2971_2997" x1="524" y1="317" x2="524" y2="578" gradientUnits="userSpaceOnUse">
<stop stop-color="white" stop-opacity="0.16"/>
<stop offset="1" stop-color="white" stop-opacity="0.06"/>
</linearGradient>
</defs>
</svg>
