<svg width="1188" height="317" viewBox="0 0 1188 317" fill="none" xmlns="http://www.w3.org/2000/svg">
<rect x="0.5" y="0.5" width="1187" height="316" rx="23.5" fill="url(#paint0_linear_2971_2997)"/>
<rect x="0.5" y="0.5" width="1187" height="316" rx="23.5" stroke="url(#paint1_linear_2971_2997)"/>
<rect x="28.5" y="28.5" width="261" height="260" rx="15.5" fill="#CDCDCD"/>
<rect x="28.5" y="28.5" width="261" height="260" rx="15.5" stroke="url(#paint2_linear_2971_2997)"/>
<rect x="76" y="108" width="166" height="101" rx="8" fill="#E0E0E0"/>
<path d="M120.475 150.98C119.967 150.915 119.459 150.909 118.951 150.961C118.443 151 117.936 151.052 117.428 151.117C116.933 151.182 116.432 151.247 115.924 151.312C115.416 151.365 114.908 151.371 114.4 151.332C114.257 151.319 114.107 151.286 113.951 151.234C113.808 151.182 113.749 151.046 113.775 150.824C113.788 150.681 113.86 150.538 113.99 150.395C114.12 150.251 114.257 150.186 114.4 150.199L120.279 149.848C120.292 149.783 120.318 149.691 120.357 149.574C120.396 149.444 120.449 149.32 120.514 149.203C120.579 149.086 120.657 148.988 120.748 148.91C120.839 148.819 120.943 148.78 121.061 148.793C121.23 148.806 121.36 148.865 121.451 148.969C121.555 149.06 121.64 149.164 121.705 149.281C121.77 149.385 121.829 149.483 121.881 149.574C121.933 149.665 121.998 149.717 122.076 149.73C124.173 149.73 126.327 149.691 128.541 149.613C128.58 149.613 128.684 149.62 128.854 149.633C129.023 149.633 129.14 149.639 129.205 149.652C129.283 149.874 129.199 150.049 128.951 150.18C128.717 150.297 128.372 150.388 127.916 150.453C127.473 150.518 126.965 150.564 126.393 150.59C125.82 150.616 125.247 150.635 124.674 150.648C124.114 150.661 123.58 150.681 123.072 150.707C122.577 150.733 122.187 150.772 121.9 150.824C121.796 151.501 121.738 152.23 121.725 153.012C121.712 153.793 121.712 154.6 121.725 155.434C121.751 156.267 121.79 157.113 121.842 157.973C121.894 158.832 121.939 159.678 121.979 160.512C122.031 161.345 122.063 162.152 122.076 162.934C122.089 163.715 122.07 164.444 122.018 165.121C122.096 165.538 122.057 165.779 121.9 165.844C121.757 165.896 121.477 165.889 121.061 165.824C120.956 165.29 120.878 164.646 120.826 163.891C120.774 163.122 120.735 162.296 120.709 161.41C120.683 160.512 120.67 159.587 120.67 158.637C120.67 157.673 120.663 156.729 120.65 155.805C120.637 154.88 120.618 154.008 120.592 153.188C120.579 152.354 120.54 151.618 120.475 150.98ZM133.385 165.766C133.424 165.323 133.456 164.763 133.482 164.086C133.508 163.409 133.515 162.686 133.502 161.918C133.502 161.15 133.482 160.382 133.443 159.613C133.404 158.832 133.339 158.129 133.248 157.504C133.17 156.879 133.059 156.365 132.916 155.961C132.786 155.544 132.623 155.316 132.428 155.277C132.011 155.147 131.607 155.186 131.217 155.395C130.839 155.59 130.481 155.909 130.143 156.352C129.804 156.781 129.492 157.302 129.205 157.914C128.919 158.513 128.652 159.151 128.404 159.828C128.17 160.492 127.955 161.163 127.76 161.84C127.577 162.504 127.428 163.116 127.311 163.676C127.193 164.236 127.102 164.717 127.037 165.121C126.985 165.512 126.965 165.766 126.979 165.883C126.887 165.883 126.77 165.902 126.627 165.941C126.497 165.967 126.367 165.987 126.236 166C126.106 166.026 125.989 166.026 125.885 166C125.794 165.961 125.748 165.876 125.748 165.746L125.416 149.672C125.416 149.555 125.468 149.483 125.572 149.457C125.676 149.418 125.794 149.405 125.924 149.418C126.054 149.431 126.178 149.464 126.295 149.516C126.412 149.568 126.49 149.62 126.529 149.672L126.627 162.016C126.705 161.794 126.803 161.436 126.92 160.941C127.05 160.447 127.213 159.893 127.408 159.281C127.604 158.669 127.844 158.044 128.131 157.406C128.417 156.755 128.762 156.176 129.166 155.668C129.583 155.147 130.071 154.737 130.631 154.438C131.204 154.138 131.861 154.021 132.604 154.086C132.838 154.216 133.046 154.385 133.229 154.594C133.424 154.789 133.593 155.069 133.736 155.434C133.893 155.785 134.023 156.234 134.127 156.781C134.244 157.328 134.342 158.012 134.42 158.832C134.498 159.652 134.557 160.635 134.596 161.781C134.648 162.927 134.68 164.268 134.693 165.805C134.654 165.896 134.576 165.98 134.459 166.059C134.342 166.15 134.212 166.208 134.068 166.234C133.938 166.26 133.808 166.241 133.678 166.176C133.548 166.111 133.45 165.974 133.385 165.766ZM135.67 154.008C135.748 153.969 135.839 153.936 135.943 153.91C136.048 153.884 136.145 153.871 136.236 153.871C136.34 153.871 136.438 153.891 136.529 153.93C136.62 153.969 136.692 154.04 136.744 154.145C136.744 154.991 136.751 155.909 136.764 156.898C136.79 157.875 136.816 158.871 136.842 159.887C136.881 160.889 136.913 161.879 136.939 162.855C136.965 163.832 136.992 164.737 137.018 165.57C137.031 165.766 136.979 165.915 136.861 166.02C136.744 166.124 136.614 166.176 136.471 166.176C136.34 166.176 136.217 166.124 136.1 166.02C135.982 165.928 135.924 165.779 135.924 165.57L135.67 154.008ZM135.436 150.023C135.436 149.854 135.494 149.743 135.611 149.691C135.729 149.626 135.859 149.594 136.002 149.594C136.288 149.594 136.464 149.691 136.529 149.887C136.607 150.069 136.646 150.284 136.646 150.531C136.568 150.688 136.464 150.798 136.334 150.863C136.204 150.928 136.067 150.941 135.924 150.902C135.794 150.863 135.676 150.772 135.572 150.629C135.481 150.486 135.436 150.284 135.436 150.023ZM138.385 164.594C138.632 164.789 138.932 164.893 139.283 164.906C139.648 164.919 140.025 164.874 140.416 164.77C140.82 164.652 141.223 164.49 141.627 164.281C142.044 164.06 142.421 163.819 142.76 163.559C143.111 163.298 143.411 163.025 143.658 162.738C143.919 162.439 144.094 162.159 144.186 161.898C144.277 161.625 144.27 161.378 144.166 161.156C144.062 160.935 143.827 160.759 143.463 160.629C142.799 160.785 142.135 160.909 141.471 161C140.807 161.091 140.208 161.091 139.674 161C139.153 160.909 138.73 160.694 138.404 160.355C138.079 160.017 137.929 159.496 137.955 158.793C137.994 158.116 138.176 157.484 138.502 156.898C138.84 156.299 139.264 155.792 139.771 155.375C140.292 154.958 140.865 154.639 141.49 154.418C142.128 154.197 142.773 154.105 143.424 154.145C143.554 154.158 143.671 154.171 143.775 154.184C143.893 154.184 143.997 154.203 144.088 154.242C144.179 154.281 144.244 154.34 144.283 154.418C144.335 154.496 144.355 154.613 144.342 154.77C144.329 154.965 144.257 155.121 144.127 155.238C143.997 155.355 143.821 155.401 143.6 155.375C142.831 155.219 142.141 155.251 141.529 155.473C140.917 155.694 140.41 156.007 140.006 156.41C139.602 156.801 139.316 157.243 139.146 157.738C138.977 158.233 138.951 158.682 139.068 159.086C139.316 159.555 139.635 159.854 140.025 159.984C140.429 160.102 140.852 160.141 141.295 160.102C141.751 160.062 142.213 159.997 142.682 159.906C143.15 159.802 143.574 159.77 143.951 159.809C144.329 159.835 144.641 159.978 144.889 160.238C145.136 160.486 145.273 160.948 145.299 161.625C145.286 162.055 145.143 162.471 144.869 162.875C144.596 163.266 144.244 163.637 143.814 163.988C143.398 164.327 142.929 164.639 142.408 164.926C141.887 165.199 141.367 165.427 140.846 165.609C140.338 165.792 139.856 165.915 139.4 165.98C138.958 166.046 138.6 166.039 138.326 165.961C138.027 165.701 137.87 165.447 137.857 165.199C137.844 164.939 138.02 164.737 138.385 164.594ZM156.236 154.008C156.314 153.969 156.406 153.936 156.51 153.91C156.614 153.884 156.712 153.871 156.803 153.871C156.907 153.871 157.005 153.891 157.096 153.93C157.187 153.969 157.258 154.04 157.311 154.145C157.311 154.991 157.317 155.909 157.33 156.898C157.356 157.875 157.382 158.871 157.408 159.887C157.447 160.889 157.48 161.879 157.506 162.855C157.532 163.832 157.558 164.737 157.584 165.57C157.597 165.766 157.545 165.915 157.428 166.02C157.311 166.124 157.18 166.176 157.037 166.176C156.907 166.176 156.783 166.124 156.666 166.02C156.549 165.928 156.49 165.779 156.49 165.57L156.236 154.008ZM156.002 150.023C156.002 149.854 156.061 149.743 156.178 149.691C156.295 149.626 156.425 149.594 156.568 149.594C156.855 149.594 157.031 149.691 157.096 149.887C157.174 150.069 157.213 150.284 157.213 150.531C157.135 150.688 157.031 150.798 156.9 150.863C156.77 150.928 156.633 150.941 156.49 150.902C156.36 150.863 156.243 150.772 156.139 150.629C156.048 150.486 156.002 150.284 156.002 150.023ZM158.951 164.594C159.199 164.789 159.498 164.893 159.85 164.906C160.214 164.919 160.592 164.874 160.982 164.77C161.386 164.652 161.79 164.49 162.193 164.281C162.61 164.06 162.988 163.819 163.326 163.559C163.678 163.298 163.977 163.025 164.225 162.738C164.485 162.439 164.661 162.159 164.752 161.898C164.843 161.625 164.837 161.378 164.732 161.156C164.628 160.935 164.394 160.759 164.029 160.629C163.365 160.785 162.701 160.909 162.037 161C161.373 161.091 160.774 161.091 160.24 161C159.719 160.909 159.296 160.694 158.971 160.355C158.645 160.017 158.495 159.496 158.521 158.793C158.561 158.116 158.743 157.484 159.068 156.898C159.407 156.299 159.83 155.792 160.338 155.375C160.859 154.958 161.432 154.639 162.057 154.418C162.695 154.197 163.339 154.105 163.99 154.145C164.12 154.158 164.238 154.171 164.342 154.184C164.459 154.184 164.563 154.203 164.654 154.242C164.745 154.281 164.811 154.34 164.85 154.418C164.902 154.496 164.921 154.613 164.908 154.77C164.895 154.965 164.824 155.121 164.693 155.238C164.563 155.355 164.387 155.401 164.166 155.375C163.398 155.219 162.708 155.251 162.096 155.473C161.484 155.694 160.976 156.007 160.572 156.41C160.169 156.801 159.882 157.243 159.713 157.738C159.544 158.233 159.518 158.682 159.635 159.086C159.882 159.555 160.201 159.854 160.592 159.984C160.995 160.102 161.419 160.141 161.861 160.102C162.317 160.062 162.779 159.997 163.248 159.906C163.717 159.802 164.14 159.77 164.518 159.809C164.895 159.835 165.208 159.978 165.455 160.238C165.702 160.486 165.839 160.948 165.865 161.625C165.852 162.055 165.709 162.471 165.436 162.875C165.162 163.266 164.811 163.637 164.381 163.988C163.964 164.327 163.495 164.639 162.975 164.926C162.454 165.199 161.933 165.427 161.412 165.609C160.904 165.792 160.423 165.915 159.967 165.98C159.524 166.046 159.166 166.039 158.893 165.961C158.593 165.701 158.437 165.447 158.424 165.199C158.411 164.939 158.587 164.737 158.951 164.594ZM176.471 158.422C176.21 158.435 176.028 158.409 175.924 158.344C175.82 158.279 175.761 158.201 175.748 158.109C175.735 158.005 175.755 157.901 175.807 157.797C175.859 157.68 175.917 157.576 175.982 157.484L178.346 156.43C178.268 155.531 178.222 154.633 178.209 153.734C178.209 152.836 178.287 152.035 178.443 151.332C178.6 150.616 178.854 150.056 179.205 149.652C179.57 149.236 180.077 149.066 180.729 149.145C181.041 149.145 181.334 149.249 181.607 149.457C181.881 149.652 182.115 149.9 182.311 150.199C182.519 150.499 182.682 150.824 182.799 151.176C182.929 151.527 182.994 151.846 182.994 152.133C182.981 152.263 182.936 152.367 182.857 152.445C182.779 152.51 182.695 152.556 182.604 152.582C182.512 152.595 182.415 152.595 182.311 152.582C182.219 152.556 182.148 152.517 182.096 152.465C182.044 151.996 181.959 151.612 181.842 151.312C181.738 151.013 181.614 150.779 181.471 150.609C181.34 150.427 181.204 150.303 181.061 150.238C180.917 150.173 180.794 150.141 180.689 150.141C180.273 150.154 179.96 150.303 179.752 150.59C179.557 150.876 179.42 151.28 179.342 151.801C179.264 152.309 179.231 152.927 179.244 153.656C179.27 154.372 179.303 155.173 179.342 156.059L183.561 154.535C183.704 154.626 183.801 154.743 183.854 154.887C183.906 155.017 183.84 155.219 183.658 155.492L179.42 157.23L180.006 165.727C179.98 165.831 179.915 165.922 179.811 166C179.706 166.065 179.589 166.104 179.459 166.117C179.329 166.143 179.205 166.124 179.088 166.059C178.984 166.007 178.919 165.896 178.893 165.727L178.443 157.582L176.471 158.422ZM184.107 154.008C184.186 153.969 184.277 153.936 184.381 153.91C184.485 153.884 184.583 153.871 184.674 153.871C184.778 153.871 184.876 153.891 184.967 153.93C185.058 153.969 185.13 154.04 185.182 154.145C185.182 154.991 185.188 155.909 185.201 156.898C185.227 157.875 185.253 158.871 185.279 159.887C185.318 160.889 185.351 161.879 185.377 162.855C185.403 163.832 185.429 164.737 185.455 165.57C185.468 165.766 185.416 165.915 185.299 166.02C185.182 166.124 185.051 166.176 184.908 166.176C184.778 166.176 184.654 166.124 184.537 166.02C184.42 165.928 184.361 165.779 184.361 165.57L184.107 154.008ZM183.873 150.023C183.873 149.854 183.932 149.743 184.049 149.691C184.166 149.626 184.296 149.594 184.439 149.594C184.726 149.594 184.902 149.691 184.967 149.887C185.045 150.069 185.084 150.284 185.084 150.531C185.006 150.688 184.902 150.798 184.771 150.863C184.641 150.928 184.505 150.941 184.361 150.902C184.231 150.863 184.114 150.772 184.01 150.629C183.919 150.486 183.873 150.284 183.873 150.023ZM186.314 154.359C186.327 154.229 186.38 154.125 186.471 154.047C186.562 153.969 186.666 153.923 186.783 153.91C186.9 153.884 187.018 153.897 187.135 153.949C187.252 153.988 187.35 154.053 187.428 154.145L187.369 161.957C187.617 161.02 187.838 160.095 188.033 159.184C188.242 158.259 188.495 157.426 188.795 156.684C189.094 155.928 189.472 155.31 189.928 154.828C190.383 154.333 190.989 154.053 191.744 153.988C192.148 153.949 192.499 154.073 192.799 154.359C193.098 154.633 193.352 155.01 193.561 155.492C193.782 155.974 193.964 156.54 194.107 157.191C194.251 157.829 194.361 158.5 194.439 159.203C194.531 159.893 194.596 160.59 194.635 161.293C194.674 161.996 194.7 162.647 194.713 163.246C194.726 163.845 194.726 164.372 194.713 164.828C194.713 165.284 194.706 165.616 194.693 165.824C194.602 166.046 194.439 166.189 194.205 166.254C193.984 166.332 193.782 166.241 193.6 165.98C193.587 165.733 193.58 165.31 193.58 164.711C193.58 164.099 193.567 163.402 193.541 162.621C193.528 161.84 193.489 161.026 193.424 160.18C193.372 159.32 193.274 158.533 193.131 157.816C193.001 157.087 192.812 156.482 192.564 156C192.33 155.505 192.024 155.225 191.646 155.16C191.321 155.108 191.002 155.284 190.689 155.688C190.39 156.091 190.097 156.625 189.811 157.289C189.537 157.953 189.277 158.702 189.029 159.535C188.795 160.368 188.58 161.189 188.385 161.996C188.202 162.803 188.046 163.546 187.916 164.223C187.786 164.9 187.701 165.421 187.662 165.785C187.623 165.889 187.545 165.974 187.428 166.039C187.311 166.104 187.18 166.137 187.037 166.137C186.907 166.15 186.77 166.13 186.627 166.078C186.497 166.026 186.399 165.928 186.334 165.785L186.314 154.359ZM196.197 160.785C196.106 160.863 195.943 160.896 195.709 160.883C195.488 160.857 195.279 160.805 195.084 160.727C194.902 160.648 194.778 160.544 194.713 160.414C194.648 160.271 194.726 160.108 194.947 159.926C195.038 159.848 195.136 159.796 195.24 159.77C195.357 159.73 195.468 159.698 195.572 159.672C195.689 159.633 195.781 159.581 195.846 159.516C195.924 159.451 195.969 159.346 195.982 159.203C195.995 158.617 196.041 158.018 196.119 157.406C196.21 156.794 196.373 156.247 196.607 155.766C196.842 155.284 197.174 154.9 197.604 154.613C198.046 154.327 198.626 154.216 199.342 154.281C199.602 154.281 199.895 154.346 200.221 154.477C200.546 154.594 200.859 154.757 201.158 154.965C201.458 155.16 201.718 155.401 201.939 155.688C202.161 155.961 202.298 156.26 202.35 156.586C202.441 156.716 202.389 156.879 202.193 157.074C201.998 157.27 201.725 157.491 201.373 157.738C201.021 157.973 200.624 158.214 200.182 158.461C199.739 158.708 199.309 158.943 198.893 159.164C198.489 159.385 198.131 159.581 197.818 159.75C197.506 159.919 197.304 160.036 197.213 160.102C197.291 160.609 197.376 161.143 197.467 161.703C197.558 162.263 197.688 162.777 197.857 163.246C198.027 163.715 198.235 164.105 198.482 164.418C198.743 164.717 199.068 164.867 199.459 164.867C200.032 164.906 200.52 164.822 200.924 164.613C201.34 164.405 201.686 164.132 201.959 163.793C202.232 163.454 202.447 163.083 202.604 162.68C202.773 162.276 202.896 161.892 202.975 161.527C203.066 161.163 203.124 160.857 203.15 160.609C203.189 160.349 203.222 160.206 203.248 160.18C203.391 160.102 203.554 160.102 203.736 160.18C203.919 160.245 204.023 160.434 204.049 160.746C204.062 161.254 203.951 161.833 203.717 162.484C203.482 163.135 203.157 163.734 202.74 164.281C202.337 164.828 201.848 165.271 201.275 165.609C200.715 165.935 200.117 166.046 199.479 165.941C198.814 165.928 198.287 165.74 197.896 165.375C197.506 164.997 197.193 164.548 196.959 164.027C196.738 163.493 196.575 162.934 196.471 162.348C196.367 161.762 196.275 161.241 196.197 160.785ZM201.314 156.586C200.898 156.013 200.475 155.648 200.045 155.492C199.615 155.336 199.173 155.29 198.717 155.355C198.443 155.395 198.202 155.525 197.994 155.746C197.786 155.954 197.617 156.228 197.486 156.566C197.356 156.892 197.265 157.263 197.213 157.68C197.161 158.083 197.154 158.5 197.193 158.93L201.314 156.586Z" fill="black"/>
<rect x="318.5" y="28.5" width="261" height="260" rx="15.5" fill="#424242"/>
<rect x="318.5" y="28.5" width="261" height="260" rx="15.5" stroke="url(#paint3_linear_2971_2997)"/>
<rect x="366" y="108" width="166" height="101" rx="8" fill="#1F1F1F"/>
<path d="M420.943 150.98C420.436 150.915 419.928 150.909 419.42 150.961C418.912 151 418.404 151.052 417.896 151.117C417.402 151.182 416.9 151.247 416.393 151.312C415.885 151.365 415.377 151.371 414.869 151.332C414.726 151.319 414.576 151.286 414.42 151.234C414.277 151.182 414.218 151.046 414.244 150.824C414.257 150.681 414.329 150.538 414.459 150.395C414.589 150.251 414.726 150.186 414.869 150.199L420.748 149.848C420.761 149.783 420.787 149.691 420.826 149.574C420.865 149.444 420.917 149.32 420.982 149.203C421.048 149.086 421.126 148.988 421.217 148.91C421.308 148.819 421.412 148.78 421.529 148.793C421.699 148.806 421.829 148.865 421.92 148.969C422.024 149.06 422.109 149.164 422.174 149.281C422.239 149.385 422.298 149.483 422.35 149.574C422.402 149.665 422.467 149.717 422.545 149.73C424.641 149.73 426.796 149.691 429.01 149.613C429.049 149.613 429.153 149.62 429.322 149.633C429.492 149.633 429.609 149.639 429.674 149.652C429.752 149.874 429.667 150.049 429.42 150.18C429.186 150.297 428.84 150.388 428.385 150.453C427.942 150.518 427.434 150.564 426.861 150.59C426.288 150.616 425.715 150.635 425.143 150.648C424.583 150.661 424.049 150.681 423.541 150.707C423.046 150.733 422.656 150.772 422.369 150.824C422.265 151.501 422.206 152.23 422.193 153.012C422.18 153.793 422.18 154.6 422.193 155.434C422.219 156.267 422.258 157.113 422.311 157.973C422.363 158.832 422.408 159.678 422.447 160.512C422.499 161.345 422.532 162.152 422.545 162.934C422.558 163.715 422.538 164.444 422.486 165.121C422.564 165.538 422.525 165.779 422.369 165.844C422.226 165.896 421.946 165.889 421.529 165.824C421.425 165.29 421.347 164.646 421.295 163.891C421.243 163.122 421.204 162.296 421.178 161.41C421.152 160.512 421.139 159.587 421.139 158.637C421.139 157.673 421.132 156.729 421.119 155.805C421.106 154.88 421.087 154.008 421.061 153.188C421.048 152.354 421.008 151.618 420.943 150.98ZM433.854 165.766C433.893 165.323 433.925 164.763 433.951 164.086C433.977 163.409 433.984 162.686 433.971 161.918C433.971 161.15 433.951 160.382 433.912 159.613C433.873 158.832 433.808 158.129 433.717 157.504C433.639 156.879 433.528 156.365 433.385 155.961C433.255 155.544 433.092 155.316 432.896 155.277C432.48 155.147 432.076 155.186 431.686 155.395C431.308 155.59 430.95 155.909 430.611 156.352C430.273 156.781 429.96 157.302 429.674 157.914C429.387 158.513 429.12 159.151 428.873 159.828C428.639 160.492 428.424 161.163 428.229 161.84C428.046 162.504 427.896 163.116 427.779 163.676C427.662 164.236 427.571 164.717 427.506 165.121C427.454 165.512 427.434 165.766 427.447 165.883C427.356 165.883 427.239 165.902 427.096 165.941C426.965 165.967 426.835 165.987 426.705 166C426.575 166.026 426.458 166.026 426.354 166C426.262 165.961 426.217 165.876 426.217 165.746L425.885 149.672C425.885 149.555 425.937 149.483 426.041 149.457C426.145 149.418 426.262 149.405 426.393 149.418C426.523 149.431 426.646 149.464 426.764 149.516C426.881 149.568 426.959 149.62 426.998 149.672L427.096 162.016C427.174 161.794 427.271 161.436 427.389 160.941C427.519 160.447 427.682 159.893 427.877 159.281C428.072 158.669 428.313 158.044 428.6 157.406C428.886 156.755 429.231 156.176 429.635 155.668C430.051 155.147 430.54 154.737 431.1 154.438C431.673 154.138 432.33 154.021 433.072 154.086C433.307 154.216 433.515 154.385 433.697 154.594C433.893 154.789 434.062 155.069 434.205 155.434C434.361 155.785 434.492 156.234 434.596 156.781C434.713 157.328 434.811 158.012 434.889 158.832C434.967 159.652 435.025 160.635 435.064 161.781C435.117 162.927 435.149 164.268 435.162 165.805C435.123 165.896 435.045 165.98 434.928 166.059C434.811 166.15 434.68 166.208 434.537 166.234C434.407 166.26 434.277 166.241 434.146 166.176C434.016 166.111 433.919 165.974 433.854 165.766ZM436.139 154.008C436.217 153.969 436.308 153.936 436.412 153.91C436.516 153.884 436.614 153.871 436.705 153.871C436.809 153.871 436.907 153.891 436.998 153.93C437.089 153.969 437.161 154.04 437.213 154.145C437.213 154.991 437.219 155.909 437.232 156.898C437.258 157.875 437.285 158.871 437.311 159.887C437.35 160.889 437.382 161.879 437.408 162.855C437.434 163.832 437.46 164.737 437.486 165.57C437.499 165.766 437.447 165.915 437.33 166.02C437.213 166.124 437.083 166.176 436.939 166.176C436.809 166.176 436.686 166.124 436.568 166.02C436.451 165.928 436.393 165.779 436.393 165.57L436.139 154.008ZM435.904 150.023C435.904 149.854 435.963 149.743 436.08 149.691C436.197 149.626 436.327 149.594 436.471 149.594C436.757 149.594 436.933 149.691 436.998 149.887C437.076 150.069 437.115 150.284 437.115 150.531C437.037 150.688 436.933 150.798 436.803 150.863C436.673 150.928 436.536 150.941 436.393 150.902C436.262 150.863 436.145 150.772 436.041 150.629C435.95 150.486 435.904 150.284 435.904 150.023ZM438.854 164.594C439.101 164.789 439.4 164.893 439.752 164.906C440.117 164.919 440.494 164.874 440.885 164.77C441.288 164.652 441.692 164.49 442.096 164.281C442.512 164.06 442.89 163.819 443.229 163.559C443.58 163.298 443.88 163.025 444.127 162.738C444.387 162.439 444.563 162.159 444.654 161.898C444.745 161.625 444.739 161.378 444.635 161.156C444.531 160.935 444.296 160.759 443.932 160.629C443.268 160.785 442.604 160.909 441.939 161C441.275 161.091 440.676 161.091 440.143 161C439.622 160.909 439.199 160.694 438.873 160.355C438.548 160.017 438.398 159.496 438.424 158.793C438.463 158.116 438.645 157.484 438.971 156.898C439.309 156.299 439.732 155.792 440.24 155.375C440.761 154.958 441.334 154.639 441.959 154.418C442.597 154.197 443.242 154.105 443.893 154.145C444.023 154.158 444.14 154.171 444.244 154.184C444.361 154.184 444.465 154.203 444.557 154.242C444.648 154.281 444.713 154.34 444.752 154.418C444.804 154.496 444.824 154.613 444.811 154.77C444.798 154.965 444.726 155.121 444.596 155.238C444.465 155.355 444.29 155.401 444.068 155.375C443.3 155.219 442.61 155.251 441.998 155.473C441.386 155.694 440.878 156.007 440.475 156.41C440.071 156.801 439.785 157.243 439.615 157.738C439.446 158.233 439.42 158.682 439.537 159.086C439.785 159.555 440.104 159.854 440.494 159.984C440.898 160.102 441.321 160.141 441.764 160.102C442.219 160.062 442.682 159.997 443.15 159.906C443.619 159.802 444.042 159.77 444.42 159.809C444.798 159.835 445.11 159.978 445.357 160.238C445.605 160.486 445.742 160.948 445.768 161.625C445.755 162.055 445.611 162.471 445.338 162.875C445.064 163.266 444.713 163.637 444.283 163.988C443.867 164.327 443.398 164.639 442.877 164.926C442.356 165.199 441.835 165.427 441.314 165.609C440.807 165.792 440.325 165.915 439.869 165.98C439.426 166.046 439.068 166.039 438.795 165.961C438.495 165.701 438.339 165.447 438.326 165.199C438.313 164.939 438.489 164.737 438.854 164.594ZM456.705 154.008C456.783 153.969 456.874 153.936 456.979 153.91C457.083 153.884 457.18 153.871 457.271 153.871C457.376 153.871 457.473 153.891 457.564 153.93C457.656 153.969 457.727 154.04 457.779 154.145C457.779 154.991 457.786 155.909 457.799 156.898C457.825 157.875 457.851 158.871 457.877 159.887C457.916 160.889 457.949 161.879 457.975 162.855C458.001 163.832 458.027 164.737 458.053 165.57C458.066 165.766 458.014 165.915 457.896 166.02C457.779 166.124 457.649 166.176 457.506 166.176C457.376 166.176 457.252 166.124 457.135 166.02C457.018 165.928 456.959 165.779 456.959 165.57L456.705 154.008ZM456.471 150.023C456.471 149.854 456.529 149.743 456.646 149.691C456.764 149.626 456.894 149.594 457.037 149.594C457.324 149.594 457.499 149.691 457.564 149.887C457.643 150.069 457.682 150.284 457.682 150.531C457.604 150.688 457.499 150.798 457.369 150.863C457.239 150.928 457.102 150.941 456.959 150.902C456.829 150.863 456.712 150.772 456.607 150.629C456.516 150.486 456.471 150.284 456.471 150.023ZM459.42 164.594C459.667 164.789 459.967 164.893 460.318 164.906C460.683 164.919 461.061 164.874 461.451 164.77C461.855 164.652 462.258 164.49 462.662 164.281C463.079 164.06 463.456 163.819 463.795 163.559C464.146 163.298 464.446 163.025 464.693 162.738C464.954 162.439 465.13 162.159 465.221 161.898C465.312 161.625 465.305 161.378 465.201 161.156C465.097 160.935 464.863 160.759 464.498 160.629C463.834 160.785 463.17 160.909 462.506 161C461.842 161.091 461.243 161.091 460.709 161C460.188 160.909 459.765 160.694 459.439 160.355C459.114 160.017 458.964 159.496 458.99 158.793C459.029 158.116 459.212 157.484 459.537 156.898C459.876 156.299 460.299 155.792 460.807 155.375C461.327 154.958 461.9 154.639 462.525 154.418C463.163 154.197 463.808 154.105 464.459 154.145C464.589 154.158 464.706 154.171 464.811 154.184C464.928 154.184 465.032 154.203 465.123 154.242C465.214 154.281 465.279 154.34 465.318 154.418C465.37 154.496 465.39 154.613 465.377 154.77C465.364 154.965 465.292 155.121 465.162 155.238C465.032 155.355 464.856 155.401 464.635 155.375C463.867 155.219 463.176 155.251 462.564 155.473C461.952 155.694 461.445 156.007 461.041 156.41C460.637 156.801 460.351 157.243 460.182 157.738C460.012 158.233 459.986 158.682 460.104 159.086C460.351 159.555 460.67 159.854 461.061 159.984C461.464 160.102 461.887 160.141 462.33 160.102C462.786 160.062 463.248 159.997 463.717 159.906C464.186 159.802 464.609 159.77 464.986 159.809C465.364 159.835 465.676 159.978 465.924 160.238C466.171 160.486 466.308 160.948 466.334 161.625C466.321 162.055 466.178 162.471 465.904 162.875C465.631 163.266 465.279 163.637 464.85 163.988C464.433 164.327 463.964 164.639 463.443 164.926C462.923 165.199 462.402 165.427 461.881 165.609C461.373 165.792 460.891 165.915 460.436 165.98C459.993 166.046 459.635 166.039 459.361 165.961C459.062 165.701 458.906 165.447 458.893 165.199C458.88 164.939 459.055 164.737 459.42 164.594ZM466.998 154.359C467.011 154.229 467.063 154.125 467.154 154.047C467.245 153.969 467.35 153.923 467.467 153.91C467.584 153.884 467.701 153.897 467.818 153.949C467.936 153.988 468.033 154.053 468.111 154.145L468.053 161.957C468.3 161.02 468.521 160.095 468.717 159.184C468.925 158.259 469.179 157.426 469.479 156.684C469.778 155.928 470.156 155.31 470.611 154.828C471.067 154.333 471.673 154.053 472.428 153.988C472.831 153.949 473.183 154.073 473.482 154.359C473.782 154.633 474.036 155.01 474.244 155.492C474.465 155.974 474.648 156.54 474.791 157.191C474.934 157.829 475.045 158.5 475.123 159.203C475.214 159.893 475.279 160.59 475.318 161.293C475.357 161.996 475.383 162.647 475.396 163.246C475.41 163.845 475.41 164.372 475.396 164.828C475.396 165.284 475.39 165.616 475.377 165.824C475.286 166.046 475.123 166.189 474.889 166.254C474.667 166.332 474.465 166.241 474.283 165.98C474.27 165.733 474.264 165.31 474.264 164.711C474.264 164.099 474.251 163.402 474.225 162.621C474.212 161.84 474.173 161.026 474.107 160.18C474.055 159.32 473.958 158.533 473.814 157.816C473.684 157.087 473.495 156.482 473.248 156C473.014 155.505 472.708 155.225 472.33 155.16C472.005 155.108 471.686 155.284 471.373 155.688C471.074 156.091 470.781 156.625 470.494 157.289C470.221 157.953 469.96 158.702 469.713 159.535C469.479 160.368 469.264 161.189 469.068 161.996C468.886 162.803 468.73 163.546 468.6 164.223C468.469 164.9 468.385 165.421 468.346 165.785C468.307 165.889 468.229 165.974 468.111 166.039C467.994 166.104 467.864 166.137 467.721 166.137C467.59 166.15 467.454 166.13 467.311 166.078C467.18 166.026 467.083 165.928 467.018 165.785L466.998 154.359ZM476.998 152.074C477.115 151.944 477.239 151.866 477.369 151.84C477.512 151.801 477.636 151.801 477.74 151.84C477.857 151.879 477.949 151.944 478.014 152.035C478.092 152.113 478.131 152.204 478.131 152.309L478.111 156.254C478.098 156.345 478.04 156.423 477.936 156.488C477.831 156.54 477.714 156.566 477.584 156.566C477.467 156.566 477.35 156.534 477.232 156.469C477.115 156.391 477.037 156.273 476.998 156.117V152.074ZM480.572 156.723L478.775 157.328C478.632 157.289 478.515 157.217 478.424 157.113C478.32 157.009 478.248 156.898 478.209 156.781C478.17 156.664 478.163 156.553 478.189 156.449C478.202 156.345 478.255 156.267 478.346 156.215L480.572 155.375L480.533 149.848C480.572 149.678 480.657 149.555 480.787 149.477C480.917 149.398 481.048 149.366 481.178 149.379C481.321 149.379 481.451 149.424 481.568 149.516C481.686 149.594 481.764 149.698 481.803 149.828C481.777 150.232 481.757 150.661 481.744 151.117C481.731 151.56 481.718 152.009 481.705 152.465C481.705 152.908 481.712 153.344 481.725 153.773C481.738 154.19 481.764 154.574 481.803 154.926L484.83 153.695C485.012 153.643 485.156 153.663 485.26 153.754C485.364 153.832 485.429 153.943 485.455 154.086C485.494 154.216 485.488 154.346 485.436 154.477C485.383 154.607 485.292 154.698 485.162 154.75L481.803 156.273C481.803 156.404 481.809 156.716 481.822 157.211C481.835 157.693 481.848 158.266 481.861 158.93C481.874 159.594 481.887 160.303 481.9 161.059C481.913 161.814 481.92 162.523 481.92 163.188C481.933 163.852 481.939 164.431 481.939 164.926C481.952 165.408 481.959 165.714 481.959 165.844C481.933 166.273 481.809 166.488 481.588 166.488C481.367 166.488 481.126 166.384 480.865 166.176L480.572 156.723Z" fill="white"/>
<rect x="608.5" y="28.5" width="261" height="260" rx="15.5" fill="#1F1F1F"/>
<rect x="608.5" y="28.5" width="261" height="260" rx="15.5" stroke="url(#paint4_linear_2971_2997)"/>
<rect x="656" y="108" width="166" height="101" rx="8" fill="#424242"/>
<path d="M719.527 150.98C719.02 150.915 718.512 150.909 718.004 150.961C717.496 151 716.988 151.052 716.48 151.117C715.986 151.182 715.484 151.247 714.977 151.312C714.469 151.365 713.961 151.371 713.453 151.332C713.31 151.319 713.16 151.286 713.004 151.234C712.861 151.182 712.802 151.046 712.828 150.824C712.841 150.681 712.913 150.538 713.043 150.395C713.173 150.251 713.31 150.186 713.453 150.199L719.332 149.848C719.345 149.783 719.371 149.691 719.41 149.574C719.449 149.444 719.501 149.32 719.566 149.203C719.632 149.086 719.71 148.988 719.801 148.91C719.892 148.819 719.996 148.78 720.113 148.793C720.283 148.806 720.413 148.865 720.504 148.969C720.608 149.06 720.693 149.164 720.758 149.281C720.823 149.385 720.882 149.483 720.934 149.574C720.986 149.665 721.051 149.717 721.129 149.73C723.225 149.73 725.38 149.691 727.594 149.613C727.633 149.613 727.737 149.62 727.906 149.633C728.076 149.633 728.193 149.639 728.258 149.652C728.336 149.874 728.251 150.049 728.004 150.18C727.77 150.297 727.424 150.388 726.969 150.453C726.526 150.518 726.018 150.564 725.445 150.59C724.872 150.616 724.299 150.635 723.727 150.648C723.167 150.661 722.633 150.681 722.125 150.707C721.63 150.733 721.24 150.772 720.953 150.824C720.849 151.501 720.79 152.23 720.777 153.012C720.764 153.793 720.764 154.6 720.777 155.434C720.803 156.267 720.842 157.113 720.895 157.973C720.947 158.832 720.992 159.678 721.031 160.512C721.083 161.345 721.116 162.152 721.129 162.934C721.142 163.715 721.122 164.444 721.07 165.121C721.148 165.538 721.109 165.779 720.953 165.844C720.81 165.896 720.53 165.889 720.113 165.824C720.009 165.29 719.931 164.646 719.879 163.891C719.827 163.122 719.788 162.296 719.762 161.41C719.736 160.512 719.723 159.587 719.723 158.637C719.723 157.673 719.716 156.729 719.703 155.805C719.69 154.88 719.671 154.008 719.645 153.188C719.632 152.354 719.592 151.618 719.527 150.98ZM732.438 165.766C732.477 165.323 732.509 164.763 732.535 164.086C732.561 163.409 732.568 162.686 732.555 161.918C732.555 161.15 732.535 160.382 732.496 159.613C732.457 158.832 732.392 158.129 732.301 157.504C732.223 156.879 732.112 156.365 731.969 155.961C731.839 155.544 731.676 155.316 731.48 155.277C731.064 155.147 730.66 155.186 730.27 155.395C729.892 155.59 729.534 155.909 729.195 156.352C728.857 156.781 728.544 157.302 728.258 157.914C727.971 158.513 727.704 159.151 727.457 159.828C727.223 160.492 727.008 161.163 726.812 161.84C726.63 162.504 726.48 163.116 726.363 163.676C726.246 164.236 726.155 164.717 726.09 165.121C726.038 165.512 726.018 165.766 726.031 165.883C725.94 165.883 725.823 165.902 725.68 165.941C725.549 165.967 725.419 165.987 725.289 166C725.159 166.026 725.042 166.026 724.938 166C724.846 165.961 724.801 165.876 724.801 165.746L724.469 149.672C724.469 149.555 724.521 149.483 724.625 149.457C724.729 149.418 724.846 149.405 724.977 149.418C725.107 149.431 725.23 149.464 725.348 149.516C725.465 149.568 725.543 149.62 725.582 149.672L725.68 162.016C725.758 161.794 725.855 161.436 725.973 160.941C726.103 160.447 726.266 159.893 726.461 159.281C726.656 158.669 726.897 158.044 727.184 157.406C727.47 156.755 727.815 156.176 728.219 155.668C728.635 155.147 729.124 154.737 729.684 154.438C730.257 154.138 730.914 154.021 731.656 154.086C731.891 154.216 732.099 154.385 732.281 154.594C732.477 154.789 732.646 155.069 732.789 155.434C732.945 155.785 733.076 156.234 733.18 156.781C733.297 157.328 733.395 158.012 733.473 158.832C733.551 159.652 733.609 160.635 733.648 161.781C733.701 162.927 733.733 164.268 733.746 165.805C733.707 165.896 733.629 165.98 733.512 166.059C733.395 166.15 733.264 166.208 733.121 166.234C732.991 166.26 732.861 166.241 732.73 166.176C732.6 166.111 732.503 165.974 732.438 165.766ZM734.723 154.008C734.801 153.969 734.892 153.936 734.996 153.91C735.1 153.884 735.198 153.871 735.289 153.871C735.393 153.871 735.491 153.891 735.582 153.93C735.673 153.969 735.745 154.04 735.797 154.145C735.797 154.991 735.803 155.909 735.816 156.898C735.842 157.875 735.868 158.871 735.895 159.887C735.934 160.889 735.966 161.879 735.992 162.855C736.018 163.832 736.044 164.737 736.07 165.57C736.083 165.766 736.031 165.915 735.914 166.02C735.797 166.124 735.667 166.176 735.523 166.176C735.393 166.176 735.27 166.124 735.152 166.02C735.035 165.928 734.977 165.779 734.977 165.57L734.723 154.008ZM734.488 150.023C734.488 149.854 734.547 149.743 734.664 149.691C734.781 149.626 734.911 149.594 735.055 149.594C735.341 149.594 735.517 149.691 735.582 149.887C735.66 150.069 735.699 150.284 735.699 150.531C735.621 150.688 735.517 150.798 735.387 150.863C735.257 150.928 735.12 150.941 734.977 150.902C734.846 150.863 734.729 150.772 734.625 150.629C734.534 150.486 734.488 150.284 734.488 150.023ZM737.438 164.594C737.685 164.789 737.984 164.893 738.336 164.906C738.701 164.919 739.078 164.874 739.469 164.77C739.872 164.652 740.276 164.49 740.68 164.281C741.096 164.06 741.474 163.819 741.812 163.559C742.164 163.298 742.464 163.025 742.711 162.738C742.971 162.439 743.147 162.159 743.238 161.898C743.329 161.625 743.323 161.378 743.219 161.156C743.115 160.935 742.88 160.759 742.516 160.629C741.852 160.785 741.188 160.909 740.523 161C739.859 161.091 739.26 161.091 738.727 161C738.206 160.909 737.783 160.694 737.457 160.355C737.132 160.017 736.982 159.496 737.008 158.793C737.047 158.116 737.229 157.484 737.555 156.898C737.893 156.299 738.316 155.792 738.824 155.375C739.345 154.958 739.918 154.639 740.543 154.418C741.181 154.197 741.826 154.105 742.477 154.145C742.607 154.158 742.724 154.171 742.828 154.184C742.945 154.184 743.049 154.203 743.141 154.242C743.232 154.281 743.297 154.34 743.336 154.418C743.388 154.496 743.408 154.613 743.395 154.77C743.382 154.965 743.31 155.121 743.18 155.238C743.049 155.355 742.874 155.401 742.652 155.375C741.884 155.219 741.194 155.251 740.582 155.473C739.97 155.694 739.462 156.007 739.059 156.41C738.655 156.801 738.368 157.243 738.199 157.738C738.03 158.233 738.004 158.682 738.121 159.086C738.368 159.555 738.688 159.854 739.078 159.984C739.482 160.102 739.905 160.141 740.348 160.102C740.803 160.062 741.266 159.997 741.734 159.906C742.203 159.802 742.626 159.77 743.004 159.809C743.382 159.835 743.694 159.978 743.941 160.238C744.189 160.486 744.326 160.948 744.352 161.625C744.339 162.055 744.195 162.471 743.922 162.875C743.648 163.266 743.297 163.637 742.867 163.988C742.451 164.327 741.982 164.639 741.461 164.926C740.94 165.199 740.419 165.427 739.898 165.609C739.391 165.792 738.909 165.915 738.453 165.98C738.01 166.046 737.652 166.039 737.379 165.961C737.079 165.701 736.923 165.447 736.91 165.199C736.897 164.939 737.073 164.737 737.438 164.594ZM755.289 154.008C755.367 153.969 755.458 153.936 755.562 153.91C755.667 153.884 755.764 153.871 755.855 153.871C755.96 153.871 756.057 153.891 756.148 153.93C756.24 153.969 756.311 154.04 756.363 154.145C756.363 154.991 756.37 155.909 756.383 156.898C756.409 157.875 756.435 158.871 756.461 159.887C756.5 160.889 756.533 161.879 756.559 162.855C756.585 163.832 756.611 164.737 756.637 165.57C756.65 165.766 756.598 165.915 756.48 166.02C756.363 166.124 756.233 166.176 756.09 166.176C755.96 166.176 755.836 166.124 755.719 166.02C755.602 165.928 755.543 165.779 755.543 165.57L755.289 154.008ZM755.055 150.023C755.055 149.854 755.113 149.743 755.23 149.691C755.348 149.626 755.478 149.594 755.621 149.594C755.908 149.594 756.083 149.691 756.148 149.887C756.227 150.069 756.266 150.284 756.266 150.531C756.188 150.688 756.083 150.798 755.953 150.863C755.823 150.928 755.686 150.941 755.543 150.902C755.413 150.863 755.296 150.772 755.191 150.629C755.1 150.486 755.055 150.284 755.055 150.023ZM758.004 164.594C758.251 164.789 758.551 164.893 758.902 164.906C759.267 164.919 759.645 164.874 760.035 164.77C760.439 164.652 760.842 164.49 761.246 164.281C761.663 164.06 762.04 163.819 762.379 163.559C762.73 163.298 763.03 163.025 763.277 162.738C763.538 162.439 763.714 162.159 763.805 161.898C763.896 161.625 763.889 161.378 763.785 161.156C763.681 160.935 763.447 160.759 763.082 160.629C762.418 160.785 761.754 160.909 761.09 161C760.426 161.091 759.827 161.091 759.293 161C758.772 160.909 758.349 160.694 758.023 160.355C757.698 160.017 757.548 159.496 757.574 158.793C757.613 158.116 757.796 157.484 758.121 156.898C758.46 156.299 758.883 155.792 759.391 155.375C759.911 154.958 760.484 154.639 761.109 154.418C761.747 154.197 762.392 154.105 763.043 154.145C763.173 154.158 763.29 154.171 763.395 154.184C763.512 154.184 763.616 154.203 763.707 154.242C763.798 154.281 763.863 154.34 763.902 154.418C763.954 154.496 763.974 154.613 763.961 154.77C763.948 154.965 763.876 155.121 763.746 155.238C763.616 155.355 763.44 155.401 763.219 155.375C762.451 155.219 761.76 155.251 761.148 155.473C760.536 155.694 760.029 156.007 759.625 156.41C759.221 156.801 758.935 157.243 758.766 157.738C758.596 158.233 758.57 158.682 758.688 159.086C758.935 159.555 759.254 159.854 759.645 159.984C760.048 160.102 760.471 160.141 760.914 160.102C761.37 160.062 761.832 159.997 762.301 159.906C762.77 159.802 763.193 159.77 763.57 159.809C763.948 159.835 764.26 159.978 764.508 160.238C764.755 160.486 764.892 160.948 764.918 161.625C764.905 162.055 764.762 162.471 764.488 162.875C764.215 163.266 763.863 163.637 763.434 163.988C763.017 164.327 762.548 164.639 762.027 164.926C761.507 165.199 760.986 165.427 760.465 165.609C759.957 165.792 759.475 165.915 759.02 165.98C758.577 166.046 758.219 166.039 757.945 165.961C757.646 165.701 757.49 165.447 757.477 165.199C757.464 164.939 757.639 164.737 758.004 164.594Z" fill="white"/>
<rect x="898.5" y="28.5" width="261" height="260" rx="15.5" fill="#E0E0E0"/>
<rect x="898.5" y="28.5" width="261" height="260" rx="15.5" stroke="url(#paint5_linear_2971_2997)"/>
<rect x="946" y="108" width="166" height="101" rx="8" fill="#CDCDCD"/>
<path d="M1000.94 150.98C1000.44 150.915 999.928 150.909 999.42 150.961C998.912 151 998.404 151.052 997.896 151.117C997.402 151.182 996.9 151.247 996.393 151.312C995.885 151.365 995.377 151.371 994.869 151.332C994.726 151.319 994.576 151.286 994.42 151.234C994.277 151.182 994.218 151.046 994.244 150.824C994.257 150.681 994.329 150.538 994.459 150.395C994.589 150.251 994.726 150.186 994.869 150.199L1000.75 149.848C1000.76 149.783 1000.79 149.691 1000.83 149.574C1000.87 149.444 1000.92 149.32 1000.98 149.203C1001.05 149.086 1001.13 148.988 1001.22 148.91C1001.31 148.819 1001.41 148.78 1001.53 148.793C1001.7 148.806 1001.83 148.865 1001.92 148.969C1002.02 149.06 1002.11 149.164 1002.17 149.281C1002.24 149.385 1002.3 149.483 1002.35 149.574C1002.4 149.665 1002.47 149.717 1002.54 149.73C1004.64 149.73 1006.8 149.691 1009.01 149.613C1009.05 149.613 1009.15 149.62 1009.32 149.633C1009.49 149.633 1009.61 149.639 1009.67 149.652C1009.75 149.874 1009.67 150.049 1009.42 150.18C1009.19 150.297 1008.84 150.388 1008.38 150.453C1007.94 150.518 1007.43 150.564 1006.86 150.59C1006.29 150.616 1005.72 150.635 1005.14 150.648C1004.58 150.661 1004.05 150.681 1003.54 150.707C1003.05 150.733 1002.66 150.772 1002.37 150.824C1002.26 151.501 1002.21 152.23 1002.19 153.012C1002.18 153.793 1002.18 154.6 1002.19 155.434C1002.22 156.267 1002.26 157.113 1002.31 157.973C1002.36 158.832 1002.41 159.678 1002.45 160.512C1002.5 161.345 1002.53 162.152 1002.54 162.934C1002.56 163.715 1002.54 164.444 1002.49 165.121C1002.56 165.538 1002.53 165.779 1002.37 165.844C1002.23 165.896 1001.95 165.889 1001.53 165.824C1001.43 165.29 1001.35 164.646 1001.29 163.891C1001.24 163.122 1001.2 162.296 1001.18 161.41C1001.15 160.512 1001.14 159.587 1001.14 158.637C1001.14 157.673 1001.13 156.729 1001.12 155.805C1001.11 154.88 1001.09 154.008 1001.06 153.188C1001.05 152.354 1001.01 151.618 1000.94 150.98ZM1013.85 165.766C1013.89 165.323 1013.93 164.763 1013.95 164.086C1013.98 163.409 1013.98 162.686 1013.97 161.918C1013.97 161.15 1013.95 160.382 1013.91 159.613C1013.87 158.832 1013.81 158.129 1013.72 157.504C1013.64 156.879 1013.53 156.365 1013.38 155.961C1013.25 155.544 1013.09 155.316 1012.9 155.277C1012.48 155.147 1012.08 155.186 1011.69 155.395C1011.31 155.59 1010.95 155.909 1010.61 156.352C1010.27 156.781 1009.96 157.302 1009.67 157.914C1009.39 158.513 1009.12 159.151 1008.87 159.828C1008.64 160.492 1008.42 161.163 1008.23 161.84C1008.05 162.504 1007.9 163.116 1007.78 163.676C1007.66 164.236 1007.57 164.717 1007.51 165.121C1007.45 165.512 1007.43 165.766 1007.45 165.883C1007.36 165.883 1007.24 165.902 1007.1 165.941C1006.97 165.967 1006.84 165.987 1006.71 166C1006.57 166.026 1006.46 166.026 1006.35 166C1006.26 165.961 1006.22 165.876 1006.22 165.746L1005.88 149.672C1005.88 149.555 1005.94 149.483 1006.04 149.457C1006.15 149.418 1006.26 149.405 1006.39 149.418C1006.52 149.431 1006.65 149.464 1006.76 149.516C1006.88 149.568 1006.96 149.62 1007 149.672L1007.1 162.016C1007.17 161.794 1007.27 161.436 1007.39 160.941C1007.52 160.447 1007.68 159.893 1007.88 159.281C1008.07 158.669 1008.31 158.044 1008.6 157.406C1008.89 156.755 1009.23 156.176 1009.63 155.668C1010.05 155.147 1010.54 154.737 1011.1 154.438C1011.67 154.138 1012.33 154.021 1013.07 154.086C1013.31 154.216 1013.51 154.385 1013.7 154.594C1013.89 154.789 1014.06 155.069 1014.21 155.434C1014.36 155.785 1014.49 156.234 1014.6 156.781C1014.71 157.328 1014.81 158.012 1014.89 158.832C1014.97 159.652 1015.03 160.635 1015.06 161.781C1015.12 162.927 1015.15 164.268 1015.16 165.805C1015.12 165.896 1015.04 165.98 1014.93 166.059C1014.81 166.15 1014.68 166.208 1014.54 166.234C1014.41 166.26 1014.28 166.241 1014.15 166.176C1014.02 166.111 1013.92 165.974 1013.85 165.766ZM1016.14 154.008C1016.22 153.969 1016.31 153.936 1016.41 153.91C1016.52 153.884 1016.61 153.871 1016.71 153.871C1016.81 153.871 1016.91 153.891 1017 153.93C1017.09 153.969 1017.16 154.04 1017.21 154.145C1017.21 154.991 1017.22 155.909 1017.23 156.898C1017.26 157.875 1017.28 158.871 1017.31 159.887C1017.35 160.889 1017.38 161.879 1017.41 162.855C1017.43 163.832 1017.46 164.737 1017.49 165.57C1017.5 165.766 1017.45 165.915 1017.33 166.02C1017.21 166.124 1017.08 166.176 1016.94 166.176C1016.81 166.176 1016.69 166.124 1016.57 166.02C1016.45 165.928 1016.39 165.779 1016.39 165.57L1016.14 154.008ZM1015.9 150.023C1015.9 149.854 1015.96 149.743 1016.08 149.691C1016.2 149.626 1016.33 149.594 1016.47 149.594C1016.76 149.594 1016.93 149.691 1017 149.887C1017.08 150.069 1017.12 150.284 1017.12 150.531C1017.04 150.688 1016.93 150.798 1016.8 150.863C1016.67 150.928 1016.54 150.941 1016.39 150.902C1016.26 150.863 1016.15 150.772 1016.04 150.629C1015.95 150.486 1015.9 150.284 1015.9 150.023ZM1018.85 164.594C1019.1 164.789 1019.4 164.893 1019.75 164.906C1020.12 164.919 1020.49 164.874 1020.88 164.77C1021.29 164.652 1021.69 164.49 1022.1 164.281C1022.51 164.06 1022.89 163.819 1023.23 163.559C1023.58 163.298 1023.88 163.025 1024.13 162.738C1024.39 162.439 1024.56 162.159 1024.65 161.898C1024.75 161.625 1024.74 161.378 1024.63 161.156C1024.53 160.935 1024.3 160.759 1023.93 160.629C1023.27 160.785 1022.6 160.909 1021.94 161C1021.28 161.091 1020.68 161.091 1020.14 161C1019.62 160.909 1019.2 160.694 1018.87 160.355C1018.55 160.017 1018.4 159.496 1018.42 158.793C1018.46 158.116 1018.65 157.484 1018.97 156.898C1019.31 156.299 1019.73 155.792 1020.24 155.375C1020.76 154.958 1021.33 154.639 1021.96 154.418C1022.6 154.197 1023.24 154.105 1023.89 154.145C1024.02 154.158 1024.14 154.171 1024.24 154.184C1024.36 154.184 1024.47 154.203 1024.56 154.242C1024.65 154.281 1024.71 154.34 1024.75 154.418C1024.8 154.496 1024.82 154.613 1024.81 154.77C1024.8 154.965 1024.73 155.121 1024.6 155.238C1024.47 155.355 1024.29 155.401 1024.07 155.375C1023.3 155.219 1022.61 155.251 1022 155.473C1021.39 155.694 1020.88 156.007 1020.47 156.41C1020.07 156.801 1019.78 157.243 1019.62 157.738C1019.45 158.233 1019.42 158.682 1019.54 159.086C1019.78 159.555 1020.1 159.854 1020.49 159.984C1020.9 160.102 1021.32 160.141 1021.76 160.102C1022.22 160.062 1022.68 159.997 1023.15 159.906C1023.62 159.802 1024.04 159.77 1024.42 159.809C1024.8 159.835 1025.11 159.978 1025.36 160.238C1025.6 160.486 1025.74 160.948 1025.77 161.625C1025.75 162.055 1025.61 162.471 1025.34 162.875C1025.06 163.266 1024.71 163.637 1024.28 163.988C1023.87 164.327 1023.4 164.639 1022.88 164.926C1022.36 165.199 1021.84 165.427 1021.31 165.609C1020.81 165.792 1020.32 165.915 1019.87 165.98C1019.43 166.046 1019.07 166.039 1018.79 165.961C1018.5 165.701 1018.34 165.447 1018.33 165.199C1018.31 164.939 1018.49 164.737 1018.85 164.594ZM1036.71 154.008C1036.78 153.969 1036.87 153.936 1036.98 153.91C1037.08 153.884 1037.18 153.871 1037.27 153.871C1037.38 153.871 1037.47 153.891 1037.56 153.93C1037.66 153.969 1037.73 154.04 1037.78 154.145C1037.78 154.991 1037.79 155.909 1037.8 156.898C1037.82 157.875 1037.85 158.871 1037.88 159.887C1037.92 160.889 1037.95 161.879 1037.97 162.855C1038 163.832 1038.03 164.737 1038.05 165.57C1038.07 165.766 1038.01 165.915 1037.9 166.02C1037.78 166.124 1037.65 166.176 1037.51 166.176C1037.38 166.176 1037.25 166.124 1037.13 166.02C1037.02 165.928 1036.96 165.779 1036.96 165.57L1036.71 154.008ZM1036.47 150.023C1036.47 149.854 1036.53 149.743 1036.65 149.691C1036.76 149.626 1036.89 149.594 1037.04 149.594C1037.32 149.594 1037.5 149.691 1037.56 149.887C1037.64 150.069 1037.68 150.284 1037.68 150.531C1037.6 150.688 1037.5 150.798 1037.37 150.863C1037.24 150.928 1037.1 150.941 1036.96 150.902C1036.83 150.863 1036.71 150.772 1036.61 150.629C1036.52 150.486 1036.47 150.284 1036.47 150.023ZM1039.42 164.594C1039.67 164.789 1039.97 164.893 1040.32 164.906C1040.68 164.919 1041.06 164.874 1041.45 164.77C1041.85 164.652 1042.26 164.49 1042.66 164.281C1043.08 164.06 1043.46 163.819 1043.79 163.559C1044.15 163.298 1044.45 163.025 1044.69 162.738C1044.95 162.439 1045.13 162.159 1045.22 161.898C1045.31 161.625 1045.31 161.378 1045.2 161.156C1045.1 160.935 1044.86 160.759 1044.5 160.629C1043.83 160.785 1043.17 160.909 1042.51 161C1041.84 161.091 1041.24 161.091 1040.71 161C1040.19 160.909 1039.76 160.694 1039.44 160.355C1039.11 160.017 1038.96 159.496 1038.99 158.793C1039.03 158.116 1039.21 157.484 1039.54 156.898C1039.88 156.299 1040.3 155.792 1040.81 155.375C1041.33 154.958 1041.9 154.639 1042.53 154.418C1043.16 154.197 1043.81 154.105 1044.46 154.145C1044.59 154.158 1044.71 154.171 1044.81 154.184C1044.93 154.184 1045.03 154.203 1045.12 154.242C1045.21 154.281 1045.28 154.34 1045.32 154.418C1045.37 154.496 1045.39 154.613 1045.38 154.77C1045.36 154.965 1045.29 155.121 1045.16 155.238C1045.03 155.355 1044.86 155.401 1044.63 155.375C1043.87 155.219 1043.18 155.251 1042.56 155.473C1041.95 155.694 1041.44 156.007 1041.04 156.41C1040.64 156.801 1040.35 157.243 1040.18 157.738C1040.01 158.233 1039.99 158.682 1040.1 159.086C1040.35 159.555 1040.67 159.854 1041.06 159.984C1041.46 160.102 1041.89 160.141 1042.33 160.102C1042.79 160.062 1043.25 159.997 1043.72 159.906C1044.19 159.802 1044.61 159.77 1044.99 159.809C1045.36 159.835 1045.68 159.978 1045.92 160.238C1046.17 160.486 1046.31 160.948 1046.33 161.625C1046.32 162.055 1046.18 162.471 1045.9 162.875C1045.63 163.266 1045.28 163.637 1044.85 163.988C1044.43 164.327 1043.96 164.639 1043.44 164.926C1042.92 165.199 1042.4 165.427 1041.88 165.609C1041.37 165.792 1040.89 165.915 1040.44 165.98C1039.99 166.046 1039.63 166.039 1039.36 165.961C1039.06 165.701 1038.91 165.447 1038.89 165.199C1038.88 164.939 1039.06 164.737 1039.42 164.594ZM1047 154.359C1047.01 154.229 1047.06 154.125 1047.15 154.047C1047.25 153.969 1047.35 153.923 1047.47 153.91C1047.58 153.884 1047.7 153.897 1047.82 153.949C1047.94 153.988 1048.03 154.053 1048.11 154.145L1048.05 161.957C1048.3 161.02 1048.52 160.095 1048.72 159.184C1048.93 158.259 1049.18 157.426 1049.48 156.684C1049.78 155.928 1050.16 155.31 1050.61 154.828C1051.07 154.333 1051.67 154.053 1052.43 153.988C1052.83 153.949 1053.18 154.073 1053.48 154.359C1053.78 154.633 1054.04 155.01 1054.24 155.492C1054.47 155.974 1054.65 156.54 1054.79 157.191C1054.93 157.829 1055.04 158.5 1055.12 159.203C1055.21 159.893 1055.28 160.59 1055.32 161.293C1055.36 161.996 1055.38 162.647 1055.4 163.246C1055.41 163.845 1055.41 164.372 1055.4 164.828C1055.4 165.284 1055.39 165.616 1055.38 165.824C1055.29 166.046 1055.12 166.189 1054.89 166.254C1054.67 166.332 1054.47 166.241 1054.28 165.98C1054.27 165.733 1054.26 165.31 1054.26 164.711C1054.26 164.099 1054.25 163.402 1054.22 162.621C1054.21 161.84 1054.17 161.026 1054.11 160.18C1054.06 159.32 1053.96 158.533 1053.81 157.816C1053.68 157.087 1053.5 156.482 1053.25 156C1053.01 155.505 1052.71 155.225 1052.33 155.16C1052 155.108 1051.69 155.284 1051.37 155.688C1051.07 156.091 1050.78 156.625 1050.49 157.289C1050.22 157.953 1049.96 158.702 1049.71 159.535C1049.48 160.368 1049.26 161.189 1049.07 161.996C1048.89 162.803 1048.73 163.546 1048.6 164.223C1048.47 164.9 1048.38 165.421 1048.35 165.785C1048.31 165.889 1048.23 165.974 1048.11 166.039C1047.99 166.104 1047.86 166.137 1047.72 166.137C1047.59 166.15 1047.45 166.13 1047.31 166.078C1047.18 166.026 1047.08 165.928 1047.02 165.785L1047 154.359ZM1057 152.074C1057.12 151.944 1057.24 151.866 1057.37 151.84C1057.51 151.801 1057.64 151.801 1057.74 151.84C1057.86 151.879 1057.95 151.944 1058.01 152.035C1058.09 152.113 1058.13 152.204 1058.13 152.309L1058.11 156.254C1058.1 156.345 1058.04 156.423 1057.94 156.488C1057.83 156.54 1057.71 156.566 1057.58 156.566C1057.47 156.566 1057.35 156.534 1057.23 156.469C1057.12 156.391 1057.04 156.273 1057 156.117V152.074ZM1060.57 156.723L1058.78 157.328C1058.63 157.289 1058.51 157.217 1058.42 157.113C1058.32 157.009 1058.25 156.898 1058.21 156.781C1058.17 156.664 1058.16 156.553 1058.19 156.449C1058.2 156.345 1058.25 156.267 1058.35 156.215L1060.57 155.375L1060.53 149.848C1060.57 149.678 1060.66 149.555 1060.79 149.477C1060.92 149.398 1061.05 149.366 1061.18 149.379C1061.32 149.379 1061.45 149.424 1061.57 149.516C1061.69 149.594 1061.76 149.698 1061.8 149.828C1061.78 150.232 1061.76 150.661 1061.74 151.117C1061.73 151.56 1061.72 152.009 1061.71 152.465C1061.71 152.908 1061.71 153.344 1061.72 153.773C1061.74 154.19 1061.76 154.574 1061.8 154.926L1064.83 153.695C1065.01 153.643 1065.16 153.663 1065.26 153.754C1065.36 153.832 1065.43 153.943 1065.46 154.086C1065.49 154.216 1065.49 154.346 1065.44 154.477C1065.38 154.607 1065.29 154.698 1065.16 154.75L1061.8 156.273C1061.8 156.404 1061.81 156.716 1061.82 157.211C1061.84 157.693 1061.85 158.266 1061.86 158.93C1061.87 159.594 1061.89 160.303 1061.9 161.059C1061.91 161.814 1061.92 162.523 1061.92 163.188C1061.93 163.852 1061.94 164.431 1061.94 164.926C1061.95 165.408 1061.96 165.714 1061.96 165.844C1061.93 166.273 1061.81 166.488 1061.59 166.488C1061.37 166.488 1061.13 166.384 1060.87 166.176L1060.57 156.723Z" fill="black"/>
<defs>
<linearGradient id="paint0_linear_2971_2997" x1="594" y1="0" x2="594" y2="317" gradientUnits="userSpaceOnUse">
<stop stop-color="#0F0F0F"/>
<stop offset="1" stop-color="#141414"/>
</linearGradient>
<linearGradient id="paint1_linear_2971_2997" x1="594" y1="0" x2="594" y2="317" gradientUnits="userSpaceOnUse">
<stop stop-color="white" stop-opacity="0.12"/>
<stop offset="1" stop-color="white" stop-opacity="0.04"/>
</linearGradient>
<linearGradient id="paint2_linear_2971_2997" x1="159" y1="28" x2="159" y2="289" gradientUnits="userSpaceOnUse">
<stop stop-color="white" stop-opacity="0.16"/>
<stop offset="1" stop-color="white" stop-opacity="0.06"/>
</linearGradient>
<linearGradient id="paint3_linear_2971_2997" x1="449" y1="28" x2="449" y2="289" gradientUnits="userSpaceOnUse">
<stop stop-color="white" stop-opacity="0.16"/>
<stop offset="1" stop-color="white" stop-opacity="0.06"/>
</linearGradient>
<linearGradient id="paint4_linear_2971_2997" x1="739" y1="28" x2="739" y2="289" gradientUnits="userSpaceOnUse">
<stop stop-color="white" stop-opacity="0.16"/>
<stop offset="1" stop-color="white" stop-opacity="0.06"/>
</linearGradient>
<linearGradient id="paint5_linear_2971_2997" x1="1029" y1="28" x2="1029" y2="289" gradientUnits="userSpaceOnUse">
<stop stop-color="white" stop-opacity="0.16"/>
<stop offset="1" stop-color="white" stop-opacity="0.06"/>
</linearGradient>
</defs>
</svg>
