<svg width="2636" height="2636" viewBox="0 0 2636 2636" fill="none" xmlns="http://www.w3.org/2000/svg">
<rect width="2636" height="2636" rx="1318" fill="#0E0600"/>
<rect x="0.5" y="0.5" width="2635" height="2635" rx="1317.5" stroke="white" stroke-opacity="0.04"/>
<rect x="351" y="351" width="1934" height="1934" rx="917" fill="#150900"/>
<rect x="351.5" y="351.5" width="1933" height="1933" rx="916.5" stroke="white" stroke-opacity="0.04"/>
<rect x="643" y="643" width="1350" height="1350" rx="610" fill="#1D0C00"/>
<rect x="643.5" y="643.5" width="1349" height="1349" rx="609.5" stroke="white" stroke-opacity="0.04"/>
<rect x="820" y="820" width="996" height="996" rx="410" fill="#230E00"/>
<rect x="820.5" y="820.5" width="995" height="995" rx="409.5" stroke="white" stroke-opacity="0.04"/>
<rect x="942" y="942" width="752" height="752" rx="283" fill="#2D1200"/>
<rect x="942.5" y="942.5" width="751" height="751" rx="282.5" stroke="white" stroke-opacity="0.04"/>
<rect x="1030" y="1036" width="570" height="570" rx="200" fill="#3A1900"/>
<rect x="1030.5" y="1036.5" width="569" height="569" rx="199.5" stroke="white" stroke-opacity="0.04"/>
<rect x="1104" y="1105" width="427" height="427" rx="135" fill="#411F00"/>
<rect x="1104.5" y="1105.5" width="426" height="426" rx="134.5" stroke="white" stroke-opacity="0.04"/>
<rect x="1154" y="1154" width="328" height="328" rx="92" fill="#572D00"/>
<rect x="1154.5" y="1154.5" width="327" height="327" rx="91.5" stroke="white" stroke-opacity="0.06"/>
<rect x="1192.72" y="1192.72" width="250.915" height="250.915" rx="54" fill="#774000"/>
<rect x="1193.22" y="1193.22" width="249.915" height="249.915" rx="53.5" stroke="white" stroke-opacity="0.08"/>
<rect x="1220.13" y="1220.13" width="196.081" height="196.081" rx="28" fill="#C17400"/>
<rect x="1220.63" y="1220.63" width="195.081" height="195.081" rx="27.5" stroke="white" stroke-opacity="0.12"/>
<rect x="1321.3" y="1173.63" width="0.694093" height="10.0643" transform="rotate(45 1321.3 1173.63)" fill="#FFBE5C"/>
<rect width="0.694093" height="10.0643" transform="matrix(-0.707107 0.707107 0.707107 0.707107 1314.68 1173.63)" fill="#FFBE5C"/>
<rect x="1460.47" y="1314.53" width="0.694093" height="10.0643" transform="rotate(45 1460.47 1314.53)" fill="#FFBE5C"/>
<rect width="0.694093" height="10.0643" transform="matrix(-0.707107 0.707107 0.707107 0.707107 1453.84 1314.53)" fill="#FFBE5C"/>
<line x1="1318.5" y1="1192.72" x2="1318.5" y2="1443.63" stroke="white" stroke-opacity="0.15"/>
<line x1="1318.5" y1="1192.72" x2="1318.5" y2="1443.63" stroke="white" stroke-opacity="0.15"/>
<line x1="1192.72" y1="1317.5" x2="1443.29" y2="1317.5" stroke="white" stroke-opacity="0.15"/>
<line x1="1192.72" y1="1317.5" x2="1443.29" y2="1317.5" stroke="white" stroke-opacity="0.15"/>
<line x1="1304.81" y1="1192.06" x2="1330.84" y2="1192.06" stroke="#FFBE5C" stroke-width="2"/>
<line x1="1304.81" y1="1442.63" x2="1330.84" y2="1442.63" stroke="#FFBE5C" stroke-width="2"/>
<line x1="1442.63" y1="1330.84" x2="1442.63" y2="1304.81" stroke="#FFBE5C" stroke-width="2"/>
<line x1="1192.41" y1="1330.84" x2="1192.41" y2="1304.81" stroke="#FFBE5C" stroke-width="2"/>
<g opacity="0.33">
<rect x="1158.54" y="1153.85" width="0.694093" height="10.0643" fill="#FFBE5C"/>
<rect width="0.694093" height="10.0643" transform="matrix(0 1 1 0 1153.85 1158.53)" fill="#FFBE5C"/>
</g>
<g opacity="0.33">
<rect x="1158.54" y="1472.02" width="0.694093" height="10.0643" fill="#FFBE5C"/>
<rect width="0.694093" height="10.0643" transform="matrix(0 1 1 0 1153.85 1476.71)" fill="#FFBE5C"/>
</g>
<g opacity="0.33">
<rect x="1476.78" y="1153.85" width="0.694093" height="10.0643" fill="#FFBE5C"/>
<rect width="0.694093" height="10.0643" transform="matrix(0 1 1 0 1472.09 1158.53)" fill="#FFBE5C"/>
</g>
<g opacity="0.33">
<rect x="1476.78" y="1472.09" width="0.694093" height="10.0643" fill="#FFBE5C"/>
<rect width="0.694093" height="10.0643" transform="matrix(0 1 1 0 1472.09 1476.78)" fill="#FFBE5C"/>
</g>
<path d="M1249.39 1365.83C1261.06 1365.83 1270.51 1375.29 1270.51 1386.96C1270.51 1398.62 1261.06 1408.08 1249.39 1408.08C1237.72 1408.08 1228.27 1398.62 1228.27 1386.96L1228.27 1386.41C1228.56 1375.18 1237.61 1366.12 1248.84 1365.84L1249.39 1365.83ZM1295.24 1365.83C1306.91 1365.83 1316.37 1375.29 1316.37 1386.96C1316.37 1398.62 1306.91 1408.08 1295.24 1408.08C1283.58 1408.08 1274.12 1398.62 1274.12 1386.96L1274.13 1386.41C1274.42 1375 1283.76 1365.83 1295.24 1365.83ZM1386.95 1319.98C1398.62 1319.98 1408.08 1329.44 1408.08 1341.1L1408.07 1341.64C1407.79 1352.8 1398.85 1361.82 1387.72 1362.21L1387.23 1362.23V1362.23L1386.95 1362.23C1373.37 1362.23 1362.35 1373.17 1362.23 1386.72L1362.22 1387.21C1362.08 1398.76 1352.68 1408.08 1341.1 1408.08C1329.52 1408.08 1320.11 1398.76 1319.98 1387.21L1319.97 1386.96C1319.97 1373.3 1308.9 1362.23 1295.24 1362.23C1295.15 1362.23 1295.06 1362.23 1294.96 1362.23V1362.23L1294.48 1362.21C1283.17 1361.81 1274.12 1352.51 1274.12 1341.1C1274.12 1329.44 1283.58 1319.98 1295.24 1319.98C1306.83 1319.98 1316.23 1329.3 1316.37 1340.85L1316.37 1341.1C1316.37 1354.76 1327.44 1365.83 1341.1 1365.83C1354.54 1365.83 1365.48 1355.1 1365.82 1341.74L1365.83 1341.1L1365.83 1340.85C1365.97 1329.48 1375.08 1320.27 1386.41 1319.98L1386.95 1319.98ZM1386.95 1365.83C1398.62 1365.83 1408.08 1375.29 1408.08 1386.96C1408.08 1398.62 1398.62 1408.08 1386.95 1408.08C1375.29 1408.08 1365.83 1398.62 1365.83 1386.96L1365.83 1386.41C1366.12 1375.18 1375.17 1366.12 1386.41 1365.84L1386.95 1365.83ZM1295.24 1274.12C1306.91 1274.12 1316.37 1283.58 1316.37 1295.25C1316.37 1306.66 1307.32 1315.95 1296.01 1316.36L1295.53 1316.37V1316.38C1295.43 1316.37 1295.34 1316.37 1295.24 1316.37C1281.8 1316.37 1270.86 1327.1 1270.52 1340.46L1270.52 1340.86L1270.51 1341.36C1270.38 1352.91 1260.97 1362.23 1249.39 1362.23C1237.72 1362.23 1228.27 1352.77 1228.27 1341.1C1228.27 1329.52 1237.59 1320.12 1249.14 1319.98L1249.38 1319.98L1249.39 1319.98C1249.47 1319.98 1249.55 1319.98 1249.63 1319.97V1319.97C1263.18 1319.84 1274.12 1308.83 1274.12 1295.25L1274.12 1294.99C1274.26 1283.44 1283.66 1274.12 1295.24 1274.12ZM1341.1 1319.98C1352.77 1319.98 1362.22 1329.44 1362.22 1341.1L1362.22 1341.65C1361.93 1353.06 1352.58 1362.23 1341.1 1362.23C1329.43 1362.23 1319.97 1352.77 1319.97 1341.1C1319.97 1329.44 1329.43 1319.98 1341.1 1319.98ZM1249.39 1274.12C1261.06 1274.12 1270.51 1283.58 1270.51 1295.25C1270.51 1306.91 1261.06 1316.37 1249.39 1316.37C1237.72 1316.37 1228.27 1306.91 1228.27 1295.25C1228.27 1283.76 1237.43 1274.42 1248.84 1274.13L1249.39 1274.12ZM1295.25 1228.27L1295.5 1228.27C1306.96 1228.41 1316.23 1237.68 1316.37 1249.14L1316.37 1249.39C1316.37 1263.05 1327.44 1274.12 1341.1 1274.12C1341.19 1274.12 1341.29 1274.12 1341.38 1274.12V1274.12L1341.86 1274.14C1353.17 1274.54 1362.22 1283.84 1362.22 1295.25C1362.22 1306.91 1352.77 1316.37 1341.1 1316.37C1329.52 1316.37 1320.11 1307.05 1319.98 1295.5L1319.97 1295.25C1319.97 1281.59 1308.9 1270.52 1295.24 1270.52H1249.05L1248.63 1270.5C1237.31 1270.1 1228.27 1260.8 1228.27 1249.39L1228.27 1248.86C1228.55 1237.69 1237.49 1228.68 1248.63 1228.28L1249.03 1228.27H1295.25ZM1386.95 1228.27C1398.53 1228.27 1407.94 1237.59 1408.07 1249.14L1408.08 1249.47V1295.58L1408.06 1296.01C1407.66 1307.32 1398.36 1316.37 1386.95 1316.37C1375.54 1316.37 1366.25 1307.32 1365.84 1296.01L1365.83 1295.58V1249.39L1365.83 1249.14C1365.97 1237.77 1375.08 1228.56 1386.41 1228.28L1386.95 1228.27ZM1341.1 1228.27C1352.77 1228.27 1362.22 1237.73 1362.22 1249.39C1362.22 1261.06 1352.77 1270.52 1341.1 1270.52C1329.43 1270.52 1319.97 1261.06 1319.97 1249.39L1319.98 1248.85C1320.27 1237.43 1329.61 1228.27 1341.1 1228.27Z" fill="#FFE9CE" stroke="#FFF8EF"/>
</svg>
