<svg width="708" height="324" viewBox="0 0 708 324" fill="none" xmlns="http://www.w3.org/2000/svg">
<rect x="0.5" y="0.5" width="707" height="323" rx="23.5" fill="url(#paint0_linear_2972_3190)"/>
<rect x="0.5" y="0.5" width="707" height="323" rx="23.5" stroke="url(#paint1_linear_2972_3190)"/>
<rect x="165.5" y="104.5" width="116" height="116" stroke="#2B9FFF"/>
<path d="M196 191C196 183.268 202.268 177 210 177H224V191C224 198.732 217.732 205 210 205C202.268 205 196 198.732 196 191Z" fill="#24CB71"/>
<path d="M224 121V149H238C245.732 149 252 142.732 252 135C252 127.268 245.732 121 238 121H224Z" fill="#FF7237"/>
<path d="M237.883 177C245.615 177 251.883 170.732 251.883 163C251.883 155.268 245.615 149 237.883 149C230.151 149 223.883 155.268 223.883 163C223.883 170.732 230.151 177 237.883 177Z" fill="#00B6FF"/>
<path d="M196 135C196 142.732 202.268 149 210 149H224V121H210C202.268 121 196 127.268 196 135Z" fill="#FF3737"/>
<path d="M196 163C196 170.732 202.268 177 210 177H224V149H210C202.268 149 196 155.268 196 163Z" fill="#874FFF"/>
<rect x="278.25" y="101.25" width="6.5" height="6.5" fill="#DBDBDB" stroke="#2B9FFF" stroke-width="0.5"/>
<rect x="278.25" y="142.25" width="6.5" height="6.5" rx="3.25" fill="#DBDBDB" stroke="#2B9FFF" stroke-width="0.5"/>
<rect x="278.25" y="217.25" width="6.5" height="6.5" fill="#DBDBDB" stroke="#2B9FFF" stroke-width="0.5"/>
<rect x="162.25" y="101.25" width="6.5" height="6.5" fill="#DBDBDB" stroke="#2B9FFF" stroke-width="0.5"/>
<rect x="162.25" y="217.25" width="6.5" height="6.5" fill="#DBDBDB" stroke="#2B9FFF" stroke-width="0.5"/>
<path d="M285 145H284.5V146H285V145.5V145ZM421.854 191.854C422.049 191.658 422.049 191.342 421.854 191.146L418.672 187.964C418.476 187.769 418.16 187.769 417.964 187.964C417.769 188.16 417.769 188.476 417.964 188.672L420.793 191.5L417.964 194.328C417.769 194.524 417.769 194.84 417.964 195.036C418.16 195.231 418.476 195.231 418.672 195.036L421.854 191.854ZM354.917 184.402L355.362 184.175L354.917 184.402ZM360.598 190.083L360.371 190.529L360.598 190.083ZM346.402 146.917L346.175 147.362L346.402 146.917ZM285 145.5V146H332.7V145.5V145H285V145.5ZM353.5 166.3H353V170.7H353.5H354V166.3H353.5ZM374.3 191.5V192H421.5V191.5V191H374.3V191.5ZM353.5 170.7H353C353 174.332 353 177.086 353.179 179.279C353.358 181.478 353.721 183.156 354.471 184.629L354.917 184.402L355.362 184.175C354.696 182.867 354.35 181.335 354.175 179.198C354 177.055 354 174.349 354 170.7H353.5ZM374.3 191.5V191C370.651 191 367.945 191 365.802 190.825C363.665 190.65 362.133 190.304 360.825 189.638L360.598 190.083L360.371 190.529C361.844 191.279 363.522 191.642 365.721 191.821C367.914 192 370.668 192 374.3 192V191.5ZM354.917 184.402L354.471 184.629C355.766 187.169 357.831 189.234 360.371 190.529L360.598 190.083L360.825 189.638C358.473 188.439 356.561 186.527 355.362 184.175L354.917 184.402ZM332.7 145.5V146C336.349 146 339.055 146 341.198 146.175C343.335 146.35 344.867 146.696 346.175 147.362L346.402 146.917L346.629 146.471C345.156 145.721 343.478 145.358 341.279 145.179C339.086 145 336.332 145 332.7 145V145.5ZM353.5 166.3H354C354 162.668 354 159.914 353.821 157.721C353.642 155.522 353.279 153.844 352.529 152.371L352.083 152.598L351.638 152.825C352.304 154.133 352.65 155.665 352.825 157.802C353 159.945 353 162.651 353 166.3H353.5ZM346.402 146.917L346.175 147.362C348.527 148.561 350.439 150.473 351.638 152.825L352.083 152.598L352.529 152.371C351.234 149.831 349.169 147.766 346.629 146.471L346.402 146.917Z" fill="#2B9FFF"/>
<g clip-path="url(#clip0_2972_3190)">
<path d="M520.525 139.882L486.753 120.468C485.668 119.844 484.33 119.844 483.246 120.468L449.475 139.882C448.563 140.406 448 141.376 448 142.426V181.575C448 182.625 448.563 183.594 449.475 184.118L483.247 203.533C484.332 204.157 485.67 204.157 486.754 203.533L520.527 184.118C521.439 183.594 522.002 182.625 522.002 181.575V142.426C522.002 141.376 521.439 140.406 520.527 139.882H520.525ZM518.404 143.995L485.801 200.221C485.581 200.6 484.999 200.445 484.999 200.006V163.19C484.999 162.454 484.604 161.774 483.964 161.404L451.943 142.997C451.563 142.778 451.718 142.198 452.159 142.198H517.364C518.29 142.198 518.869 143.198 518.406 143.996H518.404V143.995Z" fill="#EDECEC"/>
</g>
<rect x="426.5" y="104.5" width="116" height="116" stroke="#2B9FFF"/>
<rect x="539.25" y="101.25" width="6.5" height="6.5" fill="#DBDBDB" stroke="#2B9FFF" stroke-width="0.5"/>
<rect x="539.25" y="217.25" width="6.5" height="6.5" fill="#DBDBDB" stroke="#2B9FFF" stroke-width="0.5"/>
<rect x="423.25" y="101.25" width="6.5" height="6.5" fill="#DBDBDB" stroke="#2B9FFF" stroke-width="0.5"/>
<rect x="423.25" y="188.25" width="6.5" height="6.5" rx="3.25" fill="#DBDBDB" stroke="#2B9FFF" stroke-width="0.5"/>
<rect x="423.25" y="217.25" width="6.5" height="6.5" fill="#DBDBDB" stroke="#2B9FFF" stroke-width="0.5"/>
<defs>
<linearGradient id="paint0_linear_2972_3190" x1="354" y1="0" x2="354" y2="324" gradientUnits="userSpaceOnUse">
<stop stop-color="#0F0F0F"/>
<stop offset="1" stop-color="#141414"/>
</linearGradient>
<linearGradient id="paint1_linear_2972_3190" x1="354" y1="0" x2="354" y2="324" gradientUnits="userSpaceOnUse">
<stop stop-color="white" stop-opacity="0.12"/>
<stop offset="1" stop-color="white" stop-opacity="0.04"/>
</linearGradient>
<clipPath id="clip0_2972_3190">
<rect width="74" height="84" fill="white" transform="translate(448 120)"/>
</clipPath>
</defs>
</svg>
