<svg width="708" height="292" viewBox="0 0 708 292" fill="none" xmlns="http://www.w3.org/2000/svg">
<rect x="0.5" y="0.5" width="707" height="291" rx="23.5" fill="url(#paint0_linear_2972_3098)"/>
<rect x="0.5" y="0.5" width="707" height="291" rx="23.5" stroke="url(#paint1_linear_2972_3098)"/>
<rect x="110.5" y="120.5" width="219" height="51" rx="25.5" fill="white" fill-opacity="0.06"/>
<rect x="110.5" y="120.5" width="219" height="51" rx="25.5" stroke="url(#paint2_linear_2972_3098)"/>
<path d="M155.305 147.115C155.305 149.096 155.053 150.9 154.549 152.529C154.045 154.146 153.295 155.541 152.299 156.713C151.314 157.873 150.09 158.77 148.625 159.402C147.16 160.035 145.461 160.352 143.527 160.352C141.535 160.352 139.795 160.035 138.307 159.402C136.83 158.77 135.6 157.867 134.615 156.695C133.643 155.523 132.91 154.123 132.418 152.494C131.938 150.865 131.697 149.061 131.697 147.08C131.697 144.455 132.131 142.152 132.998 140.172C133.865 138.191 135.178 136.65 136.936 135.549C138.705 134.447 140.92 133.896 143.58 133.896C146.123 133.896 148.262 134.441 149.996 135.531C151.742 136.621 153.061 138.156 153.951 140.137C154.854 142.105 155.305 144.432 155.305 147.115ZM134.844 147.115C134.844 149.295 135.154 151.182 135.775 152.775C136.396 154.369 137.346 155.6 138.623 156.467C139.912 157.334 141.547 157.768 143.527 157.768C145.52 157.768 147.148 157.334 148.414 156.467C149.691 155.6 150.635 154.369 151.244 152.775C151.854 151.182 152.158 149.295 152.158 147.115C152.158 143.799 151.461 141.209 150.066 139.346C148.684 137.471 146.521 136.533 143.58 136.533C141.588 136.533 139.947 136.961 138.658 137.816C137.369 138.672 136.408 139.891 135.775 141.473C135.154 143.043 134.844 144.924 134.844 147.115ZM169.648 140.383C172.051 140.383 173.967 141.209 175.396 142.861C176.826 144.514 177.541 146.998 177.541 150.314C177.541 152.506 177.213 154.346 176.557 155.834C175.9 157.322 174.975 158.447 173.779 159.209C172.596 159.971 171.195 160.352 169.578 160.352C168.559 160.352 167.662 160.217 166.889 159.947C166.115 159.678 165.453 159.314 164.902 158.857C164.352 158.4 163.895 157.902 163.531 157.363H163.32C163.355 157.82 163.396 158.371 163.443 159.016C163.502 159.66 163.531 160.223 163.531 160.703V168.613H160.596V140.734H163.004L163.391 143.582H163.531C163.906 142.996 164.363 142.463 164.902 141.982C165.441 141.49 166.098 141.104 166.871 140.822C167.656 140.529 168.582 140.383 169.648 140.383ZM169.139 142.844C167.803 142.844 166.725 143.102 165.904 143.617C165.096 144.133 164.504 144.906 164.129 145.938C163.754 146.957 163.555 148.24 163.531 149.787V150.35C163.531 151.979 163.707 153.355 164.059 154.48C164.422 155.605 165.014 156.461 165.834 157.047C166.666 157.633 167.779 157.926 169.174 157.926C170.369 157.926 171.365 157.604 172.162 156.959C172.959 156.314 173.551 155.418 173.938 154.27C174.336 153.109 174.535 151.779 174.535 150.279C174.535 148.006 174.09 146.201 173.199 144.865C172.32 143.518 170.967 142.844 169.139 142.844ZM190.057 140.383C191.697 140.383 193.104 140.746 194.275 141.473C195.447 142.199 196.344 143.219 196.965 144.531C197.586 145.832 197.896 147.355 197.896 149.102V150.912H184.59C184.625 153.174 185.188 154.896 186.277 156.08C187.367 157.264 188.902 157.855 190.883 157.855C192.102 157.855 193.18 157.744 194.117 157.521C195.055 157.299 196.027 156.971 197.035 156.537V159.104C196.062 159.537 195.096 159.854 194.135 160.053C193.186 160.252 192.061 160.352 190.76 160.352C188.908 160.352 187.291 159.977 185.908 159.227C184.537 158.465 183.471 157.352 182.709 155.887C181.947 154.422 181.566 152.629 181.566 150.508C181.566 148.434 181.912 146.641 182.604 145.129C183.307 143.605 184.291 142.434 185.557 141.613C186.834 140.793 188.334 140.383 190.057 140.383ZM190.021 142.773C188.463 142.773 187.221 143.283 186.295 144.303C185.369 145.322 184.818 146.746 184.643 148.574H194.838C194.826 147.426 194.645 146.418 194.293 145.551C193.953 144.672 193.432 143.992 192.729 143.512C192.025 143.02 191.123 142.773 190.021 142.773ZM211.977 140.383C214.262 140.383 215.99 140.945 217.162 142.07C218.334 143.184 218.92 144.977 218.92 147.449V160H216.037V147.643C216.037 146.037 215.668 144.836 214.93 144.039C214.203 143.242 213.084 142.844 211.572 142.844C209.439 142.844 207.939 143.447 207.072 144.654C206.205 145.861 205.771 147.613 205.771 149.91V160H202.854V140.734H205.209L205.648 143.512H205.807C206.217 142.832 206.738 142.264 207.371 141.807C208.004 141.338 208.713 140.986 209.498 140.752C210.283 140.506 211.109 140.383 211.977 140.383ZM249.225 153.162C249.225 154.686 248.844 155.986 248.082 157.064C247.332 158.131 246.277 158.945 244.918 159.508C243.559 160.07 241.959 160.352 240.119 160.352C239.146 160.352 238.227 160.305 237.359 160.211C236.492 160.117 235.695 159.982 234.969 159.807C234.242 159.631 233.604 159.414 233.053 159.156V156.291C233.932 156.654 235.004 156.994 236.27 157.311C237.535 157.615 238.859 157.768 240.242 157.768C241.531 157.768 242.621 157.598 243.512 157.258C244.402 156.906 245.076 156.408 245.533 155.764C246.002 155.107 246.236 154.322 246.236 153.408C246.236 152.529 246.043 151.797 245.656 151.211C245.27 150.613 244.625 150.074 243.723 149.594C242.832 149.102 241.613 148.58 240.066 148.029C238.977 147.643 238.016 147.221 237.184 146.764C236.352 146.295 235.654 145.768 235.092 145.182C234.529 144.596 234.102 143.916 233.809 143.143C233.527 142.369 233.387 141.484 233.387 140.488C233.387 139.117 233.732 137.945 234.424 136.973C235.127 135.988 236.094 135.238 237.324 134.723C238.566 134.195 239.99 133.932 241.596 133.932C242.967 133.932 244.232 134.061 245.393 134.318C246.564 134.576 247.637 134.922 248.609 135.355L247.678 137.922C246.752 137.535 245.768 137.213 244.725 136.955C243.693 136.697 242.627 136.568 241.525 136.568C240.424 136.568 239.492 136.732 238.73 137.061C237.98 137.377 237.406 137.828 237.008 138.414C236.609 139 236.41 139.697 236.41 140.506C236.41 141.408 236.598 142.158 236.973 142.756C237.359 143.354 237.969 143.887 238.801 144.355C239.645 144.812 240.758 145.293 242.141 145.797C243.652 146.348 244.936 146.934 245.99 147.555C247.045 148.164 247.848 148.914 248.398 149.805C248.949 150.684 249.225 151.803 249.225 153.162ZM261.248 140.418C263.545 140.418 265.25 140.934 266.363 141.965C267.477 142.996 268.033 144.643 268.033 146.904V160H265.906L265.344 157.152H265.203C264.664 157.855 264.102 158.447 263.516 158.928C262.93 159.396 262.25 159.754 261.477 160C260.715 160.234 259.777 160.352 258.664 160.352C257.492 160.352 256.449 160.146 255.535 159.736C254.633 159.326 253.918 158.705 253.391 157.873C252.875 157.041 252.617 155.986 252.617 154.709C252.617 152.787 253.379 151.311 254.902 150.279C256.426 149.248 258.746 148.686 261.863 148.592L265.186 148.451V147.273C265.186 145.609 264.828 144.443 264.113 143.775C263.398 143.107 262.391 142.773 261.09 142.773C260.082 142.773 259.121 142.92 258.207 143.213C257.293 143.506 256.426 143.852 255.605 144.25L254.709 142.035C255.576 141.59 256.572 141.209 257.697 140.893C258.822 140.576 260.006 140.418 261.248 140.418ZM265.15 150.508L262.215 150.631C259.812 150.725 258.119 151.117 257.135 151.809C256.15 152.5 255.658 153.479 255.658 154.744C255.658 155.846 255.992 156.66 256.66 157.188C257.328 157.715 258.213 157.979 259.314 157.979C261.025 157.979 262.426 157.504 263.516 156.555C264.605 155.605 265.15 154.182 265.15 152.283V150.508ZM283.168 140.383C285.453 140.383 287.182 140.945 288.354 142.07C289.525 143.184 290.111 144.977 290.111 147.449V160H287.229V147.643C287.229 146.037 286.859 144.836 286.121 144.039C285.395 143.242 284.275 142.844 282.764 142.844C280.631 142.844 279.131 143.447 278.264 144.654C277.396 145.861 276.963 147.613 276.963 149.91V160H274.045V140.734H276.4L276.84 143.512H276.998C277.408 142.832 277.93 142.264 278.562 141.807C279.195 141.338 279.904 140.986 280.689 140.752C281.475 140.506 282.301 140.383 283.168 140.383ZM308.586 154.727C308.586 155.957 308.275 156.994 307.654 157.838C307.045 158.67 306.166 159.297 305.018 159.719C303.881 160.141 302.521 160.352 300.939 160.352C299.592 160.352 298.426 160.246 297.441 160.035C296.457 159.824 295.596 159.525 294.857 159.139V156.449C295.643 156.836 296.58 157.188 297.67 157.504C298.76 157.82 299.873 157.979 301.01 157.979C302.674 157.979 303.881 157.709 304.631 157.17C305.381 156.631 305.756 155.898 305.756 154.973C305.756 154.445 305.604 153.982 305.299 153.584C305.006 153.174 304.508 152.781 303.805 152.406C303.102 152.02 302.129 151.598 300.887 151.141C299.656 150.672 298.59 150.209 297.688 149.752C296.797 149.283 296.105 148.715 295.613 148.047C295.133 147.379 294.893 146.512 294.893 145.445C294.893 143.816 295.549 142.568 296.861 141.701C298.186 140.822 299.92 140.383 302.064 140.383C303.225 140.383 304.309 140.5 305.316 140.734C306.336 140.957 307.285 141.262 308.164 141.648L307.18 143.986C306.383 143.646 305.533 143.359 304.631 143.125C303.729 142.891 302.809 142.773 301.871 142.773C300.523 142.773 299.486 142.996 298.76 143.441C298.045 143.887 297.688 144.496 297.688 145.27C297.688 145.867 297.852 146.359 298.18 146.746C298.52 147.133 299.059 147.496 299.797 147.836C300.535 148.176 301.508 148.574 302.715 149.031C303.922 149.477 304.965 149.939 305.844 150.42C306.723 150.889 307.396 151.463 307.865 152.143C308.346 152.811 308.586 153.672 308.586 154.727Z" fill="white"/>
<rect x="378.5" y="120.5" width="219" height="51" rx="25.5" fill="white" fill-opacity="0.06"/>
<rect x="378.5" y="120.5" width="219" height="51" rx="25.5" stroke="url(#paint3_linear_2972_3098)"/>
<path d="M432.971 132.406H441.443C443.365 132.406 444.988 132.699 446.312 133.285C447.648 133.871 448.662 134.738 449.354 135.887C450.057 137.023 450.408 138.424 450.408 140.088C450.408 141.26 450.168 142.332 449.688 143.305C449.219 144.266 448.539 145.086 447.648 145.766C446.77 146.434 445.715 146.932 444.484 147.26L443.535 147.629H435.572L435.537 144.869H441.549C442.768 144.869 443.781 144.658 444.59 144.236C445.398 143.803 446.008 143.223 446.418 142.496C446.828 141.77 447.033 140.967 447.033 140.088C447.033 139.104 446.84 138.242 446.453 137.504C446.066 136.766 445.457 136.197 444.625 135.799C443.805 135.389 442.744 135.184 441.443 135.184H436.363V158H432.971V132.406ZM447.93 158L441.707 146.398L445.24 146.381L451.551 157.789V158H447.93ZM453.801 148.701V148.297C453.801 146.926 454 145.654 454.398 144.482C454.797 143.299 455.371 142.273 456.121 141.406C456.871 140.527 457.779 139.848 458.846 139.367C459.912 138.875 461.107 138.629 462.432 138.629C463.768 138.629 464.969 138.875 466.035 139.367C467.113 139.848 468.027 140.527 468.777 141.406C469.539 142.273 470.119 143.299 470.518 144.482C470.916 145.654 471.115 146.926 471.115 148.297V148.701C471.115 150.072 470.916 151.344 470.518 152.516C470.119 153.688 469.539 154.713 468.777 155.592C468.027 156.459 467.119 157.139 466.053 157.631C464.998 158.111 463.803 158.352 462.467 158.352C461.131 158.352 459.93 158.111 458.863 157.631C457.797 157.139 456.883 156.459 456.121 155.592C455.371 154.713 454.797 153.688 454.398 152.516C454 151.344 453.801 150.072 453.801 148.701ZM457.053 148.297V148.701C457.053 149.65 457.164 150.547 457.387 151.391C457.609 152.223 457.943 152.961 458.389 153.605C458.846 154.25 459.414 154.76 460.094 155.135C460.773 155.498 461.564 155.68 462.467 155.68C463.357 155.68 464.137 155.498 464.805 155.135C465.484 154.76 466.047 154.25 466.492 153.605C466.938 152.961 467.271 152.223 467.494 151.391C467.729 150.547 467.846 149.65 467.846 148.701V148.297C467.846 147.359 467.729 146.475 467.494 145.643C467.271 144.799 466.932 144.055 466.475 143.41C466.029 142.754 465.467 142.238 464.787 141.863C464.119 141.488 463.334 141.301 462.432 141.301C461.541 141.301 460.756 141.488 460.076 141.863C459.408 142.238 458.846 142.754 458.389 143.41C457.943 144.055 457.609 144.799 457.387 145.643C457.164 146.475 457.053 147.359 457.053 148.297ZM475.176 131H478.445V154.309L478.164 158H475.176V131ZM491.295 148.332V148.701C491.295 150.084 491.131 151.367 490.803 152.551C490.475 153.723 489.994 154.742 489.361 155.609C488.729 156.477 487.955 157.15 487.041 157.631C486.127 158.111 485.078 158.352 483.895 158.352C482.688 158.352 481.627 158.146 480.713 157.736C479.811 157.314 479.049 156.711 478.428 155.926C477.807 155.141 477.309 154.191 476.934 153.078C476.57 151.965 476.318 150.711 476.178 149.316V147.699C476.318 146.293 476.57 145.033 476.934 143.92C477.309 142.807 477.807 141.857 478.428 141.072C479.049 140.275 479.811 139.672 480.713 139.262C481.615 138.84 482.664 138.629 483.859 138.629C485.055 138.629 486.115 138.863 487.041 139.332C487.967 139.789 488.74 140.445 489.361 141.301C489.994 142.156 490.475 143.182 490.803 144.377C491.131 145.561 491.295 146.879 491.295 148.332ZM488.025 148.701V148.332C488.025 147.383 487.938 146.492 487.762 145.66C487.586 144.816 487.305 144.078 486.918 143.445C486.531 142.801 486.021 142.297 485.389 141.934C484.756 141.559 483.977 141.371 483.051 141.371C482.23 141.371 481.516 141.512 480.906 141.793C480.309 142.074 479.799 142.455 479.377 142.936C478.955 143.404 478.609 143.943 478.34 144.553C478.082 145.15 477.889 145.771 477.76 146.416V150.652C477.947 151.473 478.252 152.264 478.674 153.025C479.107 153.775 479.682 154.391 480.396 154.871C481.123 155.352 482.02 155.592 483.086 155.592C483.965 155.592 484.715 155.416 485.336 155.064C485.969 154.701 486.479 154.203 486.865 153.57C487.264 152.938 487.557 152.205 487.744 151.373C487.932 150.541 488.025 149.65 488.025 148.701ZM494.547 148.701V148.297C494.547 146.926 494.746 145.654 495.145 144.482C495.543 143.299 496.117 142.273 496.867 141.406C497.617 140.527 498.525 139.848 499.592 139.367C500.658 138.875 501.854 138.629 503.178 138.629C504.514 138.629 505.715 138.875 506.781 139.367C507.859 139.848 508.773 140.527 509.523 141.406C510.285 142.273 510.865 143.299 511.264 144.482C511.662 145.654 511.861 146.926 511.861 148.297V148.701C511.861 150.072 511.662 151.344 511.264 152.516C510.865 153.688 510.285 154.713 509.523 155.592C508.773 156.459 507.865 157.139 506.799 157.631C505.744 158.111 504.549 158.352 503.213 158.352C501.877 158.352 500.676 158.111 499.609 157.631C498.543 157.139 497.629 156.459 496.867 155.592C496.117 154.713 495.543 153.688 495.145 152.516C494.746 151.344 494.547 150.072 494.547 148.701ZM497.799 148.297V148.701C497.799 149.65 497.91 150.547 498.133 151.391C498.355 152.223 498.689 152.961 499.135 153.605C499.592 154.25 500.16 154.76 500.84 155.135C501.52 155.498 502.311 155.68 503.213 155.68C504.104 155.68 504.883 155.498 505.551 155.135C506.23 154.76 506.793 154.25 507.238 153.605C507.684 152.961 508.018 152.223 508.24 151.391C508.475 150.547 508.592 149.65 508.592 148.701V148.297C508.592 147.359 508.475 146.475 508.24 145.643C508.018 144.799 507.678 144.055 507.221 143.41C506.775 142.754 506.213 142.238 505.533 141.863C504.865 141.488 504.08 141.301 503.178 141.301C502.287 141.301 501.502 141.488 500.822 141.863C500.154 142.238 499.592 142.754 499.135 143.41C498.689 144.055 498.355 144.799 498.133 145.643C497.91 146.475 497.799 147.359 497.799 148.297ZM523.902 138.98V141.477H513.619V138.98H523.902ZM517.1 134.357H520.352V153.289C520.352 153.934 520.451 154.42 520.65 154.748C520.85 155.076 521.107 155.293 521.424 155.398C521.74 155.504 522.08 155.557 522.443 155.557C522.713 155.557 522.994 155.533 523.287 155.486C523.592 155.428 523.82 155.381 523.973 155.346L523.99 158C523.732 158.082 523.393 158.158 522.971 158.229C522.561 158.311 522.062 158.352 521.477 158.352C520.68 158.352 519.947 158.193 519.279 157.877C518.611 157.561 518.078 157.033 517.68 156.295C517.293 155.545 517.1 154.537 517.1 153.271V134.357ZM526.504 148.701V148.297C526.504 146.926 526.703 145.654 527.102 144.482C527.5 143.299 528.074 142.273 528.824 141.406C529.574 140.527 530.482 139.848 531.549 139.367C532.615 138.875 533.811 138.629 535.135 138.629C536.471 138.629 537.672 138.875 538.738 139.367C539.816 139.848 540.73 140.527 541.48 141.406C542.242 142.273 542.822 143.299 543.221 144.482C543.619 145.654 543.818 146.926 543.818 148.297V148.701C543.818 150.072 543.619 151.344 543.221 152.516C542.822 153.688 542.242 154.713 541.48 155.592C540.73 156.459 539.822 157.139 538.756 157.631C537.701 158.111 536.506 158.352 535.17 158.352C533.834 158.352 532.633 158.111 531.566 157.631C530.5 157.139 529.586 156.459 528.824 155.592C528.074 154.713 527.5 153.688 527.102 152.516C526.703 151.344 526.504 150.072 526.504 148.701ZM529.756 148.297V148.701C529.756 149.65 529.867 150.547 530.09 151.391C530.312 152.223 530.646 152.961 531.092 153.605C531.549 154.25 532.117 154.76 532.797 155.135C533.477 155.498 534.268 155.68 535.17 155.68C536.061 155.68 536.84 155.498 537.508 155.135C538.188 154.76 538.75 154.25 539.195 153.605C539.641 152.961 539.975 152.223 540.197 151.391C540.432 150.547 540.549 149.65 540.549 148.701V148.297C540.549 147.359 540.432 146.475 540.197 145.643C539.975 144.799 539.635 144.055 539.178 143.41C538.732 142.754 538.17 142.238 537.49 141.863C536.822 141.488 536.037 141.301 535.135 141.301C534.244 141.301 533.459 141.488 532.779 141.863C532.111 142.238 531.549 142.754 531.092 143.41C530.646 144.055 530.312 144.799 530.09 145.643C529.867 146.475 529.756 147.359 529.756 148.297Z" fill="white"/>
<line y1="160.75" x2="708" y2="160.75" stroke="url(#paint4_linear_2972_3098)" stroke-width="0.5"/>
<line y1="133.75" x2="708" y2="133.75" stroke="url(#paint5_linear_2972_3098)" stroke-width="0.5"/>
<line y1="130.75" x2="708" y2="130.75" stroke="url(#paint6_linear_2972_3098)" stroke-width="0.5"/>
<line opacity="0.5" y1="119.75" x2="708" y2="119.75" stroke="url(#paint7_linear_2972_3098)" stroke-width="0.5"/>
<line opacity="0.5" y1="171.75" x2="708" y2="171.75" stroke="url(#paint8_linear_2972_3098)" stroke-width="0.5"/>
<line y1="157.75" x2="708" y2="157.75" stroke="url(#paint9_linear_2972_3098)" stroke-width="0.5"/>
<defs>
<linearGradient id="paint0_linear_2972_3098" x1="354" y1="0" x2="354" y2="292" gradientUnits="userSpaceOnUse">
<stop stop-color="#0F0F0F"/>
<stop offset="1" stop-color="#141414"/>
</linearGradient>
<linearGradient id="paint1_linear_2972_3098" x1="354" y1="0" x2="354" y2="292" gradientUnits="userSpaceOnUse">
<stop stop-color="white" stop-opacity="0.12"/>
<stop offset="1" stop-color="white" stop-opacity="0.04"/>
</linearGradient>
<linearGradient id="paint2_linear_2972_3098" x1="220" y1="120" x2="220" y2="172" gradientUnits="userSpaceOnUse">
<stop stop-color="white" stop-opacity="0.12"/>
<stop offset="1" stop-color="white" stop-opacity="0.06"/>
</linearGradient>
<linearGradient id="paint3_linear_2972_3098" x1="488" y1="120" x2="488" y2="172" gradientUnits="userSpaceOnUse">
<stop stop-color="white" stop-opacity="0.12"/>
<stop offset="1" stop-color="white" stop-opacity="0.06"/>
</linearGradient>
<linearGradient id="paint4_linear_2972_3098" x1="0" y1="161.5" x2="708" y2="161.5" gradientUnits="userSpaceOnUse">
<stop stop-color="#FFA629" stop-opacity="0"/>
<stop offset="0.5" stop-color="#FFA629" stop-opacity="0.8"/>
<stop offset="1" stop-color="#FFA629" stop-opacity="0"/>
</linearGradient>
<linearGradient id="paint5_linear_2972_3098" x1="0" y1="134.5" x2="708" y2="134.5" gradientUnits="userSpaceOnUse">
<stop stop-color="#FFA629" stop-opacity="0"/>
<stop offset="0.5" stop-color="#FFA629" stop-opacity="0.8"/>
<stop offset="1" stop-color="#FFA629" stop-opacity="0"/>
</linearGradient>
<linearGradient id="paint6_linear_2972_3098" x1="0" y1="131.5" x2="708" y2="131.5" gradientUnits="userSpaceOnUse">
<stop stop-color="#3AADFF" stop-opacity="0"/>
<stop offset="0.5" stop-color="#3AADFF" stop-opacity="0.8"/>
<stop offset="1" stop-color="#3AADFF" stop-opacity="0"/>
</linearGradient>
<linearGradient id="paint7_linear_2972_3098" x1="0" y1="120.5" x2="708" y2="120.5" gradientUnits="userSpaceOnUse">
<stop stop-color="white" stop-opacity="0"/>
<stop offset="0.5" stop-color="white" stop-opacity="0.24"/>
<stop offset="1" stop-color="white" stop-opacity="0"/>
</linearGradient>
<linearGradient id="paint8_linear_2972_3098" x1="0" y1="172.5" x2="708" y2="172.5" gradientUnits="userSpaceOnUse">
<stop stop-color="white" stop-opacity="0"/>
<stop offset="0.5" stop-color="white" stop-opacity="0.24"/>
<stop offset="1" stop-color="white" stop-opacity="0"/>
</linearGradient>
<linearGradient id="paint9_linear_2972_3098" x1="0" y1="158.5" x2="708" y2="158.5" gradientUnits="userSpaceOnUse">
<stop stop-color="#3AADFF" stop-opacity="0"/>
<stop offset="0.5" stop-color="#3AADFF" stop-opacity="0.8"/>
<stop offset="1" stop-color="#3AADFF" stop-opacity="0"/>
</linearGradient>
</defs>
</svg>
