<svg width="1901" height="700" viewBox="0 0 1901 700" fill="none" xmlns="http://www.w3.org/2000/svg">
<mask id="path-1-inside-1_3019_17903" fill="white">
<path d="M1417.5 164C1417.5 159.582 1421.08 156 1425.5 156H1643.5V206H1425.5C1421.08 206 1417.5 202.418 1417.5 198V164Z"/>
</mask>
<path d="M1416.5 164C1416.5 159.029 1420.53 155 1425.5 155H1643.5V157H1425.5C1421.63 157 1418.5 160.134 1418.5 164H1416.5ZM1643.5 207H1425.5C1420.53 207 1416.5 202.971 1416.5 198H1418.5C1418.5 201.866 1421.63 205 1425.5 205H1643.5V207ZM1425.5 207C1420.53 207 1416.5 202.971 1416.5 198V164C1416.5 159.029 1420.53 155 1425.5 155V157C1421.63 157 1418.5 160.134 1418.5 164V198C1418.5 201.866 1421.63 205 1425.5 205V207ZM1643.5 156V206V156Z" fill="#FFEFD4" fill-opacity="0.15" mask="url(#path-1-inside-1_3019_17903)"/>
<rect x="1430.5" y="174" width="114" height="14" rx="7" fill="#FFEFD4" fill-opacity="0.15"/>
<path d="M1685.5 156.5C1689.64 156.5 1693 159.858 1693 164V198C1693 202.142 1689.64 205.5 1685.5 205.5H1644V156.5H1685.5Z" stroke="#FFEFD4" stroke-opacity="0.15"/>
<path d="M1660.5 178.484L1668.99 186.97L1677.47 178.484" stroke="#FFEFD4" stroke-opacity="0.15" stroke-width="2"/>
<g clip-path="url(#clip0_3019_17903)">
<rect x="1015.5" y="131" width="161" height="11" rx="5.5" fill="#FFEFD4" fill-opacity="0.15"/>
</g>
<rect x="1015" y="130.5" width="254" height="12" rx="6" stroke="#FFEFD4" stroke-opacity="0.15"/>
<mask id="path-10-inside-2_3019_17903" fill="white">
<path d="M1164.5 517C1164.5 512.582 1168.08 509 1172.5 509H1432.5C1436.92 509 1440.5 512.582 1440.5 517V551C1440.5 555.418 1436.92 559 1432.5 559H1172.5C1168.08 559 1164.5 555.418 1164.5 551V517Z"/>
</mask>
<path d="M1172.5 509V510H1432.5V509V508H1172.5V509ZM1440.5 517H1439.5V551H1440.5H1441.5V517H1440.5ZM1432.5 559V558H1172.5V559V560H1432.5V559ZM1164.5 551H1165.5V517H1164.5H1163.5V551H1164.5ZM1172.5 559V558C1168.63 558 1165.5 554.866 1165.5 551H1164.5H1163.5C1163.5 555.971 1167.53 560 1172.5 560V559ZM1440.5 551H1439.5C1439.5 554.866 1436.37 558 1432.5 558V559V560C1437.47 560 1441.5 555.971 1441.5 551H1440.5ZM1432.5 509V510C1436.37 510 1439.5 513.134 1439.5 517H1440.5H1441.5C1441.5 512.029 1437.47 508 1432.5 508V509ZM1172.5 509V508C1167.53 508 1163.5 512.029 1163.5 517H1164.5H1165.5C1165.5 513.134 1168.63 510 1172.5 510V509Z" fill="#FFEFD4" fill-opacity="0.15" mask="url(#path-10-inside-2_3019_17903)"/>
<rect x="1177.5" y="527" width="114" height="14" rx="7" fill="#FFEFD4" fill-opacity="0.15"/>
<path d="M1424.5 525L1407.5 542M1407.5 525L1424.5 542" stroke="#FFEFD4" stroke-opacity="0.15" stroke-width="2"/>
<line x1="1391" y1="520" x2="1391" y2="548" stroke="#FFEFD4" stroke-opacity="0.15"/>
<rect x="781" y="578.5" width="202" height="12" rx="6" stroke="#FFEFD4" stroke-opacity="0.15"/>
<circle cx="923" cy="584.5" r="16.5" fill="#473628"/>
<defs>
<clipPath id="clip0_3019_17903">
<rect x="1015.5" y="131" width="253" height="11" rx="5.5" fill="white"/>
</clipPath>
</defs>
</svg>
