<svg width="361" height="250" viewBox="0 0 361 250" fill="none" xmlns="http://www.w3.org/2000/svg">
<rect x="-24" y="-79.5" width="409" height="409" rx="145" fill="#140800"/>
<rect x="-23.5" y="-79" width="408" height="408" rx="144.5" stroke="white" stroke-opacity="0.04"/>
<rect x="10" y="-45.5" width="341" height="341" rx="131" fill="#1D0C00"/>
<rect x="10.5" y="-45" width="340" height="340" rx="130.5" stroke="white" stroke-opacity="0.04"/>
<rect x="33" y="-22.5" width="295" height="295" rx="106" fill="#2D1200"/>
<rect x="33.5" y="-22" width="294" height="294" rx="105.5" stroke="white" stroke-opacity="0.04"/>
<rect x="62" y="7.5" width="236" height="236" rx="72" fill="#411F00"/>
<rect x="62.5" y="8" width="235" height="235" rx="71.5" stroke="white" stroke-opacity="0.04"/>
<rect x="94.8203" y="39.3203" width="171.598" height="171.598" rx="42" fill="#774000"/>
<rect x="95.3203" y="39.8203" width="170.598" height="170.598" rx="41.5" stroke="white" stroke-opacity="0.08"/>
<rect x="113.57" y="58.0703" width="134.098" height="134.098" rx="21" fill="#C17400"/>
<rect x="114.07" y="58.5703" width="133.098" height="133.098" rx="20.5" stroke="white" stroke-opacity="0.12"/>
<rect x="182.758" y="26.2656" width="0.474684" height="6.88291" transform="rotate(45 182.758 26.2656)" fill="#FFBE5C"/>
<rect width="0.474684" height="6.88291" transform="matrix(-0.707107 0.707107 0.707107 0.707107 178.227 26.2656)" fill="#FFBE5C"/>
<rect x="277.938" y="122.627" width="0.474684" height="6.88291" transform="rotate(45 277.938 122.627)" fill="#FFBE5C"/>
<rect width="0.474684" height="6.88291" transform="matrix(-0.707107 0.707107 0.707107 0.707107 273.406 122.627)" fill="#FFBE5C"/>
<line x1="181" y1="39.3203" x2="181" y2="210.918" stroke="white" stroke-opacity="0.15"/>
<line x1="181" y1="39.3203" x2="181" y2="210.918" stroke="white" stroke-opacity="0.15"/>
<line x1="94.8203" y1="124.5" x2="266.181" y2="124.5" stroke="white" stroke-opacity="0.15"/>
<line x1="94.8203" y1="124.5" x2="266.181" y2="124.5" stroke="white" stroke-opacity="0.15"/>
<line x1="171.484" y1="38.5566" x2="189.285" y2="38.5566" stroke="#FFBE5C" stroke-width="2"/>
<line x1="171.484" y1="209.916" x2="189.285" y2="209.916" stroke="#FFBE5C" stroke-width="2"/>
<line x1="265.422" y1="133.781" x2="265.422" y2="115.981" stroke="#FFBE5C" stroke-width="2"/>
<line x1="94.2969" y1="133.781" x2="94.2969" y2="115.981" stroke="#FFBE5C" stroke-width="2"/>
<g opacity="0.33">
<rect x="71.4375" y="12.7383" width="0.474684" height="6.88291" fill="#FFBE5C"/>
<rect width="0.474684" height="6.88291" transform="matrix(0 1 1 0 68.2344 15.9434)" fill="#FFBE5C"/>
</g>
<g opacity="0.33">
<rect x="71.4375" y="230.332" width="0.474684" height="6.88291" fill="#FFBE5C"/>
<rect width="0.474684" height="6.88291" transform="matrix(0 1 1 0 68.2344 233.537)" fill="#FFBE5C"/>
</g>
<g opacity="0.33">
<rect x="289.086" y="12.7383" width="0.474684" height="6.88291" fill="#FFBE5C"/>
<rect width="0.474684" height="6.88291" transform="matrix(0 1 1 0 285.875 15.9414)" fill="#FFBE5C"/>
</g>
<g opacity="0.33">
<rect x="289.086" y="230.381" width="0.474684" height="6.88291" fill="#FFBE5C"/>
<rect width="0.474684" height="6.88291" transform="matrix(0 1 1 0 285.875 233.586)" fill="#FFBE5C"/>
</g>
<path d="M133.577 157.869C141.469 157.869 147.866 164.266 147.866 172.157C147.866 180.049 141.469 186.446 133.577 186.446C125.686 186.446 119.289 180.048 119.289 172.157L119.294 171.788C119.49 164.068 125.809 157.869 133.577 157.869ZM164.937 157.869C172.828 157.869 179.225 164.266 179.226 172.157C179.226 180.049 172.828 186.446 164.937 186.446C157.045 186.446 150.648 180.049 150.648 172.157C150.649 164.266 157.045 157.869 164.937 157.869ZM227.655 126.509C235.547 126.509 241.944 132.907 241.944 140.799C241.944 148.517 235.824 154.804 228.173 155.076L227.81 155.089C227.758 155.088 227.707 155.087 227.655 155.087C218.375 155.087 210.824 162.493 210.591 171.717L210.589 171.836L210.583 172.33C210.491 180.142 204.13 186.446 196.297 186.446C188.463 186.446 182.101 180.142 182.009 172.33L182.004 171.836H182.003C181.832 162.557 174.257 155.087 164.937 155.087C164.885 155.087 164.834 155.088 164.782 155.089L164.421 155.076C156.769 154.804 150.649 148.517 150.648 140.799C150.648 132.908 157.045 126.509 164.937 126.509C172.77 126.509 179.131 132.814 179.224 140.626L179.228 140.982C179.326 150.325 186.931 157.869 196.297 157.869C205.663 157.869 213.266 150.325 213.365 140.982L213.369 140.626C213.461 132.814 219.821 126.509 227.655 126.509ZM227.655 157.869C235.547 157.869 241.944 164.266 241.944 172.157C241.944 180.049 235.547 186.446 227.655 186.446C219.764 186.446 213.367 180.049 213.367 172.157C213.367 164.266 219.764 157.869 227.655 157.869ZM164.937 95.1504C172.828 95.1504 179.225 101.547 179.226 109.438C179.226 117.157 173.105 123.445 165.453 123.717L165.091 123.729C165.04 123.729 164.988 123.728 164.937 123.728C155.617 123.728 148.042 131.197 147.87 140.476L147.864 140.97C147.772 148.782 141.411 155.087 133.577 155.087C125.686 155.087 119.289 148.69 119.289 140.799L119.294 140.433C119.487 132.767 125.716 126.601 133.406 126.511L133.899 126.505C143.159 126.334 150.616 118.791 150.647 109.498L150.65 109.267C150.743 101.455 157.103 95.1506 164.937 95.1504ZM196.297 126.509C204.188 126.509 210.585 132.908 210.585 140.799C210.585 148.69 204.188 155.087 196.297 155.087C188.406 155.087 182.007 148.69 182.007 140.799C182.007 132.907 188.405 126.509 196.297 126.509ZM133.577 95.1504C141.468 95.1504 147.866 101.547 147.866 109.438C147.866 117.33 141.469 123.728 133.577 123.728C125.686 123.727 119.289 117.33 119.289 109.438C119.289 101.547 125.686 95.1507 133.577 95.1504ZM164.944 63.791L165.109 63.793C172.864 63.8846 179.132 70.1535 179.224 77.9082L179.226 78.0791C179.226 87.5069 186.869 95.1504 196.297 95.1504C196.354 95.1504 196.412 95.1481 196.469 95.1475L196.812 95.1602C204.464 95.432 210.585 101.72 210.585 109.438C210.585 117.33 204.188 123.727 196.297 123.728C188.463 123.728 182.101 117.423 182.009 109.611L182.003 109.117C181.831 99.8379 174.257 92.3682 164.937 92.3682H133.344L133.061 92.3584C125.409 92.0863 119.289 85.7974 119.289 78.0791L119.294 77.7188C119.481 70.1663 125.529 64.0686 133.061 63.8008L133.328 63.791H164.944ZM227.655 63.791C235.489 63.791 241.849 70.0961 241.941 77.9082L241.944 78.1543V109.66L241.934 109.955C241.662 117.607 235.374 123.728 227.655 123.728C219.937 123.727 213.649 117.607 213.377 109.955L213.367 109.672V78.0723L213.369 77.9082C213.46 70.2182 219.624 63.9888 227.289 63.7959L227.655 63.791ZM196.297 63.791C204.188 63.7914 210.585 70.1882 210.585 78.0791C210.585 85.9703 204.188 92.3678 196.297 92.3682C188.405 92.3682 182.007 85.9705 182.007 78.0791C182.007 70.3112 188.207 63.9915 195.928 63.7959L196.297 63.791Z" fill="#FFE9CE" stroke="#FFF8EF"/>
</svg>
