<svg width="409" height="409" viewBox="0 0 409 409" fill="none" xmlns="http://www.w3.org/2000/svg">
<rect width="409" height="409" rx="145" fill="#140800"/>
<rect x="0.5" y="0.5" width="408" height="408" rx="144.5" stroke="white" stroke-opacity="0.04"/>
<rect x="34" y="34" width="341" height="341" rx="131" fill="#1D0C00"/>
<rect x="34.5" y="34.5" width="340" height="340" rx="130.5" stroke="white" stroke-opacity="0.04"/>
<rect x="57" y="57" width="295" height="295" rx="106" fill="#2D1200"/>
<rect x="57.5" y="57.5" width="294" height="294" rx="105.5" stroke="white" stroke-opacity="0.04"/>
<rect x="86" y="87" width="236" height="236" rx="72" fill="#411F00"/>
<rect x="86.5" y="87.5" width="235" height="235" rx="71.5" stroke="white" stroke-opacity="0.04"/>
<rect x="118.82" y="118.82" width="171.598" height="171.598" rx="42" fill="#774000"/>
<rect x="119.32" y="119.32" width="170.598" height="170.598" rx="41.5" stroke="white" stroke-opacity="0.08"/>
<rect x="137.57" y="137.57" width="134.098" height="134.098" rx="21" fill="#C17400"/>
<rect x="138.07" y="138.07" width="133.098" height="133.098" rx="20.5" stroke="white" stroke-opacity="0.12"/>
<rect x="206.758" y="105.766" width="0.474684" height="6.88291" transform="rotate(45 206.758 105.766)" fill="#FFBE5C"/>
<rect width="0.474684" height="6.88291" transform="matrix(-0.707107 0.707107 0.707107 0.707107 202.227 105.766)" fill="#FFBE5C"/>
<rect x="301.938" y="202.127" width="0.474684" height="6.88291" transform="rotate(45 301.938 202.127)" fill="#FFBE5C"/>
<rect width="0.474684" height="6.88291" transform="matrix(-0.707107 0.707107 0.707107 0.707107 297.406 202.127)" fill="#FFBE5C"/>
<line x1="205" y1="118.82" x2="205" y2="290.418" stroke="white" stroke-opacity="0.15"/>
<line x1="205" y1="118.82" x2="205" y2="290.418" stroke="white" stroke-opacity="0.15"/>
<line x1="118.82" y1="204" x2="290.181" y2="204" stroke="white" stroke-opacity="0.15"/>
<line x1="118.82" y1="204" x2="290.181" y2="204" stroke="white" stroke-opacity="0.15"/>
<line x1="195.484" y1="118.057" x2="213.285" y2="118.057" stroke="#FFBE5C" stroke-width="2"/>
<line x1="195.484" y1="289.416" x2="213.285" y2="289.416" stroke="#FFBE5C" stroke-width="2"/>
<line x1="289.422" y1="213.281" x2="289.422" y2="195.481" stroke="#FFBE5C" stroke-width="2"/>
<line x1="118.297" y1="213.281" x2="118.297" y2="195.481" stroke="#FFBE5C" stroke-width="2"/>
<g opacity="0.33">
<rect x="95.4453" y="92.2383" width="0.474684" height="6.88291" fill="#FFBE5C"/>
<rect width="0.474684" height="6.88291" transform="matrix(0 1 1 0 92.2422 95.4434)" fill="#FFBE5C"/>
</g>
<g opacity="0.33">
<rect x="95.4453" y="309.832" width="0.474684" height="6.88291" fill="#FFBE5C"/>
<rect width="0.474684" height="6.88291" transform="matrix(0 1 1 0 92.2422 313.037)" fill="#FFBE5C"/>
</g>
<g opacity="0.33">
<rect x="313.086" y="92.2363" width="0.474684" height="6.88291" fill="#FFBE5C"/>
<rect width="0.474684" height="6.88291" transform="matrix(0 1 1 0 309.883 95.4414)" fill="#FFBE5C"/>
</g>
<g opacity="0.33">
<rect x="313.086" y="309.881" width="0.474684" height="6.88291" fill="#FFBE5C"/>
<rect width="0.474684" height="6.88291" transform="matrix(0 1 1 0 309.883 313.084)" fill="#FFBE5C"/>
</g>
<path d="M157.577 237.369C165.469 237.369 171.866 243.766 171.866 251.657C171.866 259.549 165.469 265.946 157.577 265.946C149.686 265.946 143.289 259.548 143.289 251.657L143.294 251.288C143.49 243.568 149.809 237.369 157.577 237.369ZM188.937 237.369C196.828 237.369 203.225 243.766 203.226 251.657C203.226 259.549 196.828 265.946 188.937 265.946C181.045 265.946 174.648 259.549 174.648 251.657C174.649 243.766 181.045 237.369 188.937 237.369ZM251.655 206.009C259.547 206.009 265.944 212.407 265.944 220.299C265.944 228.017 259.824 234.304 252.173 234.576L251.81 234.589C251.758 234.588 251.707 234.587 251.655 234.587C242.375 234.587 234.824 241.993 234.591 251.217L234.589 251.336L234.583 251.83C234.491 259.642 228.13 265.946 220.297 265.946C212.463 265.946 206.101 259.642 206.009 251.83L206.004 251.336H206.003C205.832 242.057 198.257 234.587 188.937 234.587C188.885 234.587 188.834 234.588 188.782 234.589L188.421 234.576C180.769 234.304 174.649 228.017 174.648 220.299C174.648 212.408 181.045 206.009 188.937 206.009C196.77 206.009 203.131 212.314 203.224 220.126L203.228 220.482C203.326 229.825 210.931 237.369 220.297 237.369C229.663 237.369 237.266 229.825 237.365 220.482L237.369 220.126C237.461 212.314 243.821 206.009 251.655 206.009ZM251.655 237.369C259.547 237.369 265.944 243.766 265.944 251.657C265.944 259.549 259.547 265.946 251.655 265.946C243.764 265.946 237.367 259.549 237.367 251.657C237.367 243.766 243.764 237.369 251.655 237.369ZM188.937 174.65C196.828 174.65 203.225 181.047 203.226 188.938C203.226 196.657 197.105 202.945 189.453 203.217L189.091 203.229C189.04 203.229 188.988 203.228 188.937 203.228C179.617 203.228 172.042 210.697 171.87 219.976L171.864 220.47C171.772 228.282 165.411 234.587 157.577 234.587C149.686 234.587 143.289 228.19 143.289 220.299L143.294 219.933C143.487 212.267 149.716 206.101 157.406 206.011L157.899 206.005C167.159 205.834 174.616 198.291 174.647 188.998L174.65 188.767C174.743 180.955 181.103 174.651 188.937 174.65ZM220.297 206.009C228.188 206.009 234.585 212.408 234.585 220.299C234.585 228.19 228.188 234.587 220.297 234.587C212.406 234.587 206.007 228.19 206.007 220.299C206.007 212.407 212.405 206.009 220.297 206.009ZM157.577 174.65C165.468 174.65 171.866 181.047 171.866 188.938C171.866 196.83 165.469 203.228 157.577 203.228C149.686 203.227 143.289 196.83 143.289 188.938C143.289 181.047 149.686 174.651 157.577 174.65ZM188.944 143.291L189.109 143.293C196.864 143.385 203.132 149.653 203.224 157.408L203.226 157.579C203.226 167.007 210.869 174.65 220.297 174.65C220.354 174.65 220.412 174.648 220.469 174.647L220.812 174.66C228.464 174.932 234.585 181.22 234.585 188.938C234.585 196.83 228.188 203.227 220.297 203.228C212.463 203.228 206.101 196.923 206.009 189.111L206.003 188.617C205.831 179.338 198.257 171.868 188.937 171.868H157.344L157.061 171.858C149.409 171.586 143.289 165.297 143.289 157.579L143.294 157.219C143.481 149.666 149.529 143.569 157.061 143.301L157.328 143.291H188.944ZM251.655 143.291C259.489 143.291 265.849 149.596 265.941 157.408L265.944 157.654V189.16L265.934 189.455C265.662 197.107 259.374 203.228 251.655 203.228C243.937 203.227 237.649 197.107 237.377 189.455L237.367 189.172V157.572L237.369 157.408C237.46 149.718 243.624 143.489 251.289 143.296L251.655 143.291ZM220.297 143.291C228.188 143.291 234.585 149.688 234.585 157.579C234.585 165.47 228.188 171.868 220.297 171.868C212.405 171.868 206.007 165.471 206.007 157.579C206.007 149.811 212.207 143.491 219.928 143.296L220.297 143.291Z" fill="#FFE9CE" stroke="#FFF8EF"/>
</svg>
