<svg width="630" height="502" viewBox="0 0 630 502" fill="none" xmlns="http://www.w3.org/2000/svg">
<g id="beyond_svg">
<path id="b_left" d="M15 4.38281L15 498.883" stroke="#FA5242" stroke-width="30"/>
<path id="d_left" d="M547.5 4.38281L547.5 498.883" stroke="#FA5242" stroke-width="30"/>
<path id="e_left" d="M188.367 484.383H128.367L128.502 18.8828H203.002L240 151.383" stroke="#FA5242" stroke-width="30"/>
<path id="y" d="M277.718 3.88281L239 148.383V498.883" stroke="#FA5242" stroke-width="30"/>
<path id="e_middle" d="M128.5 116.883L184.997 116.883" stroke="#FA5242" stroke-width="30"/>
<path id="o_left" d="M343.993 18.8828H342.868C325.194 18.8828 310.867 33.21 310.868 50.8833L310.874 452.883C310.874 470.556 325.201 484.883 342.874 484.883H344" stroke="#FA5242" stroke-width="30"/>
<path id="o_right" d="M344.007 18.8828H345.132C362.806 18.8828 377.133 33.21 377.132 50.8833L377.126 452.883C377.126 470.556 362.799 484.883 345.126 484.883H344" stroke="#FA5242" stroke-width="30"/>
<path id="d_right" d="M532.5 18.8828H582.132C599.806 18.8828 614.133 33.21 614.132 50.8833L614.126 452.883C614.126 470.556 599.799 484.883 582.126 484.883H532.493" stroke="#FA5242" stroke-width="30"/>
<path id="n" d="M426 498.883V3.88281L498.5 498.883V3.88281" stroke="#FA5242" stroke-width="30"/>
<path id="b_right" d="M1 19.3828L50.6891 19.7309C65.5267 19.8348 77.5 31.8924 77.5 46.7302V86.0959C77.5 100.938 65.5197 112.998 50.6777 113.095L7 113.383H56C70.9117 113.383 83 125.471 83 140.383V456.883C83 471.795 70.9117 483.883 56 483.883H0" stroke="#FA5242" stroke-width="30"/>
</g>
</svg>
