<svg width="641" height="502" viewBox="0 0 641 502" fill="none" xmlns="http://www.w3.org/2000/svg">
<g id="beyond_svg">
<path id="b_left" d="M26 4.38281L26 498.883" stroke="#FA5242" stroke-width="30"/>
<path id="d_left" d="M558.5 4.38281L558.5 498.883" stroke="#FA5242" stroke-width="30"/>
<path id="e_left" d="M199.367 484.383H139.367L139.502 18.8828H214.002L251 151.383" stroke="#FA5242" stroke-width="30"/>
<path id="y" d="M288.718 3.88281L250 148.383V498.883" stroke="#FA5242" stroke-width="30"/>
<path id="e_middle" d="M139.5 116.883L195.997 116.883" stroke="#FA5242" stroke-width="30"/>
<path id="o_left" d="M354.993 18.8828H353.868C336.194 18.8828 321.867 33.21 321.868 50.8833L321.874 452.883C321.874 470.556 336.201 484.883 353.874 484.883H355" stroke="#FA5242" stroke-width="30"/>
<path id="o_right" d="M355.007 18.8828H356.132C373.806 18.8828 388.133 33.21 388.132 50.8833L388.126 452.883C388.126 470.556 373.799 484.883 356.126 484.883H355" stroke="#FA5242" stroke-width="30"/>
<path id="d_right" d="M543.5 18.8828H593.132C610.806 18.8828 625.133 33.21 625.132 50.8833L625.126 452.883C625.126 470.556 610.799 484.883 593.126 484.883H543.493" stroke="#FA5242" stroke-width="30"/>
<path id="n" d="M437 498.883V3.88281L509.5 498.883V3.88281" stroke="#FA5242" stroke-width="30"/>
<path id="b_right" d="M12 19.3828L61.6891 19.7309C76.5267 19.8348 88.5 31.8924 88.5 46.7302V86.0959C88.5 100.938 76.5197 112.998 61.6777 113.095L18 113.383H67C81.9117 113.383 94 125.471 94 140.383V456.883C94 471.795 81.9117 483.883 67 483.883H11" stroke="#FA5242" stroke-width="30"/>
</g>
</svg>
