<svg width="269" height="87" viewBox="0 0 269 87" fill="none" xmlns="http://www.w3.org/2000/svg">
<path fill-rule="evenodd" clip-rule="evenodd" d="M73.8968 0C75.8553 2.72995e-06 77.5089 0.307898 78.8577 0.923686C80.2064 1.53948 81.2966 2.43518 82.128 3.61077C82.9594 4.76771 83.5599 6.1859 83.9294 7.86532C84.3174 9.52609 84.5114 11.4201 84.5114 13.5474V72.6689C84.5114 75.8038 84.1419 78.4349 83.4028 80.5622C82.6823 82.6894 81.5367 84.2943 79.9663 85.3765C78.3958 86.4588 76.3449 87 73.8136 87C71.2824 87 69.213 86.4588 67.6056 85.3765C66.0166 84.2943 64.8434 82.6895 64.0859 80.5622C63.3283 78.4349 62.9496 75.8038 62.9496 72.6689V13.5474C62.9496 10.711 63.3191 8.28518 64.0581 6.26987C64.7972 4.25456 65.9704 2.70574 67.5779 1.62345C69.1853 0.541157 71.2916 0 73.8968 0ZM73.8968 6.49379C72.548 6.49379 71.6334 7.06294 71.1531 8.20121C70.6727 9.32083 70.4325 10.9816 70.4325 13.1835V72.7528C70.4325 74.5442 70.5064 76.0184 70.6542 77.1753C70.8205 78.3136 71.1438 79.1533 71.6242 79.6945C72.1231 80.2356 72.8529 80.5062 73.8136 80.5062C74.7374 80.5062 75.4303 80.2263 75.8922 79.6665C76.3541 79.1067 76.659 78.2576 76.8068 77.1194C76.9731 75.9624 77.0562 74.5069 77.0562 72.7528V13.2115C77.0562 11.0656 76.853 9.41413 76.4465 8.25719C76.0585 7.0816 75.2086 6.4938 73.8968 6.49379Z" fill="url(#paint0_linear_2364_4997)"/>
<path fill-rule="evenodd" clip-rule="evenodd" d="M10.5592 0.5878C13.0166 0.5878 14.9751 0.970336 16.4347 1.73541C17.8943 2.48182 18.9475 3.67608 19.5941 5.31819C20.2593 6.94164 20.5919 9.07824 20.5919 11.728V13.2395C20.5919 15.796 20.2593 17.9046 19.5941 19.5653C18.9475 21.2074 17.8574 22.3551 16.3238 23.0082C17.5987 23.4374 18.6149 24.2118 19.3724 25.3314C20.1484 26.4323 20.7027 27.7852 21.0353 29.39C21.3679 30.9761 21.5341 32.7209 21.5341 34.6242V72.4729C21.5157 75.7572 21.1369 78.4349 20.3979 80.5062C19.6588 82.5588 18.504 84.061 16.9335 85.0127C15.3631 85.9643 13.3122 86.4402 10.7809 86.4402H0V0.5878H10.5592ZM7.42748 80.6182H10.0604C11.0396 80.6182 11.8156 80.4036 12.3884 79.9744C12.9796 79.5265 13.4046 78.7895 13.6632 77.7631C13.9219 76.7368 14.0512 75.3373 14.0512 73.5646V33.0008C14.0512 30.6122 13.8203 28.8768 13.3584 27.7945C12.9149 26.6936 11.9819 26.1431 10.5592 26.1431H7.42748V80.6182ZM7.42748 20.517H10.1712C10.8179 20.517 11.3445 20.4237 11.7509 20.2371C12.1574 20.0505 12.4715 19.7333 12.6932 19.2854C12.9149 18.8189 13.0628 18.1751 13.1367 17.3541C13.229 16.533 13.2752 15.4881 13.2752 14.2192V11.2522C13.2752 9.92729 13.1551 8.91963 12.9149 8.2292C12.6748 7.53877 12.3052 7.07226 11.8064 6.82968C11.326 6.58709 10.6978 6.4658 9.92178 6.4658H7.42748V20.517Z" fill="url(#paint1_linear_2364_4997)"/>
<path d="M51.3616 19.0055H51.4724L55.7682 0.5878H62.8354L55.0476 30.1737V86.4402H47.6201V30.1737L41.2312 7.0536H31.293V21.3847H39.7736V27.7106H31.293V79.9744H40.5496V86.4402H23.8655V0.5878H46.5393L51.3616 19.0055Z" fill="url(#paint2_linear_2364_4997)"/>
<path d="M104.913 49.6297L103.499 16.7103V0.5878H110.178V86.4402H104.913L94.298 38.6445L94.7137 68.7782V86.4402H87.8682V0.5878H93.6883L104.913 49.6297Z" fill="url(#paint3_linear_2364_4997)"/>
<path fill-rule="evenodd" clip-rule="evenodd" d="M125.064 0.5878C127.54 0.587805 129.526 1.09163 131.023 2.09929C132.52 3.08828 133.6 4.52514 134.266 6.40982C134.949 8.29451 135.291 10.5711 135.291 13.2395L135.319 72.0531C135.319 75.2813 134.968 77.9684 134.266 80.1143C133.582 82.2416 132.473 83.8277 130.94 84.8727C129.406 85.9177 127.365 86.4402 124.815 86.4402H114.117V0.5878H125.064ZM121.545 80.6182H123.984C124.852 80.6182 125.572 80.4409 126.145 80.0864C126.736 79.7318 127.171 79.1067 127.448 78.211C127.743 77.2966 127.891 76.0091 127.891 74.3483L127.864 13.4354C127.864 10.9163 127.559 9.10624 126.949 8.00528C126.339 6.90433 125.268 6.35385 123.734 6.35384H121.545V80.6182Z" fill="url(#paint4_linear_2364_4997)"/>
<path fill-rule="evenodd" clip-rule="evenodd" d="M161.95 1.14761C163.89 1.14761 165.498 1.44618 166.772 2.0433C168.066 2.64043 169.082 3.52681 169.821 4.7024C170.56 5.878 171.087 7.33352 171.401 9.06891C171.715 10.7857 171.872 12.773 171.872 15.0309V16.0665C171.872 19.2388 171.595 21.9445 171.04 24.1838C170.505 26.4043 169.535 28.0931 168.13 29.25C166.726 30.407 164.749 30.9854 162.199 30.9855H158.181V87H150.753V1.14761H161.95ZM158.181 24.7996H160.731C161.821 24.7996 162.634 24.5196 163.169 23.9598C163.705 23.4 164.056 22.4763 164.223 21.1888C164.407 19.8826 164.5 18.1472 164.5 15.9826V15.0309C164.481 12.3625 164.25 10.3471 163.807 8.98494C163.363 7.60409 162.356 6.91366 160.786 6.91365H158.181V24.7996Z" fill="url(#paint5_linear_2364_4997)"/>
<path fill-rule="evenodd" clip-rule="evenodd" d="M185.788 1.14761C188.338 1.14762 190.241 1.65145 191.497 2.6591C192.753 3.66675 193.576 5.14094 193.964 7.08159C194.37 9.02226 194.573 11.3921 194.573 14.1912C194.573 17.0835 194.278 19.3601 193.686 21.0208C193.114 22.6629 191.931 23.7639 190.139 24.3237C190.989 24.473 191.7 24.8276 192.273 25.3874C192.846 25.9285 193.308 26.7309 193.659 27.7945C194.01 28.8395 194.259 30.1924 194.407 31.8532C194.573 33.4953 194.656 72.0997 194.656 74.4883V79.1067L194.712 82.5775C194.73 83.7344 194.758 84.7234 194.795 85.5445C194.832 86.3655 194.878 86.8507 194.934 87H187.506C187.451 86.9067 187.404 86.4309 187.368 85.5725C187.349 84.6954 187.321 83.5852 187.284 82.2416C187.266 80.8981 187.247 79.4519 187.229 77.9031V32.7489C187.229 31.2747 187.118 30.1644 186.896 29.418C186.693 28.6529 186.305 28.1211 185.732 27.8225C185.178 27.524 184.374 27.3467 183.321 27.2907L180.938 27.1508V87H173.51V1.14761H185.788ZM180.965 21.3287H183.931C184.836 21.3287 185.52 21.1235 185.982 20.713C186.462 20.3024 186.786 19.5467 186.952 18.4457C187.137 17.3448 187.229 15.7586 187.229 13.6873V13.3794C187.229 11.644 187.146 10.3098 186.98 9.37681C186.813 8.44382 186.462 7.80002 185.926 7.44547C185.409 7.09093 184.596 6.91365 183.488 6.91365H180.965V21.3287Z" fill="url(#paint6_linear_2364_4997)"/>
<path d="M252.704 1.14761L257.526 19.5653H257.637L261.933 1.14761H269L261.212 30.7335V87H253.785V30.7335L247.404 7.6414H242.529V87H235.13V7.6414H226.313V87H218.913V7.6414H213.204V7.61341H205.025V21.9445H213.506V28.2704H205.025V80.5342H214.282V87H197.598V1.14761H252.704Z" fill="url(#paint7_linear_2364_4997)"/>
<defs>
<linearGradient id="paint0_linear_2364_4997" x1="0" y1="0" x2="259.959" y2="91.6407" gradientUnits="userSpaceOnUse">
<stop stop-color="#882016"/>
<stop offset="0.55" stop-color="#F25A4C"/>
<stop offset="1" stop-color="#FFA1AB"/>
</linearGradient>
<linearGradient id="paint1_linear_2364_4997" x1="0" y1="0" x2="259.959" y2="91.6407" gradientUnits="userSpaceOnUse">
<stop stop-color="#882016"/>
<stop offset="0.55" stop-color="#F25A4C"/>
<stop offset="1" stop-color="#FFA1AB"/>
</linearGradient>
<linearGradient id="paint2_linear_2364_4997" x1="0" y1="0" x2="259.959" y2="91.6407" gradientUnits="userSpaceOnUse">
<stop stop-color="#882016"/>
<stop offset="0.55" stop-color="#F25A4C"/>
<stop offset="1" stop-color="#FFA1AB"/>
</linearGradient>
<linearGradient id="paint3_linear_2364_4997" x1="0" y1="0" x2="259.959" y2="91.6407" gradientUnits="userSpaceOnUse">
<stop stop-color="#882016"/>
<stop offset="0.55" stop-color="#F25A4C"/>
<stop offset="1" stop-color="#FFA1AB"/>
</linearGradient>
<linearGradient id="paint4_linear_2364_4997" x1="0" y1="0" x2="259.959" y2="91.6407" gradientUnits="userSpaceOnUse">
<stop stop-color="#882016"/>
<stop offset="0.55" stop-color="#F25A4C"/>
<stop offset="1" stop-color="#FFA1AB"/>
</linearGradient>
<linearGradient id="paint5_linear_2364_4997" x1="0" y1="0" x2="259.959" y2="91.6407" gradientUnits="userSpaceOnUse">
<stop stop-color="#882016"/>
<stop offset="0.55" stop-color="#F25A4C"/>
<stop offset="1" stop-color="#FFA1AB"/>
</linearGradient>
<linearGradient id="paint6_linear_2364_4997" x1="0" y1="0" x2="259.959" y2="91.6407" gradientUnits="userSpaceOnUse">
<stop stop-color="#882016"/>
<stop offset="0.55" stop-color="#F25A4C"/>
<stop offset="1" stop-color="#FFA1AB"/>
</linearGradient>
<linearGradient id="paint7_linear_2364_4997" x1="0" y1="0" x2="259.959" y2="91.6407" gradientUnits="userSpaceOnUse">
<stop stop-color="#882016"/>
<stop offset="0.55" stop-color="#F25A4C"/>
<stop offset="1" stop-color="#FFA1AB"/>
</linearGradient>
</defs>
</svg>
