<svg width="631" height="500" viewBox="0 0 631 500" fill="none" xmlns="http://www.w3.org/2000/svg">
<g id="beyond_svg">
<path id="b_left" d="M16 2.67383L16 497.174" stroke="#FA5242" stroke-width="30"/>
<path id="d_left" d="M548.5 2.67383L548.5 497.174" stroke="#FA5242" stroke-width="30"/>
<path id="e_left" d="M189.367 482.674H129.367L129.502 17.1738H204.002L241 149.674" stroke="#FA5242" stroke-width="30"/>
<path id="y" d="M277 5.67383L240 146.674V497.174" stroke="#FA5242" stroke-width="30"/>
<path id="e_middle" d="M129.5 115.174L185.997 115.174" stroke="#FA5242" stroke-width="30"/>
<path id="o_left" d="M344.993 17.1738H343.868C326.194 17.1738 311.867 31.501 311.868 49.1743L311.874 451.174C311.874 468.847 326.201 483.174 343.874 483.174H345" stroke="#FA5242" stroke-width="30"/>
<path id="o_right" d="M345.007 17.1738H346.132C363.806 17.1738 378.133 31.501 378.132 49.1743L378.126 451.174C378.126 468.847 363.799 483.174 346.126 483.174H345" stroke="#FA5242" stroke-width="30"/>
<path id="d_right" d="M533.5 17.1738H583.132C600.806 17.1738 615.133 31.501 615.132 49.1743L615.126 451.174C615.126 468.847 600.799 483.174 583.126 483.174H533.493" stroke="#FA5242" stroke-width="30"/>
<path id="n" d="M427 497.174V2.17383L499.5 497.174V2.17383" stroke="#FA5242" stroke-width="30"/>
<path id="b_right" d="M2 17.6738L51.6891 18.0219C66.5267 18.1259 78.5 30.1834 78.5 45.0212V84.3869C78.5 99.2292 66.5197 111.289 51.6777 111.386L8 111.674H57C71.9117 111.674 84 123.762 84 138.674V455.174C84 470.086 71.9117 482.174 57 482.174H1" stroke="#FA5242" stroke-width="30"/>
</g>
</svg>
