<svg width="631" height="500" viewBox="0 0 631 500" fill="none" xmlns="http://www.w3.org/2000/svg">
<g id="beyond_base">
<path id="Union" d="M484.5 291.252V2.17383H514.5V497.174L484.658 499.348L442 208.095V497.174H412V2.17383L441.842 0L484.5 291.252ZM346.133 2.17383C372.09 2.17409 393.132 23.2173 393.132 49.1748L393.126 451.175C393.125 477.132 372.083 498.174 346.126 498.174H343.874C317.917 498.174 296.875 477.132 296.874 451.175L296.868 49.1748C296.868 23.2171 317.911 2.17383 343.868 2.17383H346.133ZM583.133 2.17383C609.09 2.17409 630.132 23.2173 630.132 49.1748L630.126 451.175C630.125 477.132 609.083 498.174 583.126 498.174H533.493V468.174H533.5V2.17383H583.133ZM291.509 9.48145L255 148.609V497.174H225V148.146L192.616 32.1738H144.498L144.478 100.174H185.997V130.174H144.47L144.371 467.674H189.367V497.674H114.363L114.507 2.17383H215.388L239.629 88.9902L262.491 1.86621L291.509 9.48145ZM31 2.87598L51.7939 3.02246C74.8745 3.18415 93.5 21.9403 93.5 45.0215V84.3867C93.5 93.2759 90.7349 101.522 86.0195 108.312C94.0177 115.959 99 126.735 99 138.674V455.174C99 478.37 80.196 497.174 57 497.174H1V2.67383H31V2.87598ZM343.868 32.1738C334.479 32.1738 326.867 39.785 326.867 49.1738L326.874 451.174C326.874 460.563 334.485 468.174 343.874 468.174H346.126C355.515 468.174 363.126 460.563 363.126 451.174L363.133 49.1738L363.127 48.7354C362.894 39.5493 355.375 32.1741 346.133 32.1738H343.868ZM563.5 468.174H583.126C592.515 468.174 600.126 460.563 600.126 451.174L600.133 49.1738L600.127 48.7354C599.894 39.5493 592.375 32.1741 583.133 32.1738H563.5V468.174ZM31 467.174H57C63.6274 467.174 69 461.801 69 455.174V138.674C69 132.046 63.6274 126.674 57 126.674H31V467.174ZM31 96.5215L51.5791 96.3867C58.1755 96.3432 63.5 90.9833 63.5 84.3867V45.0215C63.5 38.4269 58.1784 33.0677 51.584 33.0215L31 32.877V96.5215Z" fill="url(#paint0_linear_2713_2211)"/>
</g>
<defs>
<linearGradient id="paint0_linear_2713_2211" x1="0.999998" y1="-0.116781" x2="628.331" y2="501.263" gradientUnits="userSpaceOnUse">
<stop stop-color="#8A2118"/>
<stop offset="1" stop-color="#D64A3E"/>
</linearGradient>
</defs>
</svg>
