<svg width="633" height="497" viewBox="0 0 633 497" fill="none" xmlns="http://www.w3.org/2000/svg">
<path fill-rule="evenodd" clip-rule="evenodd" d="M345.455 0C354.61 1.26676e-05 362.341 1.42872 368.646 4.28613C374.951 7.14355 380.047 11.2998 383.934 16.7549C387.821 22.1234 390.628 28.7041 392.355 36.4971C394.169 44.2034 395.076 52.9922 395.076 62.8633V430.355C395.076 444.902 393.349 457.111 389.894 466.982C386.525 476.853 381.17 484.3 373.828 489.322C366.487 494.344 356.899 496.855 345.066 496.855C333.233 496.855 323.559 494.344 316.044 489.322C308.616 484.3 303.132 476.853 299.59 466.982C296.049 457.111 294.278 444.902 294.278 430.355V62.8633C294.278 49.7018 296.006 38.4453 299.461 29.0938C302.916 19.7422 308.4 12.5553 315.915 7.5332C323.429 2.51111 333.276 0 345.455 0ZM345.455 30.1328C339.149 30.1328 334.874 32.7738 332.628 38.0557C330.382 43.251 329.26 50.9574 329.26 61.1748V430.745C329.26 439.058 329.605 445.898 330.296 451.267C331.073 456.548 332.585 460.445 334.831 462.956C337.163 465.467 340.574 466.723 345.066 466.723C349.385 466.723 352.624 465.424 354.783 462.826C356.942 460.229 358.367 456.289 359.058 451.007C359.836 445.638 360.224 438.884 360.224 430.745V61.3047C360.224 51.347 359.274 43.6839 357.374 38.3154C355.56 32.8604 351.587 30.1328 345.455 30.1328Z" fill="url(#paint0_linear_2460_1512)"/>
<path fill-rule="evenodd" clip-rule="evenodd" d="M49.3625 2.72754C60.8502 2.72754 70.0058 4.5026 76.8293 8.05273C83.6528 11.5163 88.5761 17.0579 91.5991 24.6777C94.7086 32.2109 96.2633 42.1253 96.2633 54.4209V61.4346C96.2633 73.2972 94.7086 83.0817 91.5991 90.7881C88.5761 98.4079 83.48 103.733 76.311 106.764C82.2708 108.755 87.0213 112.349 90.5627 117.544C94.1903 122.653 96.7816 128.93 98.3363 136.377C99.891 143.737 100.668 151.833 100.668 160.665V429.446C100.582 444.686 98.8113 457.111 95.3564 466.723C91.9014 476.247 86.5031 483.218 79.1614 487.634C71.8196 492.05 62.2321 494.258 50.399 494.258H0V2.72754H49.3625ZM34.7222 467.242H47.0304C51.6082 467.242 55.2359 466.246 57.9135 464.255C60.6774 462.177 62.664 458.757 63.8732 453.994C65.0825 449.232 65.6871 442.738 65.6871 434.512V153.132C65.6871 142.049 64.6074 133.996 62.4481 128.974C60.3751 123.865 56.0132 121.311 49.3625 121.311H34.7222V467.242ZM34.7222 95.2041H47.5486C50.5717 95.2041 53.0334 94.7712 54.9336 93.9053C56.8338 93.0394 58.3021 91.5674 59.3386 89.4893C60.3751 87.3245 61.0661 84.3372 61.4116 80.5273C61.8435 76.7174 62.0594 71.8685 62.0594 65.9805V52.2129C62.0594 46.0651 61.498 41.3893 60.3751 38.1855C59.2523 34.9818 57.5248 32.8171 55.1927 31.6914C52.947 30.5658 50.0103 30.0029 46.3826 30.0029H34.7222V95.2041Z" fill="url(#paint1_linear_2460_1512)"/>
<path d="M240.106 88.1904H240.625L260.707 2.72754H293.744L257.338 140.014V494.258H222.616V140.014L192.749 32.7305H146.289V99.2305H185.935V128.584H146.289V464.255H189.562V494.258H111.567V2.72754H217.563L240.106 88.1904Z" fill="url(#paint2_linear_2460_1512)"/>
<path d="M486.302 267.32L483.841 77.54V2.72754H515.065V494.258H490.448L440.827 179.32L442.77 412.302V494.258H410.769V2.72754H437.976L486.302 267.32Z" fill="url(#paint3_linear_2460_1512)"/>
<path fill-rule="evenodd" clip-rule="evenodd" d="M584.654 2.72754C596.228 2.72756 605.513 5.06545 612.51 9.74121C619.506 14.3304 624.559 20.9978 627.668 29.7432C630.864 38.4886 632.462 49.0524 632.462 61.4346L632.591 427.498C632.591 442.478 630.95 454.947 627.668 464.904C624.472 474.775 619.29 482.135 612.121 486.984C604.952 491.833 595.408 494.258 583.488 494.258H533.478V2.72754H584.654ZM568.2 467.242H579.601C583.661 467.242 587.029 466.42 589.707 464.774C592.471 463.129 594.501 460.228 595.796 456.072C597.178 451.829 597.869 445.855 597.869 438.148L597.74 62.3438C597.74 50.6544 596.314 42.2552 593.464 37.1465C590.614 32.0378 585.604 29.4834 578.435 29.4834H568.2V467.242Z" fill="url(#paint4_linear_2460_1512)"/>
<defs>
<linearGradient id="paint0_linear_2460_1512" x1="0" y1="0" x2="1692.94" y2="693.96" gradientUnits="userSpaceOnUse">
<stop stop-color="#882016"/>
<stop offset="0.55" stop-color="#F25A4C"/>
<stop offset="1" stop-color="#FFA1AB"/>
</linearGradient>
<linearGradient id="paint1_linear_2460_1512" x1="0" y1="0" x2="1692.94" y2="693.96" gradientUnits="userSpaceOnUse">
<stop stop-color="#882016"/>
<stop offset="0.55" stop-color="#F25A4C"/>
<stop offset="1" stop-color="#FFA1AB"/>
</linearGradient>
<linearGradient id="paint2_linear_2460_1512" x1="0" y1="0" x2="1692.94" y2="693.96" gradientUnits="userSpaceOnUse">
<stop stop-color="#882016"/>
<stop offset="0.55" stop-color="#F25A4C"/>
<stop offset="1" stop-color="#FFA1AB"/>
</linearGradient>
<linearGradient id="paint3_linear_2460_1512" x1="0" y1="0" x2="1692.94" y2="693.96" gradientUnits="userSpaceOnUse">
<stop stop-color="#882016"/>
<stop offset="0.55" stop-color="#F25A4C"/>
<stop offset="1" stop-color="#FFA1AB"/>
</linearGradient>
<linearGradient id="paint4_linear_2460_1512" x1="0" y1="0" x2="1692.94" y2="693.96" gradientUnits="userSpaceOnUse">
<stop stop-color="#882016"/>
<stop offset="0.55" stop-color="#F25A4C"/>
<stop offset="1" stop-color="#FFA1AB"/>
</linearGradient>
</defs>
</svg>
