<svg width="16" height="17" viewBox="0 0 16 17" fill="none" xmlns="http://www.w3.org/2000/svg">
<path fill-rule="evenodd" clip-rule="evenodd" d="M5.9974 3.83333H4.66406C4.29587 3.83333 3.9974 4.13181 3.9974 4.5V5.83333V9.83333V11.7195C3.2206 11.445 2.66406 10.7041 2.66406 9.83333V4.5C2.66406 3.39543 3.55949 2.5 4.66406 2.5H8.66406C9.53487 2.5 10.2757 3.05654 10.5503 3.83333H8.66406H5.9974ZM7.33073 6.5H11.3307C11.6989 6.5 11.9974 6.79848 11.9974 7.16667V12.5C11.9974 12.8682 11.6989 13.1667 11.3307 13.1667H7.33073C6.96254 13.1667 6.66406 12.8682 6.66406 12.5V7.16667C6.66406 6.79848 6.96254 6.5 7.33073 6.5ZM5.33073 7.16667C5.33073 6.0621 6.22616 5.16667 7.33073 5.16667H11.3307C12.4353 5.16667 13.3307 6.0621 13.3307 7.16667V12.5C13.3307 13.6046 12.4353 14.5 11.3307 14.5H7.33073C6.22616 14.5 5.33073 13.6046 5.33073 12.5V7.16667Z" fill="white"/>
</svg>
