<svg width="20" height="20" viewBox="0 0 20 20" fill="none" xmlns="http://www.w3.org/2000/svg">
<path fill-rule="evenodd" clip-rule="evenodd" d="M9.16406 10.4882L6.41998 7.74408C6.09455 7.41864 5.56691 7.41864 5.24147 7.74408C4.91604 8.06951 4.91604 8.59715 5.24147 8.92259L8.81888 12.5C9.46976 13.1509 10.525 13.1509 11.1759 12.5L14.7533 8.92259C15.0788 8.59715 15.0788 8.06952 14.7533 7.74408C14.4279 7.41864 13.9002 7.41864 13.5748 7.74408L10.8307 10.4882L10.8307 3.33333C10.8307 2.8731 10.4576 2.5 9.9974 2.5C9.53716 2.5 9.16406 2.8731 9.16406 3.33333L9.16406 10.4882ZM4.16406 16.6667C4.16406 16.2064 4.53716 15.8333 4.9974 15.8333H14.9974C15.4576 15.8333 15.8307 16.2064 15.8307 16.6667C15.8307 17.1269 15.4576 17.5 14.9974 17.5H4.9974C4.53716 17.5 4.16406 17.1269 4.16406 16.6667Z" fill="#FB8E84"/>
</svg>
