<svg width="361" height="250" viewBox="0 0 361 250" fill="none" xmlns="http://www.w3.org/2000/svg">
<g clip-path="url(#clip0_3021_18154)">
<rect width="361" height="250" fill="url(#paint0_linear_3021_18154)"/>
<path d="M287.098 149.018H272.361V154.759H257.624V158.859H242.888V162.96H228.15V167.881H213.414V172.803H198.678V158.859H183.94V162.96H169.204V167.881H154.467V172.803H139.73V176.083H124.993V181.004H110.257V187.565H95.5195V193.307H80.7832V199.048H21.8311V201.44H-6V195.354L-2.77441 194.28L-0.22168 191.252L2.04492 192.134H4.75195L6.47266 195.354L9.65527 193.393L12.4932 195.139L15.9336 194.28L18.9443 195.567L21.0947 194.28L23.7148 183.87L26.1914 180.589L27.8418 174.848L31.9688 173.207L34.4453 166.646L36.9219 173.207L39.3975 166.646L40.6631 160.154L42.8135 156.803L45.1758 152.701L48.4775 155.982L50.9531 152.701L53.4297 160.904L55.9316 164.447L58.082 160.904L60.4473 146.204L63.335 146.96L64.9854 142.039L67.3281 144.058L69.2637 137.117L72.4893 140.839L75.7158 137.938L79.0176 142.039L81.4941 142.984L82.5957 129.735L84.7959 128.095L86.6816 124.814L88.9229 128.095L90.9824 133.756L94.7002 124.814L96.3516 118.252L99.584 116.611L101.949 113.366L103.885 119.893L106.25 115.942L109.558 114.972L111.626 121.093L113.991 116.611L115.336 109.229L118.508 104.781L121.113 107.589L123.023 112.511L125.389 107.589L128.399 112.079L131.019 110.87L132.67 118.252L136.797 122.354L138.447 129.735L139.796 115.942L141.749 112.511L145.051 119.893L146.247 130.322L148.353 136.297L153.305 137.117L156.14 142.126L159.908 137.117V129.735L161.085 123.883L163.21 122.354L164.86 131.376L166.892 137.404L169.472 134.399L170.639 149.421L172.482 154.789L175.277 150.926L176.416 143.679L178.719 140.624L180.543 133.017L184.671 137.938L187.146 135.477L189.623 129.735L192.48 135.044L195.4 133.017L197.877 139.578L201.179 135.477L202.829 127.274L205.813 126.029L209.433 129.735L211.084 119.893L214.845 121.308L216.995 115.942L220.221 118.252L223.231 116.586L227.102 115.513L229.897 117.444L232.048 129.249L234.198 131.824L235.703 112.511L238.714 110.147L241.624 112.511L243.274 106.77L245.751 107.589L247.402 100.207L249.878 97.7471L253.18 100.207L254.831 89.5439L257.307 90.3643L258.958 83.8027L262.26 82.1621L264.735 89.5439L268.037 85.4434L268.862 79.7021L272.989 78.0615L274.641 70.6797L278.281 69.0391L280.861 79.7021L283.442 69.0391L287.098 66.793V149.018Z" fill="url(#paint1_linear_3021_18154)"/>
<path d="M-6 201.441H21.8312V199.048H80.7846V193.307H95.5213V187.566H110.258V181.005H124.995V176.083H139.732V172.803H154.468V167.882H169.205V162.961H183.942V158.86H198.679V172.803H213.415V167.882H228.152V162.961H242.889V158.86H257.626V154.759H272.362V149.018H286.543" stroke="#3F3F3F"/>
<path d="M-6 195.355L-2.77442 194.282L-0.222107 191.254L2.04497 192.136H4.75194L6.47225 195.355L9.65508 193.395L12.4933 195.141L15.934 194.282L18.9445 195.57L21.0949 194.282L23.7149 183.872L26.1911 180.591L27.8419 174.85L31.969 173.209L34.4453 166.648L36.9215 173.209L39.3977 166.648L40.6634 160.157L42.8138 156.805L45.1756 152.704L48.4773 155.985L50.9535 152.704L53.4298 160.906L55.9312 164.449L58.0815 160.906L60.447 146.206L63.3347 146.962L64.9855 142.041L67.3282 144.06L69.2636 137.12L72.4891 140.841L75.7159 137.94L79.0176 142.041L81.4938 142.987L82.596 129.738L84.7955 128.097L86.6817 124.816L88.9225 128.097L90.9825 133.758L94.7004 124.816L96.3512 118.254L99.584 116.614L101.949 113.369L103.885 119.895L106.25 115.944L109.558 114.973L111.626 121.095L113.992 116.614L115.336 109.232L118.507 104.784L121.114 107.591L123.023 112.513L125.389 107.591L128.399 112.081L131.019 110.872L132.669 118.254L136.796 122.356L138.447 129.738L139.796 115.944L141.749 112.513L145.051 119.895L146.247 130.324L148.352 136.299L153.305 137.12L156.139 142.128L159.908 137.12V129.738L161.085 123.885L163.21 122.356L164.861 131.378L166.891 137.407L169.472 134.402L170.638 149.423L172.482 154.791L175.278 150.928L176.416 143.681L178.718 140.626L180.543 133.018L184.67 137.94L187.147 135.479L189.623 129.738L192.481 135.046L195.401 133.018L197.877 139.58L201.179 135.479L202.83 127.277L205.813 126.031L209.433 129.738L211.084 119.895L214.845 121.31L216.995 115.944L220.221 118.254L223.231 116.588L227.102 115.515L229.897 117.446L232.048 129.251L234.198 131.826L235.704 112.513L238.714 110.149L241.624 112.513L243.275 106.771L245.751 107.591L247.402 100.209L249.878 97.7488L253.18 100.209L254.831 89.5466L257.307 90.3668L258.958 83.805L262.259 82.1645L264.736 89.5466L268.037 85.4454L268.863 79.7039L272.99 78.0634L274.641 70.6814L278.281 69.041L280.862 79.7039L283.442 69.041L287.098 66.7949" stroke="url(#paint2_linear_3021_18154)"/>
<path opacity="0.48" d="M286.992 149.417L286.992 134.498H301.339V126.544H316.075V117.824H330.812" stroke="url(#paint3_linear_3021_18154)"/>
<path opacity="0.27" d="M332.078 21.413L330.427 27.1545L327.951 26.3343L326.3 33.7163L323.824 36.177L320.522 33.7163L318.871 44.3792L316.395 43.559L314.744 50.1208L311.443 51.7612L308.967 44.3792L305.665 48.4803L304.839 54.2219L300.712 55.8624L299.062 63.2444L295.421 64.8848L292.84 54.2219L290.26 64.8848L286.604 67.1309" stroke="url(#paint4_linear_3021_18154)"/>
<line opacity="0.48" x1="287.102" y1="15" x2="287.102" y2="235" stroke="url(#paint5_linear_3021_18154)"/>
<g opacity="0.08">
<path opacity="0.48" d="M6.60158 14.9395L6.60157 234.939" stroke="url(#paint6_linear_3021_18154)"/>
<path opacity="0.48" d="M21.3672 14.9395L21.3672 234.939" stroke="url(#paint7_linear_3021_18154)"/>
<path opacity="0.48" d="M36.125 14.9395L36.125 234.939" stroke="url(#paint8_linear_3021_18154)"/>
<path opacity="0.48" d="M50.8906 14.9395L50.8906 234.939" stroke="url(#paint9_linear_3021_18154)"/>
<path opacity="0.48" d="M65.6485 14.9395L65.6484 234.939" stroke="url(#paint10_linear_3021_18154)"/>
<path opacity="0.48" d="M80.4141 14.9395L80.4141 234.939" stroke="url(#paint11_linear_3021_18154)"/>
<path opacity="0.48" d="M95.1719 14.9395L95.1719 234.939" stroke="url(#paint12_linear_3021_18154)"/>
<path opacity="0.48" d="M109.938 14.9395L109.938 234.939" stroke="url(#paint13_linear_3021_18154)"/>
<path opacity="0.48" d="M124.695 14.9395L124.695 234.939" stroke="url(#paint14_linear_3021_18154)"/>
<path opacity="0.48" d="M139.461 14.9395L139.461 234.939" stroke="url(#paint15_linear_3021_18154)"/>
<path opacity="0.48" d="M154.227 14.9395L154.227 234.939" stroke="url(#paint16_linear_3021_18154)"/>
<path opacity="0.48" d="M168.984 14.9395L168.984 234.939" stroke="url(#paint17_linear_3021_18154)"/>
<path opacity="0.48" d="M183.75 14.9395L183.75 234.939" stroke="url(#paint18_linear_3021_18154)"/>
<path opacity="0.48" d="M198.508 14.9395L198.508 234.939" stroke="url(#paint19_linear_3021_18154)"/>
<path opacity="0.48" d="M213.273 14.9395L213.273 234.939" stroke="url(#paint20_linear_3021_18154)"/>
<path opacity="0.48" d="M228.031 14.9395L228.031 234.939" stroke="url(#paint21_linear_3021_18154)"/>
<path opacity="0.48" d="M242.797 14.9395L242.797 234.939" stroke="url(#paint22_linear_3021_18154)"/>
<path opacity="0.48" d="M257.563 14.9395L257.563 234.939" stroke="url(#paint23_linear_3021_18154)"/>
<path opacity="0.48" d="M272.32 14.9395L272.32 234.939" stroke="url(#paint24_linear_3021_18154)"/>
</g>
<g filter="url(#filter0_dd_3021_18154)">
<ellipse cx="287.1" cy="66.7945" rx="2.46715" ry="2.46637" fill="url(#paint25_radial_3021_18154)"/>
</g>
<g opacity="0.1" filter="url(#filter1_f_3021_18154)">
<ellipse cx="171.102" cy="124.774" rx="90.6884" ry="90.8402" fill="#BFFF00"/>
</g>
</g>
<defs>
<filter id="filter0_dd_3021_18154" x="211.733" y="-8.57188" width="150.738" height="150.734" filterUnits="userSpaceOnUse" color-interpolation-filters="sRGB">
<feFlood flood-opacity="0" result="BackgroundImageFix"/>
<feColorMatrix in="SourceAlpha" type="matrix" values="0 0 0 0 0 0 0 0 0 0 0 0 0 0 0 0 0 0 127 0" result="hardAlpha"/>
<feMorphology radius="25" operator="dilate" in="SourceAlpha" result="effect1_dropShadow_3021_18154"/>
<feOffset/>
<feGaussianBlur stdDeviation="23.95"/>
<feComposite in2="hardAlpha" operator="out"/>
<feColorMatrix type="matrix" values="0 0 0 0 0.882353 0 0 0 0 1 0 0 0 0 0.407843 0 0 0 0.25 0"/>
<feBlend mode="normal" in2="BackgroundImageFix" result="effect1_dropShadow_3021_18154"/>
<feColorMatrix in="SourceAlpha" type="matrix" values="0 0 0 0 0 0 0 0 0 0 0 0 0 0 0 0 0 0 127 0" result="hardAlpha"/>
<feMorphology radius="2" operator="dilate" in="SourceAlpha" result="effect2_dropShadow_3021_18154"/>
<feOffset/>
<feGaussianBlur stdDeviation="4.2"/>
<feComposite in2="hardAlpha" operator="out"/>
<feColorMatrix type="matrix" values="0 0 0 0 0.815678 0 0 0 0 1 0 0 0 0 0.0722468 0 0 0 0.79 0"/>
<feBlend mode="normal" in2="effect1_dropShadow_3021_18154" result="effect2_dropShadow_3021_18154"/>
<feBlend mode="normal" in="SourceGraphic" in2="effect2_dropShadow_3021_18154" result="shape"/>
</filter>
<filter id="filter1_f_3021_18154" x="-147.986" y="-194.466" width="638.175" height="638.48" filterUnits="userSpaceOnUse" color-interpolation-filters="sRGB">
<feFlood flood-opacity="0" result="BackgroundImageFix"/>
<feBlend mode="normal" in="SourceGraphic" in2="BackgroundImageFix" result="shape"/>
<feGaussianBlur stdDeviation="114.2" result="effect1_foregroundBlur_3021_18154"/>
</filter>
<linearGradient id="paint0_linear_3021_18154" x1="361" y1="125" x2="0" y2="125" gradientUnits="userSpaceOnUse">
<stop stop-color="#020400"/>
<stop offset="1" stop-color="#040B00"/>
</linearGradient>
<linearGradient id="paint1_linear_3021_18154" x1="2.69726" y1="201.662" x2="284.429" y2="132.777" gradientUnits="userSpaceOnUse">
<stop stop-color="#537C24" stop-opacity="0.25"/>
<stop offset="1" stop-color="#284A00" stop-opacity="0"/>
</linearGradient>
<linearGradient id="paint2_linear_3021_18154" x1="287.098" y1="66.7949" x2="-6.04092" y2="195.477" gradientUnits="userSpaceOnUse">
<stop stop-color="#AAD000"/>
<stop offset="0.35921" stop-color="#3A8C00"/>
<stop offset="0.720358" stop-color="#74FF00"/>
<stop offset="1" stop-color="#8CBB00"/>
</linearGradient>
<linearGradient id="paint3_linear_3021_18154" x1="286.602" y1="149.663" x2="331.001" y2="117.587" gradientUnits="userSpaceOnUse">
<stop stop-color="#3F3F3F"/>
<stop offset="1" stop-color="#3F3F3F" stop-opacity="0"/>
</linearGradient>
<linearGradient id="paint4_linear_3021_18154" x1="286.605" y1="67.1309" x2="333.493" y2="18.9571" gradientUnits="userSpaceOnUse">
<stop stop-color="#AAD000"/>
<stop offset="1" stop-color="#3A8C00" stop-opacity="0"/>
</linearGradient>
<linearGradient id="paint5_linear_3021_18154" x1="286.102" y1="15" x2="286.102" y2="235" gradientUnits="userSpaceOnUse">
<stop stop-color="#DAFFBD" stop-opacity="0"/>
<stop offset="0.5" stop-color="#DAFFBD"/>
<stop offset="1" stop-color="#DAFFBD" stop-opacity="0"/>
</linearGradient>
<linearGradient id="paint6_linear_3021_18154" x1="4.10156" y1="14.9993" x2="4.10155" y2="234.999" gradientUnits="userSpaceOnUse">
<stop stop-color="#DAFFBD" stop-opacity="0"/>
<stop offset="0.5" stop-color="#DAFFBD"/>
<stop offset="1" stop-color="#DAFFBD" stop-opacity="0"/>
</linearGradient>
<linearGradient id="paint7_linear_3021_18154" x1="18.8672" y1="14.9993" x2="18.8672" y2="234.999" gradientUnits="userSpaceOnUse">
<stop stop-color="#DAFFBD" stop-opacity="0"/>
<stop offset="0.5" stop-color="#DAFFBD"/>
<stop offset="1" stop-color="#DAFFBD" stop-opacity="0"/>
</linearGradient>
<linearGradient id="paint8_linear_3021_18154" x1="33.625" y1="14.9993" x2="33.625" y2="234.999" gradientUnits="userSpaceOnUse">
<stop stop-color="#DAFFBD" stop-opacity="0"/>
<stop offset="0.5" stop-color="#DAFFBD"/>
<stop offset="1" stop-color="#DAFFBD" stop-opacity="0"/>
</linearGradient>
<linearGradient id="paint9_linear_3021_18154" x1="48.3906" y1="14.9993" x2="48.3906" y2="234.999" gradientUnits="userSpaceOnUse">
<stop stop-color="#DAFFBD" stop-opacity="0"/>
<stop offset="0.5" stop-color="#DAFFBD"/>
<stop offset="1" stop-color="#DAFFBD" stop-opacity="0"/>
</linearGradient>
<linearGradient id="paint10_linear_3021_18154" x1="63.1484" y1="14.9993" x2="63.1484" y2="234.999" gradientUnits="userSpaceOnUse">
<stop stop-color="#DAFFBD" stop-opacity="0"/>
<stop offset="0.5" stop-color="#DAFFBD"/>
<stop offset="1" stop-color="#DAFFBD" stop-opacity="0"/>
</linearGradient>
<linearGradient id="paint11_linear_3021_18154" x1="77.9141" y1="14.9993" x2="77.9141" y2="234.999" gradientUnits="userSpaceOnUse">
<stop stop-color="#DAFFBD" stop-opacity="0"/>
<stop offset="0.5" stop-color="#DAFFBD"/>
<stop offset="1" stop-color="#DAFFBD" stop-opacity="0"/>
</linearGradient>
<linearGradient id="paint12_linear_3021_18154" x1="92.6719" y1="14.9993" x2="92.6719" y2="234.999" gradientUnits="userSpaceOnUse">
<stop stop-color="#DAFFBD" stop-opacity="0"/>
<stop offset="0.5" stop-color="#DAFFBD"/>
<stop offset="1" stop-color="#DAFFBD" stop-opacity="0"/>
</linearGradient>
<linearGradient id="paint13_linear_3021_18154" x1="107.437" y1="14.9993" x2="107.437" y2="234.999" gradientUnits="userSpaceOnUse">
<stop stop-color="#DAFFBD" stop-opacity="0"/>
<stop offset="0.5" stop-color="#DAFFBD"/>
<stop offset="1" stop-color="#DAFFBD" stop-opacity="0"/>
</linearGradient>
<linearGradient id="paint14_linear_3021_18154" x1="122.195" y1="14.9993" x2="122.195" y2="234.999" gradientUnits="userSpaceOnUse">
<stop stop-color="#DAFFBD" stop-opacity="0"/>
<stop offset="0.5" stop-color="#DAFFBD"/>
<stop offset="1" stop-color="#DAFFBD" stop-opacity="0"/>
</linearGradient>
<linearGradient id="paint15_linear_3021_18154" x1="136.961" y1="14.9993" x2="136.961" y2="234.999" gradientUnits="userSpaceOnUse">
<stop stop-color="#DAFFBD" stop-opacity="0"/>
<stop offset="0.5" stop-color="#DAFFBD"/>
<stop offset="1" stop-color="#DAFFBD" stop-opacity="0"/>
</linearGradient>
<linearGradient id="paint16_linear_3021_18154" x1="151.727" y1="14.9993" x2="151.727" y2="234.999" gradientUnits="userSpaceOnUse">
<stop stop-color="#DAFFBD" stop-opacity="0"/>
<stop offset="0.5" stop-color="#DAFFBD"/>
<stop offset="1" stop-color="#DAFFBD" stop-opacity="0"/>
</linearGradient>
<linearGradient id="paint17_linear_3021_18154" x1="166.484" y1="14.9993" x2="166.484" y2="234.999" gradientUnits="userSpaceOnUse">
<stop stop-color="#DAFFBD" stop-opacity="0"/>
<stop offset="0.5" stop-color="#DAFFBD"/>
<stop offset="1" stop-color="#DAFFBD" stop-opacity="0"/>
</linearGradient>
<linearGradient id="paint18_linear_3021_18154" x1="181.25" y1="14.9993" x2="181.25" y2="234.999" gradientUnits="userSpaceOnUse">
<stop stop-color="#DAFFBD" stop-opacity="0"/>
<stop offset="0.5" stop-color="#DAFFBD"/>
<stop offset="1" stop-color="#DAFFBD" stop-opacity="0"/>
</linearGradient>
<linearGradient id="paint19_linear_3021_18154" x1="196.008" y1="14.9993" x2="196.008" y2="234.999" gradientUnits="userSpaceOnUse">
<stop stop-color="#DAFFBD" stop-opacity="0"/>
<stop offset="0.5" stop-color="#DAFFBD"/>
<stop offset="1" stop-color="#DAFFBD" stop-opacity="0"/>
</linearGradient>
<linearGradient id="paint20_linear_3021_18154" x1="210.773" y1="14.9993" x2="210.773" y2="234.999" gradientUnits="userSpaceOnUse">
<stop stop-color="#DAFFBD" stop-opacity="0"/>
<stop offset="0.5" stop-color="#DAFFBD"/>
<stop offset="1" stop-color="#DAFFBD" stop-opacity="0"/>
</linearGradient>
<linearGradient id="paint21_linear_3021_18154" x1="225.531" y1="14.9993" x2="225.531" y2="234.999" gradientUnits="userSpaceOnUse">
<stop stop-color="#DAFFBD" stop-opacity="0"/>
<stop offset="0.5" stop-color="#DAFFBD"/>
<stop offset="1" stop-color="#DAFFBD" stop-opacity="0"/>
</linearGradient>
<linearGradient id="paint22_linear_3021_18154" x1="240.297" y1="14.9993" x2="240.297" y2="234.999" gradientUnits="userSpaceOnUse">
<stop stop-color="#DAFFBD" stop-opacity="0"/>
<stop offset="0.5" stop-color="#DAFFBD"/>
<stop offset="1" stop-color="#DAFFBD" stop-opacity="0"/>
</linearGradient>
<linearGradient id="paint23_linear_3021_18154" x1="255.062" y1="14.9993" x2="255.062" y2="234.999" gradientUnits="userSpaceOnUse">
<stop stop-color="#DAFFBD" stop-opacity="0"/>
<stop offset="0.5" stop-color="#DAFFBD"/>
<stop offset="1" stop-color="#DAFFBD" stop-opacity="0"/>
</linearGradient>
<linearGradient id="paint24_linear_3021_18154" x1="270.32" y1="14.9993" x2="270.32" y2="234.999" gradientUnits="userSpaceOnUse">
<stop stop-color="#DAFFBD" stop-opacity="0"/>
<stop offset="0.5" stop-color="#DAFFBD"/>
<stop offset="1" stop-color="#DAFFBD" stop-opacity="0"/>
</linearGradient>
<radialGradient id="paint25_radial_3021_18154" cx="0" cy="0" r="1" gradientUnits="userSpaceOnUse" gradientTransform="translate(287.1 66.7945) rotate(90) scale(2.46637 2.46715)">
<stop stop-color="#F2FFBA"/>
<stop offset="1" stop-color="#D6FF30"/>
</radialGradient>
<clipPath id="clip0_3021_18154">
<rect width="361" height="250" fill="white"/>
</clipPath>
</defs>
</svg>
