<svg width="2188" height="700" viewBox="0 0 2188 700" fill="none" xmlns="http://www.w3.org/2000/svg">
<g clip-path="url(#clip0_3037_18874)">
<rect width="2188" height="700" fill="url(#paint0_linear_3037_18874)"/>
<g opacity="0.15" filter="url(#filter0_f_3037_18874)">
<circle cx="1233" cy="738.5" r="157.5" fill="#BFFF00"/>
</g>
<g opacity="0.06" filter="url(#filter1_f_3037_18874)">
<circle cx="1233" cy="11.5" r="216.5" fill="#BFFF00"/>
</g>
<path d="M1108.22 403.275H1052.5V416.011H996.78V425.107H941.06V434.204H885.34V445.12H829.619V456.035H773.898V425.107H718.178V434.204H662.457V445.12H606.736V456.035H551.016V463.312H495.295V474.229H439.574V488.783H383.854V501.519H328.133V514.253H105.231V519.561H0V506.058L12.1963 503.677L21.8467 496.961L30.4189 498.916H40.6533L47.1582 506.058L59.1924 501.708L69.9248 505.581L82.9336 503.677L94.3164 506.533L102.447 503.677L112.354 480.586L121.717 473.309L127.959 460.572L143.563 456.934L152.926 442.378L162.289 456.934L171.651 442.378L176.438 427.98L184.568 420.546L193.498 411.448L205.982 418.726L215.345 411.448L224.708 429.643L234.166 437.502L242.297 429.643L251.24 397.036L262.159 398.713L268.401 387.796L277.259 392.274L284.576 376.88L296.772 385.134L308.974 378.699L321.457 387.796L330.819 389.895L334.987 360.505L343.304 356.866L350.436 349.589L358.908 356.866L366.697 369.423L380.755 349.589L386.997 335.033L399.22 331.395L408.164 324.195L415.481 338.672L424.426 329.909L436.932 327.756L444.752 341.335L453.696 331.395L458.778 315.02L470.771 305.152L480.625 311.381L487.846 322.298L496.789 311.381L508.172 321.339L518.076 318.659L524.318 335.033L539.923 344.131L546.165 360.505L551.266 329.909L558.648 322.298L571.133 338.672L575.657 361.806L583.616 375.061L602.342 376.88L613.059 387.99L627.31 376.88V360.505L631.76 347.523L639.793 344.131L646.035 364.144L653.713 377.517L663.47 370.852L667.882 404.171L674.853 416.079L685.423 407.51L689.729 391.435L698.432 384.657L705.333 367.782L720.938 378.699L730.301 373.241L739.663 360.505L750.469 372.279L761.51 367.782L770.873 382.338L783.356 373.241L789.599 355.047L800.88 352.284L814.565 360.505L820.808 338.672L835.028 341.811L843.159 329.909L855.355 335.033L866.738 331.337L881.374 328.957L891.944 333.241L900.074 359.426L908.205 365.139L913.896 322.298L925.28 317.055L936.282 322.298L942.524 309.562L951.888 311.381L958.129 295.007L967.492 289.548L979.976 295.007L986.218 271.354L995.58 273.174L1001.82 258.618L1014.31 254.979L1023.67 271.354L1036.15 262.257L1039.27 249.521L1054.88 245.883L1061.12 229.508L1074.89 225.869L1084.64 249.521L1094.4 225.869L1108.22 220.887V403.275Z" fill="url(#paint1_linear_3037_18874)"/>
<path d="M0 519.563H105.232V514.255H328.138V501.52H383.859V488.785H439.579V474.23H495.3V463.314H551.021V456.037H606.741V445.121H662.462V434.206H718.183V425.109H773.903V456.037H829.624V445.121H885.344V434.206H941.065V425.109H996.786V416.012H1052.51V403.277H1106.13" stroke="#3F3F3F" stroke-width="2"/>
<path d="M0 506.059L12.1961 503.679L21.8466 496.962L30.4186 498.918H40.6538L47.1584 506.059L59.1929 501.71L69.9245 505.583L82.9337 503.679L94.3168 506.535L102.448 503.679L112.354 480.588L121.717 473.31L127.959 460.574L143.563 456.935L152.926 442.38L162.289 456.935L171.652 442.38L176.437 427.982L184.568 420.547L193.498 411.45L205.982 418.728L215.345 411.45L224.708 429.644L234.166 437.504L242.297 429.644L251.24 397.037L262.159 398.714L268.401 387.798L277.259 392.277L284.576 376.881L296.773 385.135L308.973 378.701L321.457 387.798L330.82 389.896L334.987 360.507L343.304 356.868L350.436 349.59L358.908 356.868L366.697 369.425L380.755 349.59L386.997 335.035L399.22 331.396L408.164 324.198L415.482 338.674L424.425 329.91L436.932 327.758L444.752 341.336L453.696 331.396L458.778 315.022L470.771 305.154L480.625 311.383L487.845 322.299L496.789 311.383L508.172 321.341L518.076 318.66L524.318 335.035L539.923 344.132L546.165 360.507L551.265 329.91L558.649 322.299L571.132 338.674L575.657 361.808L583.616 375.062L602.342 376.881L613.059 387.992L627.309 376.881V360.507L631.76 347.525L639.793 344.132L646.035 364.146L653.713 377.518L663.47 370.853L667.882 404.173L674.853 416.081L685.423 407.511L689.728 391.437L698.432 384.659L705.333 367.784L720.938 378.701L730.3 373.243L739.663 360.507L750.469 372.281L761.51 367.784L770.873 382.34L783.356 373.243L789.598 355.049L800.879 352.286L814.566 360.507L820.808 338.674L835.029 341.812L843.159 329.91L855.355 335.035L866.739 331.339L881.374 328.958L891.944 333.243L900.075 359.427L908.205 365.14L913.897 322.299L925.28 317.056L936.282 322.299L942.524 309.563L951.887 311.383L958.129 295.008L967.492 289.55L979.976 295.008L986.218 271.356L995.58 273.175L1001.82 258.62L1014.31 254.981L1023.67 271.356L1036.15 262.259L1039.27 249.523L1054.88 245.884L1061.12 229.51L1074.89 225.871L1084.64 249.523L1094.4 225.871L1108.22 220.889" stroke="url(#paint2_linear_3037_18874)" stroke-width="2"/>
<path opacity="0.48" d="M1107.83 404.162L1107.83 371.07H1162.07V353.427H1217.79V334.084H1273.51" stroke="url(#paint3_linear_3037_18874)" stroke-width="2"/>
<path opacity="0.27" d="M1278.29 120.226L1272.05 132.962L1262.68 131.143L1256.44 147.517L1247.08 152.975L1234.6 147.517L1228.35 171.169L1218.99 169.35L1212.75 183.905L1200.27 187.544L1190.9 171.169L1178.42 180.266L1175.3 193.002L1159.69 196.641L1153.45 213.016L1139.69 216.655L1129.93 193.002L1120.17 216.655L1106.35 221.637" stroke="url(#paint4_linear_3037_18874)" stroke-width="2"/>
<line opacity="0.48" x1="1107.35" y1="106" x2="1107.35" y2="594" stroke="url(#paint5_linear_3037_18874)" stroke-width="2"/>
<g opacity="0.08">
<path opacity="0.48" d="M28 105.867L28 593.867" stroke="url(#paint6_linear_3037_18874)" stroke-width="2"/>
<path opacity="0.48" d="M60.7969 105.867L60.7969 593.867" stroke="url(#paint7_linear_3037_18874)" stroke-width="2"/>
<path opacity="0.48" d="M93.6016 105.867L93.6016 593.867" stroke="url(#paint8_linear_3037_18874)" stroke-width="2"/>
<path opacity="0.48" d="M126.398 105.867L126.398 593.867" stroke="url(#paint9_linear_3037_18874)" stroke-width="2"/>
<path opacity="0.48" d="M159.203 105.867L159.203 593.867" stroke="url(#paint10_linear_3037_18874)" stroke-width="2"/>
<path opacity="0.48" d="M192 105.867L192 593.867" stroke="url(#paint11_linear_3037_18874)" stroke-width="2"/>
<path opacity="0.48" d="M224.797 105.867L224.797 593.867" stroke="url(#paint12_linear_3037_18874)" stroke-width="2"/>
<path opacity="0.48" d="M257.602 105.867L257.602 593.867" stroke="url(#paint13_linear_3037_18874)" stroke-width="2"/>
<path opacity="0.48" d="M290.398 105.867L290.398 593.867" stroke="url(#paint14_linear_3037_18874)" stroke-width="2"/>
<path opacity="0.48" d="M323.203 105.867L323.203 593.867" stroke="url(#paint15_linear_3037_18874)" stroke-width="2"/>
<path opacity="0.48" d="M356 105.867L356 593.867" stroke="url(#paint16_linear_3037_18874)" stroke-width="2"/>
<path opacity="0.48" d="M388.797 105.867L388.797 593.867" stroke="url(#paint17_linear_3037_18874)" stroke-width="2"/>
<path opacity="0.48" d="M421.602 105.867L421.602 593.867" stroke="url(#paint18_linear_3037_18874)" stroke-width="2"/>
<path opacity="0.48" d="M454.398 105.867L454.398 593.867" stroke="url(#paint19_linear_3037_18874)" stroke-width="2"/>
<path opacity="0.48" d="M487.203 105.867L487.203 593.867" stroke="url(#paint20_linear_3037_18874)" stroke-width="2"/>
<path opacity="0.48" d="M520 105.867L520 593.867" stroke="url(#paint21_linear_3037_18874)" stroke-width="2"/>
<path opacity="0.48" d="M552.797 105.867L552.797 593.867" stroke="url(#paint22_linear_3037_18874)" stroke-width="2"/>
<path opacity="0.48" d="M585.602 105.867L585.602 593.867" stroke="url(#paint23_linear_3037_18874)" stroke-width="2"/>
<path opacity="0.48" d="M618.398 105.867L618.398 593.867" stroke="url(#paint24_linear_3037_18874)" stroke-width="2"/>
</g>
<g filter="url(#filter2_dd_3037_18874)">
<circle cx="1107.5" cy="220.5" r="5.5" fill="url(#paint25_radial_3037_18874)"/>
</g>
<g opacity="0.15" filter="url(#filter3_f_3037_18874)">
<circle cx="393.5" cy="349.5" r="201.5" fill="#BFFF00"/>
</g>
<g opacity="0.28">
<path d="M378.662 574V562.752H380.806V574H378.662ZM376.454 564.64V562.752H380.646V564.64H376.454ZM384.601 574V572.064H387.465C388.19 572.064 388.825 571.915 389.369 571.616C389.913 571.307 390.334 570.875 390.633 570.32C390.942 569.765 391.097 569.109 391.097 568.352C391.097 567.616 390.942 566.976 390.633 566.432C390.324 565.877 389.897 565.451 389.353 565.152C388.809 564.843 388.18 564.688 387.465 564.688H384.553V562.752H387.497C388.329 562.752 389.097 562.891 389.801 563.168C390.516 563.445 391.134 563.84 391.657 564.352C392.19 564.853 392.601 565.445 392.889 566.128C393.188 566.811 393.337 567.557 393.337 568.368C393.337 569.179 393.188 569.931 392.889 570.624C392.601 571.307 392.196 571.904 391.673 572.416C391.15 572.917 390.532 573.307 389.817 573.584C389.113 573.861 388.35 574 387.529 574H384.601ZM383.113 574V562.752H385.289V574H383.113Z" fill="#EBFFCE" fill-opacity="0.5"/>
<path d="M475.398 574.16C474.62 574.16 473.91 574.027 473.27 573.76C472.63 573.483 472.097 573.088 471.67 572.576L473.11 571.152C473.324 571.472 473.628 571.728 474.022 571.92C474.428 572.112 474.87 572.208 475.35 572.208C475.788 572.208 476.166 572.128 476.486 571.968C476.817 571.808 477.073 571.584 477.254 571.296C477.446 570.997 477.542 570.651 477.542 570.256C477.542 569.84 477.446 569.488 477.254 569.2C477.073 568.912 476.828 568.693 476.518 568.544C476.209 568.395 475.862 568.32 475.478 568.32C475.073 568.32 474.705 568.373 474.374 568.48C474.054 568.576 473.745 568.736 473.446 568.96L473.574 567.584C473.777 567.371 473.99 567.2 474.214 567.072C474.438 566.933 474.689 566.832 474.966 566.768C475.254 566.693 475.59 566.656 475.974 566.656C476.796 566.656 477.478 566.827 478.022 567.168C478.577 567.499 478.998 567.947 479.286 568.512C479.574 569.067 479.718 569.68 479.718 570.352C479.718 571.088 479.537 571.744 479.174 572.32C478.812 572.896 478.305 573.349 477.654 573.68C477.014 574 476.262 574.16 475.398 574.16ZM473.446 568.96L472.406 567.936L472.918 562.752H474.886L474.31 568.016L473.446 568.96ZM473.254 564.64L472.918 562.752H479.094V564.64H473.254ZM482.882 574V572.064H485.746C486.472 572.064 487.106 571.915 487.65 571.616C488.194 571.307 488.616 570.875 488.914 570.32C489.224 569.765 489.378 569.109 489.378 568.352C489.378 567.616 489.224 566.976 488.914 566.432C488.605 565.877 488.178 565.451 487.634 565.152C487.09 564.843 486.461 564.688 485.746 564.688H482.834V562.752H485.778C486.61 562.752 487.378 562.891 488.082 563.168C488.797 563.445 489.416 563.84 489.938 564.352C490.472 564.853 490.882 565.445 491.17 566.128C491.469 566.811 491.618 567.557 491.618 568.368C491.618 569.179 491.469 569.931 491.17 570.624C490.882 571.307 490.477 571.904 489.954 572.416C489.432 572.917 488.813 573.307 488.098 573.584C487.394 573.861 486.632 574 485.81 574H482.882ZM481.394 574V562.752H483.57V574H481.394Z" fill="#EBFFCE" fill-opacity="0.5"/>
<path d="M571.443 574V562.752H573.587V574H571.443ZM569.235 564.64V562.752H573.427V564.64H569.235ZM575.894 574V562.752H577.43L581.99 570.048H581.11L585.654 562.752H587.19V574H585.03V566.48L585.446 566.608L582.278 571.696H580.806L577.638 566.608L578.07 566.48V574H575.894Z" fill="#EBFFCE" fill-opacity="0.5"/>
<path d="M663.913 569.664L659.561 562.752H662.073L665.449 568.288H664.009L667.385 562.752H669.865L665.465 569.664H663.913ZM663.625 574V568.496H665.817V574H663.625ZM673.444 574V562.992H675.636V574H673.444ZM669.86 564.688V562.752H679.22V564.688H669.86ZM682.21 574V572.064H685.074C685.8 572.064 686.434 571.915 686.978 571.616C687.522 571.307 687.944 570.875 688.242 570.32C688.552 569.765 688.706 569.109 688.706 568.352C688.706 567.616 688.552 566.976 688.242 566.432C687.933 565.877 687.506 565.451 686.962 565.152C686.418 564.843 685.789 564.688 685.074 564.688H682.162V562.752H685.106C685.938 562.752 686.706 562.891 687.41 563.168C688.125 563.445 688.744 563.84 689.266 564.352C689.8 564.853 690.21 565.445 690.498 566.128C690.797 566.811 690.946 567.557 690.946 568.368C690.946 569.179 690.797 569.931 690.498 570.624C690.21 571.307 689.805 571.904 689.282 572.416C688.76 572.917 688.141 573.307 687.426 573.584C686.722 573.861 685.96 574 685.138 574H682.21ZM680.722 574V562.752H682.898V574H680.722Z" fill="#EBFFCE" fill-opacity="0.5"/>
<path d="M766.412 574V562.752H768.556V574H766.412ZM764.204 564.64V562.752H768.396V564.64H764.204ZM774.351 569.664L769.999 562.752H772.511L775.887 568.288H774.447L777.823 562.752H780.303L775.903 569.664H774.351ZM774.063 574V568.496H776.255V574H774.063Z" fill="#EBFFCE" fill-opacity="0.5"/>
<rect x="845" y="554" width="48" height="28" rx="8" fill="white"/>
<path d="M854.506 574L858.986 562.704H861.258L865.69 574H863.034L859.642 564.624H860.554L857.114 574H854.506ZM857.05 571.952V569.904H863.21V571.952H857.05ZM866.885 574V562.704H869.397V574H866.885ZM868.821 574V571.792H874.405V574H868.821ZM875.854 574V562.704H878.366V574H875.854ZM877.79 574V571.792H883.374V574H877.79Z" fill="black"/>
</g>
<rect x="1702.76" y="466" width="71.8456" height="42.5" rx="13" fill="#233414" fill-opacity="0.17"/>
<rect x="1783" y="466" width="71.8456" height="42.5" rx="13" fill="#151F0C" fill-opacity="0.17"/>
<rect x="1945.4" y="466" width="71.8456" height="42.5" rx="13" fill="#233414" fill-opacity="0.17"/>
<rect x="2107.16" y="466" width="71.8456" height="42.5" rx="13" fill="#233414" fill-opacity="0.17"/>
<rect x="1621.88" y="516.5" width="71.8456" height="42.5" rx="13" fill="#233414" fill-opacity="0.17"/>
<rect x="1702.76" y="516.5" width="71.8456" height="42.5" rx="13" fill="#47672B" fill-opacity="0.17"/>
<rect x="1864.52" y="516.5" width="71.8456" height="42.5" rx="13" fill="#233414" fill-opacity="0.17"/>
<rect x="1945.4" y="516.5" width="71.8456" height="42.5" rx="13" fill="#47672B" fill-opacity="0.17"/>
<rect x="2107.16" y="516.5" width="71.8456" height="42.5" rx="13" fill="#17230D" fill-opacity="0.17"/>
<rect x="1541" y="567" width="72.75" height="42.5" rx="13" fill="#17230D" fill-opacity="0.17"/>
<rect x="1621.75" y="567" width="72.75" height="42.5" rx="13" fill="#47672B" fill-opacity="0.17"/>
<rect x="1702.5" y="567" width="72.75" height="42.5" rx="13" fill="#17230D" fill-opacity="0.17"/>
<rect x="1783.25" y="567" width="72.75" height="42.5" rx="13" fill="#233414" fill-opacity="0.17"/>
<rect x="1864" y="567" width="72.75" height="42.5" rx="13" fill="#47672B" fill-opacity="0.17"/>
<rect x="1944.75" y="567" width="72.75" height="42.5" rx="13" fill="#233414" fill-opacity="0.17"/>
<rect x="2025.5" y="567" width="72.75" height="42.5" rx="13" fill="#47672B" fill-opacity="0.17"/>
<rect x="2106.25" y="567" width="72.75" height="42.5" rx="13" fill="#47672B" fill-opacity="0.17"/>
<rect x="1541" y="617.5" width="72.75" height="42.5" rx="13" fill="#233414" fill-opacity="0.17"/>
<rect x="1621.75" y="617.5" width="72.75" height="42.5" rx="13" fill="#233414" fill-opacity="0.17"/>
<rect x="1702.5" y="617.5" width="72.75" height="42.5" rx="13" fill="#47672B" fill-opacity="0.17"/>
<rect x="1783.25" y="617.5" width="72.75" height="42.5" rx="13" fill="#47672B" fill-opacity="0.17"/>
<rect x="1864" y="617.5" width="72.75" height="42.5" rx="13" fill="#17230D" fill-opacity="0.17"/>
<rect x="1944.75" y="617.5" width="72.75" height="42.5" rx="13" fill="#47672B" fill-opacity="0.17"/>
<rect x="2025.5" y="617.5" width="72.75" height="42.5" rx="13" fill="#17230D" fill-opacity="0.17"/>
<rect x="2106.25" y="617.5" width="72.75" height="42.5" rx="13" fill="#233414" fill-opacity="0.17"/>
<rect x="1541" y="668" width="72.75" height="42.5" rx="13" fill="#141F0B" fill-opacity="0.17"/>
<rect x="1621.75" y="668" width="72.75" height="42.5" rx="13" fill="#47672B" fill-opacity="0.17"/>
<rect x="1702.5" y="668" width="72.75" height="42.5" rx="13" fill="#17230D" fill-opacity="0.17"/>
<rect x="1783.25" y="668" width="72.75" height="42.5" rx="13" fill="#233414" fill-opacity="0.17"/>
<rect x="1864" y="668" width="72.75" height="42.5" rx="13" fill="#233414" fill-opacity="0.17"/>
<rect x="1944.75" y="668" width="72.75" height="42.5" rx="13" fill="#47672B" fill-opacity="0.17"/>
<rect x="2025.5" y="668" width="72.75" height="42.5" rx="13" fill="#233414" fill-opacity="0.17"/>
<rect x="2106.25" y="668" width="72.75" height="42.5" rx="13" fill="#233414" fill-opacity="0.17"/>
</g>
<defs>
<filter id="filter0_f_3037_18874" x="661" y="166.5" width="1144" height="1144" filterUnits="userSpaceOnUse" color-interpolation-filters="sRGB">
<feFlood flood-opacity="0" result="BackgroundImageFix"/>
<feBlend mode="normal" in="SourceGraphic" in2="BackgroundImageFix" result="shape"/>
<feGaussianBlur stdDeviation="207.25" result="effect1_foregroundBlur_3037_18874"/>
</filter>
<filter id="filter1_f_3037_18874" x="556.2" y="-665.3" width="1353.6" height="1353.6" filterUnits="userSpaceOnUse" color-interpolation-filters="sRGB">
<feFlood flood-opacity="0" result="BackgroundImageFix"/>
<feBlend mode="normal" in="SourceGraphic" in2="BackgroundImageFix" result="shape"/>
<feGaussianBlur stdDeviation="230.15" result="effect1_foregroundBlur_3037_18874"/>
</filter>
<filter id="filter2_dd_3037_18874" x="1029.1" y="142.1" width="156.8" height="156.8" filterUnits="userSpaceOnUse" color-interpolation-filters="sRGB">
<feFlood flood-opacity="0" result="BackgroundImageFix"/>
<feColorMatrix in="SourceAlpha" type="matrix" values="0 0 0 0 0 0 0 0 0 0 0 0 0 0 0 0 0 0 127 0" result="hardAlpha"/>
<feMorphology radius="25" operator="dilate" in="SourceAlpha" result="effect1_dropShadow_3037_18874"/>
<feOffset/>
<feGaussianBlur stdDeviation="23.95"/>
<feComposite in2="hardAlpha" operator="out"/>
<feColorMatrix type="matrix" values="0 0 0 0 0.882353 0 0 0 0 1 0 0 0 0 0.407843 0 0 0 0.25 0"/>
<feBlend mode="normal" in2="BackgroundImageFix" result="effect1_dropShadow_3037_18874"/>
<feColorMatrix in="SourceAlpha" type="matrix" values="0 0 0 0 0 0 0 0 0 0 0 0 0 0 0 0 0 0 127 0" result="hardAlpha"/>
<feMorphology radius="2" operator="dilate" in="SourceAlpha" result="effect2_dropShadow_3037_18874"/>
<feOffset/>
<feGaussianBlur stdDeviation="4.2"/>
<feComposite in2="hardAlpha" operator="out"/>
<feColorMatrix type="matrix" values="0 0 0 0 0.815678 0 0 0 0 1 0 0 0 0 0.0722468 0 0 0 0.79 0"/>
<feBlend mode="normal" in2="effect1_dropShadow_3037_18874" result="effect2_dropShadow_3037_18874"/>
<feBlend mode="normal" in="SourceGraphic" in2="effect2_dropShadow_3037_18874" result="shape"/>
</filter>
<filter id="filter3_f_3037_18874" x="-222.5" y="-266.5" width="1232" height="1232" filterUnits="userSpaceOnUse" color-interpolation-filters="sRGB">
<feFlood flood-opacity="0" result="BackgroundImageFix"/>
<feBlend mode="normal" in="SourceGraphic" in2="BackgroundImageFix" result="shape"/>
<feGaussianBlur stdDeviation="207.25" result="effect1_foregroundBlur_3037_18874"/>
</filter>
<linearGradient id="paint0_linear_3037_18874" x1="2188" y1="350" x2="0" y2="350" gradientUnits="userSpaceOnUse">
<stop stop-color="#020400"/>
<stop offset="1" stop-color="#040B00"/>
</linearGradient>
<linearGradient id="paint1_linear_3037_18874" x1="32.8849" y1="520.052" x2="994.74" y2="119.176" gradientUnits="userSpaceOnUse">
<stop stop-color="#537C24" stop-opacity="0.25"/>
<stop offset="1" stop-color="#284A00" stop-opacity="0"/>
</linearGradient>
<linearGradient id="paint2_linear_3037_18874" x1="1108.22" y1="220.889" x2="260.763" y2="855.021" gradientUnits="userSpaceOnUse">
<stop stop-color="#AAD000"/>
<stop offset="0.35921" stop-color="#3A8C00"/>
<stop offset="0.720358" stop-color="#74FF00"/>
<stop offset="1" stop-color="#8CBB00"/>
</linearGradient>
<linearGradient id="paint3_linear_3037_18874" x1="1106.35" y1="404.709" x2="1207.88" y2="279.681" gradientUnits="userSpaceOnUse">
<stop stop-color="#3F3F3F"/>
<stop offset="1" stop-color="#3F3F3F" stop-opacity="0"/>
</linearGradient>
<linearGradient id="paint4_linear_3037_18874" x1="1106.35" y1="221.637" x2="1195.96" y2="64.7132" gradientUnits="userSpaceOnUse">
<stop stop-color="#AAD000"/>
<stop offset="1" stop-color="#3A8C00" stop-opacity="0"/>
</linearGradient>
<linearGradient id="paint5_linear_3037_18874" x1="1105.85" y1="106" x2="1105.85" y2="594" gradientUnits="userSpaceOnUse">
<stop stop-color="#DAFFBD" stop-opacity="0"/>
<stop offset="0.5" stop-color="#DAFFBD"/>
<stop offset="1" stop-color="#DAFFBD" stop-opacity="0"/>
</linearGradient>
<linearGradient id="paint6_linear_3037_18874" x1="25.5" y1="106" x2="25.5" y2="594" gradientUnits="userSpaceOnUse">
<stop stop-color="#DAFFBD" stop-opacity="0"/>
<stop offset="0.5" stop-color="#DAFFBD"/>
<stop offset="1" stop-color="#DAFFBD" stop-opacity="0"/>
</linearGradient>
<linearGradient id="paint7_linear_3037_18874" x1="58.2969" y1="106" x2="58.2969" y2="594" gradientUnits="userSpaceOnUse">
<stop stop-color="#DAFFBD" stop-opacity="0"/>
<stop offset="0.5" stop-color="#DAFFBD"/>
<stop offset="1" stop-color="#DAFFBD" stop-opacity="0"/>
</linearGradient>
<linearGradient id="paint8_linear_3037_18874" x1="91.1016" y1="106" x2="91.1015" y2="594" gradientUnits="userSpaceOnUse">
<stop stop-color="#DAFFBD" stop-opacity="0"/>
<stop offset="0.5" stop-color="#DAFFBD"/>
<stop offset="1" stop-color="#DAFFBD" stop-opacity="0"/>
</linearGradient>
<linearGradient id="paint9_linear_3037_18874" x1="123.898" y1="106" x2="123.898" y2="594" gradientUnits="userSpaceOnUse">
<stop stop-color="#DAFFBD" stop-opacity="0"/>
<stop offset="0.5" stop-color="#DAFFBD"/>
<stop offset="1" stop-color="#DAFFBD" stop-opacity="0"/>
</linearGradient>
<linearGradient id="paint10_linear_3037_18874" x1="156.703" y1="106" x2="156.703" y2="594" gradientUnits="userSpaceOnUse">
<stop stop-color="#DAFFBD" stop-opacity="0"/>
<stop offset="0.5" stop-color="#DAFFBD"/>
<stop offset="1" stop-color="#DAFFBD" stop-opacity="0"/>
</linearGradient>
<linearGradient id="paint11_linear_3037_18874" x1="189.5" y1="106" x2="189.5" y2="594" gradientUnits="userSpaceOnUse">
<stop stop-color="#DAFFBD" stop-opacity="0"/>
<stop offset="0.5" stop-color="#DAFFBD"/>
<stop offset="1" stop-color="#DAFFBD" stop-opacity="0"/>
</linearGradient>
<linearGradient id="paint12_linear_3037_18874" x1="222.297" y1="106" x2="222.297" y2="594" gradientUnits="userSpaceOnUse">
<stop stop-color="#DAFFBD" stop-opacity="0"/>
<stop offset="0.5" stop-color="#DAFFBD"/>
<stop offset="1" stop-color="#DAFFBD" stop-opacity="0"/>
</linearGradient>
<linearGradient id="paint13_linear_3037_18874" x1="255.102" y1="106" x2="255.102" y2="594" gradientUnits="userSpaceOnUse">
<stop stop-color="#DAFFBD" stop-opacity="0"/>
<stop offset="0.5" stop-color="#DAFFBD"/>
<stop offset="1" stop-color="#DAFFBD" stop-opacity="0"/>
</linearGradient>
<linearGradient id="paint14_linear_3037_18874" x1="287.898" y1="106" x2="287.898" y2="594" gradientUnits="userSpaceOnUse">
<stop stop-color="#DAFFBD" stop-opacity="0"/>
<stop offset="0.5" stop-color="#DAFFBD"/>
<stop offset="1" stop-color="#DAFFBD" stop-opacity="0"/>
</linearGradient>
<linearGradient id="paint15_linear_3037_18874" x1="320.703" y1="106" x2="320.703" y2="594" gradientUnits="userSpaceOnUse">
<stop stop-color="#DAFFBD" stop-opacity="0"/>
<stop offset="0.5" stop-color="#DAFFBD"/>
<stop offset="1" stop-color="#DAFFBD" stop-opacity="0"/>
</linearGradient>
<linearGradient id="paint16_linear_3037_18874" x1="353.5" y1="106" x2="353.5" y2="594" gradientUnits="userSpaceOnUse">
<stop stop-color="#DAFFBD" stop-opacity="0"/>
<stop offset="0.5" stop-color="#DAFFBD"/>
<stop offset="1" stop-color="#DAFFBD" stop-opacity="0"/>
</linearGradient>
<linearGradient id="paint17_linear_3037_18874" x1="386.297" y1="106" x2="386.297" y2="594" gradientUnits="userSpaceOnUse">
<stop stop-color="#DAFFBD" stop-opacity="0"/>
<stop offset="0.5" stop-color="#DAFFBD"/>
<stop offset="1" stop-color="#DAFFBD" stop-opacity="0"/>
</linearGradient>
<linearGradient id="paint18_linear_3037_18874" x1="419.102" y1="106" x2="419.102" y2="594" gradientUnits="userSpaceOnUse">
<stop stop-color="#DAFFBD" stop-opacity="0"/>
<stop offset="0.5" stop-color="#DAFFBD"/>
<stop offset="1" stop-color="#DAFFBD" stop-opacity="0"/>
</linearGradient>
<linearGradient id="paint19_linear_3037_18874" x1="451.898" y1="106" x2="451.898" y2="594" gradientUnits="userSpaceOnUse">
<stop stop-color="#DAFFBD" stop-opacity="0"/>
<stop offset="0.5" stop-color="#DAFFBD"/>
<stop offset="1" stop-color="#DAFFBD" stop-opacity="0"/>
</linearGradient>
<linearGradient id="paint20_linear_3037_18874" x1="484.703" y1="106" x2="484.703" y2="594" gradientUnits="userSpaceOnUse">
<stop stop-color="#DAFFBD" stop-opacity="0"/>
<stop offset="0.5" stop-color="#DAFFBD"/>
<stop offset="1" stop-color="#DAFFBD" stop-opacity="0"/>
</linearGradient>
<linearGradient id="paint21_linear_3037_18874" x1="517.5" y1="106" x2="517.5" y2="594" gradientUnits="userSpaceOnUse">
<stop stop-color="#DAFFBD" stop-opacity="0"/>
<stop offset="0.5" stop-color="#DAFFBD"/>
<stop offset="1" stop-color="#DAFFBD" stop-opacity="0"/>
</linearGradient>
<linearGradient id="paint22_linear_3037_18874" x1="550.297" y1="106" x2="550.297" y2="594" gradientUnits="userSpaceOnUse">
<stop stop-color="#DAFFBD" stop-opacity="0"/>
<stop offset="0.5" stop-color="#DAFFBD"/>
<stop offset="1" stop-color="#DAFFBD" stop-opacity="0"/>
</linearGradient>
<linearGradient id="paint23_linear_3037_18874" x1="583.102" y1="106" x2="583.102" y2="594" gradientUnits="userSpaceOnUse">
<stop stop-color="#DAFFBD" stop-opacity="0"/>
<stop offset="0.5" stop-color="#DAFFBD"/>
<stop offset="1" stop-color="#DAFFBD" stop-opacity="0"/>
</linearGradient>
<linearGradient id="paint24_linear_3037_18874" x1="616.398" y1="106" x2="616.398" y2="594" gradientUnits="userSpaceOnUse">
<stop stop-color="#DAFFBD" stop-opacity="0"/>
<stop offset="0.5" stop-color="#DAFFBD"/>
<stop offset="1" stop-color="#DAFFBD" stop-opacity="0"/>
</linearGradient>
<radialGradient id="paint25_radial_3037_18874" cx="0" cy="0" r="1" gradientUnits="userSpaceOnUse" gradientTransform="translate(1107.5 220.5) rotate(90) scale(5.5)">
<stop stop-color="#F2FFBA"/>
<stop offset="1" stop-color="#D6FF30"/>
</radialGradient>
<clipPath id="clip0_3037_18874">
<rect width="2188" height="700" fill="white"/>
</clipPath>
</defs>
</svg>
