<svg width="708" height="348" viewBox="0 0 708 348" fill="none" xmlns="http://www.w3.org/2000/svg">
<rect x="0.5" y="0.5" width="707" height="347" rx="23.5" fill="url(#paint0_linear_3090_9111)"/>
<rect x="0.5" y="0.5" width="707" height="347" rx="23.5" stroke="url(#paint1_linear_3090_9111)"/>
<line x1="353.39" y1="180.384" x2="199.369" y2="126.973" stroke="#6D982C" stroke-opacity="0.8" stroke-width="1.24211"/>
<line x1="353.01" y1="180.01" x2="314.505" y2="74.4307" stroke="#6D982C" stroke-opacity="0.6" stroke-width="1.24211"/>
<line x1="353.265" y1="179.27" x2="462.57" y2="110.954" stroke="#6D982C" stroke-opacity="0.6" stroke-width="1.24211"/>
<line x1="354.054" y1="179.38" x2="436.033" y2="270.054" stroke="#6D982C" stroke-opacity="0.6" stroke-width="1.24211"/>
<line x1="353.953" y1="180.304" x2="243.405" y2="258.556" stroke="#6D982C" stroke-opacity="0.6" stroke-width="1.24211"/>
<line x1="353.802" y1="179.212" x2="486.707" y2="226.412" stroke="#6D982C" stroke-opacity="0.8" stroke-width="1.24211"/>
<line x1="242.945" y1="258.663" x2="160.966" y2="245" stroke="#6D982C" stroke-opacity="0.3" stroke-width="1.24211"/>
<line x1="462.912" y1="110.86" x2="579.67" y2="113.344" stroke="#6D982C" stroke-opacity="0.3" stroke-width="1.24211"/>
<line x1="486.367" y1="226.393" x2="610.577" y2="199.067" stroke="#6D982C" stroke-opacity="0.3" stroke-width="1.24211"/>
<line x1="88.7198" y1="189.193" x2="201.751" y2="125.845" stroke="#6D982C" stroke-opacity="0.3" stroke-width="1.24211"/>
<line x1="136.601" y1="76.2074" x2="202.432" y2="125.892" stroke="#6D982C" stroke-opacity="0.3" stroke-width="1.24211"/>
<rect x="284.971" y="111.17" width="136.011" height="137.253" rx="68.0053" fill="#16191F"/>
<rect x="284.971" y="111.17" width="136.011" height="137.253" rx="68.0053" stroke="#CE4949" stroke-width="1.86316"/>
<path d="M329.569 220.73C329.519 220.73 329.479 220.725 329.45 220.715C329.291 220.675 329.176 220.616 329.107 220.536C329.047 220.447 329.007 220.377 328.988 220.328C328.918 220.109 328.943 219.885 329.062 219.657C329.181 219.418 329.335 219.17 329.524 218.912C329.584 218.832 329.638 218.748 329.688 218.658C329.748 218.559 329.797 218.474 329.837 218.405C329.847 218.395 329.862 218.375 329.882 218.345C329.822 218.365 329.748 218.395 329.658 218.435C329.579 218.474 329.484 218.534 329.375 218.613C329.196 218.723 329.007 218.867 328.809 219.046C328.61 219.215 328.406 219.393 328.198 219.582C328.148 219.622 328.093 219.667 328.034 219.716C327.984 219.766 327.934 219.816 327.885 219.865C327.795 219.945 327.691 219.985 327.572 219.985C327.442 219.975 327.338 219.92 327.259 219.821C327.169 219.731 327.129 219.627 327.139 219.508C327.149 219.379 327.199 219.274 327.288 219.195C327.338 219.145 327.393 219.095 327.452 219.046C327.502 218.996 327.552 218.951 327.601 218.912C327.919 218.623 328.232 218.36 328.54 218.122C328.848 217.873 329.151 217.684 329.45 217.555C329.748 217.426 330.036 217.401 330.314 217.481C330.483 217.52 330.602 217.59 330.672 217.689C330.751 217.779 330.796 217.858 330.806 217.928C330.895 218.146 330.876 218.38 330.746 218.628C330.617 218.867 330.453 219.13 330.254 219.418C330.235 219.438 330.21 219.473 330.18 219.523C330.16 219.562 330.135 219.602 330.105 219.642C330.254 219.582 330.448 219.508 330.687 219.418C330.925 219.329 331.213 219.22 331.551 219.09C331.68 219.051 331.8 219.061 331.909 219.12C332.018 219.17 332.093 219.254 332.133 219.374C332.182 219.483 332.177 219.597 332.118 219.716C332.068 219.826 331.988 219.905 331.879 219.955C331.561 220.064 331.273 220.164 331.015 220.253C330.756 220.342 330.538 220.422 330.359 220.491C330.259 220.531 330.17 220.566 330.091 220.596C330.021 220.616 329.956 220.636 329.897 220.655C329.827 220.675 329.768 220.695 329.718 220.715C329.668 220.725 329.619 220.73 329.569 220.73ZM335.09 221.177C334.97 221.177 334.871 221.142 334.791 221.073C334.633 220.944 334.588 220.78 334.657 220.581C334.657 220.571 334.692 220.452 334.762 220.223C334.841 219.995 334.931 219.736 335.03 219.448C335.08 219.279 335.124 219.135 335.164 219.016C335.204 218.887 335.239 218.772 335.268 218.673C335 218.772 334.672 218.897 334.285 219.046C333.897 219.185 333.49 219.334 333.062 219.493C332.645 219.652 332.238 219.806 331.84 219.955C331.731 219.995 331.622 219.99 331.512 219.94C331.393 219.88 331.309 219.791 331.259 219.672C331.219 219.562 331.229 219.453 331.289 219.344C331.338 219.225 331.423 219.14 331.542 219.09C331.989 218.931 332.451 218.767 332.928 218.599C333.405 218.42 333.847 218.256 334.255 218.107C334.662 217.948 334.995 217.818 335.254 217.719C335.512 217.62 335.641 217.57 335.641 217.57C335.691 217.56 335.74 217.555 335.79 217.555C335.84 217.545 335.885 217.55 335.924 217.57C336.063 217.59 336.163 217.669 336.222 217.809C336.272 217.888 336.292 217.992 336.282 218.122C336.282 218.241 336.257 218.415 336.207 218.643C336.178 218.772 336.138 218.916 336.088 219.075C336.049 219.225 335.994 219.398 335.924 219.597C335.914 219.637 335.904 219.672 335.894 219.702C335.885 219.731 335.875 219.766 335.865 219.806C336.262 219.587 336.749 219.359 337.325 219.12C337.435 219.071 337.544 219.071 337.653 219.12C337.773 219.16 337.852 219.234 337.892 219.344C337.951 219.453 337.956 219.567 337.907 219.687C337.857 219.806 337.778 219.89 337.668 219.94C337.221 220.139 336.819 220.328 336.461 220.506C336.113 220.685 335.835 220.829 335.626 220.939C335.418 221.048 335.313 221.103 335.313 221.103C335.254 221.152 335.179 221.177 335.09 221.177ZM345.926 222.027C345.856 222.027 345.787 222.017 345.717 221.997C345.647 221.987 345.578 221.977 345.508 221.967C345.33 221.917 345.205 221.813 345.136 221.654C345.046 221.455 345.046 221.217 345.136 220.939C345.235 220.65 345.394 220.283 345.613 219.836C345.652 219.756 345.692 219.667 345.732 219.567C345.782 219.468 345.826 219.374 345.866 219.284C345.737 219.334 345.598 219.418 345.449 219.538C345.31 219.647 345.166 219.761 345.017 219.88C344.917 219.95 344.808 219.98 344.689 219.97C344.559 219.95 344.455 219.895 344.376 219.806C344.306 219.706 344.281 219.597 344.301 219.478C344.311 219.359 344.361 219.254 344.45 219.165C344.589 219.066 344.733 218.956 344.882 218.837C345.041 218.718 345.2 218.618 345.359 218.539C345.767 218.33 346.139 218.276 346.477 218.375C346.636 218.405 346.755 218.504 346.835 218.673C346.914 218.832 346.909 219.031 346.82 219.269C346.741 219.508 346.601 219.831 346.403 220.238C346.353 220.357 346.298 220.477 346.239 220.596C346.189 220.715 346.139 220.829 346.09 220.939C346.08 220.978 346.065 221.013 346.045 221.043C346.035 221.073 346.025 221.103 346.015 221.132C346.224 221.103 346.527 220.998 346.924 220.819C347.332 220.631 347.878 220.263 348.564 219.716C348.932 219.428 349.265 219.15 349.563 218.882C349.861 218.603 350.099 218.375 350.278 218.196C350.457 218.017 350.546 217.928 350.546 217.928C350.666 217.789 350.81 217.744 350.979 217.794C351.058 217.804 351.123 217.838 351.172 217.898C351.222 217.948 351.262 217.997 351.292 218.047C351.361 218.186 351.366 218.35 351.307 218.539C351.257 218.718 351.148 219.011 350.979 219.418C350.919 219.547 350.859 219.677 350.8 219.806C350.75 219.935 350.7 220.054 350.651 220.164C350.641 220.203 350.631 220.238 350.621 220.268C350.621 220.288 350.616 220.308 350.606 220.328C350.795 220.298 350.994 220.218 351.202 220.089C351.421 219.95 351.629 219.796 351.828 219.627C352.037 219.458 352.211 219.314 352.35 219.195C352.449 219.105 352.559 219.066 352.678 219.075C352.797 219.085 352.901 219.135 352.991 219.225C353.07 219.324 353.105 219.433 353.095 219.552C353.095 219.672 353.045 219.776 352.946 219.865C352.638 220.134 352.32 220.387 351.992 220.626C351.674 220.864 351.351 221.043 351.023 221.162C350.705 221.272 350.382 221.286 350.054 221.207C349.895 221.137 349.781 221.038 349.712 220.909C349.652 220.77 349.632 220.616 349.652 220.447C349.682 220.278 349.741 220.069 349.831 219.821C349.722 219.92 349.607 220.015 349.488 220.104C349.379 220.193 349.26 220.293 349.13 220.402C347.759 221.485 346.691 222.027 345.926 222.027ZM353.859 222.027C353.789 222.027 353.72 222.017 353.65 221.997C353.58 221.987 353.511 221.977 353.441 221.967C353.262 221.917 353.138 221.813 353.069 221.654C352.979 221.455 352.979 221.217 353.069 220.939C353.168 220.65 353.327 220.283 353.546 219.836C353.585 219.756 353.625 219.667 353.665 219.567C353.715 219.468 353.759 219.374 353.799 219.284C353.67 219.334 353.531 219.418 353.382 219.538C353.243 219.647 353.099 219.761 352.949 219.88C352.85 219.95 352.741 219.98 352.622 219.97C352.492 219.95 352.388 219.895 352.309 219.806C352.239 219.706 352.214 219.597 352.234 219.478C352.244 219.359 352.294 219.254 352.383 219.165C352.522 219.066 352.666 218.956 352.815 218.837C352.974 218.718 353.133 218.618 353.292 218.539C353.7 218.33 354.072 218.276 354.41 218.375C354.569 218.405 354.688 218.504 354.768 218.673C354.847 218.832 354.842 219.031 354.753 219.269C354.674 219.508 354.534 219.831 354.336 220.238C354.286 220.357 354.231 220.477 354.172 220.596C354.122 220.715 354.072 220.829 354.023 220.939C354.013 220.978 353.998 221.013 353.978 221.043C353.968 221.073 353.958 221.103 353.948 221.132C354.157 221.103 354.46 220.998 354.857 220.819C355.265 220.631 355.811 220.263 356.497 219.716C356.865 219.428 357.197 219.15 357.496 218.882C357.794 218.603 358.032 218.375 358.211 218.196C358.39 218.017 358.479 217.928 358.479 217.928C358.599 217.789 358.743 217.744 358.912 217.794C358.991 217.804 359.056 217.838 359.105 217.898C359.155 217.948 359.195 217.997 359.225 218.047C359.294 218.186 359.299 218.35 359.24 218.539C359.19 218.718 359.081 219.011 358.912 219.418C358.852 219.547 358.792 219.677 358.733 219.806C358.683 219.935 358.633 220.054 358.584 220.164C358.574 220.203 358.564 220.238 358.554 220.268C358.554 220.288 358.549 220.308 358.539 220.328C358.728 220.298 358.926 220.218 359.135 220.089C359.354 219.95 359.562 219.796 359.761 219.627C359.97 219.458 360.144 219.314 360.283 219.195C360.382 219.105 360.492 219.066 360.611 219.075C360.73 219.085 360.834 219.135 360.924 219.225C361.003 219.324 361.038 219.433 361.028 219.552C361.028 219.672 360.978 219.776 360.879 219.865C360.571 220.134 360.253 220.387 359.925 220.626C359.607 220.864 359.284 221.043 358.956 221.162C358.638 221.272 358.315 221.286 357.987 221.207C357.828 221.137 357.714 221.038 357.645 220.909C357.585 220.77 357.565 220.616 357.585 220.447C357.615 220.278 357.674 220.069 357.764 219.821C357.655 219.92 357.54 220.015 357.421 220.104C357.312 220.193 357.193 220.293 357.063 220.402C355.692 221.485 354.624 222.027 353.859 222.027ZM361.792 222.027C361.722 222.027 361.653 222.017 361.583 221.997C361.513 221.987 361.444 221.977 361.374 221.967C361.195 221.917 361.071 221.813 361.002 221.654C360.912 221.455 360.912 221.217 361.002 220.939C361.101 220.65 361.26 220.283 361.479 219.836C361.518 219.756 361.558 219.667 361.598 219.567C361.648 219.468 361.692 219.374 361.732 219.284C361.603 219.334 361.464 219.418 361.315 219.538C361.176 219.647 361.032 219.761 360.882 219.88C360.783 219.95 360.674 219.98 360.555 219.97C360.425 219.95 360.321 219.895 360.242 219.806C360.172 219.706 360.147 219.597 360.167 219.478C360.177 219.359 360.227 219.254 360.316 219.165C360.455 219.066 360.599 218.956 360.748 218.837C360.907 218.718 361.066 218.618 361.225 218.539C361.633 218.33 362.005 218.276 362.343 218.375C362.502 218.405 362.621 218.504 362.701 218.673C362.78 218.832 362.775 219.031 362.686 219.269C362.607 219.508 362.467 219.831 362.269 220.238C362.219 220.357 362.164 220.477 362.105 220.596C362.055 220.715 362.005 220.829 361.956 220.939C361.946 220.978 361.931 221.013 361.911 221.043C361.901 221.073 361.891 221.103 361.881 221.132C362.09 221.103 362.393 220.998 362.79 220.819C363.198 220.631 363.744 220.263 364.43 219.716C364.798 219.428 365.13 219.15 365.429 218.882C365.727 218.603 365.965 218.375 366.144 218.196C366.323 218.017 366.412 217.928 366.412 217.928C366.532 217.789 366.676 217.744 366.845 217.794C366.924 217.804 366.989 217.838 367.038 217.898C367.088 217.948 367.128 217.997 367.158 218.047C367.227 218.186 367.232 218.35 367.172 218.539C367.123 218.718 367.013 219.011 366.845 219.418C366.785 219.547 366.725 219.677 366.666 219.806C366.616 219.935 366.566 220.054 366.517 220.164C366.507 220.203 366.497 220.238 366.487 220.268C366.487 220.288 366.482 220.308 366.472 220.328C366.661 220.298 366.859 220.218 367.068 220.089C367.287 219.95 367.495 219.796 367.694 219.627C367.903 219.458 368.077 219.314 368.216 219.195C368.315 219.105 368.425 219.066 368.544 219.075C368.663 219.085 368.767 219.135 368.857 219.225C368.936 219.324 368.971 219.433 368.961 219.552C368.961 219.672 368.911 219.776 368.812 219.865C368.504 220.134 368.186 220.387 367.858 220.626C367.54 220.864 367.217 221.043 366.889 221.162C366.571 221.272 366.248 221.286 365.92 221.207C365.761 221.137 365.647 221.038 365.578 220.909C365.518 220.77 365.498 220.616 365.518 220.447C365.548 220.278 365.607 220.069 365.697 219.821C365.588 219.92 365.473 220.015 365.354 220.104C365.245 220.193 365.125 220.293 364.996 220.402C363.625 221.485 362.557 222.027 361.792 222.027ZM370.515 220.73C370.465 220.73 370.425 220.725 370.395 220.715C370.236 220.675 370.122 220.616 370.053 220.536C369.993 220.447 369.953 220.377 369.933 220.328C369.864 220.109 369.889 219.885 370.008 219.657C370.127 219.418 370.281 219.17 370.47 218.912C370.53 218.832 370.584 218.748 370.634 218.658C370.693 218.559 370.743 218.474 370.783 218.405C370.793 218.395 370.808 218.375 370.828 218.345C370.768 218.365 370.693 218.395 370.604 218.435C370.525 218.474 370.43 218.534 370.321 218.613C370.142 218.723 369.953 218.867 369.754 219.046C369.556 219.215 369.352 219.393 369.143 219.582C369.094 219.622 369.039 219.667 368.979 219.716C368.93 219.766 368.88 219.816 368.83 219.865C368.741 219.945 368.637 219.985 368.517 219.985C368.388 219.975 368.284 219.92 368.204 219.821C368.115 219.731 368.075 219.627 368.085 219.508C368.095 219.379 368.145 219.274 368.234 219.195C368.284 219.145 368.338 219.095 368.398 219.046C368.448 218.996 368.497 218.951 368.547 218.912C368.865 218.623 369.178 218.36 369.486 218.122C369.794 217.873 370.097 217.684 370.395 217.555C370.693 217.426 370.982 217.401 371.26 217.481C371.429 217.52 371.548 217.59 371.618 217.689C371.697 217.779 371.742 217.858 371.752 217.928C371.841 218.146 371.821 218.38 371.692 218.628C371.563 218.867 371.399 219.13 371.2 219.418C371.18 219.438 371.156 219.473 371.126 219.523C371.106 219.562 371.081 219.602 371.051 219.642C371.2 219.582 371.394 219.508 371.633 219.418C371.871 219.329 372.159 219.22 372.497 219.09C372.626 219.051 372.745 219.061 372.855 219.12C372.964 219.17 373.039 219.254 373.078 219.374C373.128 219.483 373.123 219.597 373.063 219.716C373.014 219.826 372.934 219.905 372.825 219.955C372.507 220.064 372.219 220.164 371.96 220.253C371.702 220.342 371.483 220.422 371.305 220.491C371.205 220.531 371.116 220.566 371.036 220.596C370.967 220.616 370.902 220.636 370.843 220.655C370.773 220.675 370.713 220.695 370.664 220.715C370.614 220.725 370.564 220.73 370.515 220.73ZM374.515 222.057C374.465 222.057 374.416 222.052 374.366 222.042C374.316 222.042 374.262 222.037 374.202 222.027C374.083 221.987 373.983 221.903 373.904 221.773C373.864 221.694 373.844 221.585 373.844 221.445C373.844 221.306 373.889 221.078 373.978 220.76C374.068 220.442 374.212 219.97 374.411 219.344C374.192 219.423 373.939 219.518 373.651 219.627C373.372 219.736 373.084 219.846 372.786 219.955C372.677 219.995 372.567 219.99 372.458 219.94C372.339 219.88 372.254 219.791 372.205 219.672C372.165 219.562 372.175 219.453 372.235 219.344C372.284 219.225 372.369 219.14 372.488 219.09C372.915 218.931 373.313 218.782 373.68 218.643C374.058 218.504 374.366 218.39 374.605 218.3C374.843 218.211 374.962 218.166 374.962 218.166C375.062 218.127 375.156 218.122 375.245 218.151C375.375 218.181 375.469 218.256 375.529 218.375C375.578 218.464 375.593 218.544 375.573 218.613C375.563 218.683 375.549 218.758 375.529 218.837C375.509 218.877 375.494 218.921 375.484 218.971C375.474 219.011 375.459 219.061 375.439 219.12C375.37 219.289 375.295 219.498 375.216 219.746C375.146 219.985 375.072 220.228 374.992 220.477C374.942 220.616 374.903 220.735 374.873 220.834C374.843 220.934 374.818 221.023 374.798 221.103C374.987 221.063 375.26 220.949 375.618 220.76C375.926 220.591 376.254 220.397 376.602 220.178C376.96 219.95 377.322 219.711 377.69 219.463C377.769 219.413 377.849 219.364 377.928 219.314C378.018 219.264 378.097 219.21 378.167 219.15C378.276 219.08 378.39 219.061 378.51 219.09C378.639 219.11 378.738 219.175 378.808 219.284C378.877 219.384 378.897 219.493 378.867 219.612C378.848 219.731 378.783 219.826 378.674 219.895C378.594 219.955 378.51 220.015 378.42 220.074C378.341 220.124 378.256 220.178 378.167 220.238C377.789 220.487 377.422 220.725 377.064 220.954C376.706 221.182 376.368 221.381 376.05 221.55C375.404 221.888 374.893 222.057 374.515 222.057Z" fill="white"/>
<rect x="316.328" y="138.809" width="17.3895" height="16.1474" rx="8.07368" fill="#16191F"/>
<rect x="316.639" y="139.119" width="16.7684" height="15.5263" rx="7.76316" stroke="#6D982C" stroke-opacity="0.7" stroke-width="0.621053"/>
<rect x="316.328" y="157.441" width="17.3895" height="16.1474" rx="8.07368" fill="#16191F"/>
<rect x="316.639" y="157.752" width="16.7684" height="15.5263" rx="7.76316" stroke="#6D982C" stroke-opacity="0.7" stroke-width="0.621053"/>
<rect x="316.639" y="176.385" width="16.7684" height="15.5263" rx="7.76316" fill="#16191F"/>
<rect x="316.639" y="176.385" width="16.7684" height="15.5263" rx="7.76316" stroke="#E58585" stroke-width="0.621053"/>
<rect x="336.514" y="139.119" width="16.7684" height="15.5263" rx="7.76316" fill="#16191F"/>
<rect x="336.514" y="139.119" width="16.7684" height="15.5263" rx="7.76316" stroke="#E58585" stroke-width="0.621053"/>
<rect x="336.514" y="157.752" width="16.7684" height="15.5263" rx="7.76316" fill="#16191F"/>
<rect x="336.514" y="157.752" width="16.7684" height="15.5263" rx="7.76316" stroke="#E58585" stroke-width="0.621053"/>
<rect x="336.203" y="176.074" width="17.3895" height="16.1474" rx="8.07368" fill="#16191F"/>
<rect x="336.514" y="176.385" width="16.7684" height="15.5263" rx="7.76316" stroke="#6D982C" stroke-opacity="0.7" stroke-width="0.621053"/>
<rect x="356.078" y="138.809" width="17.3895" height="16.1474" rx="8.07368" fill="#16191F"/>
<rect x="356.389" y="139.119" width="16.7684" height="15.5263" rx="7.76316" stroke="#6D982C" stroke-opacity="0.7" stroke-width="0.621053"/>
<rect x="356.389" y="157.752" width="16.7684" height="15.5263" rx="7.76316" fill="#16191F"/>
<rect x="356.389" y="157.752" width="16.7684" height="15.5263" rx="7.76316" stroke="#E58585" stroke-width="0.621053"/>
<rect x="356.078" y="176.074" width="17.3895" height="16.1474" rx="8.07368" fill="#16191F"/>
<rect x="356.389" y="176.385" width="16.7684" height="15.5263" rx="7.76316" stroke="#6D982C" stroke-opacity="0.7" stroke-width="0.621053"/>
<rect x="375.945" y="138.809" width="17.3895" height="16.1474" rx="8.07368" fill="#16191F"/>
<rect x="376.256" y="139.119" width="16.7684" height="15.5263" rx="7.76316" stroke="#6D982C" stroke-opacity="0.7" stroke-width="0.621053"/>
<rect x="375.945" y="157.441" width="17.3895" height="16.1474" rx="8.07368" fill="#16191F"/>
<rect x="376.256" y="157.752" width="16.7684" height="15.5263" rx="7.76316" stroke="#6D982C" stroke-opacity="0.7" stroke-width="0.621053"/>
<rect x="375.945" y="176.074" width="17.3895" height="16.1474" rx="8.07368" fill="#16191F"/>
<rect x="376.256" y="176.385" width="16.7684" height="15.5263" rx="7.76316" stroke="#6D982C" stroke-opacity="0.7" stroke-width="0.621053"/>
<rect x="167.894" y="92.2304" width="68.3158" height="68.3158" rx="34.1579" fill="#16191F"/>
<rect x="167.894" y="92.2304" width="68.3158" height="68.3158" rx="34.1579" stroke="#CE4949" stroke-width="1.24211"/>
<path d="M189.267 147.445C189.217 147.445 189.177 147.44 189.148 147.43C188.989 147.39 188.874 147.331 188.805 147.251C188.745 147.162 188.705 147.092 188.686 147.042C188.616 146.824 188.641 146.6 188.76 146.372C188.879 146.133 189.033 145.885 189.222 145.626C189.282 145.547 189.336 145.462 189.386 145.373C189.446 145.274 189.495 145.189 189.535 145.12C189.545 145.11 189.56 145.09 189.58 145.06C189.52 145.08 189.446 145.11 189.356 145.149C189.277 145.189 189.182 145.249 189.073 145.328C188.894 145.438 188.705 145.582 188.507 145.761C188.308 145.929 188.104 146.108 187.896 146.297C187.846 146.337 187.791 146.382 187.732 146.431C187.682 146.481 187.632 146.531 187.583 146.58C187.493 146.66 187.389 146.7 187.27 146.7C187.14 146.69 187.036 146.635 186.957 146.536C186.867 146.446 186.827 146.342 186.837 146.223C186.847 146.093 186.897 145.989 186.986 145.91C187.036 145.86 187.091 145.81 187.15 145.761C187.2 145.711 187.25 145.666 187.299 145.626C187.617 145.338 187.93 145.075 188.238 144.836C188.546 144.588 188.85 144.399 189.148 144.27C189.446 144.141 189.734 144.116 190.012 144.195C190.181 144.235 190.3 144.305 190.37 144.404C190.449 144.494 190.494 144.573 190.504 144.643C190.593 144.861 190.574 145.095 190.444 145.343C190.315 145.582 190.151 145.845 189.952 146.133C189.933 146.153 189.908 146.188 189.878 146.237C189.858 146.277 189.833 146.317 189.803 146.357C189.952 146.297 190.146 146.223 190.385 146.133C190.623 146.044 190.911 145.934 191.249 145.805C191.378 145.765 191.498 145.775 191.607 145.835C191.716 145.885 191.791 145.969 191.831 146.088C191.88 146.198 191.875 146.312 191.816 146.431C191.766 146.541 191.686 146.62 191.577 146.67C191.259 146.779 190.971 146.878 190.713 146.968C190.454 147.057 190.236 147.137 190.057 147.206C189.957 147.246 189.868 147.281 189.789 147.311C189.719 147.331 189.654 147.35 189.595 147.37C189.525 147.39 189.466 147.41 189.416 147.43C189.366 147.44 189.317 147.445 189.267 147.445ZM194.788 147.892C194.668 147.892 194.569 147.857 194.49 147.788C194.331 147.658 194.286 147.494 194.355 147.296C194.355 147.286 194.39 147.167 194.46 146.938C194.539 146.709 194.629 146.451 194.728 146.163C194.778 145.994 194.822 145.85 194.862 145.731C194.902 145.602 194.937 145.487 194.966 145.388C194.698 145.487 194.37 145.611 193.983 145.761C193.595 145.9 193.188 146.049 192.761 146.208C192.343 146.367 191.936 146.521 191.538 146.67C191.429 146.709 191.32 146.705 191.21 146.655C191.091 146.595 191.007 146.506 190.957 146.387C190.917 146.277 190.927 146.168 190.987 146.059C191.036 145.939 191.121 145.855 191.24 145.805C191.687 145.646 192.149 145.482 192.626 145.313C193.103 145.134 193.546 144.971 193.953 144.821C194.36 144.662 194.693 144.533 194.952 144.434C195.21 144.335 195.339 144.285 195.339 144.285C195.389 144.275 195.438 144.27 195.488 144.27C195.538 144.26 195.583 144.265 195.622 144.285C195.761 144.305 195.861 144.384 195.92 144.523C195.97 144.603 195.99 144.707 195.98 144.836C195.98 144.956 195.955 145.13 195.906 145.358C195.876 145.487 195.836 145.631 195.786 145.79C195.747 145.939 195.692 146.113 195.622 146.312C195.612 146.352 195.602 146.387 195.593 146.416C195.583 146.446 195.573 146.481 195.563 146.521C195.96 146.302 196.447 146.074 197.023 145.835C197.133 145.785 197.242 145.785 197.351 145.835C197.471 145.875 197.55 145.949 197.59 146.059C197.649 146.168 197.654 146.282 197.605 146.401C197.555 146.521 197.476 146.605 197.366 146.655C196.919 146.854 196.517 147.042 196.159 147.221C195.811 147.4 195.533 147.544 195.324 147.653C195.116 147.763 195.011 147.817 195.011 147.817C194.952 147.867 194.877 147.892 194.788 147.892ZM198.375 148.742C198.305 148.742 198.236 148.732 198.166 148.712C198.097 148.702 198.027 148.692 197.958 148.682C197.779 148.632 197.654 148.528 197.585 148.369C197.495 148.17 197.495 147.932 197.585 147.653C197.684 147.365 197.843 146.998 198.062 146.55C198.102 146.471 198.141 146.382 198.181 146.282C198.231 146.183 198.276 146.088 198.315 145.999C198.186 146.049 198.047 146.133 197.898 146.252C197.759 146.362 197.615 146.476 197.466 146.595C197.366 146.665 197.257 146.695 197.138 146.685C197.009 146.665 196.904 146.61 196.825 146.521C196.755 146.421 196.73 146.312 196.75 146.193C196.76 146.074 196.81 145.969 196.899 145.88C197.038 145.78 197.182 145.671 197.332 145.552C197.491 145.433 197.65 145.333 197.809 145.254C198.216 145.045 198.589 144.99 198.926 145.09C199.085 145.12 199.205 145.219 199.284 145.388C199.364 145.547 199.359 145.746 199.269 145.984C199.19 146.223 199.051 146.546 198.852 146.953C198.802 147.072 198.748 147.191 198.688 147.311C198.638 147.43 198.589 147.544 198.539 147.653C198.529 147.693 198.514 147.728 198.494 147.758C198.484 147.788 198.474 147.817 198.464 147.847C198.673 147.817 198.976 147.713 199.374 147.534C199.781 147.345 200.327 146.978 201.013 146.431C201.381 146.143 201.714 145.865 202.012 145.597C202.31 145.318 202.548 145.09 202.727 144.911C202.906 144.732 202.996 144.643 202.996 144.643C203.115 144.504 203.259 144.459 203.428 144.508C203.507 144.518 203.572 144.553 203.622 144.613C203.671 144.662 203.711 144.712 203.741 144.762C203.81 144.901 203.815 145.065 203.756 145.254C203.706 145.433 203.597 145.726 203.428 146.133C203.368 146.262 203.309 146.392 203.249 146.521C203.199 146.65 203.15 146.769 203.1 146.878C203.09 146.918 203.08 146.953 203.07 146.983C203.07 147.003 203.065 147.022 203.055 147.042C203.244 147.013 203.443 146.933 203.651 146.804C203.87 146.665 204.079 146.511 204.277 146.342C204.486 146.173 204.66 146.029 204.799 145.91C204.898 145.82 205.008 145.78 205.127 145.79C205.246 145.8 205.351 145.85 205.44 145.939C205.519 146.039 205.554 146.148 205.544 146.267C205.544 146.387 205.495 146.491 205.395 146.58C205.087 146.849 204.769 147.102 204.441 147.34C204.123 147.579 203.8 147.758 203.473 147.877C203.155 147.986 202.832 148.001 202.504 147.922C202.345 147.852 202.23 147.753 202.161 147.624C202.101 147.485 202.081 147.331 202.101 147.162C202.131 146.993 202.191 146.784 202.28 146.536C202.171 146.635 202.057 146.729 201.937 146.819C201.828 146.908 201.709 147.008 201.58 147.117C200.208 148.2 199.14 148.742 198.375 148.742ZM207.098 147.445C207.048 147.445 207.008 147.44 206.979 147.43C206.82 147.39 206.705 147.331 206.636 147.251C206.576 147.162 206.536 147.092 206.517 147.042C206.447 146.824 206.472 146.6 206.591 146.372C206.71 146.133 206.864 145.885 207.053 145.626C207.113 145.547 207.167 145.462 207.217 145.373C207.277 145.274 207.326 145.189 207.366 145.12C207.376 145.11 207.391 145.09 207.411 145.06C207.351 145.08 207.277 145.11 207.187 145.149C207.108 145.189 207.013 145.249 206.904 145.328C206.725 145.438 206.536 145.582 206.338 145.761C206.139 145.929 205.935 146.108 205.727 146.297C205.677 146.337 205.622 146.382 205.563 146.431C205.513 146.481 205.463 146.531 205.414 146.58C205.324 146.66 205.22 146.7 205.101 146.7C204.971 146.69 204.867 146.635 204.788 146.536C204.698 146.446 204.658 146.342 204.668 146.223C204.678 146.093 204.728 145.989 204.817 145.91C204.867 145.86 204.922 145.81 204.981 145.761C205.031 145.711 205.081 145.666 205.13 145.626C205.448 145.338 205.761 145.075 206.069 144.836C206.377 144.588 206.681 144.399 206.979 144.27C207.277 144.141 207.565 144.116 207.843 144.195C208.012 144.235 208.131 144.305 208.201 144.404C208.28 144.494 208.325 144.573 208.335 144.643C208.424 144.861 208.405 145.095 208.275 145.343C208.146 145.582 207.982 145.845 207.784 146.133C207.764 146.153 207.739 146.188 207.709 146.237C207.689 146.277 207.664 146.317 207.634 146.357C207.784 146.297 207.977 146.223 208.216 146.133C208.454 146.044 208.742 145.934 209.08 145.805C209.209 145.765 209.329 145.775 209.438 145.835C209.547 145.885 209.622 145.969 209.662 146.088C209.711 146.198 209.706 146.312 209.647 146.431C209.597 146.541 209.517 146.62 209.408 146.67C209.09 146.779 208.802 146.878 208.544 146.968C208.285 147.057 208.067 147.137 207.888 147.206C207.788 147.246 207.699 147.281 207.62 147.311C207.55 147.331 207.485 147.35 207.426 147.37C207.356 147.39 207.297 147.41 207.247 147.43C207.197 147.44 207.148 147.445 207.098 147.445ZM211.098 148.771C211.049 148.771 210.999 148.766 210.949 148.756C210.9 148.756 210.845 148.752 210.785 148.742C210.666 148.702 210.567 148.617 210.487 148.488C210.447 148.409 210.428 148.299 210.428 148.16C210.428 148.021 210.472 147.793 210.562 147.475C210.651 147.157 210.795 146.685 210.994 146.059C210.775 146.138 210.522 146.233 210.234 146.342C209.956 146.451 209.667 146.56 209.369 146.67C209.26 146.709 209.151 146.705 209.041 146.655C208.922 146.595 208.838 146.506 208.788 146.387C208.748 146.277 208.758 146.168 208.818 146.059C208.867 145.939 208.952 145.855 209.071 145.805C209.498 145.646 209.896 145.497 210.264 145.358C210.641 145.219 210.949 145.105 211.188 145.015C211.426 144.926 211.545 144.881 211.545 144.881C211.645 144.841 211.739 144.836 211.829 144.866C211.958 144.896 212.052 144.971 212.112 145.09C212.162 145.179 212.176 145.259 212.157 145.328C212.147 145.398 212.132 145.472 212.112 145.552C212.092 145.592 212.077 145.636 212.067 145.686C212.057 145.726 212.042 145.775 212.022 145.835C211.953 146.004 211.878 146.213 211.799 146.461C211.729 146.7 211.655 146.943 211.575 147.191C211.526 147.331 211.486 147.45 211.456 147.549C211.426 147.649 211.401 147.738 211.381 147.817C211.57 147.778 211.844 147.663 212.201 147.475C212.509 147.306 212.837 147.112 213.185 146.893C213.543 146.665 213.905 146.426 214.273 146.178C214.353 146.128 214.432 146.078 214.512 146.029C214.601 145.979 214.681 145.924 214.75 145.865C214.859 145.795 214.974 145.775 215.093 145.805C215.222 145.825 215.321 145.89 215.391 145.999C215.461 146.098 215.48 146.208 215.451 146.327C215.431 146.446 215.366 146.541 215.257 146.61C215.177 146.67 215.093 146.729 215.003 146.789C214.924 146.839 214.84 146.893 214.75 146.953C214.372 147.201 214.005 147.44 213.647 147.668C213.289 147.897 212.952 148.096 212.634 148.265C211.988 148.602 211.476 148.771 211.098 148.771Z" fill="white"/>
<rect x="183.43" y="101.547" width="17.3895" height="16.1474" rx="8.07368" fill="#16191F"/>
<rect x="183.74" y="101.857" width="16.7684" height="15.5263" rx="7.76316" stroke="#6D982C" stroke-opacity="0.7" stroke-width="0.621053"/>
<rect x="183.43" y="120.18" width="17.3895" height="16.1474" rx="8.07368" fill="#16191F"/>
<rect x="183.74" y="120.49" width="16.7684" height="15.5263" rx="7.76316" stroke="#6D982C" stroke-opacity="0.7" stroke-width="0.621053"/>
<rect x="203.297" y="101.547" width="17.3895" height="16.1474" rx="8.07368" fill="#16191F"/>
<rect x="203.607" y="101.857" width="16.7684" height="15.5263" rx="7.76316" stroke="#6D982C" stroke-opacity="0.7" stroke-width="0.621053"/>
<rect x="203.607" y="120.49" width="16.7684" height="15.5263" rx="7.76316" fill="#16191F"/>
<rect x="203.607" y="120.49" width="16.7684" height="15.5263" rx="7.76316" stroke="#E58585" stroke-width="0.621053"/>
<rect x="434.957" y="84.7773" width="54.6526" height="53.4105" rx="26.7053" fill="#16191F"/>
<rect x="434.957" y="84.7773" width="54.6526" height="53.4105" rx="26.7053" stroke="#6D982C" stroke-width="1.24211"/>
<path d="M450.103 125.085C450.053 125.085 450.013 125.08 449.984 125.071C449.825 125.031 449.71 124.971 449.641 124.892C449.581 124.802 449.541 124.733 449.521 124.683C449.452 124.464 449.477 124.241 449.596 124.012C449.715 123.774 449.869 123.525 450.058 123.267C450.118 123.187 450.172 123.103 450.222 123.014C450.282 122.914 450.331 122.83 450.371 122.76C450.381 122.75 450.396 122.73 450.416 122.701C450.356 122.72 450.282 122.75 450.192 122.79C450.113 122.83 450.018 122.889 449.909 122.969C449.73 123.078 449.541 123.222 449.343 123.401C449.144 123.57 448.94 123.749 448.732 123.938C448.682 123.977 448.627 124.022 448.568 124.072C448.518 124.122 448.468 124.171 448.418 124.221C448.329 124.3 448.225 124.34 448.105 124.34C447.976 124.33 447.872 124.276 447.792 124.176C447.703 124.087 447.663 123.982 447.673 123.863C447.683 123.734 447.733 123.63 447.822 123.55C447.872 123.501 447.927 123.451 447.986 123.401C448.036 123.351 448.086 123.307 448.135 123.267C448.453 122.979 448.766 122.715 449.074 122.477C449.382 122.229 449.685 122.04 449.984 121.911C450.282 121.781 450.57 121.757 450.848 121.836C451.017 121.876 451.136 121.945 451.206 122.045C451.285 122.134 451.33 122.214 451.34 122.283C451.429 122.502 451.409 122.735 451.28 122.984C451.151 123.222 450.987 123.486 450.788 123.774C450.769 123.794 450.744 123.828 450.714 123.878C450.694 123.918 450.669 123.958 450.639 123.997C450.788 123.938 450.982 123.863 451.221 123.774C451.459 123.684 451.747 123.575 452.085 123.446C452.214 123.406 452.334 123.416 452.443 123.476C452.552 123.525 452.627 123.61 452.666 123.729C452.716 123.838 452.711 123.953 452.652 124.072C452.602 124.181 452.522 124.261 452.413 124.31C452.095 124.42 451.807 124.519 451.549 124.608C451.29 124.698 451.072 124.777 450.893 124.847C450.793 124.887 450.704 124.921 450.624 124.951C450.555 124.971 450.49 124.991 450.431 125.011C450.361 125.031 450.302 125.051 450.252 125.071C450.202 125.08 450.152 125.085 450.103 125.085ZM455.624 125.533C455.504 125.533 455.405 125.498 455.325 125.428C455.166 125.299 455.122 125.135 455.191 124.936C455.191 124.926 455.226 124.807 455.296 124.579C455.375 124.35 455.465 124.092 455.564 123.804C455.614 123.635 455.658 123.491 455.698 123.371C455.738 123.242 455.773 123.128 455.802 123.029C455.534 123.128 455.206 123.252 454.819 123.401C454.431 123.54 454.024 123.689 453.596 123.848C453.179 124.007 452.772 124.161 452.374 124.31C452.265 124.35 452.156 124.345 452.046 124.295C451.927 124.236 451.843 124.146 451.793 124.027C451.753 123.918 451.763 123.809 451.823 123.699C451.872 123.58 451.957 123.496 452.076 123.446C452.523 123.287 452.985 123.123 453.462 122.954C453.939 122.775 454.381 122.611 454.789 122.462C455.196 122.303 455.529 122.174 455.788 122.075C456.046 121.975 456.175 121.926 456.175 121.926C456.225 121.916 456.274 121.911 456.324 121.911C456.374 121.901 456.419 121.906 456.458 121.926C456.597 121.945 456.697 122.025 456.756 122.164C456.806 122.243 456.826 122.348 456.816 122.477C456.816 122.596 456.791 122.77 456.741 122.999C456.712 123.128 456.672 123.272 456.622 123.431C456.582 123.58 456.528 123.754 456.458 123.953C456.448 123.992 456.438 124.027 456.428 124.057C456.419 124.087 456.409 124.122 456.399 124.161C456.796 123.943 457.283 123.714 457.859 123.476C457.969 123.426 458.078 123.426 458.187 123.476C458.307 123.515 458.386 123.59 458.426 123.699C458.485 123.809 458.49 123.923 458.441 124.042C458.391 124.161 458.311 124.246 458.202 124.295C457.755 124.494 457.353 124.683 456.995 124.862C456.647 125.041 456.369 125.185 456.16 125.294C455.951 125.403 455.847 125.458 455.847 125.458C455.788 125.508 455.713 125.533 455.624 125.533ZM459.211 126.382C459.141 126.382 459.072 126.372 459.002 126.352C458.933 126.342 458.863 126.333 458.793 126.323C458.615 126.273 458.49 126.169 458.421 126.01C458.331 125.811 458.331 125.572 458.421 125.294C458.52 125.006 458.679 124.638 458.898 124.191C458.938 124.112 458.977 124.022 459.017 123.923C459.067 123.823 459.111 123.729 459.151 123.64C459.022 123.689 458.883 123.774 458.734 123.893C458.595 124.002 458.451 124.117 458.302 124.236C458.202 124.305 458.093 124.335 457.974 124.325C457.845 124.305 457.74 124.251 457.661 124.161C457.591 124.062 457.566 123.953 457.586 123.833C457.596 123.714 457.646 123.61 457.735 123.52C457.874 123.421 458.018 123.312 458.167 123.192C458.326 123.073 458.485 122.974 458.644 122.894C459.052 122.686 459.424 122.631 459.762 122.73C459.921 122.76 460.041 122.86 460.12 123.029C460.2 123.187 460.195 123.386 460.105 123.625C460.026 123.863 459.887 124.186 459.688 124.594C459.638 124.713 459.583 124.832 459.524 124.951C459.474 125.071 459.424 125.185 459.375 125.294C459.365 125.334 459.35 125.369 459.33 125.398C459.32 125.428 459.31 125.458 459.3 125.488C459.509 125.458 459.812 125.354 460.209 125.175C460.617 124.986 461.163 124.618 461.849 124.072C462.217 123.784 462.55 123.505 462.848 123.237C463.146 122.959 463.384 122.73 463.563 122.552C463.742 122.373 463.831 122.283 463.831 122.283C463.951 122.144 464.095 122.099 464.264 122.149C464.343 122.159 464.408 122.194 464.457 122.253C464.507 122.303 464.547 122.353 464.577 122.402C464.646 122.542 464.651 122.706 464.592 122.894C464.542 123.073 464.433 123.366 464.264 123.774C464.204 123.903 464.144 124.032 464.085 124.161C464.035 124.29 463.985 124.41 463.936 124.519C463.926 124.559 463.916 124.594 463.906 124.623C463.906 124.643 463.901 124.663 463.891 124.683C464.08 124.653 464.279 124.574 464.487 124.445C464.706 124.305 464.915 124.151 465.113 123.982C465.322 123.814 465.496 123.669 465.635 123.55C465.734 123.461 465.844 123.421 465.963 123.431C466.082 123.441 466.187 123.491 466.276 123.58C466.355 123.679 466.39 123.789 466.38 123.908C466.38 124.027 466.331 124.131 466.231 124.221C465.923 124.489 465.605 124.743 465.277 124.981C464.959 125.22 464.636 125.398 464.308 125.518C463.99 125.627 463.668 125.642 463.34 125.562C463.181 125.493 463.066 125.393 462.997 125.264C462.937 125.125 462.917 124.971 462.937 124.802C462.967 124.633 463.027 124.425 463.116 124.176C463.007 124.276 462.892 124.37 462.773 124.459C462.664 124.549 462.545 124.648 462.415 124.758C461.044 125.841 459.976 126.382 459.211 126.382ZM467.934 125.085C467.884 125.085 467.844 125.08 467.815 125.071C467.656 125.031 467.541 124.971 467.472 124.892C467.412 124.802 467.372 124.733 467.352 124.683C467.283 124.464 467.308 124.241 467.427 124.012C467.546 123.774 467.7 123.525 467.889 123.267C467.949 123.187 468.003 123.103 468.053 123.014C468.113 122.914 468.162 122.83 468.202 122.76C468.212 122.75 468.227 122.73 468.247 122.701C468.187 122.72 468.113 122.75 468.023 122.79C467.944 122.83 467.849 122.889 467.74 122.969C467.561 123.078 467.372 123.222 467.174 123.401C466.975 123.57 466.771 123.749 466.563 123.938C466.513 123.977 466.458 124.022 466.399 124.072C466.349 124.122 466.299 124.171 466.25 124.221C466.16 124.3 466.056 124.34 465.936 124.34C465.807 124.33 465.703 124.276 465.623 124.176C465.534 124.087 465.494 123.982 465.504 123.863C465.514 123.734 465.564 123.63 465.653 123.55C465.703 123.501 465.758 123.451 465.817 123.401C465.867 123.351 465.917 123.307 465.966 123.267C466.284 122.979 466.597 122.715 466.905 122.477C467.213 122.229 467.516 122.04 467.815 121.911C468.113 121.781 468.401 121.757 468.679 121.836C468.848 121.876 468.967 121.945 469.037 122.045C469.116 122.134 469.161 122.214 469.171 122.283C469.26 122.502 469.24 122.735 469.111 122.984C468.982 123.222 468.818 123.486 468.619 123.774C468.6 123.794 468.575 123.828 468.545 123.878C468.525 123.918 468.5 123.958 468.47 123.997C468.619 123.938 468.813 123.863 469.052 123.774C469.29 123.684 469.578 123.575 469.916 123.446C470.045 123.406 470.165 123.416 470.274 123.476C470.383 123.525 470.458 123.61 470.498 123.729C470.547 123.838 470.542 123.953 470.483 124.072C470.433 124.181 470.353 124.261 470.244 124.31C469.926 124.42 469.638 124.519 469.38 124.608C469.121 124.698 468.903 124.777 468.724 124.847C468.624 124.887 468.535 124.921 468.455 124.951C468.386 124.971 468.321 124.991 468.262 125.011C468.192 125.031 468.133 125.051 468.083 125.071C468.033 125.08 467.983 125.085 467.934 125.085ZM471.934 126.412C471.885 126.412 471.835 126.407 471.785 126.397C471.735 126.397 471.681 126.392 471.621 126.382C471.502 126.342 471.403 126.258 471.323 126.129C471.283 126.049 471.263 125.94 471.263 125.801C471.263 125.662 471.308 125.433 471.398 125.115C471.487 124.797 471.631 124.325 471.83 123.699C471.611 123.779 471.358 123.873 471.07 123.982C470.791 124.092 470.503 124.201 470.205 124.31C470.096 124.35 469.987 124.345 469.877 124.295C469.758 124.236 469.674 124.146 469.624 124.027C469.584 123.918 469.594 123.809 469.654 123.699C469.703 123.58 469.788 123.496 469.907 123.446C470.334 123.287 470.732 123.138 471.1 122.999C471.477 122.86 471.785 122.745 472.024 122.656C472.262 122.566 472.381 122.522 472.381 122.522C472.481 122.482 472.575 122.477 472.665 122.507C472.794 122.537 472.888 122.611 472.948 122.73C472.997 122.82 473.012 122.899 472.993 122.969C472.983 123.038 472.968 123.113 472.948 123.192C472.928 123.232 472.913 123.277 472.903 123.327C472.893 123.366 472.878 123.416 472.858 123.476C472.789 123.645 472.714 123.853 472.635 124.102C472.565 124.34 472.491 124.584 472.411 124.832C472.362 124.971 472.322 125.09 472.292 125.19C472.262 125.289 472.237 125.379 472.217 125.458C472.406 125.418 472.679 125.304 473.037 125.115C473.345 124.946 473.673 124.753 474.021 124.534C474.379 124.305 474.741 124.067 475.109 123.818C475.189 123.769 475.268 123.719 475.348 123.669C475.437 123.62 475.516 123.565 475.586 123.505C475.695 123.436 475.81 123.416 475.929 123.446C476.058 123.466 476.157 123.53 476.227 123.64C476.297 123.739 476.316 123.848 476.287 123.968C476.267 124.087 476.202 124.181 476.093 124.251C476.013 124.31 475.929 124.37 475.839 124.43C475.76 124.479 475.675 124.534 475.586 124.594C475.208 124.842 474.841 125.08 474.483 125.309C474.125 125.538 473.787 125.736 473.469 125.905C472.824 126.243 472.312 126.412 471.934 126.412Z" fill="white"/>
<rect x="444.266" y="97.8203" width="17.3895" height="16.1474" rx="8.07368" fill="#16191F"/>
<rect x="444.576" y="98.1308" width="16.7684" height="15.5263" rx="7.76316" stroke="#6D982C" stroke-opacity="0.7" stroke-width="0.621053"/>
<rect x="464.141" y="97.8203" width="17.3895" height="16.1474" rx="8.07368" fill="#16191F"/>
<rect x="464.451" y="98.1308" width="16.7684" height="15.5263" rx="7.76316" stroke="#6D982C" stroke-opacity="0.7" stroke-width="0.621053"/>
<rect x="463.519" y="205.262" width="44.7158" height="43.4737" rx="21.7368" fill="#16191F"/>
<rect x="463.519" y="205.262" width="44.7158" height="43.4737" rx="21.7368" stroke="#6D982C" stroke-width="1.24211"/>
<path d="M473.704 235.636C473.655 235.636 473.615 235.631 473.585 235.621C473.426 235.582 473.312 235.522 473.242 235.442C473.183 235.353 473.143 235.283 473.123 235.234C473.053 235.015 473.078 234.792 473.198 234.563C473.317 234.325 473.471 234.076 473.66 233.818C473.719 233.738 473.774 233.654 473.824 233.564C473.883 233.465 473.933 233.381 473.973 233.311C473.983 233.301 473.997 233.281 474.017 233.251C473.958 233.271 473.883 233.301 473.794 233.341C473.714 233.381 473.62 233.44 473.511 233.52C473.332 233.629 473.143 233.773 472.944 233.952C472.745 234.121 472.542 234.3 472.333 234.489C472.283 234.528 472.229 234.573 472.169 234.623C472.119 234.672 472.07 234.722 472.02 234.772C471.931 234.851 471.826 234.891 471.707 234.891C471.578 234.881 471.474 234.826 471.394 234.727C471.305 234.638 471.265 234.533 471.275 234.414C471.285 234.285 471.334 234.18 471.424 234.101C471.474 234.051 471.528 234.002 471.588 233.952C471.637 233.902 471.687 233.858 471.737 233.818C472.055 233.53 472.368 233.266 472.676 233.028C472.984 232.779 473.287 232.591 473.585 232.461C473.883 232.332 474.171 232.307 474.45 232.387C474.619 232.427 474.738 232.496 474.807 232.596C474.887 232.685 474.932 232.764 474.941 232.834C475.031 233.053 475.011 233.286 474.882 233.535C474.753 233.773 474.589 234.036 474.39 234.325C474.37 234.344 474.345 234.379 474.315 234.429C474.296 234.469 474.271 234.508 474.241 234.548C474.39 234.489 474.584 234.414 474.822 234.325C475.061 234.235 475.349 234.126 475.687 233.997C475.816 233.957 475.935 233.967 476.044 234.026C476.154 234.076 476.228 234.161 476.268 234.28C476.318 234.389 476.313 234.503 476.253 234.623C476.203 234.732 476.124 234.811 476.015 234.861C475.697 234.97 475.409 235.07 475.15 235.159C474.892 235.249 474.673 235.328 474.494 235.398C474.395 235.437 474.306 235.472 474.226 235.502C474.156 235.522 474.092 235.542 474.032 235.562C473.963 235.582 473.903 235.601 473.853 235.621C473.804 235.631 473.754 235.636 473.704 235.636ZM479.225 236.083C479.106 236.083 479.007 236.049 478.927 235.979C478.768 235.85 478.723 235.686 478.793 235.487C478.793 235.477 478.828 235.358 478.897 235.129C478.977 234.901 479.066 234.643 479.166 234.354C479.215 234.185 479.26 234.041 479.3 233.922C479.339 233.793 479.374 233.679 479.404 233.579C479.136 233.679 478.808 233.803 478.42 233.952C478.033 234.091 477.625 234.24 477.198 234.399C476.781 234.558 476.373 234.712 475.976 234.861C475.866 234.901 475.757 234.896 475.648 234.846C475.529 234.787 475.444 234.697 475.394 234.578C475.355 234.469 475.365 234.359 475.424 234.25C475.474 234.131 475.558 234.046 475.678 233.997C476.125 233.838 476.587 233.674 477.064 233.505C477.541 233.326 477.983 233.162 478.39 233.013C478.798 232.854 479.131 232.725 479.389 232.625C479.647 232.526 479.777 232.476 479.777 232.476C479.826 232.466 479.876 232.461 479.926 232.461C479.975 232.451 480.02 232.456 480.06 232.476C480.199 232.496 480.298 232.576 480.358 232.715C480.408 232.794 480.427 232.899 480.418 233.028C480.418 233.147 480.393 233.321 480.343 233.549C480.313 233.679 480.273 233.823 480.224 233.982C480.184 234.131 480.129 234.305 480.06 234.503C480.05 234.543 480.04 234.578 480.03 234.608C480.02 234.638 480.01 234.672 480 234.712C480.398 234.493 480.885 234.265 481.461 234.026C481.57 233.977 481.68 233.977 481.789 234.026C481.908 234.066 481.988 234.141 482.027 234.25C482.087 234.359 482.092 234.474 482.042 234.593C481.993 234.712 481.913 234.797 481.804 234.846C481.357 235.045 480.954 235.234 480.596 235.413C480.249 235.591 479.97 235.736 479.762 235.845C479.553 235.954 479.449 236.009 479.449 236.009C479.389 236.059 479.315 236.083 479.225 236.083ZM482.812 236.933C482.743 236.933 482.673 236.923 482.604 236.903C482.534 236.893 482.465 236.883 482.395 236.873C482.216 236.824 482.092 236.719 482.022 236.56C481.933 236.362 481.933 236.123 482.022 235.845C482.122 235.557 482.281 235.189 482.499 234.742C482.539 234.662 482.579 234.573 482.619 234.474C482.668 234.374 482.713 234.28 482.753 234.19C482.624 234.24 482.484 234.325 482.335 234.444C482.196 234.553 482.052 234.667 481.903 234.787C481.804 234.856 481.695 234.886 481.575 234.876C481.446 234.856 481.342 234.802 481.262 234.712C481.193 234.613 481.168 234.503 481.188 234.384C481.198 234.265 481.247 234.161 481.337 234.071C481.476 233.972 481.62 233.862 481.769 233.743C481.928 233.624 482.087 233.525 482.246 233.445C482.653 233.236 483.026 233.182 483.364 233.281C483.523 233.311 483.642 233.41 483.722 233.579C483.801 233.738 483.796 233.937 483.707 234.175C483.627 234.414 483.488 234.737 483.289 235.144C483.24 235.264 483.185 235.383 483.125 235.502C483.076 235.621 483.026 235.736 482.976 235.845C482.966 235.885 482.952 235.919 482.932 235.949C482.922 235.979 482.912 236.009 482.902 236.039C483.111 236.009 483.414 235.905 483.811 235.726C484.218 235.537 484.765 235.169 485.451 234.623C485.818 234.334 486.151 234.056 486.449 233.788C486.747 233.51 486.986 233.281 487.165 233.102C487.344 232.923 487.433 232.834 487.433 232.834C487.552 232.695 487.696 232.65 487.865 232.7C487.945 232.71 488.009 232.745 488.059 232.804C488.109 232.854 488.148 232.904 488.178 232.953C488.248 233.092 488.253 233.256 488.193 233.445C488.144 233.624 488.034 233.917 487.865 234.325C487.806 234.454 487.746 234.583 487.686 234.712C487.637 234.841 487.587 234.961 487.537 235.07C487.527 235.11 487.518 235.144 487.508 235.174C487.508 235.194 487.503 235.214 487.493 235.234C487.681 235.204 487.88 235.124 488.089 234.995C488.307 234.856 488.516 234.702 488.715 234.533C488.924 234.364 489.097 234.22 489.237 234.101C489.336 234.012 489.445 233.972 489.564 233.982C489.684 233.992 489.788 234.041 489.878 234.131C489.957 234.23 489.992 234.339 489.982 234.459C489.982 234.578 489.932 234.682 489.833 234.772C489.525 235.04 489.207 235.293 488.879 235.532C488.561 235.77 488.238 235.949 487.91 236.068C487.592 236.178 487.269 236.193 486.941 236.113C486.782 236.044 486.668 235.944 486.598 235.815C486.539 235.676 486.519 235.522 486.539 235.353C486.569 235.184 486.628 234.975 486.718 234.727C486.608 234.826 486.494 234.921 486.375 235.01C486.265 235.1 486.146 235.199 486.017 235.308C484.646 236.391 483.578 236.933 482.812 236.933ZM491.535 235.636C491.486 235.636 491.446 235.631 491.416 235.621C491.257 235.582 491.143 235.522 491.073 235.442C491.014 235.353 490.974 235.283 490.954 235.234C490.884 235.015 490.909 234.792 491.029 234.563C491.148 234.325 491.302 234.076 491.491 233.818C491.55 233.738 491.605 233.654 491.655 233.564C491.714 233.465 491.764 233.381 491.804 233.311C491.814 233.301 491.828 233.281 491.848 233.251C491.789 233.271 491.714 233.301 491.625 233.341C491.545 233.381 491.451 233.44 491.342 233.52C491.163 233.629 490.974 233.773 490.775 233.952C490.576 234.121 490.373 234.3 490.164 234.489C490.114 234.528 490.06 234.573 490 234.623C489.95 234.672 489.901 234.722 489.851 234.772C489.762 234.851 489.657 234.891 489.538 234.891C489.409 234.881 489.305 234.826 489.225 234.727C489.136 234.638 489.096 234.533 489.106 234.414C489.116 234.285 489.165 234.18 489.255 234.101C489.305 234.051 489.359 234.002 489.419 233.952C489.468 233.902 489.518 233.858 489.568 233.818C489.886 233.53 490.199 233.266 490.507 233.028C490.815 232.779 491.118 232.591 491.416 232.461C491.714 232.332 492.002 232.307 492.281 232.387C492.45 232.427 492.569 232.496 492.638 232.596C492.718 232.685 492.763 232.764 492.772 232.834C492.862 233.053 492.842 233.286 492.713 233.535C492.584 233.773 492.42 234.036 492.221 234.325C492.201 234.344 492.176 234.379 492.146 234.429C492.127 234.469 492.102 234.508 492.072 234.548C492.221 234.489 492.415 234.414 492.653 234.325C492.892 234.235 493.18 234.126 493.518 233.997C493.647 233.957 493.766 233.967 493.875 234.026C493.985 234.076 494.059 234.161 494.099 234.28C494.149 234.389 494.144 234.503 494.084 234.623C494.034 234.732 493.955 234.811 493.846 234.861C493.528 234.97 493.24 235.07 492.981 235.159C492.723 235.249 492.504 235.328 492.325 235.398C492.226 235.437 492.137 235.472 492.057 235.502C491.987 235.522 491.923 235.542 491.863 235.562C491.794 235.582 491.734 235.601 491.684 235.621C491.635 235.631 491.585 235.636 491.535 235.636ZM495.536 236.963C495.486 236.963 495.436 236.958 495.387 236.948C495.337 236.948 495.282 236.943 495.223 236.933C495.104 236.893 495.004 236.809 494.925 236.68C494.885 236.6 494.865 236.491 494.865 236.352C494.865 236.213 494.91 235.984 494.999 235.666C495.089 235.348 495.233 234.876 495.431 234.25C495.213 234.33 494.959 234.424 494.671 234.533C494.393 234.643 494.105 234.752 493.807 234.861C493.697 234.901 493.588 234.896 493.479 234.846C493.36 234.787 493.275 234.697 493.225 234.578C493.186 234.469 493.196 234.359 493.255 234.25C493.305 234.131 493.389 234.046 493.509 233.997C493.936 233.838 494.333 233.689 494.701 233.549C495.079 233.41 495.387 233.296 495.625 233.207C495.864 233.117 495.983 233.073 495.983 233.073C496.082 233.033 496.177 233.028 496.266 233.058C496.395 233.087 496.49 233.162 496.549 233.281C496.599 233.371 496.614 233.45 496.594 233.52C496.584 233.589 496.569 233.664 496.549 233.743C496.529 233.783 496.515 233.828 496.505 233.877C496.495 233.917 496.48 233.967 496.46 234.026C496.39 234.195 496.316 234.404 496.236 234.652C496.167 234.891 496.092 235.134 496.013 235.383C495.963 235.522 495.923 235.641 495.894 235.741C495.864 235.84 495.839 235.929 495.819 236.009C496.008 235.969 496.281 235.855 496.639 235.666C496.947 235.497 497.275 235.303 497.623 235.085C497.98 234.856 498.343 234.618 498.711 234.369C498.79 234.32 498.87 234.27 498.949 234.22C499.039 234.171 499.118 234.116 499.188 234.056C499.297 233.987 499.411 233.967 499.53 233.997C499.66 234.017 499.759 234.081 499.829 234.19C499.898 234.29 499.918 234.399 499.888 234.518C499.868 234.638 499.804 234.732 499.694 234.802C499.615 234.861 499.53 234.921 499.441 234.98C499.361 235.03 499.277 235.085 499.188 235.144C498.81 235.393 498.442 235.631 498.085 235.86C497.727 236.088 497.389 236.287 497.071 236.456C496.425 236.794 495.913 236.963 495.536 236.963Z" fill="white"/>
<rect x="567.234" y="101.547" width="24.8421" height="24.8421" rx="12.4211" fill="#16191F"/>
<rect x="567.545" y="101.857" width="24.2211" height="24.2211" rx="12.1105" stroke="#6D982C" stroke-opacity="0.4" stroke-width="0.621053"/>
<rect x="301.422" y="61.7969" width="26.0842" height="24.8421" rx="12.4211" fill="#16191F"/>
<rect x="301.732" y="62.1074" width="25.4632" height="24.2211" rx="12.1105" stroke="#6D982C" stroke-opacity="0.7" stroke-width="0.621053"/>
<rect x="216.34" y="230.105" width="53.4105" height="54.6526" rx="26.7053" fill="#16191F"/>
<rect x="216.34" y="230.105" width="53.4105" height="54.6526" rx="26.7053" stroke="#6D982C" stroke-width="1.24211"/>
<path d="M230.259 271.656C230.209 271.656 230.17 271.651 230.14 271.641C229.981 271.601 229.867 271.541 229.797 271.462C229.737 271.373 229.698 271.303 229.678 271.253C229.608 271.035 229.633 270.811 229.752 270.583C229.872 270.344 230.026 270.096 230.214 269.837C230.274 269.758 230.329 269.673 230.378 269.584C230.438 269.485 230.488 269.4 230.527 269.331C230.537 269.321 230.552 269.301 230.572 269.271C230.512 269.291 230.438 269.321 230.348 269.36C230.269 269.4 230.175 269.46 230.065 269.539C229.886 269.649 229.698 269.793 229.499 269.971C229.3 270.14 229.096 270.319 228.888 270.508C228.838 270.548 228.783 270.593 228.724 270.642C228.674 270.692 228.624 270.742 228.575 270.791C228.485 270.871 228.381 270.91 228.262 270.91C228.133 270.901 228.028 270.846 227.949 270.747C227.859 270.657 227.82 270.553 227.829 270.434C227.839 270.304 227.889 270.2 227.979 270.121C228.028 270.071 228.083 270.021 228.142 269.971C228.192 269.922 228.242 269.877 228.292 269.837C228.61 269.549 228.923 269.286 229.231 269.047C229.539 268.799 229.842 268.61 230.14 268.481C230.438 268.352 230.726 268.327 231.004 268.406C231.173 268.446 231.292 268.516 231.362 268.615C231.442 268.705 231.486 268.784 231.496 268.854C231.586 269.072 231.566 269.306 231.437 269.554C231.307 269.793 231.143 270.056 230.945 270.344C230.925 270.364 230.9 270.399 230.87 270.448C230.85 270.488 230.825 270.528 230.796 270.568C230.945 270.508 231.138 270.434 231.377 270.344C231.615 270.255 231.904 270.145 232.241 270.016C232.371 269.976 232.49 269.986 232.599 270.046C232.708 270.096 232.783 270.18 232.823 270.299C232.872 270.409 232.867 270.523 232.808 270.642C232.758 270.751 232.679 270.831 232.569 270.881C232.251 270.99 231.963 271.089 231.705 271.179C231.446 271.268 231.228 271.348 231.049 271.417C230.95 271.457 230.86 271.492 230.781 271.522C230.711 271.541 230.647 271.561 230.587 271.581C230.517 271.601 230.458 271.621 230.408 271.641C230.358 271.651 230.309 271.656 230.259 271.656ZM235.78 272.103C235.661 272.103 235.561 272.068 235.482 271.999C235.323 271.869 235.278 271.705 235.348 271.507C235.348 271.497 235.382 271.378 235.452 271.149C235.531 270.92 235.621 270.662 235.72 270.374C235.77 270.205 235.815 270.061 235.854 269.942C235.894 269.812 235.929 269.698 235.959 269.599C235.69 269.698 235.362 269.822 234.975 269.971C234.587 270.111 234.18 270.26 233.753 270.419C233.335 270.578 232.928 270.732 232.53 270.881C232.421 270.92 232.312 270.915 232.203 270.866C232.083 270.806 231.999 270.717 231.949 270.597C231.909 270.488 231.919 270.379 231.979 270.27C232.029 270.15 232.113 270.066 232.232 270.016C232.68 269.857 233.142 269.693 233.619 269.524C234.096 269.345 234.538 269.181 234.945 269.032C235.353 268.873 235.685 268.744 235.944 268.645C236.202 268.546 236.331 268.496 236.331 268.496C236.381 268.486 236.431 268.481 236.48 268.481C236.53 268.471 236.575 268.476 236.615 268.496C236.754 268.516 236.853 268.595 236.913 268.734C236.962 268.814 236.982 268.918 236.972 269.047C236.972 269.167 236.947 269.34 236.898 269.569C236.868 269.698 236.828 269.842 236.778 270.001C236.739 270.15 236.684 270.324 236.615 270.523C236.605 270.563 236.595 270.597 236.585 270.627C236.575 270.657 236.565 270.692 236.555 270.732C236.952 270.513 237.439 270.284 238.016 270.046C238.125 269.996 238.234 269.996 238.344 270.046C238.463 270.086 238.542 270.16 238.582 270.27C238.642 270.379 238.647 270.493 238.597 270.612C238.547 270.732 238.468 270.816 238.358 270.866C237.911 271.065 237.509 271.253 237.151 271.432C236.803 271.611 236.525 271.755 236.316 271.864C236.108 271.974 236.003 272.028 236.003 272.028C235.944 272.078 235.869 272.103 235.78 272.103ZM239.367 272.953C239.298 272.953 239.228 272.943 239.158 272.923C239.089 272.913 239.019 272.903 238.95 272.893C238.771 272.843 238.647 272.739 238.577 272.58C238.488 272.381 238.488 272.143 238.577 271.864C238.676 271.576 238.835 271.209 239.054 270.761C239.094 270.682 239.134 270.593 239.173 270.493C239.223 270.394 239.268 270.299 239.307 270.21C239.178 270.26 239.039 270.344 238.89 270.463C238.751 270.573 238.607 270.687 238.458 270.806C238.359 270.876 238.249 270.906 238.13 270.896C238.001 270.876 237.896 270.821 237.817 270.732C237.747 270.632 237.723 270.523 237.742 270.404C237.752 270.284 237.802 270.18 237.891 270.091C238.031 269.991 238.175 269.882 238.324 269.763C238.483 269.644 238.642 269.544 238.801 269.465C239.208 269.256 239.581 269.201 239.919 269.301C240.078 269.331 240.197 269.43 240.276 269.599C240.356 269.758 240.351 269.957 240.261 270.195C240.182 270.434 240.043 270.756 239.844 271.164C239.794 271.283 239.74 271.402 239.68 271.522C239.63 271.641 239.581 271.755 239.531 271.864C239.521 271.904 239.506 271.939 239.486 271.969C239.476 271.999 239.466 272.028 239.457 272.058C239.665 272.028 239.968 271.924 240.366 271.745C240.773 271.556 241.32 271.189 242.005 270.642C242.373 270.354 242.706 270.076 243.004 269.807C243.302 269.529 243.541 269.301 243.719 269.122C243.898 268.943 243.988 268.854 243.988 268.854C244.107 268.714 244.251 268.67 244.42 268.719C244.499 268.729 244.564 268.764 244.614 268.824C244.663 268.873 244.703 268.923 244.733 268.973C244.803 269.112 244.808 269.276 244.748 269.465C244.698 269.644 244.589 269.937 244.42 270.344C244.36 270.473 244.301 270.602 244.241 270.732C244.191 270.861 244.142 270.98 244.092 271.089C244.082 271.129 244.072 271.164 244.062 271.194C244.062 271.214 244.057 271.233 244.047 271.253C244.236 271.223 244.435 271.144 244.644 271.015C244.862 270.876 245.071 270.722 245.27 270.553C245.478 270.384 245.652 270.24 245.791 270.121C245.891 270.031 246 269.991 246.119 270.001C246.238 270.011 246.343 270.061 246.432 270.15C246.512 270.25 246.546 270.359 246.537 270.478C246.537 270.597 246.487 270.702 246.387 270.791C246.079 271.06 245.761 271.313 245.434 271.551C245.116 271.79 244.793 271.969 244.465 272.088C244.147 272.197 243.824 272.212 243.496 272.133C243.337 272.063 243.223 271.964 243.153 271.835C243.093 271.695 243.074 271.541 243.093 271.373C243.123 271.204 243.183 270.995 243.272 270.747C243.163 270.846 243.049 270.94 242.929 271.03C242.82 271.119 242.701 271.219 242.572 271.328C241.2 272.411 240.132 272.953 239.367 272.953ZM248.09 271.656C248.04 271.656 248.001 271.651 247.971 271.641C247.812 271.601 247.698 271.541 247.628 271.462C247.568 271.373 247.529 271.303 247.509 271.253C247.439 271.035 247.464 270.811 247.583 270.583C247.703 270.344 247.857 270.096 248.045 269.837C248.105 269.758 248.16 269.673 248.209 269.584C248.269 269.485 248.319 269.4 248.358 269.331C248.368 269.321 248.383 269.301 248.403 269.271C248.343 269.291 248.269 269.321 248.179 269.36C248.1 269.4 248.006 269.46 247.896 269.539C247.717 269.649 247.529 269.793 247.33 269.971C247.131 270.14 246.927 270.319 246.719 270.508C246.669 270.548 246.614 270.593 246.555 270.642C246.505 270.692 246.455 270.742 246.406 270.791C246.316 270.871 246.212 270.91 246.093 270.91C245.964 270.901 245.859 270.846 245.78 270.747C245.69 270.657 245.651 270.553 245.66 270.434C245.67 270.304 245.72 270.2 245.81 270.121C245.859 270.071 245.914 270.021 245.974 269.971C246.023 269.922 246.073 269.877 246.123 269.837C246.441 269.549 246.754 269.286 247.062 269.047C247.37 268.799 247.673 268.61 247.971 268.481C248.269 268.352 248.557 268.327 248.835 268.406C249.004 268.446 249.123 268.516 249.193 268.615C249.273 268.705 249.317 268.784 249.327 268.854C249.417 269.072 249.397 269.306 249.268 269.554C249.138 269.793 248.974 270.056 248.776 270.344C248.756 270.364 248.731 270.399 248.701 270.448C248.681 270.488 248.656 270.528 248.627 270.568C248.776 270.508 248.969 270.434 249.208 270.344C249.446 270.255 249.735 270.145 250.072 270.016C250.202 269.976 250.321 269.986 250.43 270.046C250.539 270.096 250.614 270.18 250.654 270.299C250.703 270.409 250.698 270.523 250.639 270.642C250.589 270.751 250.51 270.831 250.4 270.881C250.082 270.99 249.794 271.089 249.536 271.179C249.278 271.268 249.059 271.348 248.88 271.417C248.781 271.457 248.691 271.492 248.612 271.522C248.542 271.541 248.478 271.561 248.418 271.581C248.348 271.601 248.289 271.621 248.239 271.641C248.189 271.651 248.14 271.656 248.09 271.656ZM252.09 272.982C252.041 272.982 251.991 272.977 251.941 272.967C251.892 272.967 251.837 272.962 251.777 272.953C251.658 272.913 251.559 272.828 251.479 272.699C251.44 272.62 251.42 272.51 251.42 272.371C251.42 272.232 251.464 272.004 251.554 271.686C251.643 271.368 251.787 270.896 251.986 270.27C251.768 270.349 251.514 270.443 251.226 270.553C250.948 270.662 250.66 270.771 250.361 270.881C250.252 270.92 250.143 270.915 250.034 270.866C249.914 270.806 249.83 270.717 249.78 270.597C249.74 270.488 249.75 270.379 249.81 270.27C249.86 270.15 249.944 270.066 250.063 270.016C250.491 269.857 250.888 269.708 251.256 269.569C251.633 269.43 251.941 269.316 252.18 269.226C252.418 269.137 252.538 269.092 252.538 269.092C252.637 269.052 252.731 269.047 252.821 269.077C252.95 269.107 253.044 269.181 253.104 269.301C253.154 269.39 253.169 269.47 253.149 269.539C253.139 269.609 253.124 269.683 253.104 269.763C253.084 269.803 253.069 269.847 253.059 269.897C253.049 269.937 253.034 269.986 253.015 270.046C252.945 270.215 252.871 270.424 252.791 270.672C252.721 270.91 252.647 271.154 252.567 271.402C252.518 271.541 252.478 271.661 252.448 271.76C252.418 271.859 252.394 271.949 252.374 272.028C252.562 271.989 252.836 271.874 253.193 271.686C253.502 271.517 253.829 271.323 254.177 271.104C254.535 270.876 254.898 270.637 255.265 270.389C255.345 270.339 255.424 270.289 255.504 270.24C255.593 270.19 255.673 270.135 255.742 270.076C255.852 270.006 255.966 269.986 256.085 270.016C256.214 270.036 256.314 270.101 256.383 270.21C256.453 270.309 256.473 270.419 256.443 270.538C256.423 270.657 256.358 270.751 256.249 270.821C256.17 270.881 256.085 270.94 255.996 271C255.916 271.05 255.832 271.104 255.742 271.164C255.365 271.412 254.997 271.651 254.639 271.879C254.282 272.108 253.944 272.307 253.626 272.476C252.98 272.813 252.468 272.982 252.09 272.982Z" fill="white"/>
<rect x="224.414" y="244.391" width="17.3895" height="16.1474" rx="8.07368" fill="#16191F"/>
<rect x="224.725" y="244.701" width="16.7684" height="15.5263" rx="7.76316" stroke="#6D982C" stroke-opacity="0.7" stroke-width="0.621053"/>
<rect x="244.289" y="244.391" width="17.3895" height="16.1474" rx="8.07368" fill="#16191F"/>
<rect x="244.6" y="244.701" width="16.7684" height="15.5263" rx="7.76316" stroke="#6D982C" stroke-opacity="0.7" stroke-width="0.621053"/>
<rect x="421.906" y="256.809" width="27.3263" height="27.3263" rx="13.6632" fill="#16191F"/>
<rect x="422.217" y="257.119" width="26.7053" height="26.7053" rx="13.3526" stroke="#6D982C" stroke-opacity="0.6" stroke-width="0.621053"/>
<rect x="147.406" y="230.727" width="27.3263" height="27.3263" rx="13.6632" fill="#16191F"/>
<rect x="147.717" y="231.037" width="26.7053" height="26.7053" rx="13.3526" stroke="#6D982C" stroke-opacity="0.6" stroke-width="0.621053"/>
<rect x="125.35" y="65.8379" width="21.7368" height="20.4947" rx="10.2474" fill="#16191F"/>
<rect x="125.35" y="65.8379" width="21.7368" height="20.4947" rx="10.2474" stroke="#BF3737" stroke-width="0.621053"/>
<rect x="566.613" y="154.336" width="88.1895" height="89.4316" rx="44.0947" fill="#16191F"/>
<rect x="566.613" y="154.336" width="88.1895" height="89.4316" rx="44.0947" stroke="#87BF34" stroke-width="1.24211"/>
<path d="M597.915 221.972C597.866 221.972 597.826 221.967 597.796 221.957C597.637 221.917 597.523 221.858 597.453 221.778C597.394 221.689 597.354 221.619 597.334 221.57C597.264 221.351 597.289 221.128 597.409 220.899C597.528 220.66 597.682 220.412 597.871 220.154C597.93 220.074 597.985 219.99 598.035 219.9C598.094 219.801 598.144 219.716 598.184 219.647C598.194 219.637 598.208 219.617 598.228 219.587C598.169 219.607 598.094 219.637 598.005 219.677C597.925 219.716 597.831 219.776 597.722 219.856C597.543 219.965 597.354 220.109 597.155 220.288C596.956 220.457 596.753 220.636 596.544 220.824C596.494 220.864 596.44 220.909 596.38 220.959C596.33 221.008 596.281 221.058 596.231 221.108C596.142 221.187 596.037 221.227 595.918 221.227C595.789 221.217 595.684 221.162 595.605 221.063C595.516 220.973 595.476 220.869 595.486 220.75C595.496 220.621 595.545 220.516 595.635 220.437C595.684 220.387 595.739 220.338 595.799 220.288C595.848 220.238 595.898 220.193 595.948 220.154C596.266 219.866 596.579 219.602 596.887 219.364C597.195 219.115 597.498 218.927 597.796 218.797C598.094 218.668 598.382 218.643 598.661 218.723C598.829 218.763 598.949 218.832 599.018 218.931C599.098 219.021 599.142 219.1 599.152 219.17C599.242 219.389 599.222 219.622 599.093 219.871C598.964 220.109 598.8 220.372 598.601 220.66C598.581 220.68 598.556 220.715 598.526 220.765C598.507 220.805 598.482 220.844 598.452 220.884C598.601 220.824 598.795 220.75 599.033 220.66C599.272 220.571 599.56 220.462 599.898 220.333C600.027 220.293 600.146 220.303 600.255 220.362C600.365 220.412 600.439 220.497 600.479 220.616C600.529 220.725 600.524 220.839 600.464 220.959C600.414 221.068 600.335 221.147 600.226 221.197C599.908 221.306 599.619 221.406 599.361 221.495C599.103 221.585 598.884 221.664 598.705 221.734C598.606 221.773 598.516 221.808 598.437 221.838C598.367 221.858 598.303 221.878 598.243 221.898C598.174 221.917 598.114 221.937 598.064 221.957C598.015 221.967 597.965 221.972 597.915 221.972ZM603.436 222.419C603.317 222.419 603.217 222.385 603.138 222.315C602.979 222.186 602.934 222.022 603.004 221.823C603.004 221.813 603.039 221.694 603.108 221.465C603.188 221.237 603.277 220.978 603.376 220.69C603.426 220.521 603.471 220.377 603.511 220.258C603.55 220.129 603.585 220.015 603.615 219.915C603.347 220.015 603.019 220.139 602.631 220.288C602.244 220.427 601.836 220.576 601.409 220.735C600.992 220.894 600.584 221.048 600.187 221.197C600.077 221.237 599.968 221.232 599.859 221.182C599.74 221.123 599.655 221.033 599.605 220.914C599.566 220.805 599.576 220.695 599.635 220.586C599.685 220.467 599.769 220.382 599.889 220.333C600.336 220.174 600.798 220.01 601.275 219.841C601.752 219.662 602.194 219.498 602.601 219.349C603.009 219.19 603.342 219.061 603.6 218.961C603.858 218.862 603.988 218.812 603.988 218.812C604.037 218.802 604.087 218.797 604.137 218.797C604.186 218.787 604.231 218.792 604.271 218.812C604.41 218.832 604.509 218.912 604.569 219.051C604.619 219.13 604.638 219.235 604.628 219.364C604.628 219.483 604.604 219.657 604.554 219.885C604.524 220.015 604.484 220.159 604.435 220.318C604.395 220.467 604.34 220.641 604.271 220.839C604.261 220.879 604.251 220.914 604.241 220.944C604.231 220.973 604.221 221.008 604.211 221.048C604.609 220.829 605.096 220.601 605.672 220.362C605.781 220.313 605.89 220.313 606 220.362C606.119 220.402 606.199 220.477 606.238 220.586C606.298 220.695 606.303 220.81 606.253 220.929C606.203 221.048 606.124 221.132 606.015 221.182C605.568 221.381 605.165 221.57 604.807 221.749C604.46 221.927 604.181 222.072 603.973 222.181C603.764 222.29 603.66 222.345 603.66 222.345C603.6 222.394 603.525 222.419 603.436 222.419ZM607.023 223.269C606.954 223.269 606.884 223.259 606.815 223.239C606.745 223.229 606.676 223.219 606.606 223.209C606.427 223.16 606.303 223.055 606.233 222.896C606.144 222.698 606.144 222.459 606.233 222.181C606.333 221.893 606.492 221.525 606.71 221.078C606.75 220.998 606.79 220.909 606.83 220.81C606.879 220.71 606.924 220.616 606.964 220.526C606.835 220.576 606.695 220.66 606.546 220.78C606.407 220.889 606.263 221.003 606.114 221.123C606.015 221.192 605.905 221.222 605.786 221.212C605.657 221.192 605.553 221.137 605.473 221.048C605.404 220.949 605.379 220.839 605.399 220.72C605.409 220.601 605.458 220.497 605.548 220.407C605.687 220.308 605.831 220.198 605.98 220.079C606.139 219.96 606.298 219.861 606.457 219.781C606.864 219.572 607.237 219.518 607.575 219.617C607.734 219.647 607.853 219.746 607.933 219.915C608.012 220.074 608.007 220.273 607.918 220.511C607.838 220.75 607.699 221.073 607.5 221.48C607.451 221.6 607.396 221.719 607.336 221.838C607.287 221.957 607.237 222.072 607.187 222.181C607.177 222.221 607.162 222.255 607.143 222.285C607.133 222.315 607.123 222.345 607.113 222.375C607.321 222.345 607.625 222.24 608.022 222.062C608.429 221.873 608.976 221.505 609.662 220.959C610.029 220.67 610.362 220.392 610.66 220.124C610.958 219.846 611.197 219.617 611.376 219.438C611.555 219.259 611.644 219.17 611.644 219.17C611.763 219.031 611.907 218.986 612.076 219.036C612.156 219.046 612.22 219.081 612.27 219.14C612.32 219.19 612.359 219.24 612.389 219.289C612.459 219.428 612.464 219.592 612.404 219.781C612.354 219.96 612.245 220.253 612.076 220.66C612.017 220.79 611.957 220.919 611.897 221.048C611.848 221.177 611.798 221.296 611.748 221.406C611.738 221.445 611.728 221.48 611.719 221.51C611.719 221.53 611.714 221.55 611.704 221.57C611.892 221.54 612.091 221.46 612.3 221.331C612.518 221.192 612.727 221.038 612.926 220.869C613.135 220.7 613.308 220.556 613.448 220.437C613.547 220.347 613.656 220.308 613.775 220.318C613.895 220.328 613.999 220.377 614.088 220.467C614.168 220.566 614.203 220.675 614.193 220.795C614.193 220.914 614.143 221.018 614.044 221.108C613.736 221.376 613.418 221.629 613.09 221.868C612.772 222.106 612.449 222.285 612.121 222.404C611.803 222.514 611.48 222.529 611.152 222.449C610.993 222.38 610.879 222.28 610.809 222.151C610.75 222.012 610.73 221.858 610.75 221.689C610.779 221.52 610.839 221.311 610.929 221.063C610.819 221.162 610.705 221.257 610.586 221.346C610.476 221.436 610.357 221.535 610.228 221.644C608.857 222.727 607.788 223.269 607.023 223.269ZM615.746 221.972C615.697 221.972 615.657 221.967 615.627 221.957C615.468 221.917 615.354 221.858 615.284 221.778C615.225 221.689 615.185 221.619 615.165 221.57C615.095 221.351 615.12 221.128 615.24 220.899C615.359 220.66 615.513 220.412 615.702 220.154C615.761 220.074 615.816 219.99 615.866 219.9C615.925 219.801 615.975 219.716 616.015 219.647C616.025 219.637 616.039 219.617 616.059 219.587C616 219.607 615.925 219.637 615.836 219.677C615.756 219.716 615.662 219.776 615.553 219.856C615.374 219.965 615.185 220.109 614.986 220.288C614.787 220.457 614.584 220.636 614.375 220.824C614.325 220.864 614.271 220.909 614.211 220.959C614.161 221.008 614.112 221.058 614.062 221.108C613.973 221.187 613.868 221.227 613.749 221.227C613.62 221.217 613.515 221.162 613.436 221.063C613.347 220.973 613.307 220.869 613.317 220.75C613.327 220.621 613.376 220.516 613.466 220.437C613.515 220.387 613.57 220.338 613.63 220.288C613.679 220.238 613.729 220.193 613.779 220.154C614.097 219.866 614.41 219.602 614.718 219.364C615.026 219.115 615.329 218.927 615.627 218.797C615.925 218.668 616.213 218.643 616.492 218.723C616.66 218.763 616.78 218.832 616.849 218.931C616.929 219.021 616.973 219.1 616.983 219.17C617.073 219.389 617.053 219.622 616.924 219.871C616.795 220.109 616.631 220.372 616.432 220.66C616.412 220.68 616.387 220.715 616.357 220.765C616.338 220.805 616.313 220.844 616.283 220.884C616.432 220.824 616.626 220.75 616.864 220.66C617.103 220.571 617.391 220.462 617.729 220.333C617.858 220.293 617.977 220.303 618.086 220.362C618.196 220.412 618.27 220.497 618.31 220.616C618.36 220.725 618.355 220.839 618.295 220.959C618.245 221.068 618.166 221.147 618.057 221.197C617.739 221.306 617.45 221.406 617.192 221.495C616.934 221.585 616.715 221.664 616.536 221.734C616.437 221.773 616.347 221.808 616.268 221.838C616.198 221.858 616.134 221.878 616.074 221.898C616.005 221.917 615.945 221.937 615.895 221.957C615.846 221.967 615.796 221.972 615.746 221.972ZM619.747 223.299C619.697 223.299 619.647 223.294 619.598 223.284C619.548 223.284 619.493 223.279 619.434 223.269C619.314 223.229 619.215 223.145 619.136 223.016C619.096 222.936 619.076 222.827 619.076 222.688C619.076 222.548 619.121 222.32 619.21 222.002C619.3 221.684 619.444 221.212 619.642 220.586C619.424 220.665 619.17 220.76 618.882 220.869C618.604 220.978 618.316 221.088 618.018 221.197C617.908 221.237 617.799 221.232 617.69 221.182C617.571 221.123 617.486 221.033 617.436 220.914C617.397 220.805 617.407 220.695 617.466 220.586C617.516 220.467 617.6 220.382 617.72 220.333C618.147 220.174 618.544 220.025 618.912 219.885C619.29 219.746 619.598 219.632 619.836 219.543C620.075 219.453 620.194 219.408 620.194 219.408C620.293 219.369 620.388 219.364 620.477 219.394C620.606 219.423 620.701 219.498 620.76 219.617C620.81 219.707 620.825 219.786 620.805 219.856C620.795 219.925 620.78 220 620.76 220.079C620.74 220.119 620.726 220.164 620.716 220.213C620.706 220.253 620.691 220.303 620.671 220.362C620.601 220.531 620.527 220.74 620.447 220.988C620.378 221.227 620.303 221.47 620.224 221.719C620.174 221.858 620.134 221.977 620.104 222.076C620.075 222.176 620.05 222.265 620.03 222.345C620.219 222.305 620.492 222.191 620.85 222.002C621.158 221.833 621.486 221.639 621.833 221.421C622.191 221.192 622.554 220.954 622.922 220.705C623.001 220.656 623.081 220.606 623.16 220.556C623.249 220.506 623.329 220.452 623.399 220.392C623.508 220.323 623.622 220.303 623.741 220.333C623.871 220.352 623.97 220.417 624.039 220.526C624.109 220.626 624.129 220.735 624.099 220.854C624.079 220.973 624.015 221.068 623.905 221.137C623.826 221.197 623.741 221.257 623.652 221.316C623.572 221.366 623.488 221.421 623.399 221.48C623.021 221.729 622.653 221.967 622.296 222.196C621.938 222.424 621.6 222.623 621.282 222.792C620.636 223.13 620.124 223.299 619.747 223.299Z" fill="white"/>
<rect x="582.148" y="174.832" width="17.3895" height="16.1474" rx="8.07368" fill="#16191F"/>
<rect x="582.459" y="175.143" width="16.7684" height="15.5263" rx="7.76316" stroke="#6D982C" stroke-opacity="0.7" stroke-width="0.621053"/>
<rect x="582.148" y="193.465" width="17.3895" height="16.1474" rx="8.07368" fill="#16191F"/>
<rect x="582.459" y="193.775" width="16.7684" height="15.5263" rx="7.76316" stroke="#6D982C" stroke-opacity="0.7" stroke-width="0.621053"/>
<rect x="602.016" y="174.832" width="17.3895" height="16.1474" rx="8.07368" fill="#16191F"/>
<rect x="602.326" y="175.143" width="16.7684" height="15.5263" rx="7.76316" stroke="#6D982C" stroke-opacity="0.7" stroke-width="0.621053"/>
<rect x="602.016" y="193.465" width="17.3895" height="16.1474" rx="8.07368" fill="#16191F"/>
<rect x="602.326" y="193.775" width="16.7684" height="15.5263" rx="7.76316" stroke="#6D982C" stroke-opacity="0.7" stroke-width="0.621053"/>
<rect x="621.883" y="174.832" width="17.3895" height="16.1474" rx="8.07368" fill="#16191F"/>
<rect x="622.193" y="175.143" width="16.7684" height="15.5263" rx="7.76316" stroke="#6D982C" stroke-opacity="0.7" stroke-width="0.621053"/>
<rect x="621.883" y="193.465" width="17.3895" height="16.1474" rx="8.07368" fill="#16191F"/>
<rect x="622.193" y="193.775" width="16.7684" height="15.5263" rx="7.76316" stroke="#6D982C" stroke-opacity="0.7" stroke-width="0.621053"/>
<rect x="53" y="153.715" width="72.0421" height="72.0421" rx="36.0211" fill="#16191F"/>
<rect x="53.6211" y="154.336" width="70.8" height="70.8" rx="35.4" stroke="#6D982C" stroke-opacity="0.6" stroke-width="1.24211"/>
<path d="M76.2278 209.55C76.1781 209.55 76.1384 209.545 76.1086 209.535C75.9496 209.496 75.8353 209.436 75.7657 209.357C75.7061 209.267 75.6664 209.198 75.6465 209.148C75.5769 208.929 75.6018 208.706 75.721 208.477C75.8403 208.239 75.9943 207.99 76.1831 207.732C76.2427 207.652 76.2974 207.568 76.347 207.478C76.4067 207.379 76.4563 207.295 76.4961 207.225C76.506 207.215 76.5209 207.195 76.5408 207.165C76.4812 207.185 76.4067 207.215 76.3172 207.255C76.2377 207.295 76.1433 207.354 76.034 207.434C75.8552 207.543 75.6664 207.687 75.4676 207.866C75.2689 208.035 75.0652 208.214 74.8565 208.403C74.8068 208.442 74.7522 208.487 74.6926 208.537C74.6429 208.586 74.5932 208.636 74.5435 208.686C74.4541 208.765 74.3497 208.805 74.2305 208.805C74.1013 208.795 73.997 208.74 73.9175 208.641C73.828 208.552 73.7883 208.447 73.7982 208.328C73.8082 208.199 73.8579 208.095 73.9473 208.015C73.997 207.965 74.0516 207.916 74.1112 207.866C74.1609 207.816 74.2106 207.772 74.2603 207.732C74.5783 207.444 74.8913 207.18 75.1993 206.942C75.5074 206.693 75.8104 206.505 76.1086 206.375C76.4067 206.246 76.6948 206.221 76.9731 206.301C77.142 206.341 77.2612 206.41 77.3308 206.51C77.4103 206.599 77.455 206.679 77.4649 206.748C77.5544 206.967 77.5345 207.2 77.4053 207.449C77.2761 207.687 77.1122 207.95 76.9134 208.239C76.8936 208.258 76.8687 208.293 76.8389 208.343C76.819 208.383 76.7942 208.422 76.7644 208.462C76.9134 208.403 77.1072 208.328 77.3457 208.239C77.5842 208.149 77.8723 208.04 78.2102 207.911C78.3394 207.871 78.4586 207.881 78.5679 207.941C78.6772 207.99 78.7518 208.075 78.7915 208.194C78.8412 208.303 78.8362 208.417 78.7766 208.537C78.7269 208.646 78.6474 208.726 78.5381 208.775C78.2201 208.885 77.932 208.984 77.6736 209.073C77.4152 209.163 77.1966 209.242 77.0178 209.312C76.9184 209.352 76.829 209.386 76.7495 209.416C76.6799 209.436 76.6153 209.456 76.5557 209.476C76.4862 209.496 76.4265 209.515 76.3768 209.535C76.3272 209.545 76.2775 209.55 76.2278 209.55ZM81.7486 209.997C81.6293 209.997 81.53 209.963 81.4505 209.893C81.2915 209.764 81.2468 209.6 81.3163 209.401C81.3163 209.391 81.3511 209.272 81.4206 209.043C81.5001 208.815 81.5896 208.557 81.6889 208.268C81.7386 208.099 81.7833 207.955 81.8231 207.836C81.8628 207.707 81.8976 207.593 81.9274 207.493C81.6591 207.593 81.3312 207.717 80.9437 207.866C80.5561 208.005 80.1487 208.154 79.7214 208.313C79.3041 208.472 78.8967 208.626 78.4992 208.775C78.3899 208.815 78.2806 208.81 78.1713 208.76C78.0521 208.701 77.9676 208.611 77.9179 208.492C77.8782 208.383 77.8881 208.273 77.9477 208.164C77.9974 208.045 78.0819 207.96 78.2011 207.911C78.6483 207.752 79.1103 207.588 79.5873 207.419C80.0643 207.24 80.5065 207.076 80.9139 206.927C81.3213 206.768 81.6542 206.639 81.9125 206.539C82.1709 206.44 82.3001 206.39 82.3001 206.39C82.3497 206.38 82.3994 206.375 82.4491 206.375C82.4988 206.366 82.5435 206.37 82.5833 206.39C82.7224 206.41 82.8217 206.49 82.8814 206.629C82.931 206.708 82.9509 206.813 82.941 206.942C82.941 207.061 82.9161 207.235 82.8665 207.464C82.8366 207.593 82.7969 207.737 82.7472 207.896C82.7075 208.045 82.6528 208.219 82.5833 208.417C82.5733 208.457 82.5634 208.492 82.5534 208.522C82.5435 208.552 82.5336 208.586 82.5236 208.626C82.9211 208.408 83.408 208.179 83.9844 207.941C84.0937 207.891 84.203 207.891 84.3123 207.941C84.4315 207.98 84.511 208.055 84.5508 208.164C84.6104 208.273 84.6153 208.388 84.5657 208.507C84.516 208.626 84.4365 208.711 84.3272 208.76C83.88 208.959 83.4776 209.148 83.1198 209.327C82.7721 209.506 82.4938 209.65 82.2852 209.759C82.0765 209.868 81.9721 209.923 81.9721 209.923C81.9125 209.973 81.838 209.997 81.7486 209.997ZM85.3358 210.847C85.2663 210.847 85.1967 210.837 85.1272 210.817C85.0576 210.807 84.9881 210.797 84.9185 210.787C84.7396 210.738 84.6154 210.633 84.5459 210.474C84.4564 210.276 84.4564 210.037 84.5459 209.759C84.6452 209.471 84.8042 209.103 85.0228 208.656C85.0626 208.576 85.1023 208.487 85.1421 208.388C85.1918 208.288 85.2365 208.194 85.2762 208.104C85.147 208.154 85.0079 208.239 84.8589 208.358C84.7198 208.467 84.5757 208.581 84.4266 208.701C84.3273 208.77 84.2179 208.8 84.0987 208.79C83.9695 208.77 83.8652 208.716 83.7857 208.626C83.7161 208.527 83.6913 208.417 83.7112 208.298C83.7211 208.179 83.7708 208.075 83.8602 207.985C83.9993 207.886 84.1434 207.777 84.2925 207.657C84.4515 207.538 84.6105 207.439 84.7694 207.359C85.1769 207.151 85.5495 207.096 85.8873 207.195C86.0463 207.225 86.1656 207.324 86.2451 207.493C86.3246 207.652 86.3196 207.851 86.2302 208.09C86.1507 208.328 86.0115 208.651 85.8128 209.058C85.7631 209.178 85.7085 209.297 85.6489 209.416C85.5992 209.535 85.5495 209.65 85.4998 209.759C85.4899 209.799 85.475 209.833 85.4551 209.863C85.4451 209.893 85.4352 209.923 85.4253 209.953C85.6339 209.923 85.937 209.819 86.3345 209.64C86.7419 209.451 87.2884 209.083 87.9741 208.537C88.3417 208.249 88.6746 207.97 88.9727 207.702C89.2708 207.424 89.5093 207.195 89.6882 207.016C89.867 206.838 89.9565 206.748 89.9565 206.748C90.0757 206.609 90.2198 206.564 90.3887 206.614C90.4682 206.624 90.5328 206.659 90.5825 206.718C90.6322 206.768 90.6719 206.818 90.7017 206.867C90.7713 207.006 90.7763 207.17 90.7166 207.359C90.667 207.538 90.5577 207.831 90.3887 208.239C90.3291 208.368 90.2695 208.497 90.2099 208.626C90.1602 208.755 90.1105 208.875 90.0608 208.984C90.0509 209.024 90.0409 209.058 90.031 209.088C90.031 209.108 90.026 209.128 90.0161 209.148C90.2049 209.118 90.4036 209.039 90.6123 208.909C90.8309 208.77 91.0396 208.616 91.2383 208.447C91.447 208.278 91.6209 208.134 91.76 208.015C91.8594 207.926 91.9687 207.886 92.0879 207.896C92.2072 207.906 92.3115 207.955 92.4009 208.045C92.4804 208.144 92.5152 208.254 92.5053 208.373C92.5053 208.492 92.4556 208.596 92.3562 208.686C92.0482 208.954 91.7302 209.207 91.4023 209.446C91.0843 209.684 90.7614 209.863 90.4334 209.983C90.1155 210.092 89.7925 210.107 89.4646 210.027C89.3056 209.958 89.1913 209.858 89.1218 209.729C89.0622 209.59 89.0423 209.436 89.0622 209.267C89.092 209.098 89.1516 208.889 89.241 208.641C89.1317 208.74 89.0174 208.835 88.8982 208.924C88.7889 209.014 88.6697 209.113 88.5405 209.222C87.1692 210.305 86.101 210.847 85.3358 210.847ZM94.0588 209.55C94.0091 209.55 93.9694 209.545 93.9396 209.535C93.7806 209.496 93.6663 209.436 93.5967 209.357C93.5371 209.267 93.4974 209.198 93.4775 209.148C93.4079 208.929 93.4328 208.706 93.552 208.477C93.6713 208.239 93.8253 207.99 94.0141 207.732C94.0737 207.652 94.1284 207.568 94.178 207.478C94.2377 207.379 94.2873 207.295 94.3271 207.225C94.337 207.215 94.3519 207.195 94.3718 207.165C94.3122 207.185 94.2377 207.215 94.1482 207.255C94.0687 207.295 93.9743 207.354 93.865 207.434C93.6862 207.543 93.4974 207.687 93.2986 207.866C93.0999 208.035 92.8962 208.214 92.6875 208.403C92.6378 208.442 92.5832 208.487 92.5236 208.537C92.4739 208.586 92.4242 208.636 92.3745 208.686C92.2851 208.765 92.1807 208.805 92.0615 208.805C91.9323 208.795 91.828 208.74 91.7485 208.641C91.6591 208.552 91.6193 208.447 91.6292 208.328C91.6392 208.199 91.6889 208.095 91.7783 208.015C91.828 207.965 91.8826 207.916 91.9423 207.866C91.9919 207.816 92.0416 207.772 92.0913 207.732C92.4093 207.444 92.7223 207.18 93.0303 206.942C93.3384 206.693 93.6415 206.505 93.9396 206.375C94.2377 206.246 94.5258 206.221 94.8041 206.301C94.973 206.341 95.0922 206.41 95.1618 206.51C95.2413 206.599 95.286 206.679 95.2959 206.748C95.3854 206.967 95.3655 207.2 95.2363 207.449C95.1071 207.687 94.9432 207.95 94.7444 208.239C94.7246 208.258 94.6997 208.293 94.6699 208.343C94.65 208.383 94.6252 208.422 94.5954 208.462C94.7444 208.403 94.9382 208.328 95.1767 208.239C95.4152 208.149 95.7033 208.04 96.0412 207.911C96.1704 207.871 96.2896 207.881 96.3989 207.941C96.5082 207.99 96.5828 208.075 96.6225 208.194C96.6722 208.303 96.6672 208.417 96.6076 208.537C96.5579 208.646 96.4784 208.726 96.3691 208.775C96.0511 208.885 95.763 208.984 95.5046 209.073C95.2463 209.163 95.0276 209.242 94.8488 209.312C94.7494 209.352 94.66 209.386 94.5805 209.416C94.5109 209.436 94.4463 209.456 94.3867 209.476C94.3172 209.496 94.2575 209.515 94.2079 209.535C94.1582 209.545 94.1085 209.55 94.0588 209.55ZM98.0592 210.877C98.0095 210.877 97.9599 210.872 97.9102 210.862C97.8605 210.862 97.8058 210.857 97.7462 210.847C97.627 210.807 97.5276 210.723 97.4481 210.594C97.4084 210.514 97.3885 210.405 97.3885 210.266C97.3885 210.127 97.4332 209.898 97.5226 209.58C97.6121 209.262 97.7562 208.79 97.9549 208.164C97.7363 208.244 97.4829 208.338 97.1947 208.447C96.9165 208.557 96.6283 208.666 96.3302 208.775C96.2209 208.815 96.1116 208.81 96.0023 208.76C95.8831 208.701 95.7986 208.611 95.7489 208.492C95.7092 208.383 95.7191 208.273 95.7787 208.164C95.8284 208.045 95.9129 207.96 96.0321 207.911C96.4594 207.752 96.8569 207.603 97.2245 207.464C97.6021 207.324 97.9102 207.21 98.1487 207.121C98.3871 207.031 98.5064 206.987 98.5064 206.987C98.6058 206.947 98.7002 206.942 98.7896 206.972C98.9188 207.001 99.0132 207.076 99.0728 207.195C99.1225 207.285 99.1374 207.364 99.1175 207.434C99.1076 207.503 99.0927 207.578 99.0728 207.657C99.0529 207.697 99.038 207.742 99.0281 207.791C99.0181 207.831 99.0032 207.881 98.9834 207.941C98.9138 208.109 98.8393 208.318 98.7598 208.567C98.6902 208.805 98.6157 209.048 98.5362 209.297C98.4865 209.436 98.4468 209.555 98.417 209.655C98.3871 209.754 98.3623 209.843 98.3424 209.923C98.5312 209.883 98.8045 209.769 99.1622 209.58C99.4703 209.411 99.7982 209.217 100.146 208.999C100.504 208.77 100.866 208.532 101.234 208.283C101.314 208.234 101.393 208.184 101.473 208.134C101.562 208.085 101.641 208.03 101.711 207.97C101.82 207.901 101.935 207.881 102.054 207.911C102.183 207.931 102.282 207.995 102.352 208.104C102.422 208.204 102.441 208.313 102.412 208.432C102.392 208.552 102.327 208.646 102.218 208.716C102.138 208.775 102.054 208.835 101.964 208.894C101.885 208.944 101.8 208.999 101.711 209.058C101.333 209.307 100.966 209.545 100.608 209.774C100.25 210.002 99.9125 210.201 99.5945 210.37C98.9486 210.708 98.4368 210.877 98.0592 210.877Z" fill="white" fill-opacity="0.5"/>
<rect x="70.3906" y="182.281" width="17.3895" height="16.1474" rx="8.07368" fill="#16191F"/>
<rect x="70.7012" y="182.592" width="16.7684" height="15.5263" rx="7.76316" stroke="#6D982C" stroke-opacity="0.3" stroke-width="0.621053"/>
<rect x="70.3906" y="163.648" width="17.3895" height="16.1474" rx="8.07368" fill="#16191F"/>
<rect x="70.7012" y="163.959" width="16.7684" height="15.5263" rx="7.76316" stroke="#6D982C" stroke-opacity="0.3" stroke-width="0.621053"/>
<rect x="90.2656" y="182.281" width="17.3895" height="16.1474" rx="8.07368" fill="#16191F"/>
<rect x="90.5762" y="182.592" width="16.7684" height="15.5263" rx="7.76316" stroke="#6D982C" stroke-opacity="0.3" stroke-width="0.621053"/>
<rect x="90.2656" y="163.648" width="17.3895" height="16.1474" rx="8.07368" fill="#16191F"/>
<rect x="90.5762" y="163.959" width="16.7684" height="15.5263" rx="7.76316" stroke="#6D982C" stroke-opacity="0.3" stroke-width="0.621053"/>
<defs>
<linearGradient id="paint0_linear_3090_9111" x1="354" y1="0" x2="354" y2="348" gradientUnits="userSpaceOnUse">
<stop stop-color="#0F0F0F"/>
<stop offset="1" stop-color="#141414"/>
</linearGradient>
<linearGradient id="paint1_linear_3090_9111" x1="354" y1="0" x2="354" y2="348" gradientUnits="userSpaceOnUse">
<stop stop-color="white" stop-opacity="0.12"/>
<stop offset="1" stop-color="white" stop-opacity="0.04"/>
</linearGradient>
</defs>
</svg>
