<svg width="200" height="200" viewBox="0 0 200 200" fill="none" xmlns="http://www.w3.org/2000/svg">
<rect width="200" height="200" rx="32" fill="white"/>
<path d="M67.55 33.168H23.0895C22.449 33.168 21.9297 33.6818 21.9297 34.3157V48.0881C21.9297 48.722 22.449 49.2358 23.0895 49.2358H50.1524C50.793 49.2358 51.3123 49.7497 51.3123 50.3835V76.6548C51.3123 77.033 51.124 77.3869 50.809 77.6009L23.8511 95.9195C22.9119 96.5577 23.3684 98.0133 24.5077 98.0133H49.4072C49.6408 98.0133 49.869 97.9435 50.0618 97.813L68.2046 85.539C68.5208 85.3251 68.7099 84.9706 68.7099 84.5916V34.3157C68.7099 33.6818 68.1906 33.168 67.55 33.168Z" fill="black"/>
<path d="M129.795 33.168H80.5016C79.861 33.168 79.3417 33.6818 79.3417 34.3157V99.5116C79.3417 99.8907 79.5309 100.245 79.8472 100.459L94.9251 110.655C95.6949 111.175 96.7393 110.63 96.7393 109.707V81.0621C96.7393 80.1389 97.7848 79.5935 98.5545 80.1152L124.666 97.8125C124.859 97.9433 125.087 98.0133 125.321 98.0133H150.308C151.448 98.0133 151.904 96.5559 150.963 95.9186L97.2439 59.5245C96.9281 59.3105 96.7393 58.9562 96.7393 58.5775V50.3835C96.7393 49.7497 97.2586 49.2358 97.8991 49.2358H128.635C131.411 49.2358 133.661 51.4625 133.661 54.2092V73.5289C133.661 74.1628 134.18 74.6766 134.821 74.6766H149.899C150.539 74.6766 151.058 74.1628 151.058 73.5289V54.2092C151.058 42.5885 141.538 33.168 129.795 33.168Z" fill="black"/>
<path d="M122.141 106.853L107.063 96.5745C106.293 96.0499 105.245 96.595 105.245 97.5196V166.684C105.245 167.318 105.764 167.832 106.405 167.832H121.483C122.123 167.832 122.642 167.318 122.642 166.684V142.774C122.642 142.14 123.162 141.626 123.802 141.626H150.409C151.549 141.626 152.005 140.17 151.065 139.532L130.768 125.759C130.575 125.628 130.346 125.558 130.112 125.558H123.802C123.162 125.558 122.642 125.044 122.642 124.41V107.798C122.642 107.42 122.455 107.067 122.141 106.853Z" fill="black"/>
<path d="M176.382 74.6766H161.304C160.663 74.6766 160.144 75.1905 160.144 75.8243V166.684C160.144 167.318 160.663 167.832 161.304 167.832H176.382C177.022 167.832 177.541 167.318 177.541 166.684V75.8243C177.541 75.1905 177.022 74.6766 176.382 74.6766Z" fill="black"/>
<path d="M176.382 33.168H161.304C160.663 33.168 160.144 33.6818 160.144 34.3157V67.0252C160.144 67.6591 160.663 68.173 161.304 68.173H176.382C177.022 68.173 177.541 67.6591 177.541 67.0252V34.3157C177.541 33.6818 177.022 33.168 176.382 33.168Z" fill="#FA5242"/>
<path d="M68.3502 102.987H23.0895C22.449 102.987 21.9297 103.501 21.9297 104.134V117.907C21.9297 118.541 22.449 119.055 23.0895 119.055H63.4209C63.6551 119.055 63.8839 119.125 64.0771 119.256L94.9232 140.202C95.6929 140.724 96.7393 140.179 96.7393 139.255V122.624C96.7393 122.245 96.5509 121.892 96.2357 121.677L69.0064 103.188C68.8133 103.057 68.5845 102.987 68.3502 102.987Z" fill="black"/>
<path d="M59.3612 125.558H23.0895C22.449 125.558 21.9297 126.072 21.9297 126.706V140.478C21.9297 141.112 22.449 141.626 23.0895 141.626H53.3699C53.6036 141.626 53.8318 141.696 54.0247 141.826L65.6139 149.669C66.5553 150.306 66.0997 151.764 64.9592 151.764H23.0895C22.449 151.764 21.9297 152.278 21.9297 152.912V166.684C21.9297 167.318 22.449 167.832 23.0895 167.832H95.5795C96.22 167.832 96.7393 167.318 96.7393 166.684V151.316C96.7393 150.938 96.551 150.584 96.236 150.37L60.0178 125.76C59.8245 125.628 59.5956 125.558 59.3612 125.558Z" fill="black"/>
</svg>
