<svg width="150" height="151" viewBox="0 0 150 151" fill="none" xmlns="http://www.w3.org/2000/svg">
<path d="M47.8793 19.3281H10.7879C10.2535 19.3281 9.82031 19.7568 9.82031 20.2856V31.7753C9.82031 32.3041 10.2535 32.7328 10.7879 32.7328H33.3653C33.8997 32.7328 34.3329 33.1615 34.3329 33.6903V55.6072C34.3329 55.9227 34.1758 56.2179 33.913 56.3965L11.4233 71.6788C10.6398 72.2112 11.0205 73.4256 11.971 73.4256H32.7436C32.9385 73.4256 33.1288 73.3674 33.2897 73.2585L48.4254 63.0189C48.6891 62.8405 48.8469 62.5447 48.8469 62.2285V20.2856C48.8469 19.7568 48.4137 19.3281 47.8793 19.3281Z" fill="#FFEBED"/>
<path d="M99.8072 19.3281H58.6841C58.1497 19.3281 57.7165 19.7568 57.7165 20.2856V74.6756C57.7165 74.9918 57.8744 75.2877 58.1382 75.4661L70.717 83.9717C71.3593 84.406 72.2305 83.9509 72.2305 83.1812V59.284C72.2305 58.5138 73.1028 58.0588 73.7449 58.494L95.5283 73.2581C95.6893 73.3672 95.8799 73.4256 96.0751 73.4256H116.92C117.871 73.4256 118.252 72.2098 117.467 71.6781L72.6515 41.3161C72.3881 41.1377 72.2305 40.842 72.2305 40.5261V33.6903C72.2305 33.1615 72.6638 32.7328 73.1982 32.7328H98.8396C101.155 32.7328 103.033 34.5904 103.033 36.8819V52.9994C103.033 53.5282 103.466 53.9569 104 53.9569H116.579C117.113 53.9569 117.547 53.5282 117.547 52.9994V36.8819C117.547 27.1872 109.604 19.3281 99.8072 19.3281Z" fill="#FFEBED"/>
<path d="M93.4216 80.8L80.8428 72.2253C80.2009 71.7877 79.3263 72.2424 79.3263 73.0138V130.715C79.3263 131.243 79.7595 131.672 80.2939 131.672H92.8727C93.4071 131.672 93.8403 131.243 93.8403 130.715V110.767C93.8403 110.238 94.2735 109.81 94.8079 109.81H117.005C117.956 109.81 118.336 108.595 117.552 108.063L100.619 96.5729C100.458 96.4635 100.267 96.405 100.072 96.405H94.8079C94.2735 96.405 93.8403 95.9764 93.8403 95.4476V81.5885C93.8403 81.2735 93.6837 80.9787 93.4216 80.8Z" fill="#FFEBED"/>
<path d="M138.672 53.9569H126.094C125.559 53.9569 125.126 54.3856 125.126 54.9144V130.715C125.126 131.243 125.559 131.672 126.094 131.672H138.672C139.207 131.672 139.64 131.243 139.64 130.715V54.9144C139.64 54.3856 139.207 53.9569 138.672 53.9569Z" fill="#FFEBED"/>
<path d="M138.672 19.3281H126.094C125.559 19.3281 125.126 19.7568 125.126 20.2856V47.5737C125.126 48.1025 125.559 48.5312 126.094 48.5312H138.672C139.207 48.5312 139.64 48.1025 139.64 47.5737V20.2856C139.64 19.7568 139.207 19.3281 138.672 19.3281Z" fill="#FA5242"/>
<path d="M48.5468 77.5747H10.7879C10.2535 77.5747 9.82031 78.0033 9.82031 78.5321V90.0219C9.82031 90.5507 10.2535 90.9793 10.7879 90.9793H44.4345C44.63 90.9793 44.8208 91.0379 44.982 91.1473L70.7155 108.621C71.3575 109.057 72.2305 108.602 72.2305 107.832V93.957C72.2305 93.6414 72.0734 93.3461 71.8104 93.1675L49.0943 77.7427C48.9331 77.6332 48.7423 77.5747 48.5468 77.5747Z" fill="#FFEBED"/>
<path d="M41.0477 96.405H10.7879C10.2535 96.405 9.82031 96.8337 9.82031 97.3625V108.852C9.82031 109.381 10.2535 109.81 10.7879 109.81H36.0495C36.2444 109.81 36.4348 109.868 36.5957 109.977L46.2641 116.52C47.0494 117.051 46.6693 118.267 45.7179 118.267H10.7879C10.2535 118.267 9.82031 118.696 9.82031 119.225V130.715C9.82031 131.243 10.2535 131.672 10.7879 131.672H71.2629C71.7973 131.672 72.2305 131.243 72.2305 130.715V117.894C72.2305 117.578 72.0735 117.283 71.8107 117.104L41.5955 96.5732C41.4343 96.4637 41.2433 96.405 41.0477 96.405Z" fill="#FFEBED"/>
</svg>
