<svg width="708" height="203" viewBox="0 0 708 203" fill="none" xmlns="http://www.w3.org/2000/svg">
<rect x="0.5" y="0.5" width="707" height="202" rx="23.5" fill="url(#paint0_linear_2989_11222)"/>
<rect x="0.5" y="0.5" width="707" height="202" rx="23.5" stroke="url(#paint1_linear_2989_11222)"/>
<rect x="24.5" y="24.5" width="203" height="154" rx="15.5" fill="url(#paint2_linear_2989_11222)"/>
<rect x="24.5" y="24.5" width="203" height="154" rx="15.5" stroke="url(#paint3_linear_2989_11222)"/>
<path d="M109.488 96V62.112H116.976V96H109.488ZM102.96 68.496V62.112H116.496V68.496H102.96ZM121.149 84.24L132.285 62.112H140.493L129.117 84.24H121.149ZM121.149 88.464V84.24L123.645 82.08H148.317V88.464H121.149ZM137.133 96V75.024H144.525V96H137.133Z" fill="#FA5242"/>
<path d="M103.148 137.125C103.148 137 103.185 136.911 103.258 136.859C103.331 136.807 103.419 136.771 103.523 136.75C103.628 136.729 103.737 136.719 103.852 136.719C103.966 136.719 104.065 136.714 104.148 136.703V138.359C104.909 138.13 105.539 137.927 106.039 137.75C106.539 137.562 106.992 137.401 107.398 137.266C107.805 137.12 108.201 136.99 108.586 136.875C108.971 136.75 109.43 136.63 109.961 136.516C110.044 136.516 110.102 136.557 110.133 136.641C110.164 136.724 110.18 136.797 110.18 136.859C110.18 136.995 110.107 137.104 109.961 137.188L104.211 139.297L104.477 144.359C105.331 143.88 106.049 143.474 106.633 143.141C107.227 142.807 107.716 142.531 108.102 142.312C108.487 142.094 108.784 141.927 108.992 141.812C109.211 141.698 109.372 141.615 109.477 141.562C109.581 141.51 109.643 141.479 109.664 141.469C109.685 141.458 109.701 141.453 109.711 141.453C109.805 141.422 109.867 141.427 109.898 141.469C109.93 141.5 109.945 141.552 109.945 141.625C109.945 141.698 109.93 141.781 109.898 141.875C109.878 141.969 109.852 142.057 109.82 142.141C109.768 142.214 109.596 142.339 109.305 142.516C109.023 142.693 108.685 142.896 108.289 143.125C107.893 143.354 107.471 143.599 107.023 143.859C106.586 144.109 106.174 144.344 105.789 144.562C105.414 144.781 105.102 144.974 104.852 145.141C104.602 145.307 104.477 145.417 104.477 145.469L104.523 149.547C104.523 149.693 104.497 149.807 104.445 149.891C104.393 149.974 104.31 150.016 104.195 150.016C104.07 150.016 103.956 149.854 103.852 149.531C103.758 149.198 103.674 148.76 103.602 148.219C103.529 147.667 103.466 147.036 103.414 146.328C103.362 145.609 103.32 144.87 103.289 144.109C103.258 143.349 103.232 142.594 103.211 141.844C103.19 141.083 103.174 140.385 103.164 139.75C103.154 139.115 103.148 138.562 103.148 138.094C103.148 137.625 103.148 137.302 103.148 137.125ZM110.461 145.828C110.388 145.891 110.258 145.917 110.07 145.906C109.893 145.885 109.727 145.844 109.57 145.781C109.424 145.719 109.326 145.635 109.273 145.531C109.221 145.417 109.284 145.286 109.461 145.141C109.534 145.078 109.612 145.036 109.695 145.016C109.789 144.984 109.878 144.958 109.961 144.938C110.055 144.906 110.128 144.865 110.18 144.812C110.242 144.76 110.279 144.677 110.289 144.562C110.299 144.094 110.336 143.615 110.398 143.125C110.471 142.635 110.602 142.198 110.789 141.812C110.977 141.427 111.242 141.12 111.586 140.891C111.94 140.661 112.404 140.573 112.977 140.625C113.185 140.625 113.419 140.677 113.68 140.781C113.94 140.875 114.19 141.005 114.43 141.172C114.669 141.328 114.878 141.521 115.055 141.75C115.232 141.969 115.341 142.208 115.383 142.469C115.456 142.573 115.414 142.703 115.258 142.859C115.102 143.016 114.883 143.193 114.602 143.391C114.32 143.578 114.003 143.771 113.648 143.969C113.294 144.167 112.951 144.354 112.617 144.531C112.294 144.708 112.008 144.865 111.758 145C111.508 145.135 111.346 145.229 111.273 145.281C111.336 145.688 111.404 146.115 111.477 146.562C111.549 147.01 111.654 147.422 111.789 147.797C111.924 148.172 112.091 148.484 112.289 148.734C112.497 148.974 112.758 149.094 113.07 149.094C113.529 149.125 113.919 149.057 114.242 148.891C114.576 148.724 114.852 148.505 115.07 148.234C115.289 147.964 115.461 147.667 115.586 147.344C115.721 147.021 115.82 146.714 115.883 146.422C115.956 146.13 116.003 145.885 116.023 145.688C116.055 145.479 116.081 145.365 116.102 145.344C116.216 145.281 116.346 145.281 116.492 145.344C116.638 145.396 116.721 145.547 116.742 145.797C116.753 146.203 116.664 146.667 116.477 147.188C116.289 147.708 116.029 148.188 115.695 148.625C115.372 149.062 114.982 149.417 114.523 149.688C114.076 149.948 113.596 150.036 113.086 149.953C112.555 149.943 112.133 149.792 111.82 149.5C111.508 149.198 111.258 148.839 111.07 148.422C110.893 147.995 110.763 147.547 110.68 147.078C110.596 146.609 110.523 146.193 110.461 145.828ZM114.555 142.469C114.221 142.01 113.883 141.719 113.539 141.594C113.195 141.469 112.841 141.432 112.477 141.484C112.258 141.516 112.065 141.62 111.898 141.797C111.732 141.964 111.596 142.182 111.492 142.453C111.388 142.714 111.315 143.01 111.273 143.344C111.232 143.667 111.227 144 111.258 144.344L114.555 142.469ZM117.461 149.859C117.44 149.651 117.419 149.318 117.398 148.859C117.388 148.391 117.372 147.859 117.352 147.266C117.341 146.661 117.331 146.021 117.32 145.344C117.31 144.667 117.289 144.016 117.258 143.391C117.237 142.755 117.201 142.167 117.148 141.625C117.107 141.083 117.055 140.651 116.992 140.328C116.992 140.068 117.07 139.922 117.227 139.891C117.393 139.849 117.581 139.849 117.789 139.891C117.883 140.672 117.945 141.38 117.977 142.016C118.018 142.651 118.044 143.219 118.055 143.719C118.076 144.208 118.091 144.635 118.102 145C118.122 145.354 118.159 145.641 118.211 145.859C118.336 144.891 118.466 144.068 118.602 143.391C118.737 142.714 118.878 142.161 119.023 141.734C119.18 141.297 119.346 140.979 119.523 140.781C119.701 140.573 119.893 140.453 120.102 140.422C120.289 140.401 120.466 140.552 120.633 140.875C120.799 141.188 120.951 141.589 121.086 142.078C121.232 142.568 121.357 143.099 121.461 143.672C121.576 144.234 121.664 144.755 121.727 145.234C122.081 144.182 122.372 143.349 122.602 142.734C122.841 142.12 123.049 141.656 123.227 141.344C123.404 141.021 123.565 140.818 123.711 140.734C123.867 140.651 124.039 140.615 124.227 140.625C124.477 140.635 124.674 140.745 124.82 140.953C124.977 141.151 125.096 141.422 125.18 141.766C125.263 142.099 125.32 142.49 125.352 142.938C125.393 143.375 125.424 143.839 125.445 144.328C125.477 144.818 125.513 145.318 125.555 145.828C125.607 146.328 125.68 146.807 125.773 147.266C125.867 147.724 125.997 148.151 126.164 148.547C126.331 148.932 126.555 149.25 126.836 149.5C126.742 149.688 126.633 149.849 126.508 149.984C126.383 150.109 126.253 150.13 126.117 150.047C125.815 149.849 125.57 149.516 125.383 149.047C125.206 148.568 125.06 148.026 124.945 147.422C124.831 146.818 124.747 146.193 124.695 145.547C124.643 144.891 124.596 144.292 124.555 143.75C124.513 143.208 124.466 142.76 124.414 142.406C124.372 142.052 124.31 141.87 124.227 141.859C123.924 141.818 123.612 142.292 123.289 143.281C122.977 144.271 122.565 145.74 122.055 147.688C122.003 147.823 121.94 147.922 121.867 147.984C121.794 148.036 121.721 148.062 121.648 148.062C121.576 148.062 121.503 148.042 121.43 148C121.357 147.948 121.294 147.885 121.242 147.812C121.096 147.021 120.971 146.26 120.867 145.531C120.773 144.802 120.685 144.156 120.602 143.594C120.518 143.031 120.43 142.578 120.336 142.234C120.253 141.891 120.159 141.708 120.055 141.688C119.961 141.667 119.867 141.771 119.773 142C119.69 142.219 119.607 142.526 119.523 142.922C119.44 143.307 119.352 143.771 119.258 144.312C119.174 144.844 119.086 145.417 118.992 146.031C118.898 146.646 118.799 147.281 118.695 147.938C118.591 148.583 118.477 149.224 118.352 149.859C118.31 149.943 118.247 150.005 118.164 150.047C118.081 150.099 117.992 150.125 117.898 150.125C117.815 150.125 117.732 150.104 117.648 150.062C117.565 150.021 117.503 149.953 117.461 149.859ZM132.586 149.844C132.44 149.625 132.346 149.339 132.305 148.984C132.273 148.63 132.253 148.26 132.242 147.875C132.242 147.479 132.242 147.094 132.242 146.719C132.253 146.333 132.227 146.005 132.164 145.734C131.674 146.807 131.211 147.646 130.773 148.25C130.346 148.844 129.951 149.271 129.586 149.531C129.232 149.781 128.909 149.896 128.617 149.875C128.326 149.844 128.076 149.74 127.867 149.562C127.669 149.375 127.513 149.151 127.398 148.891C127.284 148.62 127.221 148.365 127.211 148.125C127.138 147.729 127.133 147.255 127.195 146.703C127.268 146.141 127.388 145.562 127.555 144.969C127.732 144.375 127.951 143.797 128.211 143.234C128.482 142.661 128.784 142.167 129.117 141.75C129.461 141.333 129.826 141.026 130.211 140.828C130.596 140.62 130.997 140.583 131.414 140.719C131.622 140.698 131.794 140.708 131.93 140.75C132.076 140.781 132.195 140.854 132.289 140.969C132.383 141.083 132.451 141.245 132.492 141.453C132.534 141.651 132.565 141.906 132.586 142.219C132.565 143.229 132.591 144.089 132.664 144.797C132.747 145.505 132.841 146.13 132.945 146.672C133.049 147.214 133.148 147.703 133.242 148.141C133.346 148.578 133.409 149.031 133.43 149.5C133.43 149.667 133.388 149.797 133.305 149.891C133.221 149.974 133.128 150.026 133.023 150.047C132.919 150.078 132.82 150.073 132.727 150.031C132.643 149.99 132.596 149.927 132.586 149.844ZM131.68 141.953C131.43 141.62 131.159 141.479 130.867 141.531C130.576 141.583 130.284 141.766 129.992 142.078C129.711 142.38 129.44 142.781 129.18 143.281C128.919 143.771 128.695 144.297 128.508 144.859C128.32 145.422 128.18 145.984 128.086 146.547C128.003 147.099 127.987 147.589 128.039 148.016C128.185 148.484 128.362 148.766 128.57 148.859C128.779 148.953 129.003 148.922 129.242 148.766C129.482 148.599 129.727 148.339 129.977 147.984C130.227 147.63 130.466 147.25 130.695 146.844C130.924 146.427 131.128 146.016 131.305 145.609C131.492 145.193 131.643 144.844 131.758 144.562L131.68 141.953ZM134.305 136.969C134.367 136.927 134.43 136.885 134.492 136.844C134.565 136.792 134.638 136.76 134.711 136.75C134.784 136.729 134.846 136.734 134.898 136.766C134.961 136.797 135.013 136.865 135.055 136.969L135.148 149.859C135.096 149.964 135.029 150.031 134.945 150.062C134.862 150.104 134.779 150.115 134.695 150.094C134.612 150.083 134.534 150.052 134.461 150C134.398 149.948 134.357 149.885 134.336 149.812L134.305 136.969ZM136.664 145.828C136.591 145.891 136.461 145.917 136.273 145.906C136.096 145.885 135.93 145.844 135.773 145.781C135.628 145.719 135.529 145.635 135.477 145.531C135.424 145.417 135.487 145.286 135.664 145.141C135.737 145.078 135.815 145.036 135.898 145.016C135.992 144.984 136.081 144.958 136.164 144.938C136.258 144.906 136.331 144.865 136.383 144.812C136.445 144.76 136.482 144.677 136.492 144.562C136.503 144.094 136.539 143.615 136.602 143.125C136.674 142.635 136.805 142.198 136.992 141.812C137.18 141.427 137.445 141.12 137.789 140.891C138.143 140.661 138.607 140.573 139.18 140.625C139.388 140.625 139.622 140.677 139.883 140.781C140.143 140.875 140.393 141.005 140.633 141.172C140.872 141.328 141.081 141.521 141.258 141.75C141.435 141.969 141.544 142.208 141.586 142.469C141.659 142.573 141.617 142.703 141.461 142.859C141.305 143.016 141.086 143.193 140.805 143.391C140.523 143.578 140.206 143.771 139.852 143.969C139.497 144.167 139.154 144.354 138.82 144.531C138.497 144.708 138.211 144.865 137.961 145C137.711 145.135 137.549 145.229 137.477 145.281C137.539 145.688 137.607 146.115 137.68 146.562C137.753 147.01 137.857 147.422 137.992 147.797C138.128 148.172 138.294 148.484 138.492 148.734C138.701 148.974 138.961 149.094 139.273 149.094C139.732 149.125 140.122 149.057 140.445 148.891C140.779 148.724 141.055 148.505 141.273 148.234C141.492 147.964 141.664 147.667 141.789 147.344C141.924 147.021 142.023 146.714 142.086 146.422C142.159 146.13 142.206 145.885 142.227 145.688C142.258 145.479 142.284 145.365 142.305 145.344C142.419 145.281 142.549 145.281 142.695 145.344C142.841 145.396 142.924 145.547 142.945 145.797C142.956 146.203 142.867 146.667 142.68 147.188C142.492 147.708 142.232 148.188 141.898 148.625C141.576 149.062 141.185 149.417 140.727 149.688C140.279 149.948 139.799 150.036 139.289 149.953C138.758 149.943 138.336 149.792 138.023 149.5C137.711 149.198 137.461 148.839 137.273 148.422C137.096 147.995 136.966 147.547 136.883 147.078C136.799 146.609 136.727 146.193 136.664 145.828ZM140.758 142.469C140.424 142.01 140.086 141.719 139.742 141.594C139.398 141.469 139.044 141.432 138.68 141.484C138.461 141.516 138.268 141.62 138.102 141.797C137.935 141.964 137.799 142.182 137.695 142.453C137.591 142.714 137.518 143.01 137.477 143.344C137.435 143.667 137.43 144 137.461 144.344L140.758 142.469ZM143.57 148.875C143.768 149.031 144.008 149.115 144.289 149.125C144.581 149.135 144.883 149.099 145.195 149.016C145.518 148.922 145.841 148.792 146.164 148.625C146.497 148.448 146.799 148.255 147.07 148.047C147.352 147.839 147.591 147.62 147.789 147.391C147.997 147.151 148.138 146.927 148.211 146.719C148.284 146.5 148.279 146.302 148.195 146.125C148.112 145.948 147.924 145.807 147.633 145.703C147.102 145.828 146.57 145.927 146.039 146C145.508 146.073 145.029 146.073 144.602 146C144.185 145.927 143.846 145.755 143.586 145.484C143.326 145.214 143.206 144.797 143.227 144.234C143.258 143.693 143.404 143.188 143.664 142.719C143.935 142.24 144.273 141.833 144.68 141.5C145.096 141.167 145.555 140.911 146.055 140.734C146.565 140.557 147.081 140.484 147.602 140.516C147.706 140.526 147.799 140.536 147.883 140.547C147.977 140.547 148.06 140.562 148.133 140.594C148.206 140.625 148.258 140.672 148.289 140.734C148.331 140.797 148.346 140.891 148.336 141.016C148.326 141.172 148.268 141.297 148.164 141.391C148.06 141.484 147.919 141.521 147.742 141.5C147.128 141.375 146.576 141.401 146.086 141.578C145.596 141.755 145.19 142.005 144.867 142.328C144.544 142.641 144.315 142.995 144.18 143.391C144.044 143.786 144.023 144.146 144.117 144.469C144.315 144.844 144.57 145.083 144.883 145.188C145.206 145.281 145.544 145.312 145.898 145.281C146.263 145.25 146.633 145.198 147.008 145.125C147.383 145.042 147.721 145.016 148.023 145.047C148.326 145.068 148.576 145.182 148.773 145.391C148.971 145.589 149.081 145.958 149.102 146.5C149.091 146.844 148.977 147.177 148.758 147.5C148.539 147.812 148.258 148.109 147.914 148.391C147.581 148.661 147.206 148.911 146.789 149.141C146.372 149.359 145.956 149.542 145.539 149.688C145.133 149.833 144.747 149.932 144.383 149.984C144.029 150.036 143.742 150.031 143.523 149.969C143.284 149.76 143.159 149.557 143.148 149.359C143.138 149.151 143.279 148.99 143.57 148.875Z" fill="white"/>
<rect x="252.5" y="24.5" width="203" height="154" rx="15.5" fill="url(#paint4_linear_2989_11222)"/>
<rect x="252.5" y="24.5" width="203" height="154" rx="15.5" stroke="url(#paint5_linear_2989_11222)"/>
<path d="M340.008 84.24L351.144 62.112H359.352L347.976 84.24H340.008ZM340.008 88.464V84.24L342.504 82.08H367.176V88.464H340.008ZM355.992 96V75.024H363.384V96H355.992Z" fill="#FA5242"/>
<path d="M346.18 138.453C346.138 138.432 346.07 138.562 345.977 138.844C345.893 139.125 345.784 139.49 345.648 139.938C345.513 140.385 345.362 140.891 345.195 141.453C345.039 142.016 344.867 142.573 344.68 143.125C344.503 143.677 344.32 144.193 344.133 144.672C343.945 145.151 343.758 145.531 343.57 145.812C343.393 146.094 343.221 146.25 343.055 146.281C342.898 146.302 342.753 146.135 342.617 145.781C342.451 145.531 342.263 145.188 342.055 144.75C341.846 144.312 341.622 143.839 341.383 143.328C341.154 142.818 340.909 142.292 340.648 141.75C340.398 141.198 340.143 140.688 339.883 140.219C339.622 139.75 339.367 139.344 339.117 139C338.867 138.646 338.628 138.401 338.398 138.266C338.398 139.078 338.445 139.969 338.539 140.938C338.633 141.906 338.732 142.891 338.836 143.891C338.951 144.88 339.055 145.859 339.148 146.828C339.242 147.797 339.289 148.693 339.289 149.516C339.341 149.62 339.341 149.724 339.289 149.828C339.247 149.932 339.18 150.01 339.086 150.062C338.992 150.115 338.883 150.125 338.758 150.094C338.633 150.062 338.518 149.969 338.414 149.812C338.268 148.771 338.164 147.708 338.102 146.625C338.039 145.542 337.977 144.453 337.914 143.359C337.852 142.266 337.773 141.177 337.68 140.094C337.596 139.01 337.466 137.943 337.289 136.891C337.279 136.682 337.315 136.552 337.398 136.5C337.482 136.448 337.586 136.422 337.711 136.422C338.18 136.557 338.602 136.807 338.977 137.172C339.352 137.526 339.69 137.948 339.992 138.438C340.305 138.917 340.586 139.443 340.836 140.016C341.096 140.589 341.352 141.161 341.602 141.734C341.852 142.297 342.102 142.839 342.352 143.359C342.602 143.87 342.878 144.312 343.18 144.688C343.221 144.688 343.258 144.672 343.289 144.641C343.331 144.599 343.383 144.5 343.445 144.344C343.508 144.177 343.596 143.927 343.711 143.594C343.826 143.26 343.977 142.797 344.164 142.203C344.362 141.609 344.607 140.865 344.898 139.969C345.19 139.062 345.544 137.964 345.961 136.672C345.982 136.609 346.034 136.557 346.117 136.516C346.201 136.464 346.289 136.438 346.383 136.438C346.487 136.438 346.581 136.474 346.664 136.547C346.747 136.609 346.805 136.724 346.836 136.891C346.94 137.849 347.034 138.865 347.117 139.938C347.211 141 347.31 142.089 347.414 143.203C347.518 144.318 347.638 145.448 347.773 146.594C347.909 147.729 348.076 148.849 348.273 149.953C348.253 150.099 348.206 150.198 348.133 150.25C348.06 150.312 347.971 150.339 347.867 150.328C347.763 150.318 347.648 150.281 347.523 150.219C347.409 150.167 347.299 150.099 347.195 150.016L346.18 138.453ZM354.289 149.844C354.143 149.625 354.049 149.339 354.008 148.984C353.977 148.63 353.956 148.26 353.945 147.875C353.945 147.479 353.945 147.094 353.945 146.719C353.956 146.333 353.93 146.005 353.867 145.734C353.378 146.807 352.914 147.646 352.477 148.25C352.049 148.844 351.654 149.271 351.289 149.531C350.935 149.781 350.612 149.896 350.32 149.875C350.029 149.844 349.779 149.74 349.57 149.562C349.372 149.375 349.216 149.151 349.102 148.891C348.987 148.62 348.924 148.365 348.914 148.125C348.841 147.729 348.836 147.255 348.898 146.703C348.971 146.141 349.091 145.562 349.258 144.969C349.435 144.375 349.654 143.797 349.914 143.234C350.185 142.661 350.487 142.167 350.82 141.75C351.164 141.333 351.529 141.026 351.914 140.828C352.299 140.62 352.701 140.583 353.117 140.719C353.326 140.698 353.497 140.708 353.633 140.75C353.779 140.781 353.898 140.854 353.992 140.969C354.086 141.083 354.154 141.245 354.195 141.453C354.237 141.651 354.268 141.906 354.289 142.219C354.268 143.229 354.294 144.089 354.367 144.797C354.451 145.505 354.544 146.13 354.648 146.672C354.753 147.214 354.852 147.703 354.945 148.141C355.049 148.578 355.112 149.031 355.133 149.5C355.133 149.667 355.091 149.797 355.008 149.891C354.924 149.974 354.831 150.026 354.727 150.047C354.622 150.078 354.523 150.073 354.43 150.031C354.346 149.99 354.299 149.927 354.289 149.844ZM353.383 141.953C353.133 141.62 352.862 141.479 352.57 141.531C352.279 141.583 351.987 141.766 351.695 142.078C351.414 142.38 351.143 142.781 350.883 143.281C350.622 143.771 350.398 144.297 350.211 144.859C350.023 145.422 349.883 145.984 349.789 146.547C349.706 147.099 349.69 147.589 349.742 148.016C349.888 148.484 350.065 148.766 350.273 148.859C350.482 148.953 350.706 148.922 350.945 148.766C351.185 148.599 351.43 148.339 351.68 147.984C351.93 147.63 352.169 147.25 352.398 146.844C352.628 146.427 352.831 146.016 353.008 145.609C353.195 145.193 353.346 144.844 353.461 144.562L353.383 141.953ZM356.008 136.969C356.07 136.927 356.133 136.885 356.195 136.844C356.268 136.792 356.341 136.76 356.414 136.75C356.487 136.729 356.549 136.734 356.602 136.766C356.664 136.797 356.716 136.865 356.758 136.969L356.852 149.859C356.799 149.964 356.732 150.031 356.648 150.062C356.565 150.104 356.482 150.115 356.398 150.094C356.315 150.083 356.237 150.052 356.164 150C356.102 149.948 356.06 149.885 356.039 149.812L356.008 136.969ZM358.367 145.828C358.294 145.891 358.164 145.917 357.977 145.906C357.799 145.885 357.633 145.844 357.477 145.781C357.331 145.719 357.232 145.635 357.18 145.531C357.128 145.417 357.19 145.286 357.367 145.141C357.44 145.078 357.518 145.036 357.602 145.016C357.695 144.984 357.784 144.958 357.867 144.938C357.961 144.906 358.034 144.865 358.086 144.812C358.148 144.76 358.185 144.677 358.195 144.562C358.206 144.094 358.242 143.615 358.305 143.125C358.378 142.635 358.508 142.198 358.695 141.812C358.883 141.427 359.148 141.12 359.492 140.891C359.846 140.661 360.31 140.573 360.883 140.625C361.091 140.625 361.326 140.677 361.586 140.781C361.846 140.875 362.096 141.005 362.336 141.172C362.576 141.328 362.784 141.521 362.961 141.75C363.138 141.969 363.247 142.208 363.289 142.469C363.362 142.573 363.32 142.703 363.164 142.859C363.008 143.016 362.789 143.193 362.508 143.391C362.227 143.578 361.909 143.771 361.555 143.969C361.201 144.167 360.857 144.354 360.523 144.531C360.201 144.708 359.914 144.865 359.664 145C359.414 145.135 359.253 145.229 359.18 145.281C359.242 145.688 359.31 146.115 359.383 146.562C359.456 147.01 359.56 147.422 359.695 147.797C359.831 148.172 359.997 148.484 360.195 148.734C360.404 148.974 360.664 149.094 360.977 149.094C361.435 149.125 361.826 149.057 362.148 148.891C362.482 148.724 362.758 148.505 362.977 148.234C363.195 147.964 363.367 147.667 363.492 147.344C363.628 147.021 363.727 146.714 363.789 146.422C363.862 146.13 363.909 145.885 363.93 145.688C363.961 145.479 363.987 145.365 364.008 145.344C364.122 145.281 364.253 145.281 364.398 145.344C364.544 145.396 364.628 145.547 364.648 145.797C364.659 146.203 364.57 146.667 364.383 147.188C364.195 147.708 363.935 148.188 363.602 148.625C363.279 149.062 362.888 149.417 362.43 149.688C361.982 149.948 361.503 150.036 360.992 149.953C360.461 149.943 360.039 149.792 359.727 149.5C359.414 149.198 359.164 148.839 358.977 148.422C358.799 147.995 358.669 147.547 358.586 147.078C358.503 146.609 358.43 146.193 358.367 145.828ZM362.461 142.469C362.128 142.01 361.789 141.719 361.445 141.594C361.102 141.469 360.747 141.432 360.383 141.484C360.164 141.516 359.971 141.62 359.805 141.797C359.638 141.964 359.503 142.182 359.398 142.453C359.294 142.714 359.221 143.01 359.18 143.344C359.138 143.667 359.133 144 359.164 144.344L362.461 142.469ZM365.273 148.875C365.471 149.031 365.711 149.115 365.992 149.125C366.284 149.135 366.586 149.099 366.898 149.016C367.221 148.922 367.544 148.792 367.867 148.625C368.201 148.448 368.503 148.255 368.773 148.047C369.055 147.839 369.294 147.62 369.492 147.391C369.701 147.151 369.841 146.927 369.914 146.719C369.987 146.5 369.982 146.302 369.898 146.125C369.815 145.948 369.628 145.807 369.336 145.703C368.805 145.828 368.273 145.927 367.742 146C367.211 146.073 366.732 146.073 366.305 146C365.888 145.927 365.549 145.755 365.289 145.484C365.029 145.214 364.909 144.797 364.93 144.234C364.961 143.693 365.107 143.188 365.367 142.719C365.638 142.24 365.977 141.833 366.383 141.5C366.799 141.167 367.258 140.911 367.758 140.734C368.268 140.557 368.784 140.484 369.305 140.516C369.409 140.526 369.503 140.536 369.586 140.547C369.68 140.547 369.763 140.562 369.836 140.594C369.909 140.625 369.961 140.672 369.992 140.734C370.034 140.797 370.049 140.891 370.039 141.016C370.029 141.172 369.971 141.297 369.867 141.391C369.763 141.484 369.622 141.521 369.445 141.5C368.831 141.375 368.279 141.401 367.789 141.578C367.299 141.755 366.893 142.005 366.57 142.328C366.247 142.641 366.018 142.995 365.883 143.391C365.747 143.786 365.727 144.146 365.82 144.469C366.018 144.844 366.273 145.083 366.586 145.188C366.909 145.281 367.247 145.312 367.602 145.281C367.966 145.25 368.336 145.198 368.711 145.125C369.086 145.042 369.424 145.016 369.727 145.047C370.029 145.068 370.279 145.182 370.477 145.391C370.674 145.589 370.784 145.958 370.805 146.5C370.794 146.844 370.68 147.177 370.461 147.5C370.242 147.812 369.961 148.109 369.617 148.391C369.284 148.661 368.909 148.911 368.492 149.141C368.076 149.359 367.659 149.542 367.242 149.688C366.836 149.833 366.451 149.932 366.086 149.984C365.732 150.036 365.445 150.031 365.227 149.969C364.987 149.76 364.862 149.557 364.852 149.359C364.841 149.151 364.982 148.99 365.273 148.875Z" fill="white"/>
<rect x="480.5" y="24.5" width="203" height="154" rx="15.5" fill="url(#paint6_linear_2989_11222)"/>
<rect x="480.5" y="24.5" width="203" height="154" rx="15.5" stroke="url(#paint7_linear_2989_11222)"/>
<path d="M528.988 96V62.112H536.476V96H528.988ZM522.46 68.496V62.112H535.996V68.496H522.46ZM553.129 96.528C550.697 96.528 548.569 96.096 546.745 95.232C544.953 94.368 543.545 93.184 542.521 91.68C541.529 90.176 541.033 88.464 541.033 86.544C541.033 84.944 541.337 83.504 541.945 82.224C542.585 80.944 543.465 79.872 544.585 79.008C545.737 78.144 547.065 77.552 548.569 77.232L548.425 78.768C547.145 78.48 546.057 77.952 545.161 77.184C544.265 76.384 543.577 75.424 543.097 74.304C542.617 73.184 542.377 72.016 542.377 70.8C542.377 69.008 542.825 67.424 543.721 66.048C544.649 64.64 545.929 63.536 547.561 62.736C549.193 61.936 551.049 61.536 553.129 61.536C555.241 61.536 557.097 61.936 558.697 62.736C560.329 63.536 561.593 64.64 562.489 66.048C563.417 67.424 563.881 69.008 563.881 70.8C563.881 72.016 563.641 73.184 563.161 74.304C562.713 75.424 562.041 76.384 561.145 77.184C560.249 77.952 559.161 78.48 557.881 78.768L557.689 77.232C559.225 77.552 560.553 78.144 561.673 79.008C562.825 79.872 563.705 80.944 564.313 82.224C564.921 83.504 565.225 84.944 565.225 86.544C565.225 88.464 564.729 90.176 563.737 91.68C562.745 93.184 561.337 94.368 559.513 95.232C557.721 96.096 555.593 96.528 553.129 96.528ZM553.129 90.096C554.089 90.096 554.937 89.904 555.673 89.52C556.409 89.104 556.985 88.544 557.401 87.84C557.849 87.136 558.073 86.352 558.073 85.488C558.073 84.592 557.849 83.808 557.401 83.136C556.985 82.432 556.409 81.888 555.673 81.504C554.937 81.088 554.089 80.88 553.129 80.88C552.169 80.88 551.321 81.088 550.585 81.504C549.849 81.888 549.273 82.432 548.857 83.136C548.441 83.808 548.233 84.592 548.233 85.488C548.233 86.352 548.441 87.136 548.857 87.84C549.273 88.544 549.849 89.104 550.585 89.52C551.321 89.904 552.169 90.096 553.129 90.096ZM553.129 75.408C554.249 75.408 555.161 75.056 555.865 74.352C556.601 73.616 556.969 72.704 556.969 71.616C556.969 70.496 556.601 69.584 555.865 68.88C555.161 68.144 554.249 67.776 553.129 67.776C552.041 67.776 551.129 68.128 550.393 68.832C549.657 69.536 549.289 70.448 549.289 71.568C549.289 72.656 549.657 73.568 550.393 74.304C551.129 75.04 552.041 75.408 553.129 75.408ZM569.186 86.976V80.544H586.178V86.976H569.186ZM600.958 96.528C598.622 96.528 596.43 96.128 594.382 95.328C592.366 94.496 590.686 93.312 589.342 91.776L594.238 86.928C594.846 87.824 595.726 88.56 596.878 89.136C598.062 89.68 599.342 89.952 600.718 89.952C601.934 89.952 602.99 89.744 603.886 89.328C604.782 88.88 605.486 88.256 605.998 87.456C606.51 86.624 606.766 85.664 606.766 84.576C606.766 83.456 606.51 82.496 605.998 81.696C605.486 80.896 604.766 80.288 603.838 79.872C602.942 79.424 601.918 79.2 600.766 79.2C599.614 79.2 598.558 79.36 597.598 79.68C596.638 79.968 595.758 80.416 594.958 81.024L595.582 76.224C596.318 75.648 597.022 75.184 597.694 74.832C598.366 74.448 599.102 74.16 599.902 73.968C600.702 73.776 601.646 73.68 602.734 73.68C605.23 73.68 607.326 74.192 609.022 75.216C610.75 76.24 612.046 77.6 612.91 79.296C613.806 80.992 614.254 82.864 614.254 84.912C614.254 87.152 613.694 89.152 612.574 90.912C611.486 92.672 609.95 94.048 607.966 95.04C605.982 96.032 603.646 96.528 600.958 96.528ZM594.958 81.024L591.694 78L593.326 62.112H600.142L598.366 77.856L594.958 81.024ZM594.334 68.496L593.326 62.112H612.382V68.496H594.334ZM627.817 96.528C625.481 96.528 623.289 96.128 621.241 95.328C619.225 94.496 617.545 93.312 616.201 91.776L621.097 86.928C621.705 87.824 622.585 88.56 623.737 89.136C624.921 89.68 626.201 89.952 627.577 89.952C628.793 89.952 629.849 89.744 630.745 89.328C631.641 88.88 632.345 88.256 632.857 87.456C633.369 86.624 633.625 85.664 633.625 84.576C633.625 83.456 633.369 82.496 632.857 81.696C632.345 80.896 631.625 80.288 630.697 79.872C629.801 79.424 628.777 79.2 627.625 79.2C626.473 79.2 625.417 79.36 624.457 79.68C623.497 79.968 622.617 80.416 621.817 81.024L622.441 76.224C623.177 75.648 623.881 75.184 624.553 74.832C625.225 74.448 625.961 74.16 626.761 73.968C627.561 73.776 628.505 73.68 629.593 73.68C632.089 73.68 634.185 74.192 635.881 75.216C637.609 76.24 638.905 77.6 639.769 79.296C640.665 80.992 641.113 82.864 641.113 84.912C641.113 87.152 640.553 89.152 639.433 90.912C638.345 92.672 636.809 94.048 634.825 95.04C632.841 96.032 630.505 96.528 627.817 96.528ZM621.817 81.024L618.553 78L620.185 62.112H627.001L625.225 77.856L621.817 81.024ZM621.193 68.496L620.185 62.112H639.241V68.496H621.193Z" fill="#FA5242"/>
<path d="M549.727 150C549.799 149.76 549.914 149.365 550.07 148.812C550.237 148.26 550.451 147.474 550.711 146.453C550.971 145.422 551.289 144.115 551.664 142.531C552.049 140.948 552.497 139 553.008 136.688C553.07 136.583 553.159 136.516 553.273 136.484C553.388 136.443 553.503 136.432 553.617 136.453C553.732 136.464 553.826 136.5 553.898 136.562C553.982 136.615 554.018 136.677 554.008 136.75L557.086 144.234L558.68 143.75C558.815 143.75 558.93 143.786 559.023 143.859C559.117 143.932 559.169 144.021 559.18 144.125C559.19 144.229 559.154 144.344 559.07 144.469C558.987 144.583 558.841 144.677 558.633 144.75C558.549 144.781 558.44 144.818 558.305 144.859C558.169 144.891 558.034 144.922 557.898 144.953C557.763 144.984 557.648 145.016 557.555 145.047C557.461 145.078 557.414 145.109 557.414 145.141L559.148 149.766C559.128 149.818 559.107 149.885 559.086 149.969C559.065 150.042 559.023 150.099 558.961 150.141C558.898 150.193 558.805 150.208 558.68 150.188C558.555 150.177 558.378 150.104 558.148 149.969L556.352 145.375C556.133 145.438 555.862 145.5 555.539 145.562C555.216 145.615 554.878 145.672 554.523 145.734C554.169 145.786 553.81 145.854 553.445 145.938C553.091 146.01 552.763 146.104 552.461 146.219C552.159 146.333 551.904 146.474 551.695 146.641C551.487 146.797 551.362 146.99 551.32 147.219C551.299 147.365 551.258 147.604 551.195 147.938C551.143 148.271 551.091 148.604 551.039 148.938C550.977 149.333 550.904 149.76 550.82 150.219C550.633 150.406 550.461 150.469 550.305 150.406C550.159 150.344 549.966 150.208 549.727 150ZM553.648 138.406L551.992 145.359C552.169 145.297 552.414 145.229 552.727 145.156C553.039 145.083 553.378 145.005 553.742 144.922C554.107 144.839 554.471 144.755 554.836 144.672C555.211 144.589 555.549 144.5 555.852 144.406L553.648 138.406ZM560.461 154.047C561.232 154.005 561.888 153.839 562.43 153.547C562.971 153.266 563.419 152.891 563.773 152.422C564.128 151.953 564.393 151.406 564.57 150.781C564.747 150.156 564.862 149.479 564.914 148.75C564.945 148.281 564.961 147.87 564.961 147.516C564.971 147.151 564.966 146.823 564.945 146.531C564.935 146.229 564.919 145.943 564.898 145.672C564.878 145.401 564.857 145.12 564.836 144.828C564.815 144.536 564.794 144.224 564.773 143.891C564.763 143.547 564.758 143.156 564.758 142.719C564.258 144.188 563.789 145.37 563.352 146.266C562.914 147.161 562.503 147.839 562.117 148.297C561.742 148.755 561.398 149.031 561.086 149.125C560.784 149.219 560.518 149.203 560.289 149.078C560.06 148.943 559.872 148.729 559.727 148.438C559.581 148.135 559.482 147.828 559.43 147.516C559.451 146.995 559.549 146.422 559.727 145.797C559.904 145.161 560.138 144.542 560.43 143.938C560.721 143.323 561.06 142.755 561.445 142.234C561.831 141.703 562.247 141.281 562.695 140.969C563.143 140.656 563.602 140.479 564.07 140.438C564.549 140.396 565.029 140.557 565.508 140.922C565.518 140.911 565.529 141.026 565.539 141.266C565.56 141.505 565.581 141.828 565.602 142.234C565.633 142.641 565.659 143.115 565.68 143.656C565.711 144.188 565.742 144.745 565.773 145.328C565.805 145.911 565.831 146.495 565.852 147.078C565.883 147.661 565.914 148.203 565.945 148.703C565.956 149.672 565.81 150.562 565.508 151.375C565.206 152.188 564.799 152.875 564.289 153.438C563.789 154 563.211 154.411 562.555 154.672C561.909 154.932 561.242 154.995 560.555 154.859C560.523 154.859 560.471 154.839 560.398 154.797C560.336 154.755 560.284 154.698 560.242 154.625C560.211 154.552 560.206 154.464 560.227 154.359C560.247 154.266 560.326 154.161 560.461 154.047ZM560.258 147.531C560.372 147.906 560.523 148.094 560.711 148.094C560.898 148.083 561.107 147.948 561.336 147.688C561.576 147.417 561.826 147.052 562.086 146.594C562.346 146.135 562.607 145.635 562.867 145.094C563.138 144.542 563.398 143.984 563.648 143.422C563.898 142.849 564.133 142.323 564.352 141.844C564.352 141.719 564.32 141.604 564.258 141.5C564.206 141.385 564.081 141.349 563.883 141.391C563.56 141.453 563.242 141.615 562.93 141.875C562.628 142.125 562.341 142.432 562.07 142.797C561.799 143.151 561.549 143.547 561.32 143.984C561.102 144.411 560.914 144.844 560.758 145.281C560.602 145.708 560.477 146.12 560.383 146.516C560.299 146.911 560.258 147.25 560.258 147.531ZM567.258 145.828C567.185 145.891 567.055 145.917 566.867 145.906C566.69 145.885 566.523 145.844 566.367 145.781C566.221 145.719 566.122 145.635 566.07 145.531C566.018 145.417 566.081 145.286 566.258 145.141C566.331 145.078 566.409 145.036 566.492 145.016C566.586 144.984 566.674 144.958 566.758 144.938C566.852 144.906 566.924 144.865 566.977 144.812C567.039 144.76 567.076 144.677 567.086 144.562C567.096 144.094 567.133 143.615 567.195 143.125C567.268 142.635 567.398 142.198 567.586 141.812C567.773 141.427 568.039 141.12 568.383 140.891C568.737 140.661 569.201 140.573 569.773 140.625C569.982 140.625 570.216 140.677 570.477 140.781C570.737 140.875 570.987 141.005 571.227 141.172C571.466 141.328 571.674 141.521 571.852 141.75C572.029 141.969 572.138 142.208 572.18 142.469C572.253 142.573 572.211 142.703 572.055 142.859C571.898 143.016 571.68 143.193 571.398 143.391C571.117 143.578 570.799 143.771 570.445 143.969C570.091 144.167 569.747 144.354 569.414 144.531C569.091 144.708 568.805 144.865 568.555 145C568.305 145.135 568.143 145.229 568.07 145.281C568.133 145.688 568.201 146.115 568.273 146.562C568.346 147.01 568.451 147.422 568.586 147.797C568.721 148.172 568.888 148.484 569.086 148.734C569.294 148.974 569.555 149.094 569.867 149.094C570.326 149.125 570.716 149.057 571.039 148.891C571.372 148.724 571.648 148.505 571.867 148.234C572.086 147.964 572.258 147.667 572.383 147.344C572.518 147.021 572.617 146.714 572.68 146.422C572.753 146.13 572.799 145.885 572.82 145.688C572.852 145.479 572.878 145.365 572.898 145.344C573.013 145.281 573.143 145.281 573.289 145.344C573.435 145.396 573.518 145.547 573.539 145.797C573.549 146.203 573.461 146.667 573.273 147.188C573.086 147.708 572.826 148.188 572.492 148.625C572.169 149.062 571.779 149.417 571.32 149.688C570.872 149.948 570.393 150.036 569.883 149.953C569.352 149.943 568.93 149.792 568.617 149.5C568.305 149.198 568.055 148.839 567.867 148.422C567.69 147.995 567.56 147.547 567.477 147.078C567.393 146.609 567.32 146.193 567.258 145.828ZM571.352 142.469C571.018 142.01 570.68 141.719 570.336 141.594C569.992 141.469 569.638 141.432 569.273 141.484C569.055 141.516 568.862 141.62 568.695 141.797C568.529 141.964 568.393 142.182 568.289 142.453C568.185 142.714 568.112 143.01 568.07 143.344C568.029 143.667 568.023 144 568.055 144.344L571.352 142.469ZM583.023 154.047C583.794 154.005 584.451 153.839 584.992 153.547C585.534 153.266 585.982 152.891 586.336 152.422C586.69 151.953 586.956 151.406 587.133 150.781C587.31 150.156 587.424 149.479 587.477 148.75C587.508 148.281 587.523 147.87 587.523 147.516C587.534 147.151 587.529 146.823 587.508 146.531C587.497 146.229 587.482 145.943 587.461 145.672C587.44 145.401 587.419 145.12 587.398 144.828C587.378 144.536 587.357 144.224 587.336 143.891C587.326 143.547 587.32 143.156 587.32 142.719C586.82 144.188 586.352 145.37 585.914 146.266C585.477 147.161 585.065 147.839 584.68 148.297C584.305 148.755 583.961 149.031 583.648 149.125C583.346 149.219 583.081 149.203 582.852 149.078C582.622 148.943 582.435 148.729 582.289 148.438C582.143 148.135 582.044 147.828 581.992 147.516C582.013 146.995 582.112 146.422 582.289 145.797C582.466 145.161 582.701 144.542 582.992 143.938C583.284 143.323 583.622 142.755 584.008 142.234C584.393 141.703 584.81 141.281 585.258 140.969C585.706 140.656 586.164 140.479 586.633 140.438C587.112 140.396 587.591 140.557 588.07 140.922C588.081 140.911 588.091 141.026 588.102 141.266C588.122 141.505 588.143 141.828 588.164 142.234C588.195 142.641 588.221 143.115 588.242 143.656C588.273 144.188 588.305 144.745 588.336 145.328C588.367 145.911 588.393 146.495 588.414 147.078C588.445 147.661 588.477 148.203 588.508 148.703C588.518 149.672 588.372 150.562 588.07 151.375C587.768 152.188 587.362 152.875 586.852 153.438C586.352 154 585.773 154.411 585.117 154.672C584.471 154.932 583.805 154.995 583.117 154.859C583.086 154.859 583.034 154.839 582.961 154.797C582.898 154.755 582.846 154.698 582.805 154.625C582.773 154.552 582.768 154.464 582.789 154.359C582.81 154.266 582.888 154.161 583.023 154.047ZM582.82 147.531C582.935 147.906 583.086 148.094 583.273 148.094C583.461 148.083 583.669 147.948 583.898 147.688C584.138 147.417 584.388 147.052 584.648 146.594C584.909 146.135 585.169 145.635 585.43 145.094C585.701 144.542 585.961 143.984 586.211 143.422C586.461 142.849 586.695 142.323 586.914 141.844C586.914 141.719 586.883 141.604 586.82 141.5C586.768 141.385 586.643 141.349 586.445 141.391C586.122 141.453 585.805 141.615 585.492 141.875C585.19 142.125 584.904 142.432 584.633 142.797C584.362 143.151 584.112 143.547 583.883 143.984C583.664 144.411 583.477 144.844 583.32 145.281C583.164 145.708 583.039 146.12 582.945 146.516C582.862 146.911 582.82 147.25 582.82 147.531ZM589.367 149.703C589.336 148.266 589.31 147.047 589.289 146.047C589.268 145.047 589.253 144.219 589.242 143.562C589.232 142.906 589.221 142.396 589.211 142.031C589.211 141.656 589.206 141.38 589.195 141.203C589.195 141.026 589.195 140.922 589.195 140.891C589.195 140.849 589.195 140.823 589.195 140.812C589.206 140.719 589.253 140.641 589.336 140.578C589.419 140.516 589.508 140.479 589.602 140.469C589.706 140.448 589.805 140.458 589.898 140.5C589.992 140.542 590.06 140.609 590.102 140.703L590.148 144.297C590.305 143.578 590.555 142.979 590.898 142.5C591.253 142.021 591.648 141.646 592.086 141.375C592.523 141.094 592.977 140.911 593.445 140.828C593.924 140.745 594.367 140.74 594.773 140.812C594.909 140.844 595.008 140.901 595.07 140.984C595.143 141.068 595.18 141.161 595.18 141.266C595.19 141.359 595.164 141.453 595.102 141.547C595.049 141.63 594.977 141.693 594.883 141.734C594.414 141.703 593.971 141.745 593.555 141.859C593.148 141.964 592.773 142.125 592.43 142.344C592.096 142.552 591.799 142.802 591.539 143.094C591.289 143.385 591.091 143.693 590.945 144.016C590.727 144.484 590.576 144.979 590.492 145.5C590.419 146.01 590.372 146.521 590.352 147.031C590.341 147.542 590.341 148.026 590.352 148.484C590.372 148.943 590.378 149.344 590.367 149.688C590.357 149.802 590.305 149.891 590.211 149.953C590.128 150.005 590.029 150.031 589.914 150.031C589.81 150.042 589.701 150.021 589.586 149.969C589.482 149.906 589.409 149.818 589.367 149.703ZM596.617 149.938C596.201 149.885 595.857 149.719 595.586 149.438C595.326 149.156 595.117 148.812 594.961 148.406C594.805 148 594.701 147.557 594.648 147.078C594.607 146.589 594.596 146.109 594.617 145.641C594.648 144.922 594.779 144.234 595.008 143.578C595.247 142.922 595.539 142.354 595.883 141.875C596.237 141.385 596.622 141.01 597.039 140.75C597.466 140.479 597.883 140.375 598.289 140.438C598.716 140.5 599.06 140.703 599.32 141.047C599.591 141.391 599.799 141.812 599.945 142.312C600.091 142.812 600.18 143.359 600.211 143.953C600.242 144.536 600.237 145.099 600.195 145.641C600.143 146.255 600.008 146.828 599.789 147.359C599.57 147.891 599.294 148.349 598.961 148.734C598.638 149.12 598.268 149.422 597.852 149.641C597.445 149.849 597.034 149.948 596.617 149.938ZM598.133 141.328C597.789 141.286 597.466 141.396 597.164 141.656C596.872 141.906 596.607 142.245 596.367 142.672C596.138 143.089 595.945 143.568 595.789 144.109C595.633 144.641 595.529 145.167 595.477 145.688C595.435 146.062 595.419 146.448 595.43 146.844C595.44 147.24 595.487 147.599 595.57 147.922C595.664 148.245 595.805 148.51 595.992 148.719C596.19 148.917 596.451 149.016 596.773 149.016C597.034 149.026 597.305 148.938 597.586 148.75C597.878 148.562 598.148 148.312 598.398 148C598.648 147.677 598.867 147.312 599.055 146.906C599.253 146.5 599.383 146.083 599.445 145.656C599.518 145.208 599.534 144.75 599.492 144.281C599.461 143.802 599.383 143.359 599.258 142.953C599.143 142.547 598.987 142.198 598.789 141.906C598.602 141.604 598.383 141.411 598.133 141.328ZM605.352 140.781C605.362 140.719 605.393 140.651 605.445 140.578C605.508 140.495 605.581 140.438 605.664 140.406C605.758 140.375 605.857 140.391 605.961 140.453C606.076 140.505 606.19 140.63 606.305 140.828C606.263 141.63 606.211 142.432 606.148 143.234C606.096 144.026 606.07 144.812 606.07 145.594C606.081 146.365 606.133 147.13 606.227 147.891C606.331 148.651 606.513 149.391 606.773 150.109C606.784 150.182 606.758 150.245 606.695 150.297C606.633 150.359 606.549 150.401 606.445 150.422C606.341 150.453 606.237 150.464 606.133 150.453C606.029 150.443 605.945 150.396 605.883 150.312L605.336 147.703C605.294 147.839 605.174 148.036 604.977 148.297C604.789 148.557 604.565 148.823 604.305 149.094C604.055 149.354 603.794 149.589 603.523 149.797C603.253 149.995 603.018 150.099 602.82 150.109C602.331 150.141 601.945 149.969 601.664 149.594C601.383 149.219 601.174 148.729 601.039 148.125C600.914 147.51 600.841 146.828 600.82 146.078C600.799 145.328 600.799 144.599 600.82 143.891C600.841 143.182 600.867 142.542 600.898 141.969C600.93 141.396 600.93 140.974 600.898 140.703C600.93 140.62 600.982 140.557 601.055 140.516C601.138 140.474 601.227 140.453 601.32 140.453C601.414 140.453 601.503 140.474 601.586 140.516C601.68 140.557 601.747 140.62 601.789 140.703C601.81 141.057 601.815 141.5 601.805 142.031C601.794 142.562 601.784 143.13 601.773 143.734C601.763 144.328 601.763 144.927 601.773 145.531C601.794 146.135 601.836 146.688 601.898 147.188C601.961 147.677 602.055 148.089 602.18 148.422C602.315 148.745 602.503 148.927 602.742 148.969C602.919 148.969 603.096 148.911 603.273 148.797C603.451 148.682 603.628 148.536 603.805 148.359C603.982 148.172 604.148 147.969 604.305 147.75C604.461 147.521 604.596 147.302 604.711 147.094C604.826 146.875 604.919 146.677 604.992 146.5C605.065 146.323 605.107 146.188 605.117 146.094C605.128 145.969 605.143 145.771 605.164 145.5C605.185 145.219 605.201 144.906 605.211 144.562C605.232 144.208 605.247 143.833 605.258 143.438C605.279 143.042 605.294 142.672 605.305 142.328C605.326 141.974 605.336 141.661 605.336 141.391C605.346 141.109 605.352 140.906 605.352 140.781ZM607.195 154.625C607.289 153.333 607.357 152.26 607.398 151.406C607.44 150.552 607.466 149.823 607.477 149.219C607.497 148.604 607.503 148.062 607.492 147.594C607.482 147.125 607.466 146.63 607.445 146.109C607.424 145.578 607.398 144.974 607.367 144.297C607.346 143.609 607.326 142.745 607.305 141.703C607.326 141.589 607.367 141.49 607.43 141.406C607.492 141.312 607.56 141.25 607.633 141.219C607.716 141.177 607.805 141.177 607.898 141.219C607.992 141.26 608.086 141.354 608.18 141.5L608.133 143.531C608.487 143.073 608.883 142.656 609.32 142.281C609.768 141.906 610.216 141.599 610.664 141.359C611.122 141.109 611.565 140.938 611.992 140.844C612.419 140.74 612.789 140.729 613.102 140.812C613.424 140.896 613.669 141.083 613.836 141.375C614.013 141.656 614.076 142.057 614.023 142.578C613.982 143.036 613.841 143.531 613.602 144.062C613.362 144.583 613.065 145.104 612.711 145.625C612.367 146.135 611.987 146.63 611.57 147.109C611.154 147.589 610.747 148.01 610.352 148.375C609.956 148.74 609.586 149.036 609.242 149.266C608.909 149.484 608.643 149.594 608.445 149.594C608.435 149.74 608.419 149.943 608.398 150.203C608.378 150.474 608.357 150.776 608.336 151.109C608.315 151.453 608.289 151.807 608.258 152.172C608.237 152.536 608.216 152.885 608.195 153.219C608.174 153.552 608.154 153.854 608.133 154.125C608.112 154.396 608.102 154.599 608.102 154.734C608.049 154.786 607.987 154.833 607.914 154.875C607.841 154.917 607.763 154.943 607.68 154.953C607.596 154.964 607.513 154.943 607.43 154.891C607.346 154.849 607.268 154.76 607.195 154.625ZM608.367 148.703C608.711 148.568 609.122 148.297 609.602 147.891C610.081 147.474 610.555 146.979 611.023 146.406C611.503 145.823 611.935 145.188 612.32 144.5C612.706 143.812 612.977 143.13 613.133 142.453C613.07 142.12 612.93 141.901 612.711 141.797C612.492 141.693 612.232 141.672 611.93 141.734C611.638 141.786 611.315 141.917 610.961 142.125C610.607 142.323 610.263 142.562 609.93 142.844C609.607 143.115 609.305 143.417 609.023 143.75C608.742 144.083 608.523 144.411 608.367 144.734V148.703Z" fill="white"/>
<defs>
<linearGradient id="paint0_linear_2989_11222" x1="354" y1="0" x2="354" y2="203" gradientUnits="userSpaceOnUse">
<stop stop-color="#0F0F0F"/>
<stop offset="1" stop-color="#141414"/>
</linearGradient>
<linearGradient id="paint1_linear_2989_11222" x1="354" y1="0" x2="354" y2="203" gradientUnits="userSpaceOnUse">
<stop stop-color="white" stop-opacity="0.12"/>
<stop offset="1" stop-color="white" stop-opacity="0.04"/>
</linearGradient>
<linearGradient id="paint2_linear_2989_11222" x1="126" y1="24" x2="126" y2="179" gradientUnits="userSpaceOnUse">
<stop stop-color="#1B1B1B"/>
<stop offset="1" stop-color="#131313"/>
</linearGradient>
<linearGradient id="paint3_linear_2989_11222" x1="126" y1="24" x2="126" y2="179" gradientUnits="userSpaceOnUse">
<stop stop-color="white" stop-opacity="0.12"/>
<stop offset="1" stop-color="white" stop-opacity="0.04"/>
</linearGradient>
<linearGradient id="paint4_linear_2989_11222" x1="354" y1="24" x2="354" y2="179" gradientUnits="userSpaceOnUse">
<stop stop-color="#1B1B1B"/>
<stop offset="1" stop-color="#131313"/>
</linearGradient>
<linearGradient id="paint5_linear_2989_11222" x1="354" y1="24" x2="354" y2="179" gradientUnits="userSpaceOnUse">
<stop stop-color="white" stop-opacity="0.12"/>
<stop offset="1" stop-color="white" stop-opacity="0.04"/>
</linearGradient>
<linearGradient id="paint6_linear_2989_11222" x1="582" y1="24" x2="582" y2="179" gradientUnits="userSpaceOnUse">
<stop stop-color="#1B1B1B"/>
<stop offset="1" stop-color="#131313"/>
</linearGradient>
<linearGradient id="paint7_linear_2989_11222" x1="582" y1="24" x2="582" y2="179" gradientUnits="userSpaceOnUse">
<stop stop-color="white" stop-opacity="0.12"/>
<stop offset="1" stop-color="white" stop-opacity="0.04"/>
</linearGradient>
</defs>
</svg>
