<svg width="26" height="26" viewBox="0 0 26 26" fill="none" xmlns="http://www.w3.org/2000/svg">
<path fill-rule="evenodd" clip-rule="evenodd" d="M20.5074 0.951172C20.8411 0.951172 21.1336 1.17411 21.2221 1.49583L21.5607 2.72688C21.7866 3.54834 22.4284 4.19014 23.2498 4.41607L24.4812 4.75474C24.8029 4.84323 25.0258 5.13576 25.0258 5.46942C25.0258 5.80308 24.8029 6.09562 24.4812 6.1841L23.2497 6.52276C22.4283 6.74867 21.7865 7.39043 21.5606 8.21185L21.2221 9.44278C21.1336 9.7645 20.8411 9.98744 20.5074 9.98744C20.1738 9.98744 19.8812 9.7645 19.7927 9.44278L19.4541 8.21161C19.2282 7.39023 18.5865 6.7485 17.7651 6.52261L16.5342 6.1841C16.2125 6.09562 15.9896 5.80308 15.9896 5.46942C15.9896 5.13576 16.2125 4.84323 16.5342 4.75474L17.7651 4.41621C18.5865 4.1903 19.2282 3.54857 19.4541 2.72719L19.7927 1.49583C19.8812 1.17411 20.1738 0.951172 20.5074 0.951172ZM9.96574 6.97535C10.7822 6.97535 11.4932 7.53257 11.6884 8.32535L12.2084 10.4378C12.6129 12.0809 13.8958 13.3639 15.5389 13.7684L17.6524 14.2887C18.4452 14.4839 19.0024 15.1949 19.0024 16.0113C19.0024 16.8277 18.4452 17.5387 17.6525 17.7339L15.5392 18.2542C13.896 18.6588 12.613 19.9419 12.2085 21.5851L11.6884 23.698C11.4932 24.4908 10.7822 25.048 9.96574 25.048C9.14934 25.048 8.43835 24.4909 8.24315 23.6981L7.72268 21.5845C7.31809 19.9415 6.03522 18.6586 4.39218 18.2541L2.2796 17.7339C1.48686 17.5387 0.929688 16.8277 0.929688 16.0113C0.929688 15.1949 1.48689 14.4839 2.27965 14.2887L4.39226 13.7686C6.03534 13.3641 7.31825 12.0812 7.72285 10.4382L8.24315 8.32522C8.43835 7.53251 9.14934 6.97535 9.96574 6.97535Z" fill="#FADE42"/>
</svg>
