<svg width="28" height="28" viewBox="0 0 28 28" fill="none" xmlns="http://www.w3.org/2000/svg">
<g clip-path="url(#clip0_2469_1552)">
<mask id="mask0_2469_1552" style="mask-type:luminance" maskUnits="userSpaceOnUse" x="0" y="0" width="28" height="28">
<path d="M28 0H0V28H28V0Z" fill="white"/>
</mask>
<g mask="url(#mask0_2469_1552)">
<path fill-rule="evenodd" clip-rule="evenodd" d="M14 3.08C14 1.37896 12.621 0 10.92 0H3.08C1.37896 0 0 1.37896 0 3.08V11.0207C0 12.7218 1.37896 14.1007 3.08 14.1007H10.92C12.621 14.1007 14 15.4797 14 17.1807V24.92C14 26.621 15.379 28 17.08 28H24.92C26.621 28 28 26.621 28 24.92V16.9792C28 15.2782 26.621 13.8993 24.92 13.8993H17.08C15.379 13.8993 14 12.5203 14 10.8193V3.08Z" fill="#9997FE"/>
</g>
</g>
<defs>
<clipPath id="clip0_2469_1552">
<rect width="28" height="28" fill="white"/>
</clipPath>
</defs>
</svg>
