<svg width="361" height="250" viewBox="0 0 361 250" fill="none" xmlns="http://www.w3.org/2000/svg">
<g clip-path="url(#clip0_3022_18200)">
<path fill-rule="evenodd" clip-rule="evenodd" d="M276.886 201C308.189 201 334.683 221.716 343.346 250.188H210.453C219.089 221.716 245.556 201 276.886 201Z" fill="#9966FF"/>
<path fill-rule="evenodd" clip-rule="evenodd" d="M337.387 236.351C339.832 240.68 341.852 245.328 343.313 250.188H213.477C223.096 223.417 248.739 204.268 278.82 204.268C303.453 204.268 325.057 217.069 337.387 236.351Z" fill="#321791"/>
<path fill-rule="evenodd" clip-rule="evenodd" d="M333.406 235.606C335.24 238.846 336.728 246.575 337.844 250.187H241.064C245.954 236.588 252.438 241.555 265.698 235.924C271.889 233.295 282.625 215.952 289.773 215.952C296.629 215.952 303.325 220.732 309.304 223.149C319.349 227.213 327.64 226.602 333.406 235.606ZM260.835 211.941C261.393 211.941 261.871 212.393 261.871 213.004C261.871 213.588 261.393 214.066 260.835 214.066C260.25 214.066 259.799 213.588 259.799 213.004C259.799 212.419 260.25 211.941 260.835 211.941ZM280.021 208.303C280.712 208.303 281.243 208.86 281.243 209.524C281.243 210.215 280.712 210.773 280.021 210.773C279.356 210.773 278.798 210.215 278.798 209.524C278.825 208.86 279.356 208.303 280.021 208.303ZM275.158 213.827C276.088 213.827 276.859 214.597 276.859 215.527C276.859 216.456 276.114 217.227 275.158 217.227C274.228 217.227 273.484 216.456 273.484 215.527C273.457 214.597 274.228 213.827 275.158 213.827ZM246.565 230.453C247.973 230.453 249.116 231.622 249.116 233.056C249.116 234.49 247.973 235.659 246.565 235.659C245.13 235.659 243.987 234.49 243.987 233.056C244.014 231.622 245.157 230.453 246.565 230.453ZM233.81 229.577C236.76 229.577 239.151 231.994 239.151 234.995C239.151 237.969 236.76 240.413 233.81 240.413C230.86 240.413 228.469 237.996 228.469 234.995C228.495 231.994 230.887 229.577 233.81 229.577Z" fill="#220B78"/>
<path fill-rule="evenodd" clip-rule="evenodd" d="M0 -15C26.1452 5.26692 43 36.9466 43 72.5933C43 108.211 26.1452 139.92 0 160.187V-15Z" fill="#9966FF"/>
<path fill-rule="evenodd" clip-rule="evenodd" d="M0 148.572V-13.3047C21.6582 6.90474 35.1766 35.6809 35.1766 67.6193C35.1766 99.5576 21.6582 128.363 0 148.572Z" fill="#003399"/>
<path fill-rule="evenodd" clip-rule="evenodd" d="M0 112.982V-7.64258C5.40736 -2.58303 13.6047 4.69006 17.2863 11.187C23.3552 21.8523 20.2488 29.0679 20.2488 42.2054C20.2488 49.996 27.4395 68.1068 25.7137 75.7824C22.7512 88.9487 18.9833 105.248 0 112.982Z" fill="#082C73"/>
</g>
<defs>
<clipPath id="clip0_3022_18200">
<rect width="361" height="250" fill="white"/>
</clipPath>
</defs>
</svg>
