<svg width="1899" height="700" viewBox="0 0 1899 700" fill="none" xmlns="http://www.w3.org/2000/svg">
<g clip-path="url(#clip0_3005_17535)">
<path fill-rule="evenodd" clip-rule="evenodd" d="M1556 515C1673.8 515 1773.5 593 1806.1 700.2H1306C1338.5 593 1438.1 515 1556 515Z" fill="#9966FF"/>
<path fill-rule="evenodd" clip-rule="evenodd" d="M1783.7 648.101C1792.9 664.401 1800.5 681.901 1806 700.201H1317.4C1353.6 599.401 1450.1 527.301 1563.3 527.301C1656 527.301 1737.3 575.501 1783.7 648.101Z" fill="#321791"/>
<path fill-rule="evenodd" clip-rule="evenodd" d="M1768.7 645.3C1775.6 657.5 1781.2 686.6 1785.4 700.2H1421.2C1439.6 649 1464 667.7 1513.9 646.5C1537.2 636.6 1577.6 571.3 1604.5 571.3C1630.3 571.3 1655.5 589.3 1678 598.4C1715.8 613.7 1747 611.4 1768.7 645.3ZM1495.6 556.2C1497.7 556.2 1499.5 557.9 1499.5 560.2C1499.5 562.4 1497.7 564.2 1495.6 564.2C1493.4 564.2 1491.7 562.4 1491.7 560.2C1491.7 558 1493.4 556.2 1495.6 556.2ZM1567.8 542.5C1570.4 542.5 1572.4 544.6 1572.4 547.1C1572.4 549.7 1570.4 551.8 1567.8 551.8C1565.3 551.8 1563.2 549.7 1563.2 547.1C1563.3 544.6 1565.3 542.5 1567.8 542.5ZM1549.5 563.3C1553 563.3 1555.9 566.2 1555.9 569.7C1555.9 573.2 1553.1 576.1 1549.5 576.1C1546 576.1 1543.2 573.2 1543.2 569.7C1543.1 566.2 1546 563.3 1549.5 563.3ZM1441.9 625.9C1447.2 625.9 1451.5 630.3 1451.5 635.7C1451.5 641.1 1447.2 645.5 1441.9 645.5C1436.5 645.5 1432.2 641.1 1432.2 635.7C1432.3 630.3 1436.6 625.9 1441.9 625.9ZM1393.9 622.6C1405 622.6 1414 631.7 1414 643C1414 654.2 1405 663.4 1393.9 663.4C1382.8 663.4 1373.8 654.3 1373.8 643C1373.9 631.7 1382.9 622.6 1393.9 622.6Z" fill="#220B78"/>
<path fill-rule="evenodd" clip-rule="evenodd" d="M-1 -142C89.9 -71.5 148.5 38.7 148.5 162.7C148.5 286.6 89.9 396.9 -1 467.4V-142Z" fill="#9966FF"/>
<path fill-rule="evenodd" clip-rule="evenodd" d="M-1 427V-136.1C74.3 -65.7996 121.3 34.3004 121.3 145.4C121.3 256.5 74.3 356.7 -1 427Z" fill="#003399"/>
<path fill-rule="evenodd" clip-rule="evenodd" d="M-1 303.2V-116.4C17.8 -98.8004 46.3 -73.5004 59.1 -50.9004C80.2 -13.8004 69.4 11.2996 69.4 56.9996C69.4 84.0996 94.4 147.1 88.4 173.8C78.1 219.6 65 276.3 -1 303.2Z" fill="#082C73"/>
</g>
<defs>
<clipPath id="clip0_3005_17535">
<rect width="1899" height="700" fill="white"/>
</clipPath>
</defs>
</svg>
