<svg width="553" height="492" viewBox="0 0 553 492" fill="none" xmlns="http://www.w3.org/2000/svg">
<path fill-rule="evenodd" clip-rule="evenodd" d="M52.3424 0C61.4115 2.48014e-05 68.9261 1.38544 74.8859 4.15625C80.9319 6.92708 85.6827 11.0401 89.1376 16.4951C92.5925 21.9502 95.0541 28.7042 96.5225 36.7568C97.9908 44.723 98.725 53.9447 98.725 64.4219V69.2275C98.725 83.9476 97.4293 96.5029 94.8381 106.894C92.3333 117.198 87.7987 125.034 81.2344 130.402C74.67 135.771 65.4279 138.455 53.5084 138.455H34.7222V491.53H0V0H52.3424ZM34.7222 109.751H46.6417C51.7376 109.751 55.5383 108.452 58.0431 105.854C60.5479 103.257 62.189 98.9706 62.9663 92.9961C63.83 86.9349 64.262 78.8821 64.262 68.8379V64.4219C64.1756 52.0398 63.0959 42.6881 61.0229 36.3672C58.95 29.9597 54.2425 26.7559 46.9009 26.7559H34.7222V109.751Z" fill="url(#paint0_linear_2460_1513)"/>
<path fill-rule="evenodd" clip-rule="evenodd" d="M163.78 0C175.699 3.98053e-05 184.596 2.33793 190.469 7.01367C196.343 11.6894 200.186 18.53 202 27.5352C203.9 36.5404 204.85 47.5371 204.85 60.5254C204.85 73.9466 203.469 84.5104 200.705 92.2168C198.027 99.8365 192.499 104.945 184.121 107.543C188.094 108.236 191.419 109.881 194.097 112.479C196.774 114.99 198.934 118.713 200.575 123.648C202.216 128.497 203.382 134.775 204.073 142.481C204.85 150.101 205.239 422.389 205.239 433.473V454.903L205.498 471.009C205.585 476.377 205.714 480.966 205.887 484.776C206.06 488.586 206.276 490.838 206.535 491.53H171.813C171.554 491.097 171.338 488.889 171.165 484.906C171.078 480.837 170.949 475.685 170.776 469.45C170.69 463.216 170.603 456.505 170.517 449.318V146.638C170.517 139.797 169.999 134.645 168.962 131.182C168.012 127.632 166.198 125.164 163.521 123.778C160.93 122.393 157.172 121.57 152.249 121.311L141.107 120.661V491.53H106.385V0H163.78ZM141.236 93.6455H155.099C159.332 93.6455 162.527 92.693 164.687 90.7881C166.932 88.8831 168.444 85.3762 169.221 80.2676C170.085 75.1589 170.517 67.7988 170.517 58.1875V56.7588C170.517 48.7061 170.128 42.515 169.351 38.1855C168.574 33.8562 166.932 30.8688 164.428 29.2236C162.009 27.5785 158.209 26.7559 153.026 26.7559H141.236V93.6455Z" fill="url(#paint1_linear_2460_1513)"/>
<path d="M476.601 0L499.144 85.4629H499.663L519.744 0H552.782L516.376 137.286V491.53H481.654V137.286L451.823 30.1328H429.037V491.53H394.444V30.1328H353.228V491.53H318.636V30.1328H291.946V30.0029H253.71V96.5029H293.356V125.856H253.71V461.527H296.983V491.53H218.988V0H476.601Z" fill="url(#paint2_linear_2460_1513)"/>
<defs>
<linearGradient id="paint0_linear_2460_1513" x1="-1267.22" y1="-14.6758" x2="425.719" y2="679.284" gradientUnits="userSpaceOnUse">
<stop stop-color="#882016"/>
<stop offset="0.55" stop-color="#F25A4C"/>
<stop offset="1" stop-color="#FFA1AB"/>
</linearGradient>
<linearGradient id="paint1_linear_2460_1513" x1="-1267.22" y1="-14.6758" x2="425.719" y2="679.284" gradientUnits="userSpaceOnUse">
<stop stop-color="#882016"/>
<stop offset="0.55" stop-color="#F25A4C"/>
<stop offset="1" stop-color="#FFA1AB"/>
</linearGradient>
<linearGradient id="paint2_linear_2460_1513" x1="-1267.22" y1="-14.6758" x2="425.719" y2="679.284" gradientUnits="userSpaceOnUse">
<stop stop-color="#882016"/>
<stop offset="0.55" stop-color="#F25A4C"/>
<stop offset="1" stop-color="#FFA1AB"/>
</linearGradient>
</defs>
</svg>
