<svg width="554" height="496" viewBox="0 0 554 496" fill="none" xmlns="http://www.w3.org/2000/svg">
<g id="pretty_svg">
<path id="y" d="M535.5 3.85547L498 144.856V495.356" stroke="#FA5242" stroke-width="30"/>
<path id="e_left" d="M295 480.855H235L235.135 15.3555H462L498.998 147.855" stroke="#FA5242" stroke-width="30"/>
<path id="e_middle" d="M235.133 113.355L291.63 113.355" stroke="#FA5242" stroke-width="30"/>
<path id="p_left" d="M15.5 0.355469V495.355" stroke="#FA5242" stroke-width="30"/>
<path id="t_1" d="M334 0.355469V495.355" stroke="#FA5242" stroke-width="30"/>
<path id="t_2" d="M410 0.355469V495.355" stroke="#FA5242" stroke-width="30"/>
<path id="r_left" d="M122 0.355469V495.355" stroke="#FA5242" stroke-width="30"/>
<path id="p_right" d="M0.5 15.3555H52C66.9117 15.3555 79 27.4438 79 42.3555V99.3555C79 114.267 66.9117 126.355 52 126.355H0.5" stroke="#FA5242" stroke-width="30"/>
<path id="r_right" d="M107 15.3555H158.5C173.412 15.3555 185.5 27.4438 185.5 42.3555V82.2253C185.5 96.9918 173.637 109.019 158.872 109.223L113 109.855H158.5C173.412 109.855 185.5 121.944 185.5 136.855V495.355" stroke="#FA5242" stroke-width="30"/>
</g>
</svg>
