<svg width="708" height="30" viewBox="0 0 708 30" fill="none" xmlns="http://www.w3.org/2000/svg">
<path d="M140.968 24V7.344H143.224V24H140.968ZM154.836 24V17.352C154.836 16.488 154.564 15.776 154.02 15.216C153.476 14.656 152.772 14.376 151.908 14.376C151.332 14.376 150.82 14.504 150.372 14.76C149.924 15.016 149.572 15.368 149.316 15.816C149.06 16.264 148.932 16.776 148.932 17.352L148.044 16.848C148.044 15.984 148.236 15.216 148.62 14.544C149.004 13.872 149.54 13.344 150.228 12.96C150.916 12.56 151.692 12.36 152.556 12.36C153.42 12.36 154.18 12.576 154.836 13.008C155.508 13.44 156.036 14.008 156.42 14.712C156.804 15.4 156.996 16.136 156.996 16.92V24H154.836ZM146.771 24V12.6H148.932V24H146.771ZM163.544 24.24C162.904 24.24 162.296 24.16 161.72 24C161.16 23.824 160.64 23.584 160.16 23.28C159.68 22.96 159.264 22.584 158.912 22.152L160.304 20.76C160.72 21.272 161.2 21.656 161.744 21.912C162.288 22.152 162.896 22.272 163.568 22.272C164.24 22.272 164.76 22.16 165.128 21.936C165.496 21.696 165.68 21.368 165.68 20.952C165.68 20.536 165.528 20.216 165.224 19.992C164.936 19.752 164.56 19.56 164.096 19.416C163.632 19.256 163.136 19.104 162.608 18.96C162.096 18.8 161.608 18.6 161.144 18.36C160.68 18.12 160.296 17.792 159.992 17.376C159.704 16.96 159.56 16.408 159.56 15.72C159.56 15.032 159.728 14.44 160.064 13.944C160.4 13.432 160.864 13.04 161.456 12.768C162.064 12.496 162.792 12.36 163.64 12.36C164.536 12.36 165.328 12.52 166.016 12.84C166.72 13.144 167.296 13.608 167.744 14.232L166.352 15.624C166.032 15.208 165.632 14.888 165.152 14.664C164.688 14.44 164.16 14.328 163.568 14.328C162.944 14.328 162.464 14.44 162.128 14.664C161.808 14.872 161.648 15.168 161.648 15.552C161.648 15.936 161.792 16.232 162.08 16.44C162.368 16.648 162.744 16.824 163.208 16.968C163.688 17.112 164.184 17.264 164.696 17.424C165.208 17.568 165.696 17.768 166.16 18.024C166.624 18.28 167 18.624 167.288 19.056C167.592 19.488 167.744 20.056 167.744 20.76C167.744 21.832 167.36 22.68 166.592 23.304C165.84 23.928 164.824 24.24 163.544 24.24ZM171.914 24V7.824H174.074V24H171.914ZM169.106 14.568V12.6H176.882V14.568H169.106ZM183.495 24.24C182.455 24.24 181.511 23.984 180.663 23.472C179.815 22.944 179.143 22.232 178.646 21.336C178.167 20.44 177.927 19.432 177.927 18.312C177.927 17.192 178.167 16.184 178.646 15.288C179.143 14.392 179.807 13.68 180.639 13.152C181.487 12.624 182.439 12.36 183.495 12.36C184.359 12.36 185.127 12.544 185.799 12.912C186.487 13.264 187.039 13.76 187.455 14.4C187.871 15.024 188.103 15.752 188.151 16.584V20.016C188.103 20.832 187.871 21.56 187.455 22.2C187.055 22.84 186.511 23.344 185.823 23.712C185.151 24.064 184.375 24.24 183.495 24.24ZM183.855 22.2C184.927 22.2 185.791 21.84 186.447 21.12C187.103 20.384 187.431 19.448 187.431 18.312C187.431 17.528 187.279 16.848 186.975 16.272C186.687 15.68 186.271 15.224 185.727 14.904C185.183 14.568 184.551 14.4 183.831 14.4C183.111 14.4 182.471 14.568 181.911 14.904C181.367 15.24 180.935 15.704 180.615 16.296C180.311 16.872 180.159 17.536 180.159 18.288C180.159 19.056 180.311 19.736 180.615 20.328C180.935 20.904 181.375 21.36 181.935 21.696C182.495 22.032 183.135 22.2 183.855 22.2ZM187.287 24V20.928L187.695 18.144L187.287 15.384V12.6H189.471V24H187.287ZM200.679 24V17.352C200.679 16.488 200.407 15.776 199.863 15.216C199.319 14.656 198.615 14.376 197.751 14.376C197.175 14.376 196.663 14.504 196.215 14.76C195.767 15.016 195.415 15.368 195.159 15.816C194.903 16.264 194.775 16.776 194.775 17.352L193.887 16.848C193.887 15.984 194.079 15.216 194.463 14.544C194.847 13.872 195.383 13.344 196.071 12.96C196.759 12.56 197.535 12.36 198.399 12.36C199.263 12.36 200.023 12.576 200.679 13.008C201.351 13.44 201.879 14.008 202.263 14.712C202.647 15.4 202.839 16.136 202.839 16.92V24H200.679ZM192.615 24V12.6H194.775V24H192.615ZM207.375 24V7.824H209.535V24H207.375ZM204.567 14.568V12.6H212.343V14.568H204.567Z" fill="#FA5242"/>
<path d="M250.968 24V7.344H253.224V24H250.968ZM264.836 24V17.352C264.836 16.488 264.564 15.776 264.02 15.216C263.476 14.656 262.772 14.376 261.908 14.376C261.332 14.376 260.82 14.504 260.372 14.76C259.924 15.016 259.572 15.368 259.316 15.816C259.06 16.264 258.932 16.776 258.932 17.352L258.044 16.848C258.044 15.984 258.236 15.216 258.62 14.544C259.004 13.872 259.54 13.344 260.228 12.96C260.916 12.56 261.692 12.36 262.556 12.36C263.42 12.36 264.18 12.576 264.836 13.008C265.508 13.44 266.036 14.008 266.42 14.712C266.804 15.4 266.996 16.136 266.996 16.92V24H264.836ZM256.771 24V12.6H258.932V24H256.771ZM271.531 24V7.824H273.691V24H271.531ZM268.723 14.568V12.6H276.499V14.568H268.723ZM278.639 24V12.6H280.799V24H278.639ZM279.719 10.32C279.319 10.32 278.991 10.192 278.735 9.936C278.479 9.664 278.351 9.328 278.351 8.928C278.351 8.544 278.479 8.224 278.735 7.968C278.991 7.696 279.319 7.56 279.719 7.56C280.119 7.56 280.447 7.696 280.703 7.968C280.959 8.224 281.087 8.544 281.087 8.928C281.087 9.328 280.959 9.664 280.703 9.936C280.447 10.192 280.119 10.32 279.719 10.32ZM283.982 24V12.6H286.142V24H283.982ZM291.686 24V17.112C291.686 16.264 291.422 15.6 290.894 15.12C290.382 14.624 289.734 14.376 288.95 14.376C288.422 14.376 287.95 14.488 287.534 14.712C287.118 14.936 286.782 15.248 286.526 15.648C286.27 16.048 286.142 16.528 286.142 17.088L285.254 16.656C285.254 15.792 285.438 15.04 285.806 14.4C286.19 13.76 286.71 13.264 287.366 12.912C288.022 12.544 288.758 12.36 289.574 12.36C290.374 12.36 291.094 12.536 291.734 12.888C292.39 13.24 292.902 13.736 293.27 14.376C293.654 15.016 293.846 15.776 293.846 16.656V24H291.686ZM299.39 24V17.112C299.39 16.264 299.126 15.6 298.598 15.12C298.086 14.624 297.446 14.376 296.678 14.376C296.15 14.376 295.67 14.488 295.238 14.712C294.822 14.936 294.486 15.248 294.23 15.648C293.974 16.048 293.846 16.528 293.846 17.088L292.622 16.656C292.67 15.776 292.902 15.024 293.318 14.4C293.75 13.76 294.302 13.264 294.974 12.912C295.646 12.544 296.382 12.36 297.182 12.36C298.014 12.36 298.758 12.536 299.414 12.888C300.07 13.24 300.59 13.736 300.974 14.376C301.374 15.016 301.574 15.784 301.574 16.68V24H299.39ZM309.362 24.24C308.322 24.24 307.378 23.984 306.53 23.472C305.682 22.944 305.01 22.232 304.514 21.336C304.034 20.44 303.794 19.432 303.794 18.312C303.794 17.192 304.034 16.184 304.514 15.288C305.01 14.392 305.674 13.68 306.506 13.152C307.354 12.624 308.306 12.36 309.362 12.36C310.226 12.36 310.994 12.544 311.666 12.912C312.354 13.264 312.906 13.76 313.322 14.4C313.738 15.024 313.97 15.752 314.018 16.584V20.016C313.97 20.832 313.738 21.56 313.322 22.2C312.922 22.84 312.378 23.344 311.69 23.712C311.018 24.064 310.242 24.24 309.362 24.24ZM309.722 22.2C310.794 22.2 311.658 21.84 312.314 21.12C312.97 20.384 313.298 19.448 313.298 18.312C313.298 17.528 313.146 16.848 312.842 16.272C312.554 15.68 312.138 15.224 311.594 14.904C311.05 14.568 310.418 14.4 309.698 14.4C308.978 14.4 308.338 14.568 307.778 14.904C307.234 15.24 306.802 15.704 306.482 16.296C306.178 16.872 306.026 17.536 306.026 18.288C306.026 19.056 306.178 19.736 306.482 20.328C306.802 20.904 307.242 21.36 307.802 21.696C308.362 22.032 309.002 22.2 309.722 22.2ZM313.154 24V20.928L313.562 18.144L313.154 15.384V12.6H315.338V24H313.154ZM320.188 24V7.824H322.348V24H320.188ZM317.38 14.568V12.6H325.156V14.568H317.38ZM332.2 24.24C331.064 24.24 330.04 23.984 329.128 23.472C328.216 22.944 327.496 22.232 326.968 21.336C326.44 20.44 326.176 19.424 326.176 18.288C326.176 17.168 326.432 16.16 326.944 15.264C327.472 14.368 328.176 13.664 329.056 13.152C329.952 12.624 330.952 12.36 332.056 12.36C333.112 12.36 334.04 12.6 334.84 13.08C335.656 13.56 336.288 14.224 336.736 15.072C337.2 15.92 337.432 16.88 337.432 17.952C337.432 18.112 337.424 18.288 337.408 18.48C337.392 18.656 337.36 18.864 337.312 19.104H327.688V17.304H336.16L335.368 18C335.368 17.232 335.232 16.584 334.96 16.056C334.688 15.512 334.304 15.096 333.808 14.808C333.312 14.504 332.712 14.352 332.008 14.352C331.272 14.352 330.624 14.512 330.064 14.832C329.504 15.152 329.072 15.6 328.768 16.176C328.464 16.752 328.312 17.432 328.312 18.216C328.312 19.016 328.472 19.72 328.792 20.328C329.112 20.92 329.568 21.384 330.16 21.72C330.752 22.04 331.432 22.2 332.2 22.2C332.84 22.2 333.424 22.088 333.952 21.864C334.496 21.64 334.96 21.304 335.344 20.856L336.736 22.272C336.192 22.912 335.52 23.4 334.72 23.736C333.936 24.072 333.096 24.24 332.2 24.24Z" fill="#FA5242"/>
<path d="M376.968 24V7.344H378.552L379.224 9.96V24H376.968ZM388.488 24L378.264 10.344L378.552 7.344L388.8 20.976L388.488 24ZM388.488 24L387.816 21.528V7.344H390.072V24H388.488ZM398.471 24.24C397.431 24.24 396.487 23.984 395.639 23.472C394.791 22.944 394.119 22.232 393.623 21.336C393.143 20.44 392.903 19.432 392.903 18.312C392.903 17.192 393.143 16.184 393.623 15.288C394.119 14.392 394.783 13.68 395.615 13.152C396.463 12.624 397.415 12.36 398.471 12.36C399.335 12.36 400.103 12.544 400.775 12.912C401.463 13.264 402.015 13.76 402.431 14.4C402.847 15.024 403.079 15.752 403.127 16.584V20.016C403.079 20.832 402.847 21.56 402.431 22.2C402.031 22.84 401.487 23.344 400.799 23.712C400.127 24.064 399.351 24.24 398.471 24.24ZM398.831 22.2C399.903 22.2 400.767 21.84 401.423 21.12C402.079 20.384 402.407 19.448 402.407 18.312C402.407 17.528 402.255 16.848 401.951 16.272C401.663 15.68 401.247 15.224 400.703 14.904C400.159 14.568 399.527 14.4 398.807 14.4C398.087 14.4 397.447 14.568 396.887 14.904C396.343 15.24 395.911 15.704 395.591 16.296C395.287 16.872 395.135 17.536 395.135 18.288C395.135 19.056 395.287 19.736 395.591 20.328C395.911 20.904 396.351 21.36 396.911 21.696C397.471 22.032 398.111 22.2 398.831 22.2ZM402.263 24V20.928L402.671 18.144L402.263 15.384V12.6H404.447V24H402.263ZM409.297 24V7.824H411.457V24H409.297ZM406.489 14.568V12.6H414.265V14.568H406.489ZM420.965 24.24C420.037 24.24 419.197 24.032 418.445 23.616C417.709 23.184 417.133 22.592 416.717 21.84C416.301 21.088 416.093 20.216 416.093 19.224V12.6H418.253V19.128C418.253 19.752 418.357 20.296 418.565 20.76C418.789 21.208 419.109 21.552 419.525 21.792C419.941 22.032 420.429 22.152 420.989 22.152C421.837 22.152 422.501 21.888 422.981 21.36C423.461 20.816 423.701 20.072 423.701 19.128V12.6H425.861V19.224C425.861 20.216 425.653 21.088 425.237 21.84C424.821 22.592 424.245 23.184 423.509 23.616C422.789 24.032 421.941 24.24 420.965 24.24ZM428.756 24V12.6H430.916V24H428.756ZM430.916 17.496L430.1 17.136C430.1 15.68 430.436 14.52 431.108 13.656C431.78 12.792 432.748 12.36 434.012 12.36C434.588 12.36 435.108 12.464 435.572 12.672C436.036 12.864 436.468 13.192 436.868 13.656L435.452 15.12C435.212 14.864 434.948 14.68 434.66 14.568C434.372 14.456 434.036 14.4 433.652 14.4C432.852 14.4 432.196 14.656 431.684 15.168C431.172 15.68 430.916 16.456 430.916 17.496ZM442.862 24.24C441.822 24.24 440.878 23.984 440.03 23.472C439.182 22.944 438.51 22.232 438.014 21.336C437.534 20.44 437.294 19.432 437.294 18.312C437.294 17.192 437.534 16.184 438.014 15.288C438.51 14.392 439.174 13.68 440.006 13.152C440.854 12.624 441.806 12.36 442.862 12.36C443.726 12.36 444.494 12.544 445.166 12.912C445.854 13.264 446.406 13.76 446.822 14.4C447.238 15.024 447.47 15.752 447.518 16.584V20.016C447.47 20.832 447.238 21.56 446.822 22.2C446.422 22.84 445.878 23.344 445.19 23.712C444.518 24.064 443.742 24.24 442.862 24.24ZM443.222 22.2C444.294 22.2 445.158 21.84 445.814 21.12C446.47 20.384 446.798 19.448 446.798 18.312C446.798 17.528 446.646 16.848 446.342 16.272C446.054 15.68 445.638 15.224 445.094 14.904C444.55 14.568 443.918 14.4 443.198 14.4C442.478 14.4 441.838 14.568 441.278 14.904C440.734 15.24 440.302 15.704 439.982 16.296C439.678 16.872 439.526 17.536 439.526 18.288C439.526 19.056 439.678 19.736 439.982 20.328C440.302 20.904 440.742 21.36 441.302 21.696C441.862 22.032 442.502 22.2 443.222 22.2ZM446.654 24V20.928L447.062 18.144L446.654 15.384V12.6H448.838V24H446.654ZM451.982 24V6.864H454.142V24H451.982Z" fill="#FA5242"/>
<path d="M495.48 17.52V15.552H500.016C500.64 15.552 501.192 15.424 501.672 15.168C502.168 14.912 502.552 14.552 502.824 14.088C503.112 13.624 503.256 13.072 503.256 12.432C503.256 11.792 503.112 11.24 502.824 10.776C502.552 10.312 502.168 9.952 501.672 9.696C501.192 9.44 500.64 9.312 500.016 9.312H495.48V7.344H500.16C501.184 7.344 502.096 7.552 502.896 7.968C503.712 8.384 504.352 8.976 504.816 9.744C505.296 10.496 505.536 11.392 505.536 12.432C505.536 13.456 505.296 14.352 504.816 15.12C504.352 15.872 503.712 16.464 502.896 16.896C502.096 17.312 501.184 17.52 500.16 17.52H495.48ZM493.968 24V7.344H496.224V24H493.968ZM508.139 24V12.6H510.299V24H508.139ZM510.299 17.496L509.483 17.136C509.483 15.68 509.819 14.52 510.491 13.656C511.163 12.792 512.131 12.36 513.395 12.36C513.971 12.36 514.491 12.464 514.955 12.672C515.419 12.864 515.851 13.192 516.251 13.656L514.835 15.12C514.595 14.864 514.331 14.68 514.043 14.568C513.755 14.456 513.419 14.4 513.035 14.4C512.235 14.4 511.579 14.656 511.067 15.168C510.555 15.68 510.299 16.456 510.299 17.496ZM522.677 24.24C521.541 24.24 520.517 23.984 519.605 23.472C518.693 22.944 517.973 22.232 517.445 21.336C516.917 20.44 516.653 19.424 516.653 18.288C516.653 17.168 516.909 16.16 517.421 15.264C517.949 14.368 518.653 13.664 519.533 13.152C520.429 12.624 521.429 12.36 522.533 12.36C523.589 12.36 524.517 12.6 525.317 13.08C526.133 13.56 526.765 14.224 527.213 15.072C527.677 15.92 527.909 16.88 527.909 17.952C527.909 18.112 527.901 18.288 527.885 18.48C527.869 18.656 527.837 18.864 527.789 19.104H518.165V17.304H526.637L525.845 18C525.845 17.232 525.709 16.584 525.437 16.056C525.165 15.512 524.781 15.096 524.285 14.808C523.789 14.504 523.189 14.352 522.485 14.352C521.749 14.352 521.101 14.512 520.541 14.832C519.981 15.152 519.549 15.6 519.245 16.176C518.941 16.752 518.789 17.432 518.789 18.216C518.789 19.016 518.949 19.72 519.269 20.328C519.589 20.92 520.045 21.384 520.637 21.72C521.229 22.04 521.909 22.2 522.677 22.2C523.317 22.2 523.901 22.088 524.429 21.864C524.973 21.64 525.437 21.304 525.821 20.856L527.213 22.272C526.669 22.912 525.997 23.4 525.197 23.736C524.413 24.072 523.573 24.24 522.677 24.24ZM535.472 24.24C534.352 24.24 533.336 23.976 532.424 23.448C531.528 22.92 530.816 22.208 530.288 21.312C529.776 20.4 529.52 19.392 529.52 18.288C529.52 17.168 529.776 16.16 530.288 15.264C530.816 14.368 531.528 13.664 532.424 13.152C533.336 12.624 534.352 12.36 535.472 12.36C536.352 12.36 537.168 12.528 537.92 12.864C538.672 13.184 539.32 13.656 539.864 14.28L538.424 15.72C538.072 15.304 537.64 14.992 537.128 14.784C536.632 14.56 536.08 14.448 535.472 14.448C534.752 14.448 534.112 14.616 533.552 14.952C532.992 15.272 532.552 15.72 532.232 16.296C531.912 16.872 531.752 17.536 531.752 18.288C531.752 19.04 531.912 19.704 532.232 20.28C532.552 20.856 532.992 21.312 533.552 21.648C534.112 21.984 534.752 22.152 535.472 22.152C536.08 22.152 536.632 22.048 537.128 21.84C537.64 21.616 538.08 21.296 538.448 20.88L539.864 22.32C539.336 22.928 538.688 23.4 537.92 23.736C537.168 24.072 536.352 24.24 535.472 24.24ZM542.03 24V12.6H544.19V24H542.03ZM543.11 10.32C542.71 10.32 542.382 10.192 542.126 9.936C541.87 9.664 541.742 9.328 541.742 8.928C541.742 8.544 541.87 8.224 542.126 7.968C542.382 7.696 542.71 7.56 543.11 7.56C543.51 7.56 543.838 7.696 544.094 7.968C544.35 8.224 544.478 8.544 544.478 8.928C544.478 9.328 544.35 9.664 544.094 9.936C543.838 10.192 543.51 10.32 543.11 10.32ZM550.997 24.24C550.357 24.24 549.749 24.16 549.173 24C548.613 23.824 548.093 23.584 547.613 23.28C547.133 22.96 546.717 22.584 546.365 22.152L547.757 20.76C548.173 21.272 548.653 21.656 549.197 21.912C549.741 22.152 550.349 22.272 551.021 22.272C551.693 22.272 552.213 22.16 552.581 21.936C552.949 21.696 553.133 21.368 553.133 20.952C553.133 20.536 552.981 20.216 552.677 19.992C552.389 19.752 552.013 19.56 551.549 19.416C551.085 19.256 550.589 19.104 550.061 18.96C549.549 18.8 549.061 18.6 548.597 18.36C548.133 18.12 547.749 17.792 547.445 17.376C547.157 16.96 547.013 16.408 547.013 15.72C547.013 15.032 547.181 14.44 547.517 13.944C547.853 13.432 548.317 13.04 548.909 12.768C549.517 12.496 550.245 12.36 551.093 12.36C551.989 12.36 552.781 12.52 553.469 12.84C554.173 13.144 554.749 13.608 555.197 14.232L553.805 15.624C553.485 15.208 553.085 14.888 552.605 14.664C552.141 14.44 551.613 14.328 551.021 14.328C550.397 14.328 549.917 14.44 549.581 14.664C549.261 14.872 549.101 15.168 549.101 15.552C549.101 15.936 549.245 16.232 549.533 16.44C549.821 16.648 550.197 16.824 550.661 16.968C551.141 17.112 551.637 17.264 552.149 17.424C552.661 17.568 553.149 17.768 553.613 18.024C554.077 18.28 554.453 18.624 554.741 19.056C555.045 19.488 555.197 20.056 555.197 20.76C555.197 21.832 554.813 22.68 554.045 23.304C553.293 23.928 552.277 24.24 550.997 24.24ZM562.895 24.24C561.759 24.24 560.735 23.984 559.823 23.472C558.911 22.944 558.191 22.232 557.663 21.336C557.135 20.44 556.871 19.424 556.871 18.288C556.871 17.168 557.127 16.16 557.639 15.264C558.167 14.368 558.871 13.664 559.751 13.152C560.647 12.624 561.647 12.36 562.751 12.36C563.807 12.36 564.735 12.6 565.535 13.08C566.351 13.56 566.983 14.224 567.431 15.072C567.895 15.92 568.127 16.88 568.127 17.952C568.127 18.112 568.119 18.288 568.103 18.48C568.087 18.656 568.055 18.864 568.007 19.104H558.383V17.304H566.855L566.063 18C566.063 17.232 565.927 16.584 565.655 16.056C565.383 15.512 564.999 15.096 564.503 14.808C564.007 14.504 563.407 14.352 562.703 14.352C561.967 14.352 561.319 14.512 560.759 14.832C560.199 15.152 559.767 15.6 559.463 16.176C559.159 16.752 559.007 17.432 559.007 18.216C559.007 19.016 559.167 19.72 559.487 20.328C559.807 20.92 560.263 21.384 560.855 21.72C561.447 22.04 562.127 22.2 562.895 22.2C563.535 22.2 564.119 22.088 564.647 21.864C565.191 21.64 565.655 21.304 566.039 20.856L567.431 22.272C566.887 22.912 566.215 23.4 565.415 23.736C564.631 24.072 563.791 24.24 562.895 24.24Z" fill="#FA5242"/>
</svg>
