<svg width="394" height="250" viewBox="0 0 394 250" fill="none" xmlns="http://www.w3.org/2000/svg">
<path d="M135.263 149.6L134.262 149.599L1.99902 149.501L1 149.5V135.14L2.00098 135.141L134.264 135.239H135.263V149.6Z" fill="#FA5242" stroke="#3D30FC" stroke-width="2"/>
<path d="M144.011 128.582C151.524 128.582 157.615 134.669 157.615 142.18C157.615 149.69 151.524 155.777 144.011 155.777C136.498 155.777 130.406 149.69 130.406 142.18C130.406 134.669 136.498 128.582 144.011 128.582Z" fill="#FA5242" stroke="#3D30FC" stroke-width="2"/>
<path d="M129.5 136.238L133.305 136.238V148.598H129.5V136.238Z" fill="#FA5242"/>
<ellipse cx="144.009" cy="142.182" rx="9.2751" ry="9.27011" fill="#F6D34A"/>
<ellipse cx="144.008" cy="142.181" rx="5.94557" ry="5.94238" fill="#FFFFFB"/>
<path d="M2 138.619L136.641 138.619V146.225H2V138.619Z" fill="#F6D34A"/>
<path d="M2 140.041H142.829V144.795H2V140.041Z" fill="#FFFFFB"/>
<path d="M155.795 116.103H154.795L2 116.104H1V122.547H2L154.795 122.546H155.795V116.103Z" fill="#FA5242" stroke="#3D30FC" stroke-width="2"/>
<path d="M155.47 126.99C159.582 126.99 162.916 123.658 162.916 119.547C162.916 115.436 159.582 112.104 155.47 112.104C151.358 112.105 148.024 115.436 148.023 119.547C148.023 123.658 151.358 126.99 155.47 126.99Z" fill="#FA5242" stroke="#3D30FC" stroke-width="2"/>
<path d="M146 121.5H150V117H146V121.5Z" fill="#FA5242"/>
<ellipse cx="4.66808" cy="4.66563" rx="4.66808" ry="4.66563" transform="matrix(1 0 0 -1 150.797 124.213)" fill="#F6D34A"/>
<ellipse cx="2.88977" cy="2.88825" rx="2.88977" ry="2.88825" transform="matrix(1 0 0 -1 152.562 122.432)" fill="#FFFFFB"/>
<path d="M2 120.654H151.683V117.988H2V120.654Z" fill="#F6D34A"/>
<path d="M2 119.768L154.796 119.768V118.879L2 118.879V119.768Z" fill="#FFFFFB"/>
<path d="M257.362 132.482H183.545L182.012 130.951L171.795 130.695L168.73 133.759C167.197 135.291 164.898 140.141 164.898 142.949C164.898 145.757 167.453 149.842 168.73 150.863C169.752 151.68 171.88 152.225 172.817 152.395H257.362C260.172 152.395 266.558 152.395 271.155 149.332C274.834 146.881 278.818 143.715 280.351 142.439C278.818 141.162 274.834 137.997 271.155 135.546C266.558 132.482 260.172 132.482 257.362 132.482Z" fill="#FA5242"/>
<path d="M173.336 152.407L218.802 152.409L224.676 140.921H184.83L179.722 132.232L173.847 131.977L175.124 144.231V150.875L173.336 152.407Z" fill="#6B1E04"/>
<path d="M270.65 143.465C272.285 144.69 277.802 143.295 280.357 142.444C278.994 143.635 275.963 146.171 274.737 146.784C273.511 147.396 270.14 148.401 268.607 148.826L258.39 151.89H248.939H240.766V140.657C245.789 140.742 256.142 140.708 257.368 139.891C258.901 138.87 261.455 139.125 262.221 139.891C262.988 140.657 263.498 144.231 264.776 144.486C265.797 144.69 267.756 140.997 268.607 139.125C268.607 140.061 269.016 142.24 270.65 143.465Z" fill="#BD2D0A"/>
<path d="M246.392 150.099L248.435 146.525C248.435 146.525 251.287 145.535 253.033 144.738C254.778 143.94 257.375 142.44 257.375 142.44L248.18 141.93L247.669 132.229H236.43L231.833 139.121H174.617V144.482L176.661 146.525C178.023 147.12 181.412 148.312 184.068 148.312C186.724 148.312 189.262 147.971 190.198 147.801H212.676L211.654 150.865L207.312 152.397H254.565C259.163 152.397 262.739 152.469 266.57 151.375C270.146 150.354 270.657 150.099 275.51 146.27C272.53 147.206 266.162 149.639 264.527 149.844C262.892 150.048 260.951 149.418 260.185 149.078L257.12 150.099L253.799 147.801L249.201 150.099H246.392Z" fill="url(#paint0_linear_3022_18283)"/>
<path d="M247.149 138.353C250.214 138.761 255.748 140.991 258.132 142.182C255.748 143.374 250.214 145.348 247.149 145.756C244.083 146.165 242.551 146.267 241.785 146.267H174.863L172.82 147.288V146.267H151.364L148.81 148.054H146V136.311H148.81L151.364 138.098H172.82V137.076L174.863 138.098H241.785C242.551 138.098 244.083 137.944 247.149 138.353Z" fill="#D7E0E9"/>
<path d="M246.961 142.442C250.026 142.851 256.667 142.442 258.2 142.187C255.816 143.379 250.281 145.353 247.216 145.761C244.151 146.17 242.619 146.272 241.852 146.272H174.931L172.888 147.293V146.272H151.432L148.878 148.059H146V141.166H150.41L151.943 142.442H174.931H241.342C242.108 142.442 243.896 142.034 246.961 142.442Z" fill="#83A4A5"/>
<path d="M256.34 134.526H245.867L246.378 133.76H257.361L256.34 134.526Z" fill="#FB8E84"/>
<path d="M235.658 134.526H193.258L193.769 133.76H236.68L235.658 134.526Z" fill="#FB8E84"/>
<path d="M151.625 138.102H152.391V146.271H151.625V138.102Z" fill="#6D684B"/>
<path d="M160.82 138.102H161.587V146.271H160.82V138.102Z" fill="#6D684B"/>
<path d="M153.664 138.102H154.43V146.271H153.664V138.102Z" fill="#6D684B"/>
<path d="M162.859 138.102H163.626V146.271H162.859V138.102Z" fill="#6D684B"/>
<path d="M172.055 138.102H172.821V146.271H172.055V138.102Z" fill="#6D684B"/>
<path d="M174.867 138.102H175.633V146.271H174.867V138.102Z" fill="#6D684B"/>
<path d="M184.312 138.102H185.079V146.271H184.312V138.102Z" fill="#6D684B"/>
<path d="M204.234 138.102H205.001V146.271H204.234V138.102Z" fill="#6D684B"/>
<path d="M225.188 138.102H225.954V146.271H225.188V138.102Z" fill="#6D684B"/>
<path d="M236.422 138.102H237.188V146.271H236.422V138.102Z" fill="#6D684B"/>
<path d="M234.896 143.208L236.173 142.698L234.896 141.932H191.985L188.664 142.698L191.985 143.208H234.896Z" fill="#6F6F57"/>
<path d="M155.713 97H150.094C150.446 97.6801 150.852 98.4594 151.291 99.2976C153.594 103.699 156.789 109.725 157.747 111.552C157.885 111.815 157.976 111.991 158.012 112.062C158.523 113.083 158.523 113.083 158.523 114.36C158.523 115.636 158.012 115.892 157.246 116.402C156.945 116.602 156.479 116.959 156.479 117.168V121.253C156.479 121.763 156.65 122.019 157.501 122.529C158.778 123.295 161.013 124.571 161.332 125.848C161.429 126.234 161.444 126.574 161.332 126.895C161.076 127.635 160.149 128.277 158.012 129.167C155.55 130.192 157.257 130.508 158.778 130.698C160.105 130.864 167.359 131.245 174.87 131.492C176.669 131.551 178.483 131.603 180.234 131.642C182.428 131.69 184.522 131.72 186.364 131.72C195.049 131.72 220.769 130.957 226.211 130.698C231.574 130.443 240.205 129.321 242.047 128.401C244.09 127.38 243.685 126.165 243.324 125.082C242.983 124.061 240.259 122.529 238.471 121.763C236.683 120.997 235.661 120.487 234.895 120.231C233.873 119.891 233.229 119.717 232.852 119.466C232.456 119.202 231.522 118.429 230.867 117.871C230.254 117.349 229.91 117.036 229.787 116.913C229.531 116.657 228.509 116.147 227.488 116.147H175.636L155.713 97Z" fill="#F1EFF2"/>
<path d="M229.057 117.641L229.786 116.912C229.91 117.035 230.254 117.348 230.867 117.87L230.144 118.699C229.954 118.917 229.679 119.042 229.39 119.042H228.577C228.333 119.042 228.098 118.951 227.917 118.787C227.585 118.486 227.798 117.933 228.247 117.933H228.35C228.616 117.933 228.87 117.828 229.057 117.641Z" fill="black"/>
<path d="M153.117 99.041H150.852C153.155 103.442 156.35 109.469 157.307 111.295H161.106C161.924 111.295 162.396 110.366 161.914 109.706L154.733 99.8623C154.356 99.3462 153.756 99.041 153.117 99.041Z" stroke="black"/>
<path d="M156.214 97H155.703L175.645 116.147L175.371 115.126L156.214 97Z" fill="black"/>
<path d="M236.415 123.55L236.159 120.742L235.648 120.486L235.904 123.805L236.415 123.55Z" fill="#797979"/>
<path d="M167.715 119.463C165.263 119.871 157.413 119.633 156.477 119.463V121.318L158.906 122.742C160.604 123.738 161.772 125.435 162.096 127.377L167.971 129.232L196.323 129.998L197.855 123.871L191.981 120.994H182.785C180.231 120.994 179.209 118.952 176.655 118.697C174.101 118.441 170.78 118.952 167.715 119.463Z" fill="#D8DCDF"/>
<path d="M230.655 124.382C231.081 124.456 231.597 124.58 232.334 124.825L227.176 121.604C226.541 121.207 225.806 120.996 225.057 120.996H192.859C191.968 120.996 191.522 122.073 192.152 122.703L192.567 123.118C193.197 123.748 192.751 124.825 191.86 124.825H185.379C185.034 124.825 184.714 125.003 184.531 125.295L182.781 128.093C186.609 128.32 191.52 128.655 198.107 128.655C205.492 128.655 219.59 128.216 227.105 127.949C228.013 127.917 228.708 127.14 228.647 126.234C228.575 125.153 229.588 124.197 230.655 124.382Z" fill="#9DB3B1"/>
<path d="M243.39 125.081C243.05 124.059 240.325 122.528 238.537 121.762C239.048 122.272 240.836 123.804 240.58 125.336C240.453 126.102 238.771 126.16 237.004 125.846C235.65 125.606 233.405 124.647 232.407 124.315C231.67 124.069 231.154 123.945 230.728 123.871C229.661 123.686 228.648 124.642 228.72 125.723C228.781 126.629 228.086 127.406 227.178 127.438C219.663 127.706 205.565 128.144 198.18 128.144C191.593 128.144 186.682 127.809 182.854 127.582C180.893 127.466 179.217 127.378 177.746 127.378C173.404 127.378 169.828 128.144 167.018 127.889C164.77 127.684 162.272 127.14 161.335 126.893C161.078 127.633 160.152 128.275 158.015 129.165C155.553 130.19 157.26 130.507 158.781 130.697C160.108 130.863 167.425 131.244 174.936 131.491C176.735 131.55 178.549 131.601 180.3 131.64C182.494 131.689 184.588 131.718 186.43 131.718C195.115 131.718 220.835 130.956 226.277 130.697C231.641 130.442 240.271 129.32 242.113 128.399C244.156 127.378 243.751 126.163 243.39 125.081Z" fill="#010103"/>
<defs>
<linearGradient id="paint0_linear_3022_18283" x1="225.191" y1="141.164" x2="225.191" y2="141.674" gradientUnits="userSpaceOnUse">
<stop stop-color="#952D12"/>
<stop offset="1" stop-color="#281F10"/>
</linearGradient>
</defs>
</svg>
