<svg width="1203" height="117" viewBox="0 0 1203 117" fill="none" xmlns="http://www.w3.org/2000/svg">
<path d="M958.998 39V51H1.5V39H958.998Z" fill="#FA5242" stroke="#3D30FC" stroke-width="2"/>
<circle cx="959.5" cy="44.5" r="15.5" fill="#FA5242" stroke="#3D30FC" stroke-width="2"/>
<path d="M942.5 40H946.5V50H942.5V40Z" fill="#FA5242"/>
<circle cx="959.5" cy="44.5" r="10.5" fill="#F6D34A"/>
<circle cx="959.5" cy="44.5" r="6.5" fill="#FFFFFB"/>
<path d="M2.5 42H950.998V48H2.5V42Z" fill="#F6D34A"/>
<path d="M2.5 44H957.998V46H2.5V44Z" fill="#FFFFFB"/>
<path d="M916 75V103H1V75H916Z" fill="#FA5242" stroke="#3D30FC" stroke-width="2"/>
<circle cx="935.5" cy="88.5" r="27.5" fill="#FA5242" stroke="#3D30FC" stroke-width="2"/>
<path d="M905 76L913 76V102H905V76Z" fill="#FA5242"/>
<circle cx="935.5" cy="88.5" r="19.5" fill="#F6D34A"/>
<circle cx="935.5" cy="88.5" r="12.5" fill="#FFFFFB"/>
<path d="M2.5 81L920.003 81V97H2.5V81Z" fill="#F6D34A"/>
<path d="M2.5 84L933.003 84V94H2.5V84Z" fill="#FFFFFB"/>
<path d="M1158 69.5H1013.5L1010.5 66.5L990.5 66L984.5 72C981.5 75 977 84.5 977 90C977 95.5 982 103.5 984.5 105.5C986.5 107.1 990.667 108.167 992.5 108.5H1158C1163.5 108.5 1176 108.5 1185 102.5C1192.2 97.7 1200 91.5 1203 89C1200 86.5 1192.2 80.3 1185 75.5C1176 69.5 1163.5 69.5 1158 69.5Z" fill="#FA5242"/>
<path d="M993.5 108.514L1082.5 108.518L1094 86.0176H1016L1006 69L994.5 68.5L997 92.5V105.514L993.5 108.514Z" fill="#6B1E04"/>
<path d="M1184 91C1187.2 93.4 1198 90.6667 1203 89C1200.33 91.3333 1194.4 96.3 1192 97.5C1189.6 98.7 1183 100.667 1180 101.5L1160 107.5H1141.5H1125.5V85.5C1135.33 85.6667 1155.6 85.6 1158 84C1161 82 1166 82.5 1167.5 84C1169 85.5 1170 92.5 1172.5 93C1174.5 93.4 1178.33 86.1667 1180 82.5C1180 84.3333 1180.8 88.6 1184 91Z" fill="#BD2D0A"/>
<path d="M1136.5 104L1140.5 97C1140.5 97 1146.08 95.0621 1149.5 93.5C1152.92 91.9379 1158 89 1158 89L1140 88L1139 69H1117L1108 82.5H996V93L1000 97C1002.67 98.1667 1009.3 100.5 1014.5 100.5C1019.7 100.5 1024.67 99.8333 1026.5 99.5H1070.5L1068.5 105.5L1060 108.5H1152.5C1161.5 108.5 1168.5 108.643 1176 106.5C1183 104.5 1184 104 1193.5 96.5C1187.67 98.3333 1175.2 103.1 1172 103.5C1168.8 103.9 1165 102.667 1163.5 102L1157.5 104L1151 99.5L1142 104H1136.5Z" fill="url(#paint0_linear_3005_17609)"/>
<path d="M1138 81C1144 81.8 1154.83 86.167 1159.5 88.5003C1154.83 90.8336 1144 94.7 1138 95.5C1132 96.3 1129 96.5 1127.5 96.4997H996.5L992.5 98.5V96.4997H950.5L945.5 100H940V77H945.5L950.5 80.5003H992.5V78.5L996.5 80.5003H1127.5C1129 80.5003 1132 80.2 1138 81Z" fill="#D7E0E9"/>
<path d="M1137.63 89C1143.63 89.8 1156.63 89 1159.63 88.5003C1154.97 90.8336 1144.13 94.7 1138.13 95.5C1132.13 96.3 1129.13 96.5 1127.63 96.4997H996.633L992.633 98.5V96.4997H950.633L945.633 100H940V86.5H948.633L951.633 89H996.633H1126.63C1128.13 89 1131.63 88.2 1137.63 89Z" fill="#83A4A5"/>
<path d="M1156 73.5H1135.5L1136.5 72H1158L1156 73.5Z" fill="#FB8E84"/>
<path d="M1115.5 73.5H1032.5L1033.5 72H1117.5L1115.5 73.5Z" fill="#FB8E84"/>
<path d="M951 80.5H952.5V96.5H951V80.5Z" fill="#6D684B"/>
<path d="M969 80.5H970.5V96.5H969V80.5Z" fill="#6D684B"/>
<path d="M955 80.5H956.5V96.5H955V80.5Z" fill="#6D684B"/>
<path d="M973 80.5H974.5V96.5H973V80.5Z" fill="#6D684B"/>
<path d="M991 80.5H992.5V96.5H991V80.5Z" fill="#6D684B"/>
<path d="M996.5 80.5H998V96.5H996.5V80.5Z" fill="#6D684B"/>
<path d="M1015 80.5H1016.5V96.5H1015V80.5Z" fill="#6D684B"/>
<path d="M1054 80.5H1055.5V96.5H1054V80.5Z" fill="#6D684B"/>
<path d="M1095 80.5H1096.5V96.5H1095V80.5Z" fill="#6D684B"/>
<path d="M1117 80.5H1118.5V96.5H1117V80.5Z" fill="#6D684B"/>
<path d="M1114 90.5L1116.5 89.5L1114 88H1030L1023.5 89.5L1030 90.5H1114Z" fill="#6F6F57"/>
<path d="M959 0H948C948.69 1.33193 949.485 2.85821 950.344 4.5C954.852 13.1197 961.107 24.9232 962.981 28.5C963.251 29.0159 963.43 29.3606 963.5 29.5C964.5 31.5 964.5 31.5 964.5 34C964.5 36.5 963.5 37 962 38C961.412 38.3922 960.5 39.0904 960.5 39.5V47.5C960.5 48.5 960.833 49 962.5 50C965 51.5 969.375 54 970 56.5C970.189 57.2566 970.218 57.9216 970 58.5504C969.498 59.9995 967.684 61.2566 963.5 63C958.681 65.0078 962.023 65.6279 965 66C967.598 66.3248 981.797 67.0714 996.5 67.5548C1000.02 67.6706 1003.57 67.7713 1007 67.8475C1011.29 67.943 1015.39 68 1019 68C1036 68 1086.35 66.5072 1097 66C1107.5 65.5 1124.39 63.3028 1128 61.5C1132 59.5 1131.21 57.1207 1130.5 55C1129.83 53 1124.5 50 1121 48.5C1117.5 47 1115.5 46 1114 45.5C1112 44.8333 1110.74 44.4931 1110 44C1109.22 43.4833 1107.4 41.9697 1106.12 40.8767C1104.92 39.8546 1104.24 39.2416 1104 39C1103.5 38.5 1101.5 37.5 1099.5 37.5H998L959 0Z" fill="#F1EFF2"/>
<path d="M1102.29 40.7071L1104 39C1104.24 39.2416 1104.92 39.8546 1106.12 40.8767L1104.41 42.8278C1104.22 43.0456 1103.95 43.1706 1103.66 43.1706H1101.28C1101.03 43.1706 1100.79 43.0781 1100.6 42.911L1099.46 41.8702C1099.12 41.5628 1099.34 41 1099.79 41H1101.59C1101.85 41 1102.11 40.8946 1102.29 40.7071Z" fill="black"/>
<path d="M954.908 4H949.5C954.009 12.6197 960.263 24.4232 962.137 28H971.458C972.276 28 972.748 27.0717 972.266 26.4108L956.524 4.82166C956.148 4.30534 955.547 4 954.908 4Z" stroke="black"/>
<path d="M960 0H959L998.036 37.5L997.5 35.5L960 0Z" fill="black"/>
<path d="M1117 52L1116.5 46.5L1115.5 46L1116 52.5L1117 52Z" fill="#797979"/>
<path d="M982.5 44C977.7 44.8 962.333 44.3337 960.5 44.0004V47.6332L967.676 51.8434C969.466 52.8934 970.697 54.6834 971.038 56.7301L971.5 59.5004L983 63.1332L1038.5 64.6332L1041.5 52.6332L1030 46.9998H1012C1007 46.9998 1005 43 1000 42.5C995 42 988.5 43 982.5 44Z" fill="#D8DCDF"/>
<path d="M1104.17 53.4274C1105.37 53.5567 1106.57 53.6904 1109 54.5L1097.97 47.608C1097.34 47.2107 1096.6 47 1095.85 47H1029.41C1028.52 47 1028.08 48.0771 1028.71 48.7071L1032.79 52.7929C1033.42 53.4229 1032.98 54.5 1032.09 54.5H1016.55C1016.21 54.5 1015.89 54.6776 1015.71 54.97L1012 60.8999C1019.49 61.3442 1029.11 62 1042 62C1056.86 62 1085.59 61.0931 1099.95 60.5748C1101.08 60.5341 1101.94 59.5698 1101.86 58.4446L1101.68 55.6995C1101.59 54.3576 1102.83 53.2835 1104.17 53.4274Z" fill="#9DB3B1"/>
<path d="M1130.62 55C1129.96 53 1124.62 50 1121.12 48.5C1122.12 49.5 1125.62 52.5 1125.12 55.5C1124.87 57 1121.58 57.1148 1118.12 56.5C1115.47 56.0285 1111.08 54.1511 1109.12 53.5C1106.7 52.6904 1105.5 52.5567 1104.29 52.4274C1102.96 52.2835 1101.71 53.3576 1101.8 54.6995L1101.99 57.4446C1102.06 58.5698 1101.2 59.5341 1100.08 59.5748C1085.71 60.0931 1056.98 61 1042.12 61C1029.23 61 1019.62 60.3442 1012.12 59.8999C1008.29 59.6722 1005 59.5 1002.12 59.5C993.624 59.5 986.624 61 981.124 60.5C976.724 60.1 971.833 59.0336 970 58.5504C969.497 59.9995 967.684 61.2566 963.5 63C958.681 65.0078 962.023 65.6279 965 66C967.598 66.3248 981.921 67.0714 996.624 67.5548C1000.15 67.6706 1003.7 67.7713 1007.12 67.8475C1011.42 67.943 1015.52 68 1019.12 68C1036.12 68 1086.47 66.5072 1097.12 66C1107.62 65.5 1124.52 63.3028 1128.12 61.5C1132.12 59.5 1131.33 57.1207 1130.62 55Z" fill="#010103"/>
<defs>
<linearGradient id="paint0_linear_3005_17609" x1="1095" y1="86.5" x2="1095" y2="87.5" gradientUnits="userSpaceOnUse">
<stop stop-color="#952D12"/>
<stop offset="1" stop-color="#281F10"/>
</linearGradient>
</defs>
</svg>
