<svg width="3798" height="181" viewBox="0 0 3798 181" fill="none" xmlns="http://www.w3.org/2000/svg">
<path d="M133.434 68.239C82.7944 66.2338 67 99 0 86V0H1899H3798V86C3742 69 3711.87 53.3395 3645.46 56.1468C3562.44 59.6559 3525.08 119.812 3435.84 129.337C3346.6 138.862 3317.54 89.734 3208.58 88.7314C3099.62 87.7288 3017.13 181.974 2830.86 179.968C2644.59 177.963 2639.92 75.1963 2539.26 74.1937C2438.61 73.1911 2419.93 134.35 2294.88 150.893C2169.84 167.436 2096.16 70.6849 2032.86 68.1784C1982.22 66.1732 1965 84.4395 1899 80.9395C1852 76.5 1812.44 53.4 1746.03 56.2073C1663.01 59.7164 1625.65 119.873 1536.41 129.397C1447.17 138.922 1418.11 89.7946 1309.15 88.792C1200.2 87.7894 1117.7 182.034 931.43 180.029C745.162 178.024 740.492 75.2569 639.835 74.2543C539.177 73.2517 520.498 134.41 395.455 150.953C270.411 167.496 196.734 70.7455 133.434 68.239Z" fill="url(#paint0_linear_3005_17337)"/>
<defs>
<linearGradient id="paint0_linear_3005_17337" x1="1899" y1="0" x2="1899" y2="180.06" gradientUnits="userSpaceOnUse">
<stop stop-color="#1B2E9C"/>
<stop offset="1" stop-color="#2C48E5"/>
</linearGradient>
</defs>
</svg>
