<svg width="708" height="203" viewBox="0 0 708 203" fill="none" xmlns="http://www.w3.org/2000/svg">
<rect x="0.5" y="0.5" width="707" height="202" rx="23.5" fill="url(#paint0_linear_2985_10005)"/>
<rect x="0.5" y="0.5" width="707" height="202" rx="23.5" stroke="url(#paint1_linear_2985_10005)"/>
<rect x="24.5" y="24.5" width="203" height="154" rx="15.5" fill="url(#paint2_linear_2985_10005)"/>
<rect x="24.5" y="24.5" width="203" height="154" rx="15.5" stroke="url(#paint3_linear_2985_10005)"/>
<path d="M124.692 96.528C122.356 96.528 120.164 96.128 118.116 95.328C116.1 94.496 114.42 93.312 113.076 91.776L117.972 86.928C118.58 87.824 119.46 88.56 120.612 89.136C121.796 89.68 123.076 89.952 124.452 89.952C125.668 89.952 126.724 89.744 127.62 89.328C128.516 88.88 129.22 88.256 129.732 87.456C130.244 86.624 130.5 85.664 130.5 84.576C130.5 83.456 130.244 82.496 129.732 81.696C129.22 80.896 128.5 80.288 127.572 79.872C126.676 79.424 125.652 79.2 124.5 79.2C123.348 79.2 122.292 79.36 121.332 79.68C120.372 79.968 119.492 80.416 118.692 81.024L119.316 76.224C120.052 75.648 120.756 75.184 121.428 74.832C122.1 74.448 122.836 74.16 123.636 73.968C124.436 73.776 125.38 73.68 126.468 73.68C128.964 73.68 131.06 74.192 132.756 75.216C134.484 76.24 135.78 77.6 136.644 79.296C137.54 80.992 137.988 82.864 137.988 84.912C137.988 87.152 137.428 89.152 136.308 90.912C135.22 92.672 133.684 94.048 131.7 95.04C129.716 96.032 127.38 96.528 124.692 96.528ZM118.692 81.024L115.428 78L117.06 62.112H123.876L122.1 77.856L118.692 81.024ZM118.068 68.496L117.06 62.112H136.116V68.496H118.068Z" fill="#FA5242"/>
<path d="M94.5 149.797C94.5 148.724 94.5156 147.703 94.5469 146.734C94.5885 145.766 94.625 144.839 94.6562 143.953C94.6875 143.068 94.7083 142.219 94.7188 141.406C94.7292 140.583 94.7031 139.786 94.6406 139.016C94.5885 139.047 94.526 139.099 94.4531 139.172C94.3906 139.245 94.3229 139.318 94.25 139.391C94.1875 139.464 94.1198 139.531 94.0469 139.594C93.974 139.646 93.9115 139.672 93.8594 139.672C93.776 139.672 93.6979 139.641 93.625 139.578C93.5625 139.505 93.5312 139.417 93.5312 139.312V139.266C93.5312 139.255 93.5365 139.24 93.5469 139.219C93.6406 139.104 93.75 138.922 93.875 138.672C94.0104 138.422 94.151 138.172 94.2969 137.922C94.4531 137.672 94.599 137.453 94.7344 137.266C94.8802 137.068 95.0052 136.969 95.1094 136.969C95.2135 136.969 95.2917 136.995 95.3438 137.047C95.3958 137.099 95.4375 137.161 95.4688 137.234C95.5104 137.307 95.5469 137.385 95.5781 137.469C95.6198 137.552 95.6823 137.62 95.7656 137.672C96.1198 137.464 96.5052 137.286 96.9219 137.141C97.3385 136.984 97.7552 136.88 98.1719 136.828C98.599 136.766 99.0104 136.755 99.4062 136.797C99.8021 136.828 100.161 136.922 100.484 137.078C100.818 137.234 101.099 137.458 101.328 137.75C101.557 138.042 101.708 138.406 101.781 138.844C101.771 139.417 101.604 139.953 101.281 140.453C100.958 140.953 100.562 141.411 100.094 141.828C99.625 142.234 99.1198 142.599 98.5781 142.922C98.0365 143.234 97.5365 143.51 97.0781 143.75C96.6198 143.979 96.2448 144.161 95.9531 144.297C95.6615 144.432 95.526 144.516 95.5469 144.547L95.3438 149.766C95.3438 149.849 95.3073 149.911 95.2344 149.953C95.1615 149.984 95.0781 150 94.9844 150C94.8906 149.99 94.7969 149.969 94.7031 149.938C94.6094 149.896 94.5417 149.849 94.5 149.797ZM95.5469 143.453C96.0781 143.255 96.6302 143.026 97.2031 142.766C97.776 142.505 98.3125 142.208 98.8125 141.875C99.3125 141.531 99.75 141.146 100.125 140.719C100.51 140.281 100.771 139.781 100.906 139.219C100.823 138.625 100.589 138.198 100.203 137.938C99.8281 137.667 99.375 137.531 98.8438 137.531C98.3229 137.521 97.7656 137.63 97.1719 137.859C96.5885 138.078 96.0469 138.385 95.5469 138.781V143.453ZM104.953 149.844C104.807 149.625 104.714 149.339 104.672 148.984C104.641 148.63 104.62 148.26 104.609 147.875C104.609 147.479 104.609 147.094 104.609 146.719C104.62 146.333 104.594 146.005 104.531 145.734C104.042 146.807 103.578 147.646 103.141 148.25C102.714 148.844 102.318 149.271 101.953 149.531C101.599 149.781 101.276 149.896 100.984 149.875C100.693 149.844 100.443 149.74 100.234 149.562C100.036 149.375 99.8802 149.151 99.7656 148.891C99.651 148.62 99.5885 148.365 99.5781 148.125C99.5052 147.729 99.5 147.255 99.5625 146.703C99.6354 146.141 99.7552 145.562 99.9219 144.969C100.099 144.375 100.318 143.797 100.578 143.234C100.849 142.661 101.151 142.167 101.484 141.75C101.828 141.333 102.193 141.026 102.578 140.828C102.964 140.62 103.365 140.583 103.781 140.719C103.99 140.698 104.161 140.708 104.297 140.75C104.443 140.781 104.562 140.854 104.656 140.969C104.75 141.083 104.818 141.245 104.859 141.453C104.901 141.651 104.932 141.906 104.953 142.219C104.932 143.229 104.958 144.089 105.031 144.797C105.115 145.505 105.208 146.13 105.312 146.672C105.417 147.214 105.516 147.703 105.609 148.141C105.714 148.578 105.776 149.031 105.797 149.5C105.797 149.667 105.755 149.797 105.672 149.891C105.589 149.974 105.495 150.026 105.391 150.047C105.286 150.078 105.188 150.073 105.094 150.031C105.01 149.99 104.964 149.927 104.953 149.844ZM104.047 141.953C103.797 141.62 103.526 141.479 103.234 141.531C102.943 141.583 102.651 141.766 102.359 142.078C102.078 142.38 101.807 142.781 101.547 143.281C101.286 143.771 101.062 144.297 100.875 144.859C100.688 145.422 100.547 145.984 100.453 146.547C100.37 147.099 100.354 147.589 100.406 148.016C100.552 148.484 100.729 148.766 100.938 148.859C101.146 148.953 101.37 148.922 101.609 148.766C101.849 148.599 102.094 148.339 102.344 147.984C102.594 147.63 102.833 147.25 103.062 146.844C103.292 146.427 103.495 146.016 103.672 145.609C103.859 145.193 104.01 144.844 104.125 144.562L104.047 141.953ZM106.594 149.703C106.562 148.266 106.536 147.047 106.516 146.047C106.495 145.047 106.479 144.219 106.469 143.562C106.458 142.906 106.448 142.396 106.438 142.031C106.438 141.656 106.432 141.38 106.422 141.203C106.422 141.026 106.422 140.922 106.422 140.891C106.422 140.849 106.422 140.823 106.422 140.812C106.432 140.719 106.479 140.641 106.562 140.578C106.646 140.516 106.734 140.479 106.828 140.469C106.932 140.448 107.031 140.458 107.125 140.5C107.219 140.542 107.286 140.609 107.328 140.703L107.375 144.297C107.531 143.578 107.781 142.979 108.125 142.5C108.479 142.021 108.875 141.646 109.312 141.375C109.75 141.094 110.203 140.911 110.672 140.828C111.151 140.745 111.594 140.74 112 140.812C112.135 140.844 112.234 140.901 112.297 140.984C112.37 141.068 112.406 141.161 112.406 141.266C112.417 141.359 112.391 141.453 112.328 141.547C112.276 141.63 112.203 141.693 112.109 141.734C111.641 141.703 111.198 141.745 110.781 141.859C110.375 141.964 110 142.125 109.656 142.344C109.323 142.552 109.026 142.802 108.766 143.094C108.516 143.385 108.318 143.693 108.172 144.016C107.953 144.484 107.802 144.979 107.719 145.5C107.646 146.01 107.599 146.521 107.578 147.031C107.568 147.542 107.568 148.026 107.578 148.484C107.599 148.943 107.604 149.344 107.594 149.688C107.583 149.802 107.531 149.891 107.438 149.953C107.354 150.005 107.255 150.031 107.141 150.031C107.036 150.042 106.927 150.021 106.812 149.969C106.708 149.906 106.635 149.818 106.594 149.703ZM113.703 142.578L112.266 143.062C112.151 143.031 112.057 142.974 111.984 142.891C111.901 142.807 111.844 142.719 111.812 142.625C111.781 142.531 111.776 142.443 111.797 142.359C111.807 142.276 111.849 142.214 111.922 142.172L113.703 141.5L113.672 137.078C113.703 136.943 113.771 136.844 113.875 136.781C113.979 136.719 114.083 136.693 114.188 136.703C114.302 136.703 114.406 136.74 114.5 136.812C114.594 136.875 114.656 136.958 114.688 137.062C114.667 137.385 114.651 137.729 114.641 138.094C114.63 138.448 114.62 138.807 114.609 139.172C114.609 139.526 114.615 139.875 114.625 140.219C114.635 140.552 114.656 140.859 114.688 141.141L117.109 140.156C117.255 140.115 117.37 140.13 117.453 140.203C117.536 140.266 117.589 140.354 117.609 140.469C117.641 140.573 117.635 140.677 117.594 140.781C117.552 140.885 117.479 140.958 117.375 141L114.688 142.219C114.688 142.323 114.693 142.573 114.703 142.969C114.714 143.354 114.724 143.812 114.734 144.344C114.745 144.875 114.755 145.443 114.766 146.047C114.776 146.651 114.781 147.219 114.781 147.75C114.792 148.281 114.797 148.745 114.797 149.141C114.807 149.526 114.812 149.771 114.812 149.875C114.792 150.219 114.693 150.391 114.516 150.391C114.339 150.391 114.146 150.307 113.938 150.141L113.703 142.578ZM117.547 140.406C117.609 140.375 117.682 140.349 117.766 140.328C117.849 140.307 117.927 140.297 118 140.297C118.083 140.297 118.161 140.312 118.234 140.344C118.307 140.375 118.365 140.432 118.406 140.516C118.406 141.193 118.411 141.927 118.422 142.719C118.443 143.5 118.464 144.297 118.484 145.109C118.516 145.911 118.542 146.703 118.562 147.484C118.583 148.266 118.604 148.99 118.625 149.656C118.635 149.812 118.594 149.932 118.5 150.016C118.406 150.099 118.302 150.141 118.188 150.141C118.083 150.141 117.984 150.099 117.891 150.016C117.797 149.943 117.75 149.823 117.75 149.656L117.547 140.406ZM117.359 137.219C117.359 137.083 117.406 136.995 117.5 136.953C117.594 136.901 117.698 136.875 117.812 136.875C118.042 136.875 118.182 136.953 118.234 137.109C118.297 137.255 118.328 137.427 118.328 137.625C118.266 137.75 118.182 137.839 118.078 137.891C117.974 137.943 117.865 137.953 117.75 137.922C117.646 137.891 117.552 137.818 117.469 137.703C117.396 137.589 117.359 137.427 117.359 137.219ZM119.453 146C119.484 145.573 119.521 145.141 119.562 144.703C119.604 144.266 119.667 143.844 119.75 143.438C119.833 143.021 119.943 142.63 120.078 142.266C120.214 141.901 120.385 141.583 120.594 141.312C120.812 141.042 121.073 140.828 121.375 140.672C121.688 140.516 122.057 140.443 122.484 140.453C122.776 140.453 123 140.578 123.156 140.828C123.312 141.068 123.422 141.359 123.484 141.703C123.557 142.047 123.594 142.401 123.594 142.766C123.604 143.13 123.609 143.427 123.609 143.656C123.453 143.719 123.318 143.719 123.203 143.656C123.099 143.594 123.01 143.495 122.938 143.359C122.875 143.214 122.818 143.047 122.766 142.859C122.714 142.672 122.667 142.484 122.625 142.297C122.594 142.109 122.552 141.932 122.5 141.766C122.458 141.599 122.406 141.464 122.344 141.359C122.156 141.276 121.974 141.302 121.797 141.438C121.62 141.573 121.458 141.771 121.312 142.031C121.167 142.281 121.031 142.583 120.906 142.938C120.792 143.292 120.693 143.651 120.609 144.016C120.526 144.37 120.458 144.714 120.406 145.047C120.354 145.38 120.328 145.661 120.328 145.891C120.339 146.203 120.37 146.542 120.422 146.906C120.474 147.26 120.557 147.594 120.672 147.906C120.786 148.219 120.938 148.49 121.125 148.719C121.312 148.938 121.552 149.078 121.844 149.141C122.24 149.141 122.573 149.078 122.844 148.953C123.125 148.818 123.354 148.651 123.531 148.453C123.719 148.245 123.865 148.016 123.969 147.766C124.073 147.516 124.156 147.266 124.219 147.016C124.281 146.755 124.328 146.516 124.359 146.297C124.401 146.068 124.443 145.88 124.484 145.734C124.755 145.661 124.964 145.667 125.109 145.75C125.266 145.833 125.344 145.932 125.344 146.047C125.344 146.526 125.26 147.005 125.094 147.484C124.927 147.953 124.688 148.375 124.375 148.75C124.073 149.125 123.703 149.427 123.266 149.656C122.828 149.885 122.333 150 121.781 150C121.312 150 120.927 149.854 120.625 149.562C120.323 149.26 120.083 148.901 119.906 148.484C119.74 148.068 119.62 147.63 119.547 147.172C119.484 146.714 119.453 146.323 119.453 146ZM126.094 140.406C126.156 140.375 126.229 140.349 126.312 140.328C126.396 140.307 126.474 140.297 126.547 140.297C126.63 140.297 126.708 140.312 126.781 140.344C126.854 140.375 126.911 140.432 126.953 140.516C126.953 141.193 126.958 141.927 126.969 142.719C126.99 143.5 127.01 144.297 127.031 145.109C127.062 145.911 127.089 146.703 127.109 147.484C127.13 148.266 127.151 148.99 127.172 149.656C127.182 149.812 127.141 149.932 127.047 150.016C126.953 150.099 126.849 150.141 126.734 150.141C126.63 150.141 126.531 150.099 126.438 150.016C126.344 149.943 126.297 149.823 126.297 149.656L126.094 140.406ZM125.906 137.219C125.906 137.083 125.953 136.995 126.047 136.953C126.141 136.901 126.245 136.875 126.359 136.875C126.589 136.875 126.729 136.953 126.781 137.109C126.844 137.255 126.875 137.427 126.875 137.625C126.812 137.75 126.729 137.839 126.625 137.891C126.521 137.943 126.411 137.953 126.297 137.922C126.193 137.891 126.099 137.818 126.016 137.703C125.943 137.589 125.906 137.427 125.906 137.219ZM127.859 154.625C127.953 153.333 128.021 152.26 128.062 151.406C128.104 150.552 128.13 149.823 128.141 149.219C128.161 148.604 128.167 148.062 128.156 147.594C128.146 147.125 128.13 146.63 128.109 146.109C128.089 145.578 128.062 144.974 128.031 144.297C128.01 143.609 127.99 142.745 127.969 141.703C127.99 141.589 128.031 141.49 128.094 141.406C128.156 141.312 128.224 141.25 128.297 141.219C128.38 141.177 128.469 141.177 128.562 141.219C128.656 141.26 128.75 141.354 128.844 141.5L128.797 143.531C129.151 143.073 129.547 142.656 129.984 142.281C130.432 141.906 130.88 141.599 131.328 141.359C131.786 141.109 132.229 140.938 132.656 140.844C133.083 140.74 133.453 140.729 133.766 140.812C134.089 140.896 134.333 141.083 134.5 141.375C134.677 141.656 134.74 142.057 134.688 142.578C134.646 143.036 134.505 143.531 134.266 144.062C134.026 144.583 133.729 145.104 133.375 145.625C133.031 146.135 132.651 146.63 132.234 147.109C131.818 147.589 131.411 148.01 131.016 148.375C130.62 148.74 130.25 149.036 129.906 149.266C129.573 149.484 129.307 149.594 129.109 149.594C129.099 149.74 129.083 149.943 129.062 150.203C129.042 150.474 129.021 150.776 129 151.109C128.979 151.453 128.953 151.807 128.922 152.172C128.901 152.536 128.88 152.885 128.859 153.219C128.839 153.552 128.818 153.854 128.797 154.125C128.776 154.396 128.766 154.599 128.766 154.734C128.714 154.786 128.651 154.833 128.578 154.875C128.505 154.917 128.427 154.943 128.344 154.953C128.26 154.964 128.177 154.943 128.094 154.891C128.01 154.849 127.932 154.76 127.859 154.625ZM129.031 148.703C129.375 148.568 129.786 148.297 130.266 147.891C130.745 147.474 131.219 146.979 131.688 146.406C132.167 145.823 132.599 145.188 132.984 144.5C133.37 143.812 133.641 143.13 133.797 142.453C133.734 142.12 133.594 141.901 133.375 141.797C133.156 141.693 132.896 141.672 132.594 141.734C132.302 141.786 131.979 141.917 131.625 142.125C131.271 142.323 130.927 142.562 130.594 142.844C130.271 143.115 129.969 143.417 129.688 143.75C129.406 144.083 129.188 144.411 129.031 144.734V148.703ZM140.141 149.844C139.995 149.625 139.901 149.339 139.859 148.984C139.828 148.63 139.807 148.26 139.797 147.875C139.797 147.479 139.797 147.094 139.797 146.719C139.807 146.333 139.781 146.005 139.719 145.734C139.229 146.807 138.766 147.646 138.328 148.25C137.901 148.844 137.505 149.271 137.141 149.531C136.786 149.781 136.464 149.896 136.172 149.875C135.88 149.844 135.63 149.74 135.422 149.562C135.224 149.375 135.068 149.151 134.953 148.891C134.839 148.62 134.776 148.365 134.766 148.125C134.693 147.729 134.688 147.255 134.75 146.703C134.823 146.141 134.943 145.562 135.109 144.969C135.286 144.375 135.505 143.797 135.766 143.234C136.036 142.661 136.339 142.167 136.672 141.75C137.016 141.333 137.38 141.026 137.766 140.828C138.151 140.62 138.552 140.583 138.969 140.719C139.177 140.698 139.349 140.708 139.484 140.75C139.63 140.781 139.75 140.854 139.844 140.969C139.938 141.083 140.005 141.245 140.047 141.453C140.089 141.651 140.12 141.906 140.141 142.219C140.12 143.229 140.146 144.089 140.219 144.797C140.302 145.505 140.396 146.13 140.5 146.672C140.604 147.214 140.703 147.703 140.797 148.141C140.901 148.578 140.964 149.031 140.984 149.5C140.984 149.667 140.943 149.797 140.859 149.891C140.776 149.974 140.682 150.026 140.578 150.047C140.474 150.078 140.375 150.073 140.281 150.031C140.198 149.99 140.151 149.927 140.141 149.844ZM139.234 141.953C138.984 141.62 138.714 141.479 138.422 141.531C138.13 141.583 137.839 141.766 137.547 142.078C137.266 142.38 136.995 142.781 136.734 143.281C136.474 143.771 136.25 144.297 136.062 144.859C135.875 145.422 135.734 145.984 135.641 146.547C135.557 147.099 135.542 147.589 135.594 148.016C135.74 148.484 135.917 148.766 136.125 148.859C136.333 148.953 136.557 148.922 136.797 148.766C137.036 148.599 137.281 148.339 137.531 147.984C137.781 147.63 138.021 147.25 138.25 146.844C138.479 146.427 138.682 146.016 138.859 145.609C139.047 145.193 139.198 144.844 139.312 144.562L139.234 141.953ZM141.609 140.688C141.62 140.583 141.661 140.5 141.734 140.438C141.807 140.375 141.891 140.339 141.984 140.328C142.078 140.307 142.172 140.318 142.266 140.359C142.359 140.391 142.438 140.443 142.5 140.516L142.453 146.766C142.651 146.016 142.828 145.276 142.984 144.547C143.151 143.807 143.354 143.141 143.594 142.547C143.833 141.943 144.135 141.448 144.5 141.062C144.865 140.667 145.349 140.443 145.953 140.391C146.276 140.359 146.557 140.458 146.797 140.688C147.036 140.906 147.24 141.208 147.406 141.594C147.583 141.979 147.729 142.432 147.844 142.953C147.958 143.464 148.047 144 148.109 144.562C148.182 145.115 148.234 145.672 148.266 146.234C148.297 146.797 148.318 147.318 148.328 147.797C148.339 148.276 148.339 148.698 148.328 149.062C148.328 149.427 148.323 149.693 148.312 149.859C148.24 150.036 148.109 150.151 147.922 150.203C147.745 150.266 147.583 150.193 147.438 149.984C147.427 149.786 147.422 149.448 147.422 148.969C147.422 148.479 147.411 147.922 147.391 147.297C147.38 146.672 147.349 146.021 147.297 145.344C147.255 144.656 147.177 144.026 147.062 143.453C146.958 142.87 146.807 142.385 146.609 142C146.422 141.604 146.177 141.38 145.875 141.328C145.615 141.286 145.359 141.427 145.109 141.75C144.87 142.073 144.635 142.5 144.406 143.031C144.188 143.562 143.979 144.161 143.781 144.828C143.594 145.495 143.422 146.151 143.266 146.797C143.12 147.443 142.995 148.036 142.891 148.578C142.786 149.12 142.719 149.536 142.688 149.828C142.656 149.911 142.594 149.979 142.5 150.031C142.406 150.083 142.302 150.109 142.188 150.109C142.083 150.12 141.974 150.104 141.859 150.062C141.755 150.021 141.677 149.943 141.625 149.828L141.609 140.688ZM149.703 142.578L148.266 143.062C148.151 143.031 148.057 142.974 147.984 142.891C147.901 142.807 147.844 142.719 147.812 142.625C147.781 142.531 147.776 142.443 147.797 142.359C147.807 142.276 147.849 142.214 147.922 142.172L149.703 141.5L149.672 137.078C149.703 136.943 149.771 136.844 149.875 136.781C149.979 136.719 150.083 136.693 150.188 136.703C150.302 136.703 150.406 136.74 150.5 136.812C150.594 136.875 150.656 136.958 150.688 137.062C150.667 137.385 150.651 137.729 150.641 138.094C150.63 138.448 150.62 138.807 150.609 139.172C150.609 139.526 150.615 139.875 150.625 140.219C150.635 140.552 150.656 140.859 150.688 141.141L153.109 140.156C153.255 140.115 153.37 140.13 153.453 140.203C153.536 140.266 153.589 140.354 153.609 140.469C153.641 140.573 153.635 140.677 153.594 140.781C153.552 140.885 153.479 140.958 153.375 141L150.688 142.219C150.688 142.323 150.693 142.573 150.703 142.969C150.714 143.354 150.724 143.812 150.734 144.344C150.745 144.875 150.755 145.443 150.766 146.047C150.776 146.651 150.781 147.219 150.781 147.75C150.792 148.281 150.797 148.745 150.797 149.141C150.807 149.526 150.812 149.771 150.812 149.875C150.792 150.219 150.693 150.391 150.516 150.391C150.339 150.391 150.146 150.307 149.938 150.141L149.703 142.578ZM152.984 148.875C153.182 149.031 153.422 149.115 153.703 149.125C153.995 149.135 154.297 149.099 154.609 149.016C154.932 148.922 155.255 148.792 155.578 148.625C155.911 148.448 156.214 148.255 156.484 148.047C156.766 147.839 157.005 147.62 157.203 147.391C157.411 147.151 157.552 146.927 157.625 146.719C157.698 146.5 157.693 146.302 157.609 146.125C157.526 145.948 157.339 145.807 157.047 145.703C156.516 145.828 155.984 145.927 155.453 146C154.922 146.073 154.443 146.073 154.016 146C153.599 145.927 153.26 145.755 153 145.484C152.74 145.214 152.62 144.797 152.641 144.234C152.672 143.693 152.818 143.188 153.078 142.719C153.349 142.24 153.688 141.833 154.094 141.5C154.51 141.167 154.969 140.911 155.469 140.734C155.979 140.557 156.495 140.484 157.016 140.516C157.12 140.526 157.214 140.536 157.297 140.547C157.391 140.547 157.474 140.562 157.547 140.594C157.62 140.625 157.672 140.672 157.703 140.734C157.745 140.797 157.76 140.891 157.75 141.016C157.74 141.172 157.682 141.297 157.578 141.391C157.474 141.484 157.333 141.521 157.156 141.5C156.542 141.375 155.99 141.401 155.5 141.578C155.01 141.755 154.604 142.005 154.281 142.328C153.958 142.641 153.729 142.995 153.594 143.391C153.458 143.786 153.438 144.146 153.531 144.469C153.729 144.844 153.984 145.083 154.297 145.188C154.62 145.281 154.958 145.312 155.312 145.281C155.677 145.25 156.047 145.198 156.422 145.125C156.797 145.042 157.135 145.016 157.438 145.047C157.74 145.068 157.99 145.182 158.188 145.391C158.385 145.589 158.495 145.958 158.516 146.5C158.505 146.844 158.391 147.177 158.172 147.5C157.953 147.812 157.672 148.109 157.328 148.391C156.995 148.661 156.62 148.911 156.203 149.141C155.786 149.359 155.37 149.542 154.953 149.688C154.547 149.833 154.161 149.932 153.797 149.984C153.443 150.036 153.156 150.031 152.938 149.969C152.698 149.76 152.573 149.557 152.562 149.359C152.552 149.151 152.693 148.99 152.984 148.875Z" fill="white"/>
<rect x="252.5" y="24.5" width="203" height="154" rx="15.5" fill="url(#paint4_linear_2985_10005)"/>
<rect x="252.5" y="24.5" width="203" height="154" rx="15.5" stroke="url(#paint5_linear_2985_10005)"/>
<path d="M345.232 96L355.888 81.168L358.672 80.976C358.256 81.712 357.792 82.368 357.28 82.944C356.8 83.488 356.176 83.92 355.408 84.24C354.672 84.528 353.68 84.672 352.432 84.672C350.384 84.672 348.496 84.192 346.768 83.232C345.072 82.24 343.712 80.912 342.688 79.248C341.696 77.552 341.2 75.632 341.2 73.488C341.2 71.248 341.76 69.232 342.88 67.44C344 65.648 345.504 64.224 347.392 63.168C349.28 62.112 351.408 61.584 353.776 61.584C356.144 61.584 358.272 62.112 360.16 63.168C362.048 64.192 363.536 65.6 364.624 67.392C365.744 69.152 366.304 71.152 366.304 73.392C366.304 76.272 365.312 79.168 363.328 82.08L353.776 96H345.232ZM353.776 79.056C354.768 79.056 355.664 78.816 356.464 78.336C357.264 77.856 357.888 77.216 358.336 76.416C358.784 75.584 359.008 74.656 359.008 73.632C359.008 72.576 358.784 71.632 358.336 70.8C357.888 69.968 357.264 69.328 356.464 68.88C355.664 68.4 354.768 68.16 353.776 68.16C352.752 68.16 351.84 68.4 351.04 68.88C350.272 69.328 349.648 69.968 349.168 70.8C348.72 71.632 348.496 72.576 348.496 73.632C348.496 74.656 348.72 75.584 349.168 76.416C349.648 77.216 350.288 77.856 351.088 78.336C351.888 78.816 352.784 79.056 353.776 79.056Z" fill="#FA5242"/>
<path d="M329.727 136.641C329.779 136.641 329.846 136.646 329.93 136.656C330.013 136.667 330.086 136.693 330.148 136.734C330.221 136.766 330.273 136.812 330.305 136.875C330.336 136.938 330.331 137.016 330.289 137.109C330.477 137.016 330.643 136.943 330.789 136.891C330.935 136.828 331.07 136.781 331.195 136.75C331.331 136.708 331.461 136.682 331.586 136.672C331.721 136.661 331.878 136.656 332.055 136.656C332.461 136.656 332.81 136.781 333.102 137.031C333.393 137.271 333.638 137.594 333.836 138C334.044 138.406 334.206 138.875 334.32 139.406C334.445 139.938 334.529 140.495 334.57 141.078C334.612 141.661 334.622 142.25 334.602 142.844C334.591 143.438 334.549 144 334.477 144.531C334.414 145.062 334.326 145.547 334.211 145.984C334.096 146.411 333.971 146.755 333.836 147.016C333.836 147.026 333.841 147.047 333.852 147.078C333.872 147.109 333.914 147.193 333.977 147.328C334.049 147.464 334.159 147.672 334.305 147.953C334.461 148.224 334.68 148.609 334.961 149.109C335.013 149.224 335.029 149.328 335.008 149.422C334.987 149.516 334.94 149.599 334.867 149.672C334.794 149.734 334.706 149.776 334.602 149.797C334.497 149.818 334.393 149.812 334.289 149.781C334.143 149.531 333.982 149.276 333.805 149.016C333.628 148.745 333.419 148.479 333.18 148.219C333.023 148.417 332.852 148.625 332.664 148.844C332.477 149.052 332.268 149.245 332.039 149.422C331.82 149.589 331.586 149.729 331.336 149.844C331.086 149.958 330.82 150.016 330.539 150.016C330.081 150.026 329.648 149.891 329.242 149.609C328.846 149.328 328.487 148.943 328.164 148.453C327.852 147.964 327.586 147.391 327.367 146.734C327.148 146.078 326.992 145.385 326.898 144.656C326.815 143.927 326.799 143.182 326.852 142.422C326.904 141.651 327.039 140.911 327.258 140.203C327.487 139.495 327.799 138.833 328.195 138.219C328.602 137.604 329.112 137.078 329.727 136.641ZM331.086 143.719C331.044 143.76 331.018 143.729 331.008 143.625C330.997 143.51 331.013 143.396 331.055 143.281C331.096 143.167 331.169 143.089 331.273 143.047C331.388 142.995 331.549 143.052 331.758 143.219C331.758 143.219 331.789 143.292 331.852 143.438C331.924 143.573 332.013 143.745 332.117 143.953C332.221 144.151 332.336 144.37 332.461 144.609C332.586 144.849 332.701 145.073 332.805 145.281C332.909 145.49 332.997 145.661 333.07 145.797C333.143 145.932 333.18 146 333.18 146C333.336 145.583 333.461 145.083 333.555 144.5C333.659 143.917 333.721 143.312 333.742 142.688C333.773 142.062 333.758 141.448 333.695 140.844C333.643 140.229 333.539 139.677 333.383 139.188C333.237 138.698 333.039 138.302 332.789 138C332.539 137.688 332.227 137.526 331.852 137.516C331.122 137.443 330.497 137.536 329.977 137.797C329.456 138.057 329.029 138.427 328.695 138.906C328.362 139.385 328.112 139.948 327.945 140.594C327.779 141.24 327.685 141.917 327.664 142.625C327.654 143.323 327.706 144.021 327.82 144.719C327.935 145.406 328.102 146.042 328.32 146.625C328.549 147.198 328.82 147.693 329.133 148.109C329.456 148.516 329.805 148.781 330.18 148.906C330.565 149.031 330.977 148.99 331.414 148.781C331.852 148.573 332.305 148.135 332.773 147.469L331.086 143.719ZM340.148 140.781C340.159 140.719 340.19 140.651 340.242 140.578C340.305 140.495 340.378 140.438 340.461 140.406C340.555 140.375 340.654 140.391 340.758 140.453C340.872 140.505 340.987 140.63 341.102 140.828C341.06 141.63 341.008 142.432 340.945 143.234C340.893 144.026 340.867 144.812 340.867 145.594C340.878 146.365 340.93 147.13 341.023 147.891C341.128 148.651 341.31 149.391 341.57 150.109C341.581 150.182 341.555 150.245 341.492 150.297C341.43 150.359 341.346 150.401 341.242 150.422C341.138 150.453 341.034 150.464 340.93 150.453C340.826 150.443 340.742 150.396 340.68 150.312L340.133 147.703C340.091 147.839 339.971 148.036 339.773 148.297C339.586 148.557 339.362 148.823 339.102 149.094C338.852 149.354 338.591 149.589 338.32 149.797C338.049 149.995 337.815 150.099 337.617 150.109C337.128 150.141 336.742 149.969 336.461 149.594C336.18 149.219 335.971 148.729 335.836 148.125C335.711 147.51 335.638 146.828 335.617 146.078C335.596 145.328 335.596 144.599 335.617 143.891C335.638 143.182 335.664 142.542 335.695 141.969C335.727 141.396 335.727 140.974 335.695 140.703C335.727 140.62 335.779 140.557 335.852 140.516C335.935 140.474 336.023 140.453 336.117 140.453C336.211 140.453 336.299 140.474 336.383 140.516C336.477 140.557 336.544 140.62 336.586 140.703C336.607 141.057 336.612 141.5 336.602 142.031C336.591 142.562 336.581 143.13 336.57 143.734C336.56 144.328 336.56 144.927 336.57 145.531C336.591 146.135 336.633 146.688 336.695 147.188C336.758 147.677 336.852 148.089 336.977 148.422C337.112 148.745 337.299 148.927 337.539 148.969C337.716 148.969 337.893 148.911 338.07 148.797C338.247 148.682 338.424 148.536 338.602 148.359C338.779 148.172 338.945 147.969 339.102 147.75C339.258 147.521 339.393 147.302 339.508 147.094C339.622 146.875 339.716 146.677 339.789 146.5C339.862 146.323 339.904 146.188 339.914 146.094C339.924 145.969 339.94 145.771 339.961 145.5C339.982 145.219 339.997 144.906 340.008 144.562C340.029 144.208 340.044 143.833 340.055 143.438C340.076 143.042 340.091 142.672 340.102 142.328C340.122 141.974 340.133 141.661 340.133 141.391C340.143 141.109 340.148 140.906 340.148 140.781ZM342.617 145.828C342.544 145.891 342.414 145.917 342.227 145.906C342.049 145.885 341.883 145.844 341.727 145.781C341.581 145.719 341.482 145.635 341.43 145.531C341.378 145.417 341.44 145.286 341.617 145.141C341.69 145.078 341.768 145.036 341.852 145.016C341.945 144.984 342.034 144.958 342.117 144.938C342.211 144.906 342.284 144.865 342.336 144.812C342.398 144.76 342.435 144.677 342.445 144.562C342.456 144.094 342.492 143.615 342.555 143.125C342.628 142.635 342.758 142.198 342.945 141.812C343.133 141.427 343.398 141.12 343.742 140.891C344.096 140.661 344.56 140.573 345.133 140.625C345.341 140.625 345.576 140.677 345.836 140.781C346.096 140.875 346.346 141.005 346.586 141.172C346.826 141.328 347.034 141.521 347.211 141.75C347.388 141.969 347.497 142.208 347.539 142.469C347.612 142.573 347.57 142.703 347.414 142.859C347.258 143.016 347.039 143.193 346.758 143.391C346.477 143.578 346.159 143.771 345.805 143.969C345.451 144.167 345.107 144.354 344.773 144.531C344.451 144.708 344.164 144.865 343.914 145C343.664 145.135 343.503 145.229 343.43 145.281C343.492 145.688 343.56 146.115 343.633 146.562C343.706 147.01 343.81 147.422 343.945 147.797C344.081 148.172 344.247 148.484 344.445 148.734C344.654 148.974 344.914 149.094 345.227 149.094C345.685 149.125 346.076 149.057 346.398 148.891C346.732 148.724 347.008 148.505 347.227 148.234C347.445 147.964 347.617 147.667 347.742 147.344C347.878 147.021 347.977 146.714 348.039 146.422C348.112 146.13 348.159 145.885 348.18 145.688C348.211 145.479 348.237 145.365 348.258 145.344C348.372 145.281 348.503 145.281 348.648 145.344C348.794 145.396 348.878 145.547 348.898 145.797C348.909 146.203 348.82 146.667 348.633 147.188C348.445 147.708 348.185 148.188 347.852 148.625C347.529 149.062 347.138 149.417 346.68 149.688C346.232 149.948 345.753 150.036 345.242 149.953C344.711 149.943 344.289 149.792 343.977 149.5C343.664 149.198 343.414 148.839 343.227 148.422C343.049 147.995 342.919 147.547 342.836 147.078C342.753 146.609 342.68 146.193 342.617 145.828ZM346.711 142.469C346.378 142.01 346.039 141.719 345.695 141.594C345.352 141.469 344.997 141.432 344.633 141.484C344.414 141.516 344.221 141.62 344.055 141.797C343.888 141.964 343.753 142.182 343.648 142.453C343.544 142.714 343.471 143.01 343.43 143.344C343.388 143.667 343.383 144 343.414 144.344L346.711 142.469ZM349.523 148.875C349.721 149.031 349.961 149.115 350.242 149.125C350.534 149.135 350.836 149.099 351.148 149.016C351.471 148.922 351.794 148.792 352.117 148.625C352.451 148.448 352.753 148.255 353.023 148.047C353.305 147.839 353.544 147.62 353.742 147.391C353.951 147.151 354.091 146.927 354.164 146.719C354.237 146.5 354.232 146.302 354.148 146.125C354.065 145.948 353.878 145.807 353.586 145.703C353.055 145.828 352.523 145.927 351.992 146C351.461 146.073 350.982 146.073 350.555 146C350.138 145.927 349.799 145.755 349.539 145.484C349.279 145.214 349.159 144.797 349.18 144.234C349.211 143.693 349.357 143.188 349.617 142.719C349.888 142.24 350.227 141.833 350.633 141.5C351.049 141.167 351.508 140.911 352.008 140.734C352.518 140.557 353.034 140.484 353.555 140.516C353.659 140.526 353.753 140.536 353.836 140.547C353.93 140.547 354.013 140.562 354.086 140.594C354.159 140.625 354.211 140.672 354.242 140.734C354.284 140.797 354.299 140.891 354.289 141.016C354.279 141.172 354.221 141.297 354.117 141.391C354.013 141.484 353.872 141.521 353.695 141.5C353.081 141.375 352.529 141.401 352.039 141.578C351.549 141.755 351.143 142.005 350.82 142.328C350.497 142.641 350.268 142.995 350.133 143.391C349.997 143.786 349.977 144.146 350.07 144.469C350.268 144.844 350.523 145.083 350.836 145.188C351.159 145.281 351.497 145.312 351.852 145.281C352.216 145.25 352.586 145.198 352.961 145.125C353.336 145.042 353.674 145.016 353.977 145.047C354.279 145.068 354.529 145.182 354.727 145.391C354.924 145.589 355.034 145.958 355.055 146.5C355.044 146.844 354.93 147.177 354.711 147.5C354.492 147.812 354.211 148.109 353.867 148.391C353.534 148.661 353.159 148.911 352.742 149.141C352.326 149.359 351.909 149.542 351.492 149.688C351.086 149.833 350.701 149.932 350.336 149.984C349.982 150.036 349.695 150.031 349.477 149.969C349.237 149.76 349.112 149.557 349.102 149.359C349.091 149.151 349.232 148.99 349.523 148.875ZM356.398 142.578L354.961 143.062C354.846 143.031 354.753 142.974 354.68 142.891C354.596 142.807 354.539 142.719 354.508 142.625C354.477 142.531 354.471 142.443 354.492 142.359C354.503 142.276 354.544 142.214 354.617 142.172L356.398 141.5L356.367 137.078C356.398 136.943 356.466 136.844 356.57 136.781C356.674 136.719 356.779 136.693 356.883 136.703C356.997 136.703 357.102 136.74 357.195 136.812C357.289 136.875 357.352 136.958 357.383 137.062C357.362 137.385 357.346 137.729 357.336 138.094C357.326 138.448 357.315 138.807 357.305 139.172C357.305 139.526 357.31 139.875 357.32 140.219C357.331 140.552 357.352 140.859 357.383 141.141L359.805 140.156C359.951 140.115 360.065 140.13 360.148 140.203C360.232 140.266 360.284 140.354 360.305 140.469C360.336 140.573 360.331 140.677 360.289 140.781C360.247 140.885 360.174 140.958 360.07 141L357.383 142.219C357.383 142.323 357.388 142.573 357.398 142.969C357.409 143.354 357.419 143.812 357.43 144.344C357.44 144.875 357.451 145.443 357.461 146.047C357.471 146.651 357.477 147.219 357.477 147.75C357.487 148.281 357.492 148.745 357.492 149.141C357.503 149.526 357.508 149.771 357.508 149.875C357.487 150.219 357.388 150.391 357.211 150.391C357.034 150.391 356.841 150.307 356.633 150.141L356.398 142.578ZM360.242 140.406C360.305 140.375 360.378 140.349 360.461 140.328C360.544 140.307 360.622 140.297 360.695 140.297C360.779 140.297 360.857 140.312 360.93 140.344C361.003 140.375 361.06 140.432 361.102 140.516C361.102 141.193 361.107 141.927 361.117 142.719C361.138 143.5 361.159 144.297 361.18 145.109C361.211 145.911 361.237 146.703 361.258 147.484C361.279 148.266 361.299 148.99 361.32 149.656C361.331 149.812 361.289 149.932 361.195 150.016C361.102 150.099 360.997 150.141 360.883 150.141C360.779 150.141 360.68 150.099 360.586 150.016C360.492 149.943 360.445 149.823 360.445 149.656L360.242 140.406ZM360.055 137.219C360.055 137.083 360.102 136.995 360.195 136.953C360.289 136.901 360.393 136.875 360.508 136.875C360.737 136.875 360.878 136.953 360.93 137.109C360.992 137.255 361.023 137.427 361.023 137.625C360.961 137.75 360.878 137.839 360.773 137.891C360.669 137.943 360.56 137.953 360.445 137.922C360.341 137.891 360.247 137.818 360.164 137.703C360.091 137.589 360.055 137.427 360.055 137.219ZM363.961 149.938C363.544 149.885 363.201 149.719 362.93 149.438C362.669 149.156 362.461 148.812 362.305 148.406C362.148 148 362.044 147.557 361.992 147.078C361.951 146.589 361.94 146.109 361.961 145.641C361.992 144.922 362.122 144.234 362.352 143.578C362.591 142.922 362.883 142.354 363.227 141.875C363.581 141.385 363.966 141.01 364.383 140.75C364.81 140.479 365.227 140.375 365.633 140.438C366.06 140.5 366.404 140.703 366.664 141.047C366.935 141.391 367.143 141.812 367.289 142.312C367.435 142.812 367.523 143.359 367.555 143.953C367.586 144.536 367.581 145.099 367.539 145.641C367.487 146.255 367.352 146.828 367.133 147.359C366.914 147.891 366.638 148.349 366.305 148.734C365.982 149.12 365.612 149.422 365.195 149.641C364.789 149.849 364.378 149.948 363.961 149.938ZM365.477 141.328C365.133 141.286 364.81 141.396 364.508 141.656C364.216 141.906 363.951 142.245 363.711 142.672C363.482 143.089 363.289 143.568 363.133 144.109C362.977 144.641 362.872 145.167 362.82 145.688C362.779 146.062 362.763 146.448 362.773 146.844C362.784 147.24 362.831 147.599 362.914 147.922C363.008 148.245 363.148 148.51 363.336 148.719C363.534 148.917 363.794 149.016 364.117 149.016C364.378 149.026 364.648 148.938 364.93 148.75C365.221 148.562 365.492 148.312 365.742 148C365.992 147.677 366.211 147.312 366.398 146.906C366.596 146.5 366.727 146.083 366.789 145.656C366.862 145.208 366.878 144.75 366.836 144.281C366.805 143.802 366.727 143.359 366.602 142.953C366.487 142.547 366.331 142.198 366.133 141.906C365.945 141.604 365.727 141.411 365.477 141.328ZM368.117 140.688C368.128 140.583 368.169 140.5 368.242 140.438C368.315 140.375 368.398 140.339 368.492 140.328C368.586 140.307 368.68 140.318 368.773 140.359C368.867 140.391 368.945 140.443 369.008 140.516L368.961 146.766C369.159 146.016 369.336 145.276 369.492 144.547C369.659 143.807 369.862 143.141 370.102 142.547C370.341 141.943 370.643 141.448 371.008 141.062C371.372 140.667 371.857 140.443 372.461 140.391C372.784 140.359 373.065 140.458 373.305 140.688C373.544 140.906 373.747 141.208 373.914 141.594C374.091 141.979 374.237 142.432 374.352 142.953C374.466 143.464 374.555 144 374.617 144.562C374.69 145.115 374.742 145.672 374.773 146.234C374.805 146.797 374.826 147.318 374.836 147.797C374.846 148.276 374.846 148.698 374.836 149.062C374.836 149.427 374.831 149.693 374.82 149.859C374.747 150.036 374.617 150.151 374.43 150.203C374.253 150.266 374.091 150.193 373.945 149.984C373.935 149.786 373.93 149.448 373.93 148.969C373.93 148.479 373.919 147.922 373.898 147.297C373.888 146.672 373.857 146.021 373.805 145.344C373.763 144.656 373.685 144.026 373.57 143.453C373.466 142.87 373.315 142.385 373.117 142C372.93 141.604 372.685 141.38 372.383 141.328C372.122 141.286 371.867 141.427 371.617 141.75C371.378 142.073 371.143 142.5 370.914 143.031C370.695 143.562 370.487 144.161 370.289 144.828C370.102 145.495 369.93 146.151 369.773 146.797C369.628 147.443 369.503 148.036 369.398 148.578C369.294 149.12 369.227 149.536 369.195 149.828C369.164 149.911 369.102 149.979 369.008 150.031C368.914 150.083 368.81 150.109 368.695 150.109C368.591 150.12 368.482 150.104 368.367 150.062C368.263 150.021 368.185 149.943 368.133 149.828L368.117 140.688ZM375.805 148.875C376.003 149.031 376.242 149.115 376.523 149.125C376.815 149.135 377.117 149.099 377.43 149.016C377.753 148.922 378.076 148.792 378.398 148.625C378.732 148.448 379.034 148.255 379.305 148.047C379.586 147.839 379.826 147.62 380.023 147.391C380.232 147.151 380.372 146.927 380.445 146.719C380.518 146.5 380.513 146.302 380.43 146.125C380.346 145.948 380.159 145.807 379.867 145.703C379.336 145.828 378.805 145.927 378.273 146C377.742 146.073 377.263 146.073 376.836 146C376.419 145.927 376.081 145.755 375.82 145.484C375.56 145.214 375.44 144.797 375.461 144.234C375.492 143.693 375.638 143.188 375.898 142.719C376.169 142.24 376.508 141.833 376.914 141.5C377.331 141.167 377.789 140.911 378.289 140.734C378.799 140.557 379.315 140.484 379.836 140.516C379.94 140.526 380.034 140.536 380.117 140.547C380.211 140.547 380.294 140.562 380.367 140.594C380.44 140.625 380.492 140.672 380.523 140.734C380.565 140.797 380.581 140.891 380.57 141.016C380.56 141.172 380.503 141.297 380.398 141.391C380.294 141.484 380.154 141.521 379.977 141.5C379.362 141.375 378.81 141.401 378.32 141.578C377.831 141.755 377.424 142.005 377.102 142.328C376.779 142.641 376.549 142.995 376.414 143.391C376.279 143.786 376.258 144.146 376.352 144.469C376.549 144.844 376.805 145.083 377.117 145.188C377.44 145.281 377.779 145.312 378.133 145.281C378.497 145.25 378.867 145.198 379.242 145.125C379.617 145.042 379.956 145.016 380.258 145.047C380.56 145.068 380.81 145.182 381.008 145.391C381.206 145.589 381.315 145.958 381.336 146.5C381.326 146.844 381.211 147.177 380.992 147.5C380.773 147.812 380.492 148.109 380.148 148.391C379.815 148.661 379.44 148.911 379.023 149.141C378.607 149.359 378.19 149.542 377.773 149.688C377.367 149.833 376.982 149.932 376.617 149.984C376.263 150.036 375.977 150.031 375.758 149.969C375.518 149.76 375.393 149.557 375.383 149.359C375.372 149.151 375.513 148.99 375.805 148.875Z" fill="white"/>
<rect x="480.5" y="24.5" width="203" height="154" rx="15.5" fill="url(#paint6_linear_2985_10005)"/>
<rect x="480.5" y="24.5" width="203" height="154" rx="15.5" stroke="url(#paint7_linear_2985_10005)"/>
<path d="M537.276 96.528C534.908 96.528 532.764 96 530.844 94.944C528.956 93.888 527.452 92.48 526.332 90.72C525.244 88.928 524.7 86.928 524.7 84.72C524.7 81.84 525.708 78.928 527.724 75.984L537.276 62.112H545.772L535.164 76.896L532.332 77.136C532.78 76.368 533.244 75.712 533.724 75.168C534.236 74.592 534.876 74.16 535.644 73.872C536.412 73.552 537.388 73.392 538.572 73.392C540.684 73.392 542.572 73.888 544.236 74.88C545.932 75.84 547.292 77.168 548.316 78.864C549.34 80.528 549.852 82.448 549.852 84.624C549.852 86.832 549.292 88.848 548.172 90.672C547.052 92.464 545.548 93.888 543.66 94.944C541.772 96 539.644 96.528 537.276 96.528ZM537.276 89.952C538.268 89.952 539.164 89.712 539.964 89.232C540.764 88.752 541.388 88.096 541.836 87.264C542.284 86.432 542.508 85.504 542.508 84.48C542.508 83.424 542.284 82.496 541.836 81.696C541.388 80.864 540.764 80.224 539.964 79.776C539.164 79.296 538.268 79.056 537.276 79.056C536.252 79.056 535.34 79.296 534.54 79.776C533.772 80.224 533.164 80.864 532.716 81.696C532.268 82.496 532.044 83.424 532.044 84.48C532.044 85.504 532.268 86.432 532.716 87.264C533.164 88.096 533.772 88.752 534.54 89.232C535.34 89.712 536.252 89.952 537.276 89.952ZM558.216 96.528C556.968 96.528 555.928 96.096 555.096 95.232C554.264 94.368 553.848 93.328 553.848 92.112C553.848 90.832 554.264 89.776 555.096 88.944C555.928 88.08 556.968 87.648 558.216 87.648C559.496 87.648 560.536 88.08 561.336 88.944C562.168 89.776 562.584 90.832 562.584 92.112C562.584 93.328 562.168 94.368 561.336 95.232C560.536 96.096 559.496 96.528 558.216 96.528ZM565.571 84.24L576.707 62.112H584.915L573.539 84.24H565.571ZM565.571 88.464V84.24L568.067 82.08H592.739V88.464H565.571ZM581.555 96V75.024H588.947V96H581.555ZM593.957 98.64L605.717 59.76H612.101L600.341 98.64H593.957ZM617.466 96L628.122 81.168L630.906 80.976C630.49 81.712 630.026 82.368 629.514 82.944C629.034 83.488 628.41 83.92 627.642 84.24C626.906 84.528 625.914 84.672 624.666 84.672C622.618 84.672 620.73 84.192 619.002 83.232C617.306 82.24 615.946 80.912 614.922 79.248C613.93 77.552 613.434 75.632 613.434 73.488C613.434 71.248 613.994 69.232 615.114 67.44C616.234 65.648 617.738 64.224 619.626 63.168C621.514 62.112 623.642 61.584 626.01 61.584C628.378 61.584 630.506 62.112 632.394 63.168C634.282 64.192 635.77 65.6 636.858 67.392C637.978 69.152 638.538 71.152 638.538 73.392C638.538 76.272 637.546 79.168 635.562 82.08L626.01 96H617.466ZM626.01 79.056C627.002 79.056 627.898 78.816 628.698 78.336C629.498 77.856 630.122 77.216 630.57 76.416C631.018 75.584 631.242 74.656 631.242 73.632C631.242 72.576 631.018 71.632 630.57 70.8C630.122 69.968 629.498 69.328 628.698 68.88C627.898 68.4 627.002 68.16 626.01 68.16C624.986 68.16 624.074 68.4 623.274 68.88C622.506 69.328 621.882 69.968 621.402 70.8C620.954 71.632 620.73 72.576 620.73 73.632C620.73 74.656 620.954 75.584 621.402 76.416C621.882 77.216 622.522 77.856 623.322 78.336C624.122 78.816 625.018 79.056 626.01 79.056Z" fill="#FA5242"/>
<path d="M537.43 150C537.503 149.76 537.617 149.365 537.773 148.812C537.94 148.26 538.154 147.474 538.414 146.453C538.674 145.422 538.992 144.115 539.367 142.531C539.753 140.948 540.201 139 540.711 136.688C540.773 136.583 540.862 136.516 540.977 136.484C541.091 136.443 541.206 136.432 541.32 136.453C541.435 136.464 541.529 136.5 541.602 136.562C541.685 136.615 541.721 136.677 541.711 136.75L544.789 144.234L546.383 143.75C546.518 143.75 546.633 143.786 546.727 143.859C546.82 143.932 546.872 144.021 546.883 144.125C546.893 144.229 546.857 144.344 546.773 144.469C546.69 144.583 546.544 144.677 546.336 144.75C546.253 144.781 546.143 144.818 546.008 144.859C545.872 144.891 545.737 144.922 545.602 144.953C545.466 144.984 545.352 145.016 545.258 145.047C545.164 145.078 545.117 145.109 545.117 145.141L546.852 149.766C546.831 149.818 546.81 149.885 546.789 149.969C546.768 150.042 546.727 150.099 546.664 150.141C546.602 150.193 546.508 150.208 546.383 150.188C546.258 150.177 546.081 150.104 545.852 149.969L544.055 145.375C543.836 145.438 543.565 145.5 543.242 145.562C542.919 145.615 542.581 145.672 542.227 145.734C541.872 145.786 541.513 145.854 541.148 145.938C540.794 146.01 540.466 146.104 540.164 146.219C539.862 146.333 539.607 146.474 539.398 146.641C539.19 146.797 539.065 146.99 539.023 147.219C539.003 147.365 538.961 147.604 538.898 147.938C538.846 148.271 538.794 148.604 538.742 148.938C538.68 149.333 538.607 149.76 538.523 150.219C538.336 150.406 538.164 150.469 538.008 150.406C537.862 150.344 537.669 150.208 537.43 150ZM541.352 138.406L539.695 145.359C539.872 145.297 540.117 145.229 540.43 145.156C540.742 145.083 541.081 145.005 541.445 144.922C541.81 144.839 542.174 144.755 542.539 144.672C542.914 144.589 543.253 144.5 543.555 144.406L541.352 138.406ZM546.008 140.938C546.018 140.823 546.055 140.734 546.117 140.672C546.18 140.599 546.253 140.552 546.336 140.531C546.419 140.51 546.508 140.51 546.602 140.531C546.695 140.552 546.784 140.594 546.867 140.656L549.258 148.203C549.779 146.651 550.18 145.406 550.461 144.469C550.742 143.521 550.945 142.792 551.07 142.281C551.206 141.76 551.284 141.411 551.305 141.234C551.336 141.047 551.357 140.943 551.367 140.922C551.44 140.693 551.534 140.552 551.648 140.5C551.773 140.448 551.888 140.453 551.992 140.516C552.096 140.578 552.18 140.677 552.242 140.812C552.315 140.938 552.336 141.062 552.305 141.188L549.758 149.922C549.727 149.984 549.664 150.026 549.57 150.047C549.477 150.078 549.378 150.089 549.273 150.078C549.18 150.078 549.086 150.057 548.992 150.016C548.909 149.984 548.852 149.943 548.82 149.891L546.008 140.938ZM553.477 145.828C553.404 145.891 553.273 145.917 553.086 145.906C552.909 145.885 552.742 145.844 552.586 145.781C552.44 145.719 552.341 145.635 552.289 145.531C552.237 145.417 552.299 145.286 552.477 145.141C552.549 145.078 552.628 145.036 552.711 145.016C552.805 144.984 552.893 144.958 552.977 144.938C553.07 144.906 553.143 144.865 553.195 144.812C553.258 144.76 553.294 144.677 553.305 144.562C553.315 144.094 553.352 143.615 553.414 143.125C553.487 142.635 553.617 142.198 553.805 141.812C553.992 141.427 554.258 141.12 554.602 140.891C554.956 140.661 555.419 140.573 555.992 140.625C556.201 140.625 556.435 140.677 556.695 140.781C556.956 140.875 557.206 141.005 557.445 141.172C557.685 141.328 557.893 141.521 558.07 141.75C558.247 141.969 558.357 142.208 558.398 142.469C558.471 142.573 558.43 142.703 558.273 142.859C558.117 143.016 557.898 143.193 557.617 143.391C557.336 143.578 557.018 143.771 556.664 143.969C556.31 144.167 555.966 144.354 555.633 144.531C555.31 144.708 555.023 144.865 554.773 145C554.523 145.135 554.362 145.229 554.289 145.281C554.352 145.688 554.419 146.115 554.492 146.562C554.565 147.01 554.669 147.422 554.805 147.797C554.94 148.172 555.107 148.484 555.305 148.734C555.513 148.974 555.773 149.094 556.086 149.094C556.544 149.125 556.935 149.057 557.258 148.891C557.591 148.724 557.867 148.505 558.086 148.234C558.305 147.964 558.477 147.667 558.602 147.344C558.737 147.021 558.836 146.714 558.898 146.422C558.971 146.13 559.018 145.885 559.039 145.688C559.07 145.479 559.096 145.365 559.117 145.344C559.232 145.281 559.362 145.281 559.508 145.344C559.654 145.396 559.737 145.547 559.758 145.797C559.768 146.203 559.68 146.667 559.492 147.188C559.305 147.708 559.044 148.188 558.711 148.625C558.388 149.062 557.997 149.417 557.539 149.688C557.091 149.948 556.612 150.036 556.102 149.953C555.57 149.943 555.148 149.792 554.836 149.5C554.523 149.198 554.273 148.839 554.086 148.422C553.909 147.995 553.779 147.547 553.695 147.078C553.612 146.609 553.539 146.193 553.477 145.828ZM557.57 142.469C557.237 142.01 556.898 141.719 556.555 141.594C556.211 141.469 555.857 141.432 555.492 141.484C555.273 141.516 555.081 141.62 554.914 141.797C554.747 141.964 554.612 142.182 554.508 142.453C554.404 142.714 554.331 143.01 554.289 143.344C554.247 143.667 554.242 144 554.273 144.344L557.57 142.469ZM560.398 149.703C560.367 148.266 560.341 147.047 560.32 146.047C560.299 145.047 560.284 144.219 560.273 143.562C560.263 142.906 560.253 142.396 560.242 142.031C560.242 141.656 560.237 141.38 560.227 141.203C560.227 141.026 560.227 140.922 560.227 140.891C560.227 140.849 560.227 140.823 560.227 140.812C560.237 140.719 560.284 140.641 560.367 140.578C560.451 140.516 560.539 140.479 560.633 140.469C560.737 140.448 560.836 140.458 560.93 140.5C561.023 140.542 561.091 140.609 561.133 140.703L561.18 144.297C561.336 143.578 561.586 142.979 561.93 142.5C562.284 142.021 562.68 141.646 563.117 141.375C563.555 141.094 564.008 140.911 564.477 140.828C564.956 140.745 565.398 140.74 565.805 140.812C565.94 140.844 566.039 140.901 566.102 140.984C566.174 141.068 566.211 141.161 566.211 141.266C566.221 141.359 566.195 141.453 566.133 141.547C566.081 141.63 566.008 141.693 565.914 141.734C565.445 141.703 565.003 141.745 564.586 141.859C564.18 141.964 563.805 142.125 563.461 142.344C563.128 142.552 562.831 142.802 562.57 143.094C562.32 143.385 562.122 143.693 561.977 144.016C561.758 144.484 561.607 144.979 561.523 145.5C561.451 146.01 561.404 146.521 561.383 147.031C561.372 147.542 561.372 148.026 561.383 148.484C561.404 148.943 561.409 149.344 561.398 149.688C561.388 149.802 561.336 149.891 561.242 149.953C561.159 150.005 561.06 150.031 560.945 150.031C560.841 150.042 560.732 150.021 560.617 149.969C560.513 149.906 560.44 149.818 560.398 149.703ZM570.602 149.844C570.456 149.625 570.362 149.339 570.32 148.984C570.289 148.63 570.268 148.26 570.258 147.875C570.258 147.479 570.258 147.094 570.258 146.719C570.268 146.333 570.242 146.005 570.18 145.734C569.69 146.807 569.227 147.646 568.789 148.25C568.362 148.844 567.966 149.271 567.602 149.531C567.247 149.781 566.924 149.896 566.633 149.875C566.341 149.844 566.091 149.74 565.883 149.562C565.685 149.375 565.529 149.151 565.414 148.891C565.299 148.62 565.237 148.365 565.227 148.125C565.154 147.729 565.148 147.255 565.211 146.703C565.284 146.141 565.404 145.562 565.57 144.969C565.747 144.375 565.966 143.797 566.227 143.234C566.497 142.661 566.799 142.167 567.133 141.75C567.477 141.333 567.841 141.026 568.227 140.828C568.612 140.62 569.013 140.583 569.43 140.719C569.638 140.698 569.81 140.708 569.945 140.75C570.091 140.781 570.211 140.854 570.305 140.969C570.398 141.083 570.466 141.245 570.508 141.453C570.549 141.651 570.581 141.906 570.602 142.219C570.581 143.229 570.607 144.089 570.68 144.797C570.763 145.505 570.857 146.13 570.961 146.672C571.065 147.214 571.164 147.703 571.258 148.141C571.362 148.578 571.424 149.031 571.445 149.5C571.445 149.667 571.404 149.797 571.32 149.891C571.237 149.974 571.143 150.026 571.039 150.047C570.935 150.078 570.836 150.073 570.742 150.031C570.659 149.99 570.612 149.927 570.602 149.844ZM569.695 141.953C569.445 141.62 569.174 141.479 568.883 141.531C568.591 141.583 568.299 141.766 568.008 142.078C567.727 142.38 567.456 142.781 567.195 143.281C566.935 143.771 566.711 144.297 566.523 144.859C566.336 145.422 566.195 145.984 566.102 146.547C566.018 147.099 566.003 147.589 566.055 148.016C566.201 148.484 566.378 148.766 566.586 148.859C566.794 148.953 567.018 148.922 567.258 148.766C567.497 148.599 567.742 148.339 567.992 147.984C568.242 147.63 568.482 147.25 568.711 146.844C568.94 146.427 569.143 146.016 569.32 145.609C569.508 145.193 569.659 144.844 569.773 144.562L569.695 141.953ZM573.086 154.047C573.857 154.005 574.513 153.839 575.055 153.547C575.596 153.266 576.044 152.891 576.398 152.422C576.753 151.953 577.018 151.406 577.195 150.781C577.372 150.156 577.487 149.479 577.539 148.75C577.57 148.281 577.586 147.87 577.586 147.516C577.596 147.151 577.591 146.823 577.57 146.531C577.56 146.229 577.544 145.943 577.523 145.672C577.503 145.401 577.482 145.12 577.461 144.828C577.44 144.536 577.419 144.224 577.398 143.891C577.388 143.547 577.383 143.156 577.383 142.719C576.883 144.188 576.414 145.37 575.977 146.266C575.539 147.161 575.128 147.839 574.742 148.297C574.367 148.755 574.023 149.031 573.711 149.125C573.409 149.219 573.143 149.203 572.914 149.078C572.685 148.943 572.497 148.729 572.352 148.438C572.206 148.135 572.107 147.828 572.055 147.516C572.076 146.995 572.174 146.422 572.352 145.797C572.529 145.161 572.763 144.542 573.055 143.938C573.346 143.323 573.685 142.755 574.07 142.234C574.456 141.703 574.872 141.281 575.32 140.969C575.768 140.656 576.227 140.479 576.695 140.438C577.174 140.396 577.654 140.557 578.133 140.922C578.143 140.911 578.154 141.026 578.164 141.266C578.185 141.505 578.206 141.828 578.227 142.234C578.258 142.641 578.284 143.115 578.305 143.656C578.336 144.188 578.367 144.745 578.398 145.328C578.43 145.911 578.456 146.495 578.477 147.078C578.508 147.661 578.539 148.203 578.57 148.703C578.581 149.672 578.435 150.562 578.133 151.375C577.831 152.188 577.424 152.875 576.914 153.438C576.414 154 575.836 154.411 575.18 154.672C574.534 154.932 573.867 154.995 573.18 154.859C573.148 154.859 573.096 154.839 573.023 154.797C572.961 154.755 572.909 154.698 572.867 154.625C572.836 154.552 572.831 154.464 572.852 154.359C572.872 154.266 572.951 154.161 573.086 154.047ZM572.883 147.531C572.997 147.906 573.148 148.094 573.336 148.094C573.523 148.083 573.732 147.948 573.961 147.688C574.201 147.417 574.451 147.052 574.711 146.594C574.971 146.135 575.232 145.635 575.492 145.094C575.763 144.542 576.023 143.984 576.273 143.422C576.523 142.849 576.758 142.323 576.977 141.844C576.977 141.719 576.945 141.604 576.883 141.5C576.831 141.385 576.706 141.349 576.508 141.391C576.185 141.453 575.867 141.615 575.555 141.875C575.253 142.125 574.966 142.432 574.695 142.797C574.424 143.151 574.174 143.547 573.945 143.984C573.727 144.411 573.539 144.844 573.383 145.281C573.227 145.708 573.102 146.12 573.008 146.516C572.924 146.911 572.883 147.25 572.883 147.531ZM579.883 145.828C579.81 145.891 579.68 145.917 579.492 145.906C579.315 145.885 579.148 145.844 578.992 145.781C578.846 145.719 578.747 145.635 578.695 145.531C578.643 145.417 578.706 145.286 578.883 145.141C578.956 145.078 579.034 145.036 579.117 145.016C579.211 144.984 579.299 144.958 579.383 144.938C579.477 144.906 579.549 144.865 579.602 144.812C579.664 144.76 579.701 144.677 579.711 144.562C579.721 144.094 579.758 143.615 579.82 143.125C579.893 142.635 580.023 142.198 580.211 141.812C580.398 141.427 580.664 141.12 581.008 140.891C581.362 140.661 581.826 140.573 582.398 140.625C582.607 140.625 582.841 140.677 583.102 140.781C583.362 140.875 583.612 141.005 583.852 141.172C584.091 141.328 584.299 141.521 584.477 141.75C584.654 141.969 584.763 142.208 584.805 142.469C584.878 142.573 584.836 142.703 584.68 142.859C584.523 143.016 584.305 143.193 584.023 143.391C583.742 143.578 583.424 143.771 583.07 143.969C582.716 144.167 582.372 144.354 582.039 144.531C581.716 144.708 581.43 144.865 581.18 145C580.93 145.135 580.768 145.229 580.695 145.281C580.758 145.688 580.826 146.115 580.898 146.562C580.971 147.01 581.076 147.422 581.211 147.797C581.346 148.172 581.513 148.484 581.711 148.734C581.919 148.974 582.18 149.094 582.492 149.094C582.951 149.125 583.341 149.057 583.664 148.891C583.997 148.724 584.273 148.505 584.492 148.234C584.711 147.964 584.883 147.667 585.008 147.344C585.143 147.021 585.242 146.714 585.305 146.422C585.378 146.13 585.424 145.885 585.445 145.688C585.477 145.479 585.503 145.365 585.523 145.344C585.638 145.281 585.768 145.281 585.914 145.344C586.06 145.396 586.143 145.547 586.164 145.797C586.174 146.203 586.086 146.667 585.898 147.188C585.711 147.708 585.451 148.188 585.117 148.625C584.794 149.062 584.404 149.417 583.945 149.688C583.497 149.948 583.018 150.036 582.508 149.953C581.977 149.943 581.555 149.792 581.242 149.5C580.93 149.198 580.68 148.839 580.492 148.422C580.315 147.995 580.185 147.547 580.102 147.078C580.018 146.609 579.945 146.193 579.883 145.828ZM583.977 142.469C583.643 142.01 583.305 141.719 582.961 141.594C582.617 141.469 582.263 141.432 581.898 141.484C581.68 141.516 581.487 141.62 581.32 141.797C581.154 141.964 581.018 142.182 580.914 142.453C580.81 142.714 580.737 143.01 580.695 143.344C580.654 143.667 580.648 144 580.68 144.344L583.977 142.469ZM595.039 148.875C595.237 149.031 595.477 149.115 595.758 149.125C596.049 149.135 596.352 149.099 596.664 149.016C596.987 148.922 597.31 148.792 597.633 148.625C597.966 148.448 598.268 148.255 598.539 148.047C598.82 147.839 599.06 147.62 599.258 147.391C599.466 147.151 599.607 146.927 599.68 146.719C599.753 146.5 599.747 146.302 599.664 146.125C599.581 145.948 599.393 145.807 599.102 145.703C598.57 145.828 598.039 145.927 597.508 146C596.977 146.073 596.497 146.073 596.07 146C595.654 145.927 595.315 145.755 595.055 145.484C594.794 145.214 594.674 144.797 594.695 144.234C594.727 143.693 594.872 143.188 595.133 142.719C595.404 142.24 595.742 141.833 596.148 141.5C596.565 141.167 597.023 140.911 597.523 140.734C598.034 140.557 598.549 140.484 599.07 140.516C599.174 140.526 599.268 140.536 599.352 140.547C599.445 140.547 599.529 140.562 599.602 140.594C599.674 140.625 599.727 140.672 599.758 140.734C599.799 140.797 599.815 140.891 599.805 141.016C599.794 141.172 599.737 141.297 599.633 141.391C599.529 141.484 599.388 141.521 599.211 141.5C598.596 141.375 598.044 141.401 597.555 141.578C597.065 141.755 596.659 142.005 596.336 142.328C596.013 142.641 595.784 142.995 595.648 143.391C595.513 143.786 595.492 144.146 595.586 144.469C595.784 144.844 596.039 145.083 596.352 145.188C596.674 145.281 597.013 145.312 597.367 145.281C597.732 145.25 598.102 145.198 598.477 145.125C598.852 145.042 599.19 145.016 599.492 145.047C599.794 145.068 600.044 145.182 600.242 145.391C600.44 145.589 600.549 145.958 600.57 146.5C600.56 146.844 600.445 147.177 600.227 147.5C600.008 147.812 599.727 148.109 599.383 148.391C599.049 148.661 598.674 148.911 598.258 149.141C597.841 149.359 597.424 149.542 597.008 149.688C596.602 149.833 596.216 149.932 595.852 149.984C595.497 150.036 595.211 150.031 594.992 149.969C594.753 149.76 594.628 149.557 594.617 149.359C594.607 149.151 594.747 148.99 595.039 148.875ZM601.242 146C601.273 145.573 601.31 145.141 601.352 144.703C601.393 144.266 601.456 143.844 601.539 143.438C601.622 143.021 601.732 142.63 601.867 142.266C602.003 141.901 602.174 141.583 602.383 141.312C602.602 141.042 602.862 140.828 603.164 140.672C603.477 140.516 603.846 140.443 604.273 140.453C604.565 140.453 604.789 140.578 604.945 140.828C605.102 141.068 605.211 141.359 605.273 141.703C605.346 142.047 605.383 142.401 605.383 142.766C605.393 143.13 605.398 143.427 605.398 143.656C605.242 143.719 605.107 143.719 604.992 143.656C604.888 143.594 604.799 143.495 604.727 143.359C604.664 143.214 604.607 143.047 604.555 142.859C604.503 142.672 604.456 142.484 604.414 142.297C604.383 142.109 604.341 141.932 604.289 141.766C604.247 141.599 604.195 141.464 604.133 141.359C603.945 141.276 603.763 141.302 603.586 141.438C603.409 141.573 603.247 141.771 603.102 142.031C602.956 142.281 602.82 142.583 602.695 142.938C602.581 143.292 602.482 143.651 602.398 144.016C602.315 144.37 602.247 144.714 602.195 145.047C602.143 145.38 602.117 145.661 602.117 145.891C602.128 146.203 602.159 146.542 602.211 146.906C602.263 147.26 602.346 147.594 602.461 147.906C602.576 148.219 602.727 148.49 602.914 148.719C603.102 148.938 603.341 149.078 603.633 149.141C604.029 149.141 604.362 149.078 604.633 148.953C604.914 148.818 605.143 148.651 605.32 148.453C605.508 148.245 605.654 148.016 605.758 147.766C605.862 147.516 605.945 147.266 606.008 147.016C606.07 146.755 606.117 146.516 606.148 146.297C606.19 146.068 606.232 145.88 606.273 145.734C606.544 145.661 606.753 145.667 606.898 145.75C607.055 145.833 607.133 145.932 607.133 146.047C607.133 146.526 607.049 147.005 606.883 147.484C606.716 147.953 606.477 148.375 606.164 148.75C605.862 149.125 605.492 149.427 605.055 149.656C604.617 149.885 604.122 150 603.57 150C603.102 150 602.716 149.854 602.414 149.562C602.112 149.26 601.872 148.901 601.695 148.484C601.529 148.068 601.409 147.63 601.336 147.172C601.273 146.714 601.242 146.323 601.242 146ZM609.617 149.938C609.201 149.885 608.857 149.719 608.586 149.438C608.326 149.156 608.117 148.812 607.961 148.406C607.805 148 607.701 147.557 607.648 147.078C607.607 146.589 607.596 146.109 607.617 145.641C607.648 144.922 607.779 144.234 608.008 143.578C608.247 142.922 608.539 142.354 608.883 141.875C609.237 141.385 609.622 141.01 610.039 140.75C610.466 140.479 610.883 140.375 611.289 140.438C611.716 140.5 612.06 140.703 612.32 141.047C612.591 141.391 612.799 141.812 612.945 142.312C613.091 142.812 613.18 143.359 613.211 143.953C613.242 144.536 613.237 145.099 613.195 145.641C613.143 146.255 613.008 146.828 612.789 147.359C612.57 147.891 612.294 148.349 611.961 148.734C611.638 149.12 611.268 149.422 610.852 149.641C610.445 149.849 610.034 149.948 609.617 149.938ZM611.133 141.328C610.789 141.286 610.466 141.396 610.164 141.656C609.872 141.906 609.607 142.245 609.367 142.672C609.138 143.089 608.945 143.568 608.789 144.109C608.633 144.641 608.529 145.167 608.477 145.688C608.435 146.062 608.419 146.448 608.43 146.844C608.44 147.24 608.487 147.599 608.57 147.922C608.664 148.245 608.805 148.51 608.992 148.719C609.19 148.917 609.451 149.016 609.773 149.016C610.034 149.026 610.305 148.938 610.586 148.75C610.878 148.562 611.148 148.312 611.398 148C611.648 147.677 611.867 147.312 612.055 146.906C612.253 146.5 612.383 146.083 612.445 145.656C612.518 145.208 612.534 144.75 612.492 144.281C612.461 143.802 612.383 143.359 612.258 142.953C612.143 142.547 611.987 142.198 611.789 141.906C611.602 141.604 611.383 141.411 611.133 141.328ZM613.945 149.703C613.914 148.266 613.888 147.047 613.867 146.047C613.846 145.047 613.831 144.219 613.82 143.562C613.81 142.906 613.799 142.396 613.789 142.031C613.789 141.656 613.784 141.38 613.773 141.203C613.773 141.026 613.773 140.922 613.773 140.891C613.773 140.849 613.773 140.823 613.773 140.812C613.784 140.719 613.831 140.641 613.914 140.578C613.997 140.516 614.086 140.479 614.18 140.469C614.284 140.448 614.383 140.458 614.477 140.5C614.57 140.542 614.638 140.609 614.68 140.703L614.727 144.297C614.883 143.578 615.133 142.979 615.477 142.5C615.831 142.021 616.227 141.646 616.664 141.375C617.102 141.094 617.555 140.911 618.023 140.828C618.503 140.745 618.945 140.74 619.352 140.812C619.487 140.844 619.586 140.901 619.648 140.984C619.721 141.068 619.758 141.161 619.758 141.266C619.768 141.359 619.742 141.453 619.68 141.547C619.628 141.63 619.555 141.693 619.461 141.734C618.992 141.703 618.549 141.745 618.133 141.859C617.727 141.964 617.352 142.125 617.008 142.344C616.674 142.552 616.378 142.802 616.117 143.094C615.867 143.385 615.669 143.693 615.523 144.016C615.305 144.484 615.154 144.979 615.07 145.5C614.997 146.01 614.951 146.521 614.93 147.031C614.919 147.542 614.919 148.026 614.93 148.484C614.951 148.943 614.956 149.344 614.945 149.688C614.935 149.802 614.883 149.891 614.789 149.953C614.706 150.005 614.607 150.031 614.492 150.031C614.388 150.042 614.279 150.021 614.164 149.969C614.06 149.906 613.987 149.818 613.945 149.703ZM620.117 145.828C620.044 145.891 619.914 145.917 619.727 145.906C619.549 145.885 619.383 145.844 619.227 145.781C619.081 145.719 618.982 145.635 618.93 145.531C618.878 145.417 618.94 145.286 619.117 145.141C619.19 145.078 619.268 145.036 619.352 145.016C619.445 144.984 619.534 144.958 619.617 144.938C619.711 144.906 619.784 144.865 619.836 144.812C619.898 144.76 619.935 144.677 619.945 144.562C619.956 144.094 619.992 143.615 620.055 143.125C620.128 142.635 620.258 142.198 620.445 141.812C620.633 141.427 620.898 141.12 621.242 140.891C621.596 140.661 622.06 140.573 622.633 140.625C622.841 140.625 623.076 140.677 623.336 140.781C623.596 140.875 623.846 141.005 624.086 141.172C624.326 141.328 624.534 141.521 624.711 141.75C624.888 141.969 624.997 142.208 625.039 142.469C625.112 142.573 625.07 142.703 624.914 142.859C624.758 143.016 624.539 143.193 624.258 143.391C623.977 143.578 623.659 143.771 623.305 143.969C622.951 144.167 622.607 144.354 622.273 144.531C621.951 144.708 621.664 144.865 621.414 145C621.164 145.135 621.003 145.229 620.93 145.281C620.992 145.688 621.06 146.115 621.133 146.562C621.206 147.01 621.31 147.422 621.445 147.797C621.581 148.172 621.747 148.484 621.945 148.734C622.154 148.974 622.414 149.094 622.727 149.094C623.185 149.125 623.576 149.057 623.898 148.891C624.232 148.724 624.508 148.505 624.727 148.234C624.945 147.964 625.117 147.667 625.242 147.344C625.378 147.021 625.477 146.714 625.539 146.422C625.612 146.13 625.659 145.885 625.68 145.688C625.711 145.479 625.737 145.365 625.758 145.344C625.872 145.281 626.003 145.281 626.148 145.344C626.294 145.396 626.378 145.547 626.398 145.797C626.409 146.203 626.32 146.667 626.133 147.188C625.945 147.708 625.685 148.188 625.352 148.625C625.029 149.062 624.638 149.417 624.18 149.688C623.732 149.948 623.253 150.036 622.742 149.953C622.211 149.943 621.789 149.792 621.477 149.5C621.164 149.198 620.914 148.839 620.727 148.422C620.549 147.995 620.419 147.547 620.336 147.078C620.253 146.609 620.18 146.193 620.117 145.828ZM624.211 142.469C623.878 142.01 623.539 141.719 623.195 141.594C622.852 141.469 622.497 141.432 622.133 141.484C621.914 141.516 621.721 141.62 621.555 141.797C621.388 141.964 621.253 142.182 621.148 142.453C621.044 142.714 620.971 143.01 620.93 143.344C620.888 143.667 620.883 144 620.914 144.344L624.211 142.469Z" fill="white"/>
<defs>
<linearGradient id="paint0_linear_2985_10005" x1="354" y1="0" x2="354" y2="203" gradientUnits="userSpaceOnUse">
<stop stop-color="#0F0F0F"/>
<stop offset="1" stop-color="#141414"/>
</linearGradient>
<linearGradient id="paint1_linear_2985_10005" x1="354" y1="0" x2="354" y2="203" gradientUnits="userSpaceOnUse">
<stop stop-color="white" stop-opacity="0.12"/>
<stop offset="1" stop-color="white" stop-opacity="0.04"/>
</linearGradient>
<linearGradient id="paint2_linear_2985_10005" x1="126" y1="24" x2="126" y2="179" gradientUnits="userSpaceOnUse">
<stop stop-color="#1B1B1B"/>
<stop offset="1" stop-color="#131313"/>
</linearGradient>
<linearGradient id="paint3_linear_2985_10005" x1="126" y1="24" x2="126" y2="179" gradientUnits="userSpaceOnUse">
<stop stop-color="white" stop-opacity="0.12"/>
<stop offset="1" stop-color="white" stop-opacity="0.04"/>
</linearGradient>
<linearGradient id="paint4_linear_2985_10005" x1="354" y1="24" x2="354" y2="179" gradientUnits="userSpaceOnUse">
<stop stop-color="#1B1B1B"/>
<stop offset="1" stop-color="#131313"/>
</linearGradient>
<linearGradient id="paint5_linear_2985_10005" x1="354" y1="24" x2="354" y2="179" gradientUnits="userSpaceOnUse">
<stop stop-color="white" stop-opacity="0.12"/>
<stop offset="1" stop-color="white" stop-opacity="0.04"/>
</linearGradient>
<linearGradient id="paint6_linear_2985_10005" x1="582" y1="24" x2="582" y2="179" gradientUnits="userSpaceOnUse">
<stop stop-color="#1B1B1B"/>
<stop offset="1" stop-color="#131313"/>
</linearGradient>
<linearGradient id="paint7_linear_2985_10005" x1="582" y1="24" x2="582" y2="179" gradientUnits="userSpaceOnUse">
<stop stop-color="white" stop-opacity="0.12"/>
<stop offset="1" stop-color="white" stop-opacity="0.04"/>
</linearGradient>
</defs>
</svg>
