<svg width="3802" height="235" viewBox="0 0 3802 235" fill="none" xmlns="http://www.w3.org/2000/svg">
<path d="M1934.76 227.473C1916.88 224.274 1904.64 223.833 1901 224C1829 224 1774.44 231.273 1692.14 234.473C1589.27 238.472 1539.4 218.475 1466.66 216.475C1393.92 214.475 1352.36 224.474 1290.53 227.473C1228.71 230.473 1186.63 211.475 1068.69 209.975C950.752 208.476 973.612 221.974 843.207 227.473C712.801 232.973 708.125 212.975 632.791 213.975C557.457 214.975 540.312 223.974 466.017 227.473C391.722 230.973 272.746 209.476 186.502 223.974C100.257 238.472 56.0961 231.473 33.7557 227.473C15.8833 224.274 3.63681 223.833 0 224V0.00390579L1901 0H3802V224C3730 224 3675.44 231.273 3593.14 234.473C3490.27 238.472 3440.4 218.475 3367.66 216.475C3294.92 214.475 3253.36 224.474 3191.53 227.473C3129.71 230.473 3087.63 211.475 2969.69 209.975C2851.75 208.476 2874.61 221.974 2744.21 227.473C2613.8 232.973 2609.12 212.975 2533.79 213.975C2458.46 214.975 2441.31 223.974 2367.02 227.473C2292.72 230.973 2173.75 209.476 2087.5 223.974C2001.26 238.472 1957.1 231.473 1934.76 227.473Z" fill="#081870"/>
</svg>
