<svg width="3798" height="170" viewBox="0 0 3798 170" fill="none" xmlns="http://www.w3.org/2000/svg">
<path d="M0 149.5V0H1899H3798V149.5C3741.5 140 3742.79 137.9 3669.32 141.5C3577.49 146 3568.67 128 3488.25 126.5C3407.82 125 3391.22 158.5 3217.4 162C3043.59 165.5 3005.19 108.5 2870.29 112C2735.39 115.5 2697.51 163 2546.01 169C2394.5 175 2407.48 133 2331.72 126C2255.97 119 2201.79 155.02 2129.5 164C2049 174 2008.5 165.5 1899 149.5C1847.5 141 1843.79 137.9 1770.32 141.5C1678.49 146 1669.67 128 1589.25 126.5C1508.82 125 1492.22 158.5 1318.4 162C1144.59 165.5 1106.19 108.5 971.292 112C836.39 115.5 798.514 163 647.009 169C495.504 175 508.475 133 432.723 126C356.97 119 302.792 155.02 230.5 164C150 174 109.5 165.5 0 149.5Z" fill="#142AA8"/>
</svg>
