<svg width="2188" height="700" viewBox="0 0 2188 700" fill="none" xmlns="http://www.w3.org/2000/svg">
<g clip-path="url(#clip0_3038_18991)">
<path fill-rule="evenodd" clip-rule="evenodd" d="M1792.8 515C1928.53 515 2043.4 593 2080.97 700.2H1504.76C1542.2 593 1656.96 515 1792.8 515Z" fill="#9966FF"/>
<path fill-rule="evenodd" clip-rule="evenodd" d="M2055.15 648.101C2065.75 664.401 2074.51 681.901 2080.85 700.201H1517.89C1559.6 599.401 1670.79 527.301 1801.21 527.301C1908.02 527.301 2001.69 575.501 2055.15 648.101Z" fill="#321791"/>
<path fill-rule="evenodd" clip-rule="evenodd" d="M2037.87 645.3C2045.82 657.5 2052.28 686.6 2057.11 700.2H1637.49C1658.69 649 1686.8 667.7 1744.3 646.5C1771.14 636.6 1817.69 571.3 1848.68 571.3C1878.41 571.3 1907.45 589.3 1933.37 598.4C1976.92 613.7 2012.87 611.4 2037.87 645.3ZM1723.21 556.2C1725.63 556.2 1727.7 557.9 1727.7 560.2C1727.7 562.4 1725.63 564.2 1723.21 564.2C1720.68 564.2 1718.72 562.4 1718.72 560.2C1718.72 558 1720.68 556.2 1723.21 556.2ZM1806.4 542.5C1809.39 542.5 1811.7 544.6 1811.7 547.1C1811.7 549.7 1809.39 551.8 1806.4 551.8C1803.52 551.8 1801.1 549.7 1801.1 547.1C1801.21 544.6 1803.52 542.5 1806.4 542.5ZM1785.31 563.3C1789.35 563.3 1792.69 566.2 1792.69 569.7C1792.69 573.2 1789.46 576.1 1785.31 576.1C1781.28 576.1 1778.06 573.2 1778.06 569.7C1777.94 566.2 1781.28 563.3 1785.31 563.3ZM1661.34 625.9C1667.45 625.9 1672.4 630.3 1672.4 635.7C1672.4 641.1 1667.45 645.5 1661.34 645.5C1655.12 645.5 1650.16 641.1 1650.16 635.7C1650.28 630.3 1655.23 625.9 1661.34 625.9ZM1606.03 622.6C1618.82 622.6 1629.19 631.7 1629.19 643C1629.19 654.2 1618.82 663.4 1606.03 663.4C1593.24 663.4 1582.88 654.3 1582.88 643C1582.99 631.7 1593.36 622.6 1606.03 622.6Z" fill="#220B78"/>
<path fill-rule="evenodd" clip-rule="evenodd" d="M-1.14844 -142C103.585 -71.5 171.103 38.7 171.103 162.7C171.103 286.6 103.585 396.9 -1.14844 467.4V-142Z" fill="#9966FF"/>
<path fill-rule="evenodd" clip-rule="evenodd" d="M-1.14844 427V-136.1C85.6111 -65.7996 139.764 34.3004 139.764 145.4C139.764 256.5 85.6111 356.7 -1.14844 427Z" fill="#003399"/>
<path fill-rule="evenodd" clip-rule="evenodd" d="M-1.14844 303.2V-116.4C20.5126 -98.8004 53.3499 -73.5004 68.0979 -50.9004C92.409 -13.8004 79.9654 11.2996 79.9654 56.9996C79.9654 84.0996 108.77 147.1 101.857 173.8C89.9894 219.6 74.8958 276.3 -1.14844 303.2Z" fill="#082C73"/>
</g>
<defs>
<clipPath id="clip0_3038_18991">
<rect width="2188" height="700" fill="white"/>
</clipPath>
</defs>
</svg>
