<svg width="1899" height="700" viewBox="0 0 1899 700" fill="none" xmlns="http://www.w3.org/2000/svg">
<path fill-rule="evenodd" clip-rule="evenodd" d="M1684.5 377C1685.9 377 1687 375.9 1687 374.5C1687 373.1 1685.9 372 1684.5 372C1683.1 372 1682 373.1 1682 374.5C1682 375.9 1683.1 377 1684.5 377Z" fill="#7E91FB"/>
<path fill-rule="evenodd" clip-rule="evenodd" d="M1577.5 287C1578.9 287 1580 285.9 1580 284.5C1580 283.1 1578.9 282 1577.5 282C1576.1 282 1575 283.1 1575 284.5C1575 285.9 1576.1 287 1577.5 287Z" fill="#7E91FB"/>
<path fill-rule="evenodd" clip-rule="evenodd" d="M1226.5 317C1227.9 317 1229 315.9 1229 314.5C1229 313.1 1227.9 312 1226.5 312C1225.1 312 1224 313.1 1224 314.5C1224 315.9 1225.1 317 1226.5 317Z" fill="#7E91FB"/>
<path fill-rule="evenodd" clip-rule="evenodd" d="M1178 434C1179.4 434 1180.5 432.9 1180.5 431.5C1180.5 430.1 1179.4 429 1178 429C1176.6 429 1175.5 430.1 1175.5 431.5C1175.5 432.9 1176.6 434 1178 434Z" fill="#7E91FB"/>
<path fill-rule="evenodd" clip-rule="evenodd" d="M1060.5 274C1061.9 274 1063 272.9 1063 271.5C1063 270.1 1061.9 269 1060.5 269C1059.1 269 1058 270.1 1058 271.5C1058 272.9 1059.1 274 1060.5 274Z" fill="#7E91FB"/>
<path fill-rule="evenodd" clip-rule="evenodd" d="M698.5 269C699.9 269 701 267.9 701 266.5C701 265.1 699.9 264 698.5 264C697.1 264 696 265.1 696 266.5C696 267.9 697.1 269 698.5 269Z" fill="#7E91FB"/>
<path fill-rule="evenodd" clip-rule="evenodd" d="M663.5 289C664.9 289 666 287.9 666 286.5C666 285.1 664.9 284 663.5 284C662.1 284 661 285.1 661 286.5C661 287.9 662.1 289 663.5 289Z" fill="#7E91FB"/>
<path fill-rule="evenodd" clip-rule="evenodd" d="M491.5 257C492.9 257 494 255.9 494 254.5C494 253.1 492.9 252 491.5 252C490.1 252 489 253.1 489 254.5C489 255.9 490.1 257 491.5 257Z" fill="#7E91FB"/>
<path fill-rule="evenodd" clip-rule="evenodd" d="M621.5 429C622.9 429 624 427.9 624 426.5C624 425.1 622.9 424 621.5 424C620.1 424 619 425.1 619 426.5C619 427.9 620.1 429 621.5 429Z" fill="#7E91FB"/>
<path fill-rule="evenodd" clip-rule="evenodd" d="M393.5 418C394.9 418 396 416.9 396 415.5C396 414.1 394.9 413 393.5 413C392.1 413 391 414.1 391 415.5C391 416.9 392.1 418 393.5 418Z" fill="#7E91FB"/>
<path fill-rule="evenodd" clip-rule="evenodd" d="M335.5 429C336.9 429 338 427.9 338 426.5C338 425.1 336.9 424 335.5 424C334.1 424 333 425.1 333 426.5C333 427.9 334.1 429 335.5 429Z" fill="#7E91FB"/>
<path fill-rule="evenodd" clip-rule="evenodd" d="M361.5 290C362.9 290 364 288.9 364 287.5C364 286.1 362.9 285 361.5 285C360.1 285 359 286.1 359 287.5C359 288.9 360.1 290 361.5 290Z" fill="#7E91FB"/>
<path fill-rule="evenodd" clip-rule="evenodd" d="M124.5 257C125.9 257 127 255.9 127 254.5C127 253.1 125.9 252 124.5 252C123.1 252 122 253.1 122 254.5C122 255.9 123.1 257 124.5 257Z" fill="#7E91FB"/>
<path fill-rule="evenodd" clip-rule="evenodd" d="M16.5 444C17.9 444 19 442.9 19 441.5C19 440.1 17.9 439 16.5 439C15.1 439 14 440.1 14 441.5C14 442.9 15.1 444 16.5 444Z" fill="#7E91FB"/>
<path fill-rule="evenodd" clip-rule="evenodd" d="M1852.5 260C1853.9 260 1855 258.9 1855 257.5C1855 256.1 1853.9 255 1852.5 255C1851.1 255 1850 256.1 1850 257.5C1850 258.9 1851.1 260 1852.5 260Z" fill="#7E91FB"/>
<path fill-rule="evenodd" clip-rule="evenodd" d="M1787.5 295C1788.9 295 1790 293.9 1790 292.5C1790 291.1 1788.9 290 1787.5 290C1786.1 290 1785 291.1 1785 292.5C1785 293.9 1786.1 295 1787.5 295Z" fill="#7E91FB"/>
<path fill-rule="evenodd" clip-rule="evenodd" d="M1700 449C1701.4 449 1702.5 447.9 1702.5 446.5C1702.5 445.1 1701.4 444 1700 444C1698.6 444 1697.5 445.1 1697.5 446.5C1697.5 447.9 1698.6 449 1700 449Z" fill="#7E91FB"/>
</svg>
