<svg width="156" height="156" viewBox="0 0 156 156" fill="none" xmlns="http://www.w3.org/2000/svg">
<path d="M143.337 0C148.192 3.66877 152.467 8.06427 156 13.0254V81.9736C145.214 97.1205 127.511 107 107.5 107C74.6391 107 48 80.3609 48 47.5C48 28.0956 57.2894 10.8614 71.6631 0H143.337Z" fill="black"/>
<path d="M156 2.09815e-06L156.001 155.5L155.996 155.5C155.998 155.334 156 155.167 156 155C156 128.49 134.51 107.001 108 107.001L108 0L156 2.09815e-06Z" fill="black"/>
<path d="M155.5 0L0 -0.000976562L0 0.00390625C26.5084 0.00390625 47.9969 21.4921 47.999 48L155.5 48V0Z" fill="black"/>
<rect x="60" y="0.0273438" width="96" height="96" rx="48" fill="#CEB7FF"/>
<path fill-rule="evenodd" clip-rule="evenodd" d="M97.3948 38.2988C95.738 38.2988 94.3948 36.9557 94.3948 35.2988C94.3948 33.642 95.738 32.2988 97.3948 32.2988H117.729C121.043 32.2988 123.729 34.9851 123.729 38.2988L123.729 58.6333C123.729 60.2902 122.386 61.6334 120.729 61.6333C119.072 61.6334 117.729 60.2902 117.729 58.6334L117.729 42.5416L97.3948 62.8762C96.2232 64.0478 94.3237 64.0478 93.1521 62.8762C91.9805 61.7046 91.9805 59.8051 93.1521 58.6336L113.487 38.2988L97.3948 38.2988Z" fill="black"/>
</svg>
