<svg width="84" height="30" viewBox="0 0 84 30" fill="none" xmlns="http://www.w3.org/2000/svg">
<path d="M29.794 29.999C28.9513 29.999 28.1348 29.6549 27.4811 29.0197C26.8118 28.3691 26.3325 27.4325 26.0957 26.3102L22.8792 11.0786C22.672 10.0958 22.2156 9.65496 21.8769 9.65839C21.5217 9.66353 21.053 10.1395 20.8639 11.1711L19.5664 18.2458C19.3822 19.2483 18.99 20.1309 18.4318 20.7978C17.8381 21.5066 17.0924 21.9475 16.2742 22.0725C15.5408 22.1847 14.8074 22.0297 14.1537 21.6248C13.5214 21.2336 13.0026 20.6369 12.6096 19.8518C11.225 17.085 9.07651 15.4336 6.86227 15.4336H1.38791C0.6216 15.4344 0 14.7872 0 13.9902C0 13.1923 0.6216 12.5451 1.38791 12.5451H6.86309C8.50507 12.5451 10.1355 13.1127 11.5785 14.1871C12.9615 15.217 14.1694 16.7143 15.0713 18.518C15.3098 18.9949 15.6091 19.2551 15.8714 19.2149C16.2142 19.1627 16.6648 18.6679 16.8408 17.7048L18.1382 10.63C18.3421 9.51799 18.7878 8.5703 19.4266 7.88971C20.0926 7.18087 20.9486 6.78279 21.8382 6.76995C22.7188 6.75796 23.5748 7.12265 24.249 7.79982C24.8961 8.44959 25.359 9.36817 25.5892 10.458L28.8057 25.6886C29.017 26.6894 29.4775 27.126 29.8171 27.1089C30.2397 27.0866 30.733 26.4711 30.8588 25.3394L33.189 4.32753C33.328 3.07593 33.7555 2.00753 34.4256 1.23705C35.1196 0.439173 36.0339 0 37 0C37.9661 0 38.8804 0.439173 39.5744 1.23705C40.2445 2.00753 40.6729 3.07678 40.811 4.32753L43.1412 25.3394C43.267 26.472 43.7603 27.0866 44.1829 27.1089C44.52 27.1269 44.983 26.6903 45.1943 25.6886L48.4108 10.458C48.641 9.36817 49.1048 8.44873 49.751 7.79982C50.4252 7.12265 51.2804 6.75711 52.1618 6.76995C53.0506 6.78279 53.9074 7.18087 54.5734 7.88971C55.2122 8.5703 55.6579 9.51799 55.8618 10.63L57.1592 17.7048C57.336 18.667 57.7858 19.1627 58.1286 19.2149C58.3909 19.2551 58.6902 18.9949 58.9287 18.518C59.8315 16.7143 61.0393 15.217 62.4215 14.1871C63.8645 13.1127 65.4949 12.5451 67.1369 12.5451H72.6121C73.3784 12.5451 74 13.1923 74 13.9902C74 14.7881 73.3784 15.4353 72.6121 15.4353H67.1369C64.9227 15.4353 62.7742 17.0867 61.3896 19.8535C60.9966 20.6386 60.4777 21.2344 59.8454 21.6265C59.1918 22.0314 58.4584 22.1864 57.7249 22.0742C56.9076 21.9492 56.1611 21.5084 55.5674 20.7995C55.0091 20.1326 54.6161 19.25 54.4328 18.2475L53.1353 11.1728C52.9462 10.1404 52.4775 9.66524 52.1223 9.6601C52.1207 9.6601 52.119 9.6601 52.1166 9.6601C51.7803 9.6601 51.3264 10.1027 51.12 11.0804L47.9035 26.311C47.6667 27.4333 47.1873 28.3699 46.518 29.0205C45.8216 29.6968 44.9418 30.0436 44.0415 29.9956C42.4505 29.9117 40.7025 28.542 40.3843 25.6715L38.0541 4.65969C37.925 3.49798 37.4259 2.89015 37 2.89015C36.5733 2.89015 36.0742 3.49798 35.9459 4.65969L33.6157 25.6715C33.2975 28.542 31.5495 29.9117 29.9585 29.9956C29.9034 29.9973 29.8483 29.999 29.794 29.999Z" fill="white"/>
</svg>
